<svg width="18" height="18" viewBox="0 0 18 18" fill="none" xmlns="http://www.w3.org/2000/svg">
<path d="M6.56333 17.0625C5.99065 17.0625 5.50359 16.862 5.10214 16.4612C4.70071 16.0603 4.5 15.5735 4.5 15.0008C4.5 14.4281 4.70044 13.9411 5.10131 13.5397C5.50219 13.1382 5.98896 12.9375 6.56164 12.9375C7.13431 12.9375 7.62137 13.1379 8.02281 13.5388C8.42424 13.9397 8.62496 14.4265 8.62496 14.9991C8.62496 15.5718 8.42453 16.0589 8.02365 16.4603C7.62278 16.8617 7.136 17.0625 6.56333 17.0625ZM6.56248 15.9375C6.82306 15.9375 7.04446 15.8464 7.22668 15.6642C7.40889 15.4819 7.5 15.2605 7.5 15C7.5 14.7394 7.40889 14.518 7.22668 14.3358C7.04446 14.1536 6.82306 14.0625 6.56248 14.0625C6.30191 14.0625 6.08051 14.1536 5.89828 14.3358C5.71607 14.518 5.62496 14.7394 5.62496 15C5.62496 15.2606 5.71607 15.482 5.89828 15.6642C6.08051 15.8464 6.30191 15.9375 6.56248 15.9375Z" fill="#484848"/>
<path d="M9.46873 17.0624C9.60046 16.8855 9.70622 16.7064 9.78602 16.5252C9.86583 16.3439 9.93218 16.148 9.98505 15.9375H11.7115V10.5C11.7115 10.0359 11.5463 9.63865 11.2158 9.30818C10.8853 8.9777 10.4881 8.81246 10.024 8.81246H6.37496V11.4519C6.18459 11.4567 5.99133 11.4781 5.79518 11.5161C5.59903 11.5541 5.4173 11.6086 5.25 11.6798V7.6875H7.5H8.62496H10.024C10.8009 7.6875 11.4639 7.96202 12.0129 8.51106C12.562 9.06008 12.8365 9.72306 12.8365 10.5V17.0625L9.46873 17.0624Z" fill="#484848"/>
<path fill-rule="evenodd" clip-rule="evenodd" d="M5.25 3.375C5.25 2.85723 5.66973 2.4375 6.1875 2.4375H11.1088C11.5751 2.4375 11.9897 2.78654 12.0319 3.27846C12.0658 3.67317 12.1091 4.42398 11.9876 4.99254C11.709 6.29652 10.4973 7.15198 9.38919 7.69214C8.24325 8.25073 7.00563 8.56967 6.36799 8.71121C5.77096 8.84374 5.25 8.37797 5.25 7.80548V3.375ZM6.375 3.5625V7.55486C7.01182 7.40143 7.99571 7.11986 8.89625 6.68089C9.96345 6.16067 10.7265 5.51045 10.8874 4.75746C10.9578 4.42792 10.9502 3.94453 10.9252 3.5625H6.375Z" fill="#484848"/>
<path fill-rule="evenodd" clip-rule="evenodd" d="M6.1875 2.25C6.39461 2.25 6.5625 2.08211 6.5625 1.875C6.5625 1.66789 6.39461 1.5 6.1875 1.5C5.98039 1.5 5.8125 1.66789 5.8125 1.875C5.8125 2.08211 5.98039 2.25 6.1875 2.25ZM6.1875 3C6.80882 3 7.3125 2.49632 7.3125 1.875C7.3125 1.25368 6.80882 0.75 6.1875 0.75C5.56618 0.75 5.0625 1.25368 5.0625 1.875C5.0625 2.49632 5.56618 3 6.1875 3Z" fill="#484848"/>
<path fill-rule="evenodd" clip-rule="evenodd" d="M8.4375 2.25C8.64461 2.25 8.8125 2.08211 8.8125 1.875C8.8125 1.66789 8.64461 1.5 8.4375 1.5C8.23039 1.5 8.0625 1.66789 8.0625 1.875C8.0625 2.08211 8.23039 2.25 8.4375 2.25ZM8.4375 3C9.05882 3 9.5625 2.49632 9.5625 1.875C9.5625 1.25368 9.05882 0.75 8.4375 0.75C7.81618 0.75 7.3125 1.25368 7.3125 1.875C7.3125 2.49632 7.81618 3 8.4375 3Z" fill="#484848"/>
<path fill-rule="evenodd" clip-rule="evenodd" d="M10.6875 2.25C10.8946 2.25 11.0625 2.08211 11.0625 1.875C11.0625 1.66789 10.8946 1.5 10.6875 1.5C10.4804 1.5 10.3125 1.66789 10.3125 1.875C10.3125 2.08211 10.4804 2.25 10.6875 2.25ZM10.6875 3C11.3088 3 11.8125 2.49632 11.8125 1.875C11.8125 1.25368 11.3088 0.75 10.6875 0.75C10.0662 0.75 9.5625 1.25368 9.5625 1.875C9.5625 2.49632 10.0662 3 10.6875 3Z" fill="#484848"/>
<path fill-rule="evenodd" clip-rule="evenodd" d="M14.3574 5.53941L13.2324 7.41441L12.2677 6.8356L13.3927 4.9606L14.3574 5.53941Z" fill="#484848"/>
<path fill-rule="evenodd" clip-rule="evenodd" d="M15.2914 8.39866L13.3797 9.45995L12.8336 8.47635L14.7454 7.41505L15.2914 8.39866Z" fill="#484848"/>
</svg>
