<svg width="18" height="19" viewBox="0 0 18 19" fill="none" xmlns="http://www.w3.org/2000/svg">
<path d="M8.99173 13.7115C9.20588 13.7115 9.38676 13.6376 9.53436 13.4897C9.68194 13.3418 9.75574 13.1608 9.75574 12.9467C9.75574 12.7325 9.68181 12.5517 9.53394 12.4041C9.38608 12.2565 9.20508 12.1827 8.99093 12.1827C8.77678 12.1827 8.59591 12.2566 8.44832 12.4045C8.30072 12.5523 8.22692 12.7333 8.22692 12.9475C8.22692 13.1616 8.30085 13.3425 8.44871 13.4901C8.59658 13.6377 8.77758 13.7115 8.99173 13.7115ZM8.46056 11.0259H9.51632C9.52593 10.6567 9.58002 10.3618 9.67858 10.1411C9.77713 9.92042 10.0163 9.62788 10.3961 9.26345C10.7259 8.93364 10.9786 8.62907 11.1541 8.34974C11.3295 8.07042 11.4173 7.74055 11.4173 7.36014C11.4173 6.7146 11.1853 6.21034 10.7214 5.84735C10.2574 5.48438 9.70864 5.30289 9.07498 5.30289C8.44903 5.30289 7.93101 5.46996 7.52091 5.80409C7.11082 6.13822 6.81827 6.53172 6.64327 6.98459L7.60671 7.37113C7.69806 7.12209 7.85431 6.87954 8.07546 6.64349C8.29662 6.40743 8.62499 6.2894 9.06056 6.2894C9.50384 6.2894 9.83148 6.4108 10.0435 6.6536C10.2555 6.89639 10.3615 7.16346 10.3615 7.45481C10.3615 7.70961 10.2889 7.94278 10.1437 8.15431C9.99854 8.36585 9.81345 8.57018 9.58845 8.76731C9.09615 9.21153 8.78509 9.56586 8.65528 9.83028C8.52547 10.0947 8.46056 10.4933 8.46056 11.0259ZM9.00124 16.625C8.01579 16.625 7.08951 16.438 6.22241 16.064C5.3553 15.69 4.60104 15.1824 3.95963 14.5413C3.3182 13.9001 2.81041 13.1462 2.43624 12.2795C2.06208 11.4128 1.875 10.4867 1.875 9.50124C1.875 8.51579 2.062 7.58951 2.436 6.72241C2.81 5.8553 3.31756 5.10104 3.95869 4.45963C4.59983 3.8182 5.35376 3.31041 6.22048 2.93624C7.08719 2.56208 8.01328 2.375 8.99873 2.375C9.98418 2.375 10.9105 2.562 11.7776 2.936C12.6447 3.31 13.3989 3.81756 14.0403 4.45869C14.6818 5.09983 15.1896 5.85376 15.5637 6.72048C15.9379 7.5872 16.125 8.51328 16.125 9.49873C16.125 10.4842 15.938 11.4105 15.564 12.2776C15.19 13.1447 14.6824 13.8989 14.0413 14.5403C13.4001 15.1818 12.6462 15.6896 11.7795 16.0637C10.9128 16.4379 9.98669 16.625 9.00124 16.625ZM8.99998 15.5C10.675 15.5 12.0937 14.9187 13.2562 13.7562C14.4187 12.5937 15 11.175 15 9.49998C15 7.82498 14.4187 6.40623 13.2562 5.24373C12.0937 4.08123 10.675 3.49998 8.99998 3.49998C7.32498 3.49998 5.90623 4.08123 4.74373 5.24373C3.58123 6.40623 2.99998 7.82498 2.99998 9.49998C2.99998 11.175 3.58123 12.5937 4.74373 13.7562C5.90623 14.9187 7.32498 15.5 8.99998 15.5Z" fill="#9B9B9B"/>
</svg>
