<svg width="19" height="20" viewBox="0 0 19 20" fill="none" xmlns="http://www.w3.org/2000/svg">
<path d="M12.9731 14.5269L14.0269 13.4731L10.25 9.6959V4.99998H8.75V10.3038L12.9731 14.5269ZM9.50165 19.5C8.18772 19.5 6.95268 19.2506 5.79655 18.752C4.6404 18.2533 3.63472 17.5765 2.7795 16.7217C1.92427 15.8669 1.24721 14.8616 0.748325 13.706C0.249442 12.5504 0 11.3156 0 10.0017C0 8.68772 0.249333 7.45268 0.748 6.29655C1.24667 5.1404 1.92342 4.13472 2.77825 3.2795C3.6331 2.42427 4.63834 1.74721 5.79398 1.24833C6.94959 0.749443 8.18437 0.5 9.4983 0.5C10.8122 0.5 12.0473 0.749334 13.2034 1.248C14.3596 1.74667 15.3652 2.42342 16.2205 3.27825C17.0757 4.1331 17.7527 5.13834 18.2516 6.29398C18.7505 7.44959 19 8.68437 19 9.9983C19 11.3122 18.7506 12.5473 18.252 13.7034C17.7533 14.8596 17.0765 15.8652 16.2217 16.7205C15.3669 17.5757 14.3616 18.2527 13.206 18.7516C12.0504 19.2505 10.8156 19.5 9.50165 19.5ZM9.49998 18C11.7166 18 13.6041 17.2208 15.1625 15.6625C16.7208 14.1041 17.5 12.2166 17.5 9.99998C17.5 7.78331 16.7208 5.89581 15.1625 4.33748C13.6041 2.77914 11.7166 1.99998 9.49998 1.99998C7.28331 1.99998 5.39581 2.77914 3.83748 4.33748C2.27914 5.89581 1.49998 7.78331 1.49998 9.99998C1.49998 12.2166 2.27914 14.1041 3.83748 15.6625C5.39581 17.2208 7.28331 18 9.49998 18Z" fill="#484848"/>
</svg>
