<svg width="30" height="30" viewBox="0 0 30 30" fill="none" xmlns="http://www.w3.org/2000/svg">
<rect width="30" height="30" rx="15" fill="#F7F7F7"/>
<path d="M15.0014 21.3346C14.1255 21.3346 13.3021 21.1684 12.5314 20.8359C11.7606 20.5035 11.0901 20.0523 10.52 19.4824C9.94984 18.9125 9.49846 18.2424 9.16588 17.472C8.83329 16.7015 8.66699 15.8784 8.66699 15.0024C8.66699 14.1264 8.83321 13.3031 9.16566 12.5323C9.4981 11.7616 9.94927 11.0911 10.5192 10.521C11.0891 9.95081 11.7592 9.49944 12.5296 9.16685C13.3001 8.83426 14.1232 8.66797 14.9992 8.66797C15.8751 8.66797 16.6985 8.83419 17.4693 9.16664C18.24 9.49908 18.9105 9.95025 19.4806 10.5201C20.0508 11.09 20.5022 11.7602 20.8347 12.5306C21.1673 13.301 21.3336 14.1242 21.3336 15.0002C21.3336 15.8761 21.1674 16.6995 20.835 17.4702C20.5025 18.241 20.0513 18.9115 19.4815 19.4816C18.9116 20.0518 18.2414 20.5031 17.471 20.8357C16.7006 21.1683 15.8774 21.3346 15.0014 21.3346ZM15.0003 20.3346C15.6258 20.3346 16.2281 20.2288 16.8072 20.0173C17.3864 19.8058 17.9157 19.4996 18.3952 19.0987L10.9029 11.6064C10.5063 12.0859 10.2012 12.6152 9.98749 13.1944C9.77381 13.7735 9.66698 14.3758 9.66698 15.0013C9.66698 16.4902 10.1836 17.7513 11.217 18.7846C12.2503 19.818 13.5114 20.3346 15.0003 20.3346ZM19.0977 18.3962C19.4986 17.9167 19.8048 17.3874 20.0163 16.8082C20.2279 16.2291 20.3336 15.6268 20.3336 15.0013C20.3336 13.5124 19.817 12.2513 18.7836 11.218C17.7503 10.1846 16.4892 9.66795 15.0003 9.66795C14.3733 9.66795 13.7696 9.77265 13.189 9.98205C12.6085 10.1915 12.0806 10.4987 11.6054 10.9039L19.0977 18.3962Z" fill="#484848"/>
</svg>
