<svg width="284" height="192" viewBox="0 0 284 192" fill="none" xmlns="http://www.w3.org/2000/svg">
<path opacity="0.6" d="M141.739 162.935C183.451 162.935 217.265 159.77 217.265 155.866C217.265 151.962 183.451 148.797 141.739 148.797C100.028 148.797 66.2135 151.962 66.2135 155.866C66.2135 159.77 100.028 162.935 141.739 162.935Z" fill="#FAE6E5"/>
<path d="M110.09 83.5969L111.286 74.7969H174.309V83.5969H110.09Z" fill="#F8B4B4"/>
<path d="M172.34 72.6094H160.461V67.0376C160.459 65.847 159.987 64.7055 159.148 63.8636C158.308 63.0217 157.17 62.5482 155.982 62.5469H128.815C127.628 62.5482 126.49 63.0218 125.65 63.8636C124.811 64.7055 124.338 65.847 124.337 67.0376V72.6094H112.458C111.271 72.6108 110.133 73.0845 109.293 73.9263C108.454 74.7682 107.982 75.9096 107.98 77.1001V84.1101C107.98 84.4913 108.131 84.8569 108.4 85.1265C108.669 85.3961 109.034 85.5475 109.414 85.5476H113.647L115.653 132.902C115.312 138.271 119.004 143.05 124.561 143.047H160.237C162.519 143.052 164.715 142.17 166.363 140.586C168.011 139.002 168.983 136.839 169.075 134.552L171.151 85.5475H175.384C175.764 85.5474 176.129 85.396 176.397 85.1264C176.666 84.8568 176.817 84.4912 176.817 84.11V77.1001C176.816 75.9096 176.344 74.7682 175.505 73.9263C174.665 73.0845 173.527 72.6108 172.34 72.6094ZM127.204 67.0376C127.205 66.6093 127.375 66.1986 127.677 65.8957C127.979 65.5928 128.388 65.4224 128.815 65.4219H155.982C156.41 65.4224 156.819 65.5929 157.121 65.8957C157.423 66.1986 157.593 66.6093 157.594 67.0376V72.6094H127.204V67.0376ZM166.211 134.43C166.148 135.976 165.491 137.438 164.377 138.508C163.264 139.579 161.779 140.175 160.237 140.172H124.561C123.018 140.175 121.534 139.579 120.42 138.508C119.306 137.438 118.649 135.976 118.587 134.43L116.516 85.5476H168.282L166.211 134.43ZM173.95 82.6726C169.207 82.6726 115.594 82.6726 110.847 82.6726V77.1001C110.848 76.6718 111.017 76.2612 111.319 75.9583C111.621 75.6554 112.031 75.485 112.458 75.4844C112.458 75.4844 163.474 75.4842 172.34 75.4844C172.767 75.485 173.176 75.6554 173.478 75.9583C173.78 76.2612 173.95 76.6718 173.95 77.1001V82.6726Z" fill="#484848"/>
<path d="M129.63 133.206C129.824 133.206 130.016 133.167 130.194 133.09C130.373 133.014 130.534 132.902 130.668 132.761C130.802 132.62 130.906 132.454 130.974 132.272C131.042 132.09 131.072 131.895 131.063 131.701L129.298 93.8847C129.273 93.5084 129.103 93.1567 128.823 92.9053C128.542 92.6539 128.175 92.523 127.799 92.5406C127.424 92.5583 127.07 92.7232 126.815 92.9999C126.559 93.2765 126.422 93.6426 126.433 94.0195L128.199 131.836C128.217 132.205 128.375 132.553 128.641 132.808C128.908 133.063 129.262 133.206 129.63 133.206Z" fill="#484848"/>
<path d="M155.099 133.205C155.479 133.222 155.85 133.088 156.131 132.832C156.412 132.575 156.58 132.217 156.598 131.836L158.364 94.0198C158.382 93.6389 158.248 93.2665 157.992 92.9846C157.736 92.7026 157.379 92.5342 156.999 92.5163C156.621 92.5046 156.253 92.6409 155.974 92.8963C155.694 93.1518 155.524 93.5063 155.5 93.885L153.734 131.702C153.725 131.89 153.754 132.079 153.818 132.256C153.881 132.434 153.979 132.597 154.106 132.737C154.233 132.876 154.386 132.99 154.556 133.07C154.727 133.15 154.911 133.196 155.099 133.205Z" fill="#484848"/>
<path d="M142.399 133.207C142.779 133.207 143.144 133.056 143.413 132.786C143.681 132.516 143.832 132.151 143.832 131.77V93.9531C143.832 93.5719 143.681 93.2062 143.413 92.9367C143.144 92.6671 142.779 92.5156 142.399 92.5156C142.019 92.5156 141.654 92.6671 141.385 92.9367C141.116 93.2062 140.965 93.5719 140.965 93.9531V131.77C140.965 132.151 141.117 132.516 141.385 132.786C141.654 133.056 142.019 133.207 142.399 133.207Z" fill="#484848"/>
<path d="M178.389 46.1301C179.924 50.3628 184.602 52.551 188.838 51.0174C193.074 49.4839 195.264 44.8096 193.729 40.5763C192.195 36.3436 187.517 34.1554 183.28 35.6889C179.044 37.2225 176.854 41.8967 178.389 46.1301ZM190.968 41.5757C191.95 44.2847 190.548 47.2768 187.837 48.258C185.126 49.2393 182.132 47.8389 181.15 45.1299C180.168 42.421 181.569 39.4289 184.28 38.4476C186.991 37.4664 189.986 38.8668 190.968 41.5757Z" fill="#FAE6E5"/>
<path d="M79.4111 75.9522C80.0558 74.1736 79.1354 72.2095 77.3554 71.5652C75.5754 70.921 73.6098 71.8407 72.9651 73.6193C72.3204 75.398 73.2407 77.3621 75.0207 78.0063C76.8007 78.6505 78.7664 77.7309 79.4111 75.9522Z" fill="#D43228"/>
<path d="M94.1877 121.784C96.5528 120.372 97.3226 117.3 95.9063 114.923C94.4896 112.546 91.424 111.764 89.059 113.175C86.6935 114.588 85.9241 117.659 87.3404 120.036C88.7571 122.413 91.8222 123.196 94.1877 121.784ZM89.9821 114.725C91.496 113.821 93.458 114.322 94.3643 115.843C95.2705 117.364 94.7785 119.33 93.2646 120.234C91.7507 121.137 89.7887 120.636 88.8824 119.115C87.9762 117.594 88.4683 115.628 89.9821 114.725Z" fill="#FAE6E5"/>
<path d="M194.903 122.859C196.64 122.121 197.447 120.107 196.705 118.362C195.963 116.616 193.952 115.8 192.214 116.538C190.476 117.277 189.669 119.29 190.412 121.035C191.154 122.781 193.165 123.597 194.903 122.859Z" fill="#D43228"/>
<path d="M107.76 47.203L111.326 42.3963L115.63 45.584L117.053 43.6649L112.748 40.4773L116.314 35.6705L114.596 34.3984L111.031 39.2051L106.727 36.0182L105.303 37.9365L109.608 41.1242L106.042 45.9309L107.76 47.203Z" fill="#484848"/>
<path d="M204.288 89.6015L207.854 84.7947L212.158 87.9824L213.581 86.0634L209.277 82.8757L212.842 78.069L211.124 76.7969L207.559 81.6036L203.255 78.4166L201.832 80.335L206.136 83.5226L202.57 88.3293L204.288 89.6015Z" fill="#484848"/>
</svg>
