<svg width="18" height="18" viewBox="0 0 18 18" fill="none" xmlns="http://www.w3.org/2000/svg">
<path d="M15.2419 13.5562C14.6449 13.2607 14.0086 13.0523 13.3524 12.9374C12.7788 12.9703 12.2366 13.2101 11.8264 13.6124C11.603 13.8101 11.3437 13.9629 11.0625 14.0624C10.7702 13.9649 10.5002 13.8103 10.2682 13.6074C9.86464 13.2379 9.35569 13.0036 8.8125 12.9374C8.34624 12.9794 7.9122 13.1931 7.59469 13.5371C7.32949 13.8365 6.96064 14.0242 6.5625 14.0624C6.34763 14.0624 6.34538 14.0574 6.22219 13.811C6.11938 13.5413 5.93344 13.3113 5.69125 13.1542C5.44906 12.9972 5.16319 12.9213 4.875 12.9374C4.72582 12.9374 4.58274 12.9967 4.47725 13.1022C4.37176 13.2077 4.3125 13.3508 4.3125 13.4999C4.3125 13.6491 4.37176 13.7922 4.47725 13.8977C4.58274 14.0032 4.72582 14.0624 4.875 14.0624C5.08987 14.0624 5.09212 14.0675 5.21531 14.3139C5.31812 14.5836 5.50406 14.8136 5.74625 14.9707C5.98844 15.1277 6.27431 15.2036 6.5625 15.1874C7.23097 15.157 7.86249 14.872 8.32762 14.3909C8.5065 14.2374 8.71069 14.0624 8.8125 14.0624C9.10482 14.1599 9.37481 14.3146 9.60675 14.5175C10.0104 14.887 10.5193 15.1212 11.0625 15.1874C11.6005 15.1203 12.1032 14.8839 12.498 14.5124C12.7309 14.3381 13.1061 14.0495 13.2726 14.0585C13.7884 14.1615 14.2882 14.3329 14.7587 14.5681C14.8907 14.6186 15.037 14.6175 15.1683 14.5651C15.2995 14.5126 15.4063 14.4127 15.4672 14.2851C15.5281 14.1575 15.5387 14.0117 15.497 13.8766C15.4552 13.7415 15.3642 13.6271 15.2419 13.5562Z" fill="#484848"/>
<path d="M4.875 11.2499C5.08987 11.2499 5.09212 11.255 5.21531 11.5014C5.31812 11.7711 5.50406 12.0011 5.74625 12.1582C5.98844 12.3152 6.27431 12.3911 6.5625 12.3749C7.23097 12.3445 7.86249 12.0595 8.32762 11.5784C8.5065 11.4249 8.71069 11.2499 8.8125 11.2499C9.10482 11.3474 9.37481 11.5021 9.60675 11.705C10.0104 12.0745 10.5193 12.3087 11.0625 12.3749C11.6005 12.3078 12.1032 12.0714 12.498 11.6999C12.7309 11.5256 13.1061 11.2398 13.2726 11.246C13.7884 11.349 14.2882 11.5204 14.7587 11.7556C14.8907 11.8061 15.037 11.805 15.1683 11.7526C15.2995 11.7001 15.4063 11.6002 15.4672 11.4726C15.5281 11.345 15.5387 11.1992 15.497 11.0641C15.4552 10.929 15.3642 10.8146 15.2419 10.7437C14.6449 10.4482 14.0086 10.2398 13.3524 10.1249C12.7786 10.1568 12.236 10.3968 11.8264 10.7999C11.603 10.9976 11.3437 11.1504 11.0625 11.2499C10.7702 11.1524 10.5002 10.9978 10.2682 10.7949C9.86464 10.4254 9.35569 10.1911 8.8125 10.1249C8.34624 10.1669 7.9122 10.3806 7.59469 10.7246C7.32949 11.024 6.96064 11.2117 6.5625 11.2499C6.34763 11.2499 6.34538 11.2449 6.22219 10.9985C6.11938 10.7288 5.93344 10.4988 5.69125 10.3417C5.44906 10.1847 5.16319 10.1088 4.875 10.1249C4.72582 10.1249 4.58274 10.1842 4.47725 10.2897C4.37176 10.3952 4.3125 10.5383 4.3125 10.6874C4.3125 10.8366 4.37176 10.9797 4.47725 11.0852C4.58274 11.1907 4.72582 11.2499 4.875 11.2499Z" fill="#484848"/>
<path d="M13.5 3.9375H2.8125C2.66332 3.9375 2.52024 3.99676 2.41475 4.10225C2.30926 4.20774 2.25 4.35082 2.25 4.5V15.1875C2.25 15.3367 2.30926 15.4798 2.41475 15.5852C2.52024 15.6907 2.66332 15.75 2.8125 15.75C2.96168 15.75 3.10476 15.6907 3.21025 15.5852C3.31574 15.4798 3.375 15.3367 3.375 15.1875V5.0625H4.5V15.1875C4.5 15.3367 4.55926 15.4798 4.66475 15.5852C4.77024 15.6907 4.91332 15.75 5.0625 15.75C5.21168 15.75 5.35476 15.6907 5.46025 15.5852C5.56574 15.4798 5.625 15.3367 5.625 15.1875V6.75H13.5C13.6492 6.75 13.7923 6.69074 13.8977 6.58525C14.0032 6.47976 14.0625 6.33668 14.0625 6.1875V4.5C14.0625 4.35082 14.0032 4.20774 13.8977 4.10225C13.7923 3.99676 13.6492 3.9375 13.5 3.9375ZM12.9375 5.625H5.625V5.0625H12.9375V5.625Z" fill="#484848"/>
</svg>
