<svg width="16" height="16" viewBox="0 0 16 16" fill="none" xmlns="http://www.w3.org/2000/svg">
<path d="M8.5625 5.23081L7.43032 5.23081L7.43032 8.64764L6.0428 7.26014L5.25965 8.04329L7.9928 10.7764L10.7332 8.04329L9.95002 7.26014L8.5625 8.64764L8.5625 5.23081ZM7.99876 0.875034C8.98421 0.875034 9.91049 1.06204 10.7776 1.43604C11.6447 1.81004 12.399 2.3176 13.0404 2.95872C13.6818 3.59986 14.1896 4.35379 14.5638 5.22052C14.9379 6.08723 15.125 7.01331 15.125 7.99876C15.125 8.98421 14.938 9.91049 14.564 10.7776C14.19 11.6447 13.6824 12.399 13.0413 13.0404C12.4002 13.6818 11.6462 14.1896 10.7795 14.5638C9.91281 14.9379 8.98672 15.125 8.00127 15.125C7.01582 15.125 6.08955 14.938 5.22245 14.564C4.35534 14.19 3.60107 13.6824 2.95966 13.0413C2.31824 12.4002 1.81044 11.6462 1.43628 10.7795C1.06212 9.9128 0.875037 8.98672 0.875037 8.00127C0.875037 7.01582 1.06204 6.08955 1.43604 5.22245C1.81004 4.35534 2.3176 3.60107 2.95872 2.95966C3.59986 2.31823 4.35379 1.81044 5.22052 1.43628C6.08723 1.06212 7.01331 0.875034 7.99876 0.875034ZM8.00002 2.00002C6.32502 2.00002 4.90627 2.58127 3.74377 3.74377C2.58127 4.90627 2.00002 6.32502 2.00002 8.00002C2.00002 9.67502 2.58127 11.0938 3.74377 12.2563C4.90627 13.4188 6.32502 14 8.00002 14C9.67502 14 11.0938 13.4188 12.2563 12.2563C13.4188 11.0938 14 9.67502 14 8.00002C14 6.32502 13.4188 4.90627 12.2563 3.74377C11.0938 2.58127 9.67502 2.00002 8.00002 2.00002Z" fill="#4CAF50"/>
</svg>
