<svg width="16" height="16" viewBox="0 0 16 16" fill="none" xmlns="http://www.w3.org/2000/svg">
<path d="M3.33299 12.6653H4.17401L10.9984 5.84096L10.1574 4.99995L3.33299 11.8243V12.6653ZM2.33301 13.6653V11.4089L11.1266 2.61921C11.2274 2.52765 11.3387 2.45689 11.4605 2.40695C11.5824 2.357 11.7101 2.33203 11.8438 2.33203C11.9774 2.33203 12.1069 2.35575 12.2322 2.4032C12.3575 2.45063 12.4684 2.52605 12.565 2.62946L13.3791 3.45381C13.4825 3.55039 13.5563 3.66153 13.6003 3.78722C13.6443 3.91289 13.6663 4.03857 13.6663 4.16425C13.6663 4.2983 13.6434 4.42624 13.5976 4.54805C13.5518 4.66987 13.479 4.78119 13.3791 4.882L4.58939 13.6653H2.33301ZM10.5705 5.42783L10.1574 4.99995L10.9984 5.84096L10.5705 5.42783Z" fill="#484848"/>
</svg>
