<svg width="19" height="16" viewBox="0 0 19 16" fill="none" xmlns="http://www.w3.org/2000/svg">
<path d="M15.1538 15.6538C14.2169 15.6538 13.425 15.3303 12.7781 14.6834C12.1312 14.0365 11.8077 13.2446 11.8077 12.3077C11.8077 11.3707 12.1312 10.5788 12.7781 9.93192C13.425 9.285 14.2169 8.96154 15.1538 8.96154C16.0907 8.96154 16.8826 9.285 17.5296 9.93192C18.1765 10.5788 18.5 11.3707 18.5 12.3077C18.5 13.2446 18.1765 14.0365 17.5296 14.6834C16.8826 15.3303 16.0907 15.6538 15.1538 15.6538ZM15.1529 14.1538C15.6625 14.1538 16.0977 13.9737 16.4586 13.6134C16.8195 13.2532 17 12.8183 17 12.3086C17 11.799 16.8199 11.3638 16.4596 11.0029C16.0994 10.642 15.6644 10.4615 15.1548 10.4615C14.6452 10.4615 14.2099 10.6416 13.849 11.0019C13.4881 11.3621 13.3077 11.7971 13.3077 12.3067C13.3077 12.8163 13.4878 13.2516 13.848 13.6125C14.2083 13.9734 14.6432 14.1538 15.1529 14.1538ZM2 13.0576V11.5577H9.61538V13.0576H2ZM3.84613 7.03844C2.90923 7.03844 2.11731 6.71498 1.47037 6.06807C0.823458 5.42115 0.5 4.62923 0.5 3.69232C0.5 2.7554 0.823458 1.96348 1.47037 1.31657C2.11731 0.66965 2.90923 0.346191 3.84613 0.346191C4.78304 0.346191 5.57496 0.66965 6.22188 1.31657C6.86879 1.96348 7.19225 2.7554 7.19225 3.69232C7.19225 4.62923 6.86879 5.42115 6.22188 6.06807C5.57496 6.71498 4.78304 7.03844 3.84613 7.03844ZM3.84518 5.53847C4.35479 5.53847 4.79005 5.35834 5.15095 4.99809C5.51185 4.63784 5.6923 4.20291 5.6923 3.69329C5.6923 3.18366 5.51218 2.74839 5.15193 2.38749C4.79168 2.02659 4.35673 1.84614 3.8471 1.84614C3.33748 1.84614 2.90223 2.02627 2.54133 2.38654C2.18043 2.74679 1.99998 3.18172 1.99998 3.69134C1.99998 4.20096 2.1801 4.63622 2.54035 4.99712C2.9006 5.35802 3.33554 5.53847 3.84518 5.53847ZM9.38458 4.44229V2.94234H17V4.44229H9.38458Z" fill="#484848"/>
</svg>
