<svg width="18" height="18" viewBox="0 0 18 18" fill="none" xmlns="http://www.w3.org/2000/svg">
<path d="M13.4075 3.23956L12.0381 2.38075H12.5453C12.788 2.38075 12.9847 2.18402 12.9847 1.94136C12.9847 1.69869 12.788 1.50196 12.5453 1.50196C10.0369 1.50193 11.2586 1.5 8.74971 1.5C8.50705 1.5 8.31032 1.69673 8.31032 1.93939V2.51335H7.81356C5.92379 2.51335 4.38635 4.05076 4.38635 5.94056V16.0606C4.38635 16.3033 4.58308 16.5 4.82575 16.5C5.06841 16.5 5.26514 16.3033 5.26514 16.0606V5.94056C5.26514 4.53536 6.40836 3.39217 7.81353 3.39217H8.31029V4.20164C7.30555 4.69887 6.64933 5.73612 6.64933 6.87334V13.8051C6.64933 13.8054 6.64939 13.8058 6.64939 13.8062V15.6098C6.64939 16.0994 7.04768 16.4977 7.53726 16.4977H11.7198C12.2094 16.4977 12.6077 16.0994 12.6077 15.6098C12.6077 15.3344 12.6077 6.99659 12.6077 6.87337C12.6077 5.73513 11.9513 4.69781 10.9467 4.20167V2.73366L12.9405 3.98408C13.1461 4.11299 13.4173 4.05088 13.5463 3.84527C13.6752 3.6397 13.6131 3.3685 13.4075 3.23956ZM9.6285 3.89417C9.48073 3.89417 9.31784 3.90727 9.18911 3.92634V2.37882C9.18911 2.37882 9.15152 2.38075 10.0679 2.38075V3.9264C9.93747 3.90706 9.77542 3.89417 9.6285 3.89417ZM11.7289 10.4753H10.6538V7.66315H11.7289V10.4753ZM11.7198 15.6188H7.53729C7.53228 15.6188 7.52821 15.6148 7.52821 15.6098V14.2444H11.7289V15.6098C11.7289 15.6148 11.7248 15.6188 11.7198 15.6188ZM11.7268 6.78437H10.3707C10.0422 6.78437 9.77501 7.05158 9.77501 7.38003V10.7585C9.77501 11.087 10.0422 11.3542 10.3707 11.3542H11.7289V13.3656H7.52815V6.87334C7.52815 5.73832 8.44792 4.77299 9.6285 4.77299C10.7681 4.77299 11.6796 5.67706 11.7268 6.78437Z" fill="#484848"/>
</svg>
