<svg width="24" height="25" viewBox="0 0 24 25" fill="none" xmlns="http://www.w3.org/2000/svg">
<rect x="0.5" y="1" width="23" height="23" rx="11.5" fill="#4CAF50" fill-opacity="0.2"/>
<rect x="0.5" y="1" width="23" height="23" rx="11.5" stroke="#4CAF50"/>
<path d="M12.0208 7.16684C11.313 6.31071 11.9681 5.50736 12.384 5.2127C13.2708 5.74954 14.3277 8.24261 14.4998 9.66553C14.672 11.0884 13.0692 11.7932 11.8248 11.7883C10.5803 11.7834 10.4047 11.2494 9.69706 10.3577C9.13098 9.64435 9.94321 8.04754 10.4201 7.33831L10.4159 8.40497C10.4124 9.29385 11.1235 9.29665 11.8346 9.29946C12.5457 9.30226 12.9054 8.23701 12.0208 7.16684Z" fill="#4CAF50"/>
<path fill-rule="evenodd" clip-rule="evenodd" d="M6.13666 11.5879C6.13696 11.5106 6.19986 11.4482 6.27714 11.4485L17.3098 11.4921C17.5044 11.4928 17.6622 11.6499 17.664 11.8444L17.3084 11.8476C17.664 11.8444 17.664 11.8448 17.664 11.8448L17.664 11.8454L17.664 11.8468L17.664 11.8512L17.664 11.8658C17.6639 11.8781 17.6637 11.8955 17.6631 11.9177C17.6621 11.962 17.6599 12.0255 17.6551 12.1054C17.6456 12.2649 17.6258 12.4907 17.585 12.7606C17.5036 13.2986 17.3368 14.0216 16.9932 14.748C16.6491 15.4755 16.1232 16.2151 15.3206 16.7696C14.5151 17.3261 13.4533 17.6804 12.066 17.6699C10.5329 17.6582 9.37753 17.294 8.51251 16.7328C7.64811 16.1721 7.09617 15.4294 6.74582 14.6961C6.39658 13.9651 6.24584 13.2403 6.18158 12.7016C6.14934 12.4314 6.13858 12.2055 6.13594 12.0457C6.13462 11.9658 6.13533 11.9022 6.13643 11.8576C6.13698 11.8353 6.13762 11.8177 6.13816 11.8053L6.13886 11.7904L6.13911 11.7859L6.13919 11.7844L6.13923 11.7839L6.13595 11.7657L6.13666 11.5879ZM6.85071 12.1619C6.8559 12.2866 6.86666 12.4411 6.88769 12.6174C6.94582 13.1047 7.08132 13.7487 7.38746 14.3895C7.69247 15.0279 8.16502 15.6598 8.89952 16.1362C9.63341 16.6123 10.6514 16.948 12.0713 16.9588C13.3283 16.9683 14.2437 16.6493 14.9165 16.1845C15.5922 15.7177 16.0457 15.0881 16.3504 14.4439C16.6557 13.7986 16.8072 13.1474 16.8819 12.6542C16.9083 12.4799 16.9249 12.3266 16.9353 12.2017L6.85071 12.1619Z" fill="#484848"/>
<path fill-rule="evenodd" clip-rule="evenodd" d="M11.9693 14.9191C12.1657 14.9199 12.3242 15.0797 12.3235 15.2761L12.3057 19.79C12.3049 19.9863 12.1451 20.1449 11.9487 20.1441C11.7524 20.1433 11.5938 19.9835 11.5946 19.7872L11.6124 15.2733C11.6131 15.0769 11.773 14.9184 11.9693 14.9191Z" fill="#484848"/>
<path fill-rule="evenodd" clip-rule="evenodd" d="M13.769 16.7519C13.9128 16.6181 14.1377 16.6263 14.2715 16.7701L16.6299 19.3055C16.7637 19.4493 16.7555 19.6743 16.6118 19.808C16.468 19.9418 16.243 19.9337 16.1093 19.7899L13.7508 17.2544C13.6171 17.1106 13.6252 16.8856 13.769 16.7519Z" fill="#484848"/>
<path fill-rule="evenodd" clip-rule="evenodd" d="M10.0843 16.7371C10.2271 16.8719 10.2336 17.0969 10.0988 17.2397L7.72311 19.7566C7.58832 19.8994 7.36329 19.9058 7.22049 19.7711C7.07769 19.6363 7.0712 19.4112 7.20599 19.2684L9.58166 16.7516C9.71645 16.6088 9.94148 16.6023 10.0843 16.7371Z" fill="#484848"/>
<path fill-rule="evenodd" clip-rule="evenodd" d="M12.3641 5.62784C12.242 5.68565 12.1056 5.77346 12.0232 5.89486C11.9689 5.97492 11.9333 6.07609 11.949 6.2196C11.9657 6.37152 12.0428 6.59292 12.2611 6.89515L12.2647 6.90008L12.2681 6.90513C12.6735 7.50867 12.8244 8.12149 12.7252 8.63769C12.6237 9.16665 12.2581 9.56967 11.7213 9.6729L11.7099 9.67511L11.6983 9.67655C11.2477 9.73294 10.8751 9.66009 10.5886 9.46038C10.3045 9.26225 10.1549 8.97392 10.0792 8.69721C10.0743 8.67943 10.0697 8.66158 10.0654 8.64367C9.96226 8.98255 9.90792 9.39147 9.9728 9.85973L9.97337 9.86383C10.0359 10.3578 10.2188 10.6697 10.4367 10.8743C10.6598 11.0838 10.9454 11.2048 11.2464 11.2683C11.5474 11.3318 11.8468 11.334 12.0751 11.3187C12.1882 11.3112 12.2811 11.2995 12.3448 11.29C12.3765 11.2852 12.4007 11.281 12.4163 11.2781C12.4241 11.2767 12.4297 11.2756 12.433 11.275L12.4356 11.2744L12.4361 11.2743L12.4518 11.271L12.467 11.2692L12.4677 11.2691L12.4686 11.269C12.4705 11.2687 12.4741 11.2682 12.4794 11.2675C12.49 11.2659 12.507 11.2632 12.5296 11.259C12.5749 11.2506 12.6419 11.2364 12.7235 11.214C12.888 11.1688 13.1049 11.092 13.3205 10.9661C13.7425 10.7199 14.1546 10.2941 14.1804 9.5137C14.1889 9.25787 14.1072 8.90565 13.9493 8.48909C13.7942 8.08008 13.5781 7.64079 13.3478 7.22183C12.9759 6.5452 12.5768 5.9395 12.3641 5.62784ZM12.5684 11.9731C12.5622 11.9743 12.5543 11.9758 12.5448 11.9776C12.5221 11.9817 12.4902 11.9872 12.4502 11.9932C12.3704 12.0052 12.2579 12.0192 12.1225 12.0282C11.854 12.0462 11.485 12.0454 11.0996 11.9641C10.7142 11.8828 10.2955 11.7173 9.94992 11.3927C9.59957 11.0637 9.34956 10.5948 9.26813 9.95528C9.06057 8.45121 9.83736 7.4367 10.1109 7.13174M12.5684 11.9731C12.5729 11.9725 12.5783 11.9717 12.5844 11.9708C12.6027 11.968 12.6279 11.964 12.6591 11.9582C12.7215 11.9466 12.8084 11.9281 12.9119 11.8997C13.1176 11.8432 13.3957 11.7456 13.6789 11.5803C14.2543 11.2445 14.8552 10.622 14.8912 9.53722C14.9043 9.13916 14.7825 8.68091 14.6142 8.237C14.443 7.78552 14.2101 7.31431 13.971 6.87927C13.4934 6.01037 12.9756 5.25845 12.8293 5.05033C12.7152 4.88622 12.5108 4.81775 12.3207 4.88029L12.0772 4.96037L12.0772 4.97692C11.8738 5.07092 11.6132 5.23265 11.4348 5.49556C11.2908 5.70772 11.207 5.97658 11.2421 6.29707C11.2762 6.60767 11.419 6.94253 11.681 7.30642C12.0109 7.7996 12.081 8.22186 12.0269 8.5036C11.9759 8.76922 11.8174 8.92626 11.5977 8.97245C11.2766 9.01051 11.098 8.9486 10.9953 8.87704C10.8891 8.80297 10.8124 8.68236 10.7651 8.50956C10.6665 8.14897 10.7318 7.69314 10.7773 7.4728C10.8204 7.28091 10.7143 7.11255 10.5707 7.04213C10.4311 6.9736 10.2389 6.98901 10.1109 7.13174M10.6404 7.60644C10.6403 7.60648 10.6404 7.60639 10.6404 7.60644V7.60644Z" fill="#484848"/>
</svg>
