<svg width="18" height="18" viewBox="0 0 18 18" fill="none" xmlns="http://www.w3.org/2000/svg">
<mask id="mask0_2601_7113" style="mask-type:luminance" maskUnits="userSpaceOnUse" x="1" y="1" width="16" height="16">
<path d="M1.5 1.5H16.5V16.5H1.5V1.5Z" fill="white"/>
</mask>
<g mask="url(#mask0_2601_7113)">
<path fill-rule="evenodd" clip-rule="evenodd" d="M6.07031 15.6211C5.66579 15.6211 5.33789 15.2932 5.33789 14.8887V14.7422H12.6621V14.8887C12.6621 15.2932 12.3342 15.6211 11.9297 15.6211H6.07031ZM4.45898 14.8887C4.45898 15.7786 5.18038 16.5 6.07031 16.5H11.9297C12.8196 16.5 13.541 15.7786 13.541 14.8887V14.3027C13.541 14.06 13.3443 13.8633 13.1016 13.8633H4.89844C4.65573 13.8633 4.45898 14.06 4.45898 14.3027V14.8887Z" fill="#484848"/>
<path fill-rule="evenodd" clip-rule="evenodd" d="M4.45898 7.27148C4.45898 7.51419 4.65573 7.71094 4.89844 7.71094H13.1016C13.3443 7.71094 13.541 7.51419 13.541 7.27148V6.68555C13.541 5.79562 12.8196 5.07422 11.9297 5.07422H6.07031C5.18038 5.07422 4.45898 5.79562 4.45898 6.68555V7.27148ZM5.33789 6.83203V6.68555C5.33789 6.28102 5.66579 5.95312 6.07031 5.95312H11.9297C12.3342 5.95312 12.6621 6.28102 12.6621 6.68555V6.83203H5.33789Z" fill="#484848"/>
<path fill-rule="evenodd" clip-rule="evenodd" d="M4.45898 14.3027C4.45898 14.5454 4.65573 14.7422 4.89844 14.7422H13.1016C13.3443 14.7422 13.541 14.5454 13.541 14.3027V7.27148C13.541 7.02878 13.3443 6.83203 13.1016 6.83203H4.89844C4.65573 6.83203 4.45898 7.02878 4.45898 7.27148V14.3027ZM5.33789 13.8633V7.71094H12.6621V13.8633H5.33789Z" fill="#484848"/>
<path fill-rule="evenodd" clip-rule="evenodd" d="M6.2168 5.51367C6.2168 5.75638 6.41355 5.95312 6.65625 5.95312H11.3438C11.5865 5.95312 11.7832 5.75638 11.7832 5.51367V1.93945C11.7832 1.69675 11.5865 1.5 11.3438 1.5H6.65625C6.41355 1.5 6.2168 1.69675 6.2168 1.93945V5.51367ZM7.0957 5.07422V2.37891H10.9043V5.07422H7.0957Z" fill="#484848"/>
<path fill-rule="evenodd" clip-rule="evenodd" d="M9 5.95312C9.2427 5.95312 9.43945 5.75638 9.43945 5.51367V3.75586C9.43945 3.51316 9.2427 3.31641 9 3.31641C8.7573 3.31641 8.56055 3.51316 8.56055 3.75586V5.51367C8.56055 5.75638 8.7573 5.95312 9 5.95312Z" fill="#484848"/>
<path fill-rule="evenodd" clip-rule="evenodd" d="M5.33789 1.93945C5.33789 2.18216 5.53464 2.37891 5.77734 2.37891H12.2227C12.4654 2.37891 12.6621 2.18216 12.6621 1.93945C12.6621 1.69675 12.4654 1.5 12.2227 1.5H5.77734C5.53464 1.5 5.33789 1.69675 5.33789 1.93945Z" fill="#484848"/>
<path fill-rule="evenodd" clip-rule="evenodd" d="M9.00036 12.1055C8.34949 12.1055 7.96131 11.3801 8.32233 10.8386L9.00036 9.82154L9.67838 10.8386C10.0394 11.3801 9.65123 12.1055 9.00036 12.1055ZM7.59104 10.3511C6.8406 11.4767 7.64756 12.9844 9.00036 12.9844C10.3532 12.9844 11.1601 11.4767 10.4097 10.3511C10.4097 10.3511 10.4097 10.3511 10.4097 10.3511L9.36601 8.78554C9.2845 8.66328 9.14729 8.58984 9.00036 8.58984C8.85342 8.58984 8.71621 8.66328 8.63471 8.78554L7.59104 10.3511C7.59103 10.3511 7.59104 10.3511 7.59104 10.3511Z" fill="#484848"/>
</g>
</svg>
