<svg width="18" height="18" viewBox="0 0 18 18" fill="none" xmlns="http://www.w3.org/2000/svg">
<path d="M14.9994 6.47061C14.9994 6.21531 14.7924 6.0083 14.5371 6.0083H3.46231C3.20701 6.0083 3 6.21528 3 6.47061C3 8.82731 4.36605 10.8706 6.34772 11.8513L5.50256 16.2659C5.45454 16.5166 5.6189 16.7588 5.86969 16.8069C5.89906 16.8125 5.92827 16.8152 5.95712 16.8152C6.17448 16.8152 6.36826 16.6612 6.41067 16.4397L6.80753 14.3667H11.1916L11.5887 16.4398C11.6311 16.6612 11.8249 16.8152 12.0422 16.8152C12.0711 16.8152 12.1004 16.8125 12.1297 16.8069C12.3805 16.7588 12.5448 16.5166 12.4968 16.2659L11.6512 11.8516C13.6331 10.871 14.9994 8.8275 14.9994 6.47061ZM6.98456 13.4421L7.22209 12.2015C7.78401 12.3761 8.38107 12.4703 8.99972 12.4703C9.61821 12.4703 10.2151 12.3762 10.7769 12.2016L11.0146 13.4421H6.98456ZM8.99968 11.5457C6.35706 11.5457 4.17968 9.51559 3.94547 6.93292H14.0539C13.8197 9.51556 11.6423 11.5457 8.99968 11.5457Z" fill="#484848"/>
<path d="M7.22567 3.57204C7.33411 3.46055 7.59622 3.15482 7.68871 2.72475C7.76513 2.36956 7.74559 1.83709 7.21877 1.31788C7.03698 1.13865 6.74428 1.14073 6.56502 1.32258C6.3858 1.50437 6.3879 1.7971 6.56972 1.97633C6.81688 2.21997 6.81083 2.40918 6.78479 2.53038C6.74044 2.73668 6.59213 2.89732 6.56286 2.92742C6.45442 3.03891 6.19231 3.34464 6.09981 3.77471C6.0234 4.1299 6.04294 4.66236 6.56976 5.18158C6.65981 5.27035 6.77707 5.31462 6.89426 5.31462C7.01369 5.31462 7.13305 5.26864 7.2235 5.17685C7.40273 4.99505 7.40063 4.70233 7.2188 4.5231C6.97165 4.27946 6.9777 4.09025 7.00374 3.96905C7.04809 3.76281 7.1964 3.60217 7.22567 3.57204Z" fill="#484848"/>
<path d="M9.33114 3.57204C9.43958 3.46055 9.70169 3.15482 9.79418 2.72475C9.87059 2.36956 9.85106 1.83709 9.32424 1.31788C9.14245 1.13865 8.84972 1.14073 8.67049 1.32258C8.49126 1.50437 8.49337 1.7971 8.67519 1.97633C8.92235 2.21997 8.9163 2.40918 8.89026 2.53038C8.8459 2.73668 8.6976 2.89732 8.66833 2.92742C8.55989 3.03891 8.29778 3.34464 8.20528 3.77471C8.12887 4.1299 8.14841 4.66236 8.67522 5.18158C8.76525 5.27035 8.88251 5.31462 8.99973 5.31462C9.11913 5.31462 9.23852 5.26864 9.32897 5.17685C9.5082 4.99505 9.5061 4.70233 9.32427 4.5231C9.07712 4.27946 9.08317 4.09025 9.10921 3.96905C9.15356 3.76281 9.30186 3.60217 9.33114 3.57204Z" fill="#484848"/>
<path d="M11.4376 3.57204C11.546 3.46055 11.8081 3.15482 11.9006 2.72475C11.977 2.36956 11.9575 1.83709 11.4307 1.31788C11.2489 1.13865 10.9562 1.14073 10.7769 1.32258C10.5977 1.50437 10.5998 1.7971 10.7816 1.97633C11.0288 2.21997 11.0227 2.40918 10.9967 2.53038C10.9523 2.73668 10.804 2.89732 10.7748 2.92742C10.6663 3.03891 10.4042 3.34464 10.3117 3.77471C10.2353 4.1299 10.2549 4.66236 10.7817 5.18158C10.8717 5.27035 10.989 5.31462 11.1062 5.31462C11.2256 5.31462 11.345 5.26864 11.4354 5.17685C11.6146 4.99505 11.6125 4.70233 11.4307 4.5231C11.1836 4.27946 11.1896 4.09025 11.2156 3.96905C11.26 3.76281 11.4083 3.60217 11.4376 3.57204Z" fill="#484848"/>
</svg>
