<svg width="18" height="18" viewBox="0 0 18 18" fill="none" xmlns="http://www.w3.org/2000/svg">
<path d="M16.0608 4.15028C16.3035 4.15028 16.5003 3.95353 16.5003 3.71083C16.5003 3.46813 16.3035 3.27138 16.0608 3.27138H15.093V2.37891H16.0608C16.3035 2.37891 16.5003 2.18215 16.5003 1.93945C16.5003 1.69676 16.3035 1.5 16.0608 1.5H12.5015C12.2588 1.5 12.0621 1.69676 12.0621 1.93945V9.30152H11.8198C11.5771 9.30152 11.3804 9.49828 11.3804 9.74098V14.3297C11.3804 15.5264 12.354 16.5 13.5507 16.5H13.6043C14.8011 16.5 15.7747 15.5264 15.7747 14.3297V9.74098C15.7747 9.49828 15.5779 9.30152 15.3352 9.30152H15.093V7.6737H16.0608C16.3035 7.6737 16.5003 7.47694 16.5003 7.23425C16.5003 6.99155 16.3035 6.7948 16.0608 6.7948H15.093V5.90229H16.0608C16.3035 5.90229 16.5003 5.70554 16.5003 5.46284C16.5003 5.22015 16.3035 5.02339 16.0608 5.02339H15.093V4.15028H16.0608ZM12.941 2.37891H14.2141V6.7948H12.941V2.37891ZM14.8958 14.3297C14.8958 15.0418 14.3164 15.6211 13.6043 15.6211H13.5507C12.8386 15.6211 12.2593 15.0418 12.2593 14.3297V10.1804H14.8958V14.3297ZM12.941 9.30152V7.6737H14.2141V9.30152H12.941Z" fill="#484848"/>
<path d="M10.5798 1.5H1.93945C1.69676 1.5 1.5 1.69676 1.5 1.93945V7.71211C1.5 7.9548 1.69676 8.15156 1.93945 8.15156H4.74422V9.30152H4.50196C4.25927 9.30152 4.06251 9.49828 4.06251 9.74098V14.3297C4.06251 15.5264 5.0361 16.5 6.23285 16.5H6.28646C7.48321 16.5 8.45681 15.5264 8.45681 14.3297V9.74098C8.45681 9.49828 8.26005 9.30152 8.01735 9.30152H7.7751V8.15156H10.5799C10.8226 8.15156 11.0193 7.9548 11.0193 7.71211V1.93945C11.0193 1.69676 10.8225 1.5 10.5798 1.5ZM7.57787 14.3297C7.57787 15.0418 6.99853 15.6211 6.28644 15.6211H6.23282C5.5207 15.6211 4.94139 15.0418 4.94139 14.3297V10.1804H7.57787V14.3297ZM6.89616 9.30152H5.6231V8.15156H6.89616V9.30152ZM10.1404 7.27266H2.37891V2.37891H10.1404V7.27266Z" fill="#484848"/>
<path d="M4.099 4.30298C4.32887 4.30298 4.54909 4.10086 4.53846 3.86353C4.52779 3.62543 4.34536 3.42407 4.099 3.42407C3.86914 3.42407 3.64892 3.62619 3.65955 3.86353C3.67021 4.10162 3.85265 4.30298 4.099 4.30298Z" fill="#484848"/>
<path d="M6.25965 4.30298C6.48951 4.30298 6.70974 4.10086 6.6991 3.86353C6.68844 3.62543 6.50601 3.42407 6.25965 3.42407C6.02978 3.42407 5.80956 3.62619 5.82019 3.86353C5.83086 4.10162 6.01326 4.30298 6.25965 4.30298Z" fill="#484848"/>
<path d="M8.42029 4.30298C8.65016 4.30298 8.87038 4.10086 8.85974 3.86353C8.84908 3.62543 8.66665 3.42407 8.42029 3.42407C8.19043 3.42407 7.9702 3.62619 7.98084 3.86353C7.9915 4.10162 8.17393 4.30298 8.42029 4.30298Z" fill="#484848"/>
<path d="M4.099 6.22754C4.32887 6.22754 4.54909 6.02542 4.53846 5.78809C4.52779 5.54999 4.34536 5.34863 4.099 5.34863C3.86914 5.34863 3.64892 5.55075 3.65955 5.78809C3.67021 6.02618 3.85265 6.22754 4.099 6.22754Z" fill="#484848"/>
<path d="M6.25965 6.22754C6.48951 6.22754 6.70974 6.02542 6.6991 5.78809C6.68844 5.54999 6.50601 5.34863 6.25965 5.34863C6.02978 5.34863 5.80956 5.55075 5.82019 5.78809C5.83086 6.02618 6.01326 6.22754 6.25965 6.22754Z" fill="#484848"/>
<path d="M8.42029 6.22754C8.65016 6.22754 8.87038 6.02542 8.85974 5.78809C8.84908 5.54999 8.66665 5.34863 8.42029 5.34863C8.19043 5.34863 7.9702 5.55075 7.98084 5.78809C7.9915 6.02618 8.17393 6.22754 8.42029 6.22754Z" fill="#484848"/>
</svg>
