<svg width="18" height="18" viewBox="0 0 18 18" fill="none" xmlns="http://www.w3.org/2000/svg">
<mask id="mask0_2601_15557" style="mask-type:luminance" maskUnits="userSpaceOnUse" x="1" y="1" width="16" height="16">
<path d="M1.5 1.5H16.5V16.5H1.5V1.5Z" fill="white"/>
</mask>
<g mask="url(#mask0_2601_15557)">
<path fill-rule="evenodd" clip-rule="evenodd" d="M1.59881 15.5061C1.68226 15.6085 1.80736 15.668 1.93946 15.668H16.0606C16.1927 15.668 16.3177 15.6085 16.4012 15.5061C16.4847 15.4037 16.5176 15.2692 16.491 15.1398L15.0014 7.90946C14.9729 7.77094 14.8794 7.65462 14.7503 7.59692L13.3351 6.9645L12.5695 3.95338C12.5352 3.81856 12.4392 3.70792 12.3105 3.65511L9.16684 2.36505C9.05994 2.32118 8.94007 2.32118 8.83317 2.36505L5.68952 3.65511C5.56083 3.70792 5.46474 3.81856 5.43046 3.95338L4.6649 6.9645L3.24973 7.59692C3.12061 7.65463 3.02715 7.77094 2.99861 7.90946L1.50904 15.1398C1.48239 15.2692 1.51535 15.4037 1.59881 15.5061ZM2.47867 14.7891L3.81399 8.30744L5.21769 7.68014C5.34035 7.62532 5.43119 7.51741 5.4643 7.38721L6.22778 4.38426L9 3.24662L11.7722 4.38426L12.5357 7.38721C12.5688 7.51742 12.6596 7.62533 12.7823 7.68014L14.186 8.30744L15.5213 14.7891H2.47867Z" fill="#484848"/>
<path fill-rule="evenodd" clip-rule="evenodd" d="M5.77528 15.5166C5.85874 15.6126 5.97972 15.6677 6.10694 15.6677H11.8927C12.0199 15.6677 12.1409 15.6126 12.2243 15.5166C12.3078 15.4206 12.3456 15.2931 12.3279 15.1671L11.732 10.9272C11.7155 10.8096 11.6521 10.7037 11.5563 10.6336L9.25923 8.95352C9.10473 8.84052 8.89486 8.84052 8.74036 8.95352L6.44331 10.6336C6.34748 10.7037 6.28409 10.8096 6.26757 10.9272L5.67176 15.1671C5.65406 15.2931 5.69182 15.4206 5.77528 15.5166ZM6.61246 14.7888L7.11208 11.2334L8.9998 9.85268L10.8875 11.2334L11.3872 14.7888H6.61246Z" fill="#484848"/>
</g>
<path fill-rule="evenodd" clip-rule="evenodd" d="M4.50413 9.22071C4.73813 9.2851 4.98003 9.1476 5.04442 8.9136L5.46214 7.39555C5.52653 7.16155 5.38903 6.91965 5.15502 6.85526C4.92101 6.79087 4.67912 6.92837 4.61473 7.16237L4.19701 8.68042C4.13262 8.91443 4.27012 9.15632 4.50413 9.22071Z" fill="#484848"/>
<path fill-rule="evenodd" clip-rule="evenodd" d="M13.3679 7.44693C13.4607 7.22266 13.3541 6.96564 13.1298 6.87286L11.1642 6.05973C10.9399 5.96695 10.6829 6.07354 10.5901 6.29781C10.4974 6.52209 10.604 6.7791 10.8282 6.87188L12.7938 7.68502C13.0181 7.77779 13.2751 7.6712 13.3679 7.44693Z" fill="#484848"/>
</svg>
