<svg width="18" height="18" viewBox="0 0 18 18" fill="none" xmlns="http://www.w3.org/2000/svg">
<path fill-rule="evenodd" clip-rule="evenodd" d="M0.75 2.44189H3.65039V7.75928H2.68359V3.40869H1.7168V14.5913H16.2832V3.40869H15.3164V7.75928H14.3496V2.44189H17.25V15.5581H0.75V2.44189Z" fill="#484848"/>
<path fill-rule="evenodd" clip-rule="evenodd" d="M1.2334 7.27588H4.61719V8.2749C4.61719 10.6955 6.57944 12.6577 9 12.6577C11.4206 12.6577 13.3828 10.6955 13.3828 8.2749V7.27588H16.7666V8.24268H14.3496V8.2749C14.3496 11.2294 11.9545 13.6245 9 13.6245C6.04549 13.6245 3.65039 11.2294 3.65039 8.2749V8.24268H1.2334V7.27588Z" fill="#484848"/>
<path fill-rule="evenodd" clip-rule="evenodd" d="M14.833 4.37549H16.7666V5.34229H14.833V4.37549Z" fill="#484848"/>
<path fill-rule="evenodd" clip-rule="evenodd" d="M1.2334 4.37549H3.16699V5.34229H1.2334V4.37549Z" fill="#484848"/>
</svg>
