<svg width="16" height="16" viewBox="0 0 16 16" fill="none" xmlns="http://www.w3.org/2000/svg">
<path fill-rule="evenodd" clip-rule="evenodd" d="M1.27035 13.96C1.35776 14.8342 2.09342 15.5 2.97201 15.5H13.028C13.9066 15.5 14.6423 14.8342 14.7297 13.96L15.4978 6.27859C15.5102 6.15505 15.4697 6.03205 15.3864 5.93999C15.3031 5.84793 15.1847 5.79541 15.0605 5.79541H0.939455C0.815296 5.79541 0.696932 5.84793 0.613621 5.93999C0.53031 6.03205 0.489828 6.15505 0.502183 6.2786L1.27035 13.96ZM2.97201 14.6211C2.54496 14.6211 2.18738 14.6749 2.14489 14.25V13.8725L1.42505 6.67432H14.575L13.8551 13.8725C13.8126 14.2975 13.4551 14.6211 13.028 14.6211H2.97201Z" fill="#484848"/>
<path fill-rule="evenodd" clip-rule="evenodd" d="M14.3548 12.8528H1.64551V13.7317H14.3548V12.8528Z" fill="#484848"/>
<path fill-rule="evenodd" clip-rule="evenodd" d="M14.5311 11.0908H1.46875V11.9697H14.5311V11.0908Z" fill="#484848"/>
<path fill-rule="evenodd" clip-rule="evenodd" d="M7.56055 9.85986C7.56055 10.1026 7.7573 10.2993 8 10.2993H12.4128C12.6555 10.2993 12.8523 10.1026 12.8523 9.85986V6.23496C12.8523 5.99226 12.6555 5.79551 12.4128 5.79551H8C7.7573 5.79551 7.56055 5.99226 7.56055 6.23496V9.85986ZM8.43945 9.42041V6.67442H11.9734V9.42041H8.43945Z" fill="#484848"/>
<path fill-rule="evenodd" clip-rule="evenodd" d="M5.03544 4.77395C5.20346 4.94909 5.48165 4.95487 5.65679 4.78684L5.35256 4.46973C5.65679 4.78684 5.65695 4.78669 5.65711 4.78653L5.65746 4.7862L5.65822 4.78546L5.65999 4.78374C5.66129 4.78248 5.6628 4.781 5.66452 4.77929C5.66797 4.77587 5.67225 4.77157 5.67729 4.76639C5.68737 4.75604 5.70052 4.74217 5.71601 4.72496C5.74691 4.69067 5.78774 4.64248 5.83248 4.58203C5.92067 4.46288 6.031 4.28667 6.10612 4.06742C6.18198 3.84599 6.22427 3.57301 6.16326 3.2729C6.10171 2.97018 5.94152 2.67207 5.6633 2.39385C5.49108 2.22163 5.42606 2.07388 5.40314 1.96118C5.3797 1.84586 5.39371 1.73387 5.43046 1.62663C5.46795 1.51721 5.52653 1.42104 5.57911 1.34999C5.60475 1.31535 5.62726 1.28897 5.64211 1.27248C5.64949 1.26429 5.65482 1.25872 5.6575 1.25597C5.65826 1.25518 5.65881 1.25463 5.65912 1.25432C5.83197 1.08608 5.83695 0.809586 5.66968 0.635227C5.50166 0.460087 5.22347 0.454315 5.04833 0.622336L5.35041 0.937211C5.04833 0.622336 5.04817 0.622491 5.048 0.622649L5.04766 0.622984L5.0469 0.623718L5.04512 0.62544C5.04383 0.6267 5.04232 0.628185 5.0406 0.629893C5.03715 0.633307 5.03286 0.637615 5.02782 0.642793C5.01775 0.653139 5.0046 0.667015 4.9891 0.684219C4.95821 0.718512 4.91737 0.766696 4.87263 0.827149C4.78445 0.946304 4.67412 1.12251 4.599 1.34176C4.52313 1.56319 4.48084 1.83618 4.54186 2.13628C4.6034 2.439 4.7636 2.73711 5.04182 3.01533C5.21404 3.18755 5.27906 3.3353 5.30197 3.448C5.32542 3.56332 5.3114 3.67531 5.27466 3.78255C5.23717 3.89197 5.17858 3.98814 5.12601 4.05919C5.10036 4.09384 5.07786 4.12021 5.063 4.1367C5.05563 4.14489 5.0503 4.15046 5.04762 4.15321C5.04685 4.154 5.04631 4.15455 5.046 4.15486C4.87314 4.32311 4.86817 4.59959 5.03544 4.77395Z" fill="#484848"/>
<path fill-rule="evenodd" clip-rule="evenodd" d="M7.6829 4.77395C7.85092 4.94909 8.12911 4.95487 8.30425 4.78684L8.00002 4.46973C8.30425 4.78684 8.30441 4.78669 8.30457 4.78653L8.30492 4.7862L8.30568 4.78546L8.30746 4.78374C8.30875 4.78248 8.31026 4.781 8.31198 4.77929C8.31543 4.77587 8.31971 4.77157 8.32476 4.76639C8.33483 4.75604 8.34798 4.74217 8.36348 4.72496C8.39437 4.69067 8.43521 4.64248 8.47994 4.58203C8.56813 4.46288 8.67846 4.28667 8.75358 4.06742C8.82944 3.84599 8.87173 3.57301 8.81072 3.2729C8.74918 2.97018 8.58898 2.67207 8.31076 2.39385C8.13854 2.22163 8.07352 2.07388 8.0506 1.96118C8.02716 1.84586 8.04118 1.73387 8.07792 1.62663C8.11541 1.51721 8.17399 1.42104 8.22657 1.34999C8.25221 1.31535 8.27472 1.28897 8.28958 1.27248C8.29695 1.26429 8.30228 1.25872 8.30496 1.25597C8.30573 1.25518 8.30627 1.25463 8.30658 1.25432C8.47943 1.08608 8.48441 0.809586 8.31714 0.635227C8.14912 0.460087 7.87093 0.454315 7.69579 0.622336L7.99787 0.937211C7.69579 0.622336 7.69563 0.622491 7.69546 0.622649L7.69512 0.622984L7.69436 0.623718L7.69258 0.62544C7.69129 0.6267 7.68978 0.628185 7.68806 0.629893C7.68461 0.633307 7.68033 0.637615 7.67528 0.642793C7.66521 0.653139 7.65206 0.667015 7.63656 0.684219C7.60567 0.718512 7.56483 0.766696 7.52009 0.827149C7.43191 0.946304 7.32158 1.12251 7.24646 1.34176C7.17059 1.56319 7.1283 1.83618 7.18932 2.13628C7.25086 2.439 7.41106 2.73711 7.68928 3.01533C7.8615 3.18755 7.92652 3.3353 7.94943 3.448C7.97288 3.56332 7.95886 3.67531 7.92212 3.78255C7.88463 3.89197 7.82605 3.98814 7.77347 4.05919C7.74783 4.09384 7.72532 4.12021 7.71046 4.1367C7.70309 4.14489 7.69776 4.15046 7.69508 4.15321C7.69431 4.154 7.69377 4.15455 7.69346 4.15486C7.5206 4.32311 7.51563 4.59959 7.6829 4.77395Z" fill="#484848"/>
<path fill-rule="evenodd" clip-rule="evenodd" d="M10.3304 4.77395C10.4984 4.94909 10.7766 4.95487 10.9517 4.78684L10.6475 4.46973C10.9517 4.78684 10.9519 4.78669 10.952 4.78653L10.9524 4.7862L10.9531 4.78546L10.9549 4.78374C10.9562 4.78248 10.9577 4.781 10.9594 4.77929C10.9629 4.77587 10.9672 4.77157 10.9722 4.76639C10.9823 4.75604 10.9954 4.74217 11.0109 4.72496C11.0418 4.69067 11.0827 4.64248 11.1274 4.58203C11.2156 4.46288 11.3259 4.28667 11.401 4.06742C11.4769 3.84599 11.5192 3.57301 11.4582 3.2729C11.3966 2.97018 11.2364 2.67207 10.9582 2.39385C10.786 2.22163 10.721 2.07388 10.6981 1.96118C10.6746 1.84586 10.6886 1.73387 10.7254 1.62663C10.7629 1.51721 10.8215 1.42104 10.874 1.34999C10.8997 1.31535 10.9222 1.28897 10.937 1.27248C10.9444 1.26429 10.9497 1.25872 10.9524 1.25597C10.9532 1.25518 10.9537 1.25463 10.954 1.25432C11.1269 1.08608 11.1319 0.809586 10.9646 0.635227C10.7966 0.460087 10.5184 0.454315 10.3433 0.622336L10.6453 0.937211C10.3433 0.622336 10.3431 0.622491 10.3429 0.622649L10.3426 0.622984L10.3418 0.623718L10.34 0.62544C10.3388 0.6267 10.3372 0.628185 10.3355 0.629893C10.3321 0.633307 10.3278 0.637615 10.3227 0.642793C10.3127 0.653139 10.2995 0.667015 10.284 0.684219C10.2531 0.718512 10.2123 0.766696 10.1676 0.827149C10.0794 0.946304 9.96904 1.12251 9.89392 1.34176C9.81806 1.56319 9.77577 1.83618 9.83678 2.13628C9.89832 2.439 10.0585 2.73711 10.3367 3.01533C10.509 3.18755 10.574 3.3353 10.5969 3.448C10.6203 3.56332 10.6063 3.67531 10.5696 3.78255C10.5321 3.89197 10.4735 3.98814 10.4209 4.05919C10.3953 4.09384 10.3728 4.12021 10.3579 4.1367C10.3505 4.14489 10.3452 4.15046 10.3425 4.15321C10.3418 4.154 10.3412 4.15455 10.3409 4.15486C10.1681 4.32311 10.1631 4.59959 10.3304 4.77395Z" fill="#484848"/>
</svg>
