<svg width="24" height="25" viewBox="0 0 24 25" fill="none" xmlns="http://www.w3.org/2000/svg">
<rect x="0.5" y="1" width="23" height="23" rx="11.5" fill="#4CAF50" fill-opacity="0.2"/>
<rect x="0.5" y="1" width="23" height="23" rx="11.5" stroke="#4CAF50"/>
<path d="M15.9065 13.8197C15.4782 14.2447 13.7081 15.2925 12.8766 15.7633C13.2287 16.6536 14.1154 17.1904 15.0057 16.8384C15.896 16.4863 16.4419 13.2885 15.9065 13.8197Z" fill="#4CAF50"/>
<path fill-rule="evenodd" clip-rule="evenodd" d="M12.6152 8.72379C12.6152 8.72351 12.6151 8.72324 12.9654 8.66194C13.3156 8.60064 13.3155 8.60039 13.3155 8.60015L13.3154 8.5997L13.3153 8.59897L13.3151 8.59811C13.3151 8.5978 13.3151 8.59803 13.3153 8.59878C13.3156 8.60027 13.3163 8.60386 13.3176 8.60942C13.3201 8.62054 13.3247 8.63957 13.3321 8.66565C13.3469 8.71783 13.3728 8.79814 13.4154 8.89994C13.5005 9.10336 13.6524 9.39299 13.9159 9.71616C14.4399 10.3587 15.4227 11.1551 17.2534 11.6578L17.0651 12.3436C15.104 11.8051 13.9899 10.9321 13.3648 10.1656C13.0538 9.7842 12.8682 9.43436 12.7594 9.17446C12.7051 9.04459 12.67 8.93728 12.648 8.85974C12.637 8.82097 12.6293 8.78961 12.624 8.76658C12.6214 8.75506 12.6194 8.74561 12.618 8.73835L12.6162 8.72911L12.6156 8.72575L12.6153 8.72439L12.6152 8.72379Z" fill="#484848"/>
<path fill-rule="evenodd" clip-rule="evenodd" d="M15.7391 13.3415C15.7391 13.3416 15.7391 13.3418 16.0912 13.2924C16.4433 13.2429 16.4434 13.2431 16.4434 13.2433L16.4434 13.2436L16.4436 13.2445L16.4439 13.2468L16.4447 13.2533C16.4454 13.2585 16.4462 13.2655 16.4472 13.2741C16.4491 13.2915 16.4515 13.3155 16.4538 13.3458C16.4586 13.4063 16.4632 13.4919 16.4637 13.598C16.4647 13.8099 16.4493 14.106 16.384 14.45C16.2534 15.1389 15.9216 16.0268 15.1193 16.8085L15.1056 16.8219L15.0904 16.8338C14.7069 17.1341 14.3164 17.2342 13.9444 17.1545C13.5907 17.0788 13.315 16.8531 13.1164 16.6295C12.9149 16.4028 12.7649 16.147 12.6669 15.9548C12.6172 15.8574 12.5793 15.7731 12.5535 15.7124C12.5406 15.682 12.5307 15.6573 12.5238 15.6397C12.5203 15.6308 12.5176 15.6238 12.5156 15.6186L12.5132 15.6123L12.5125 15.6102L12.5122 15.6095L12.5121 15.6092C12.512 15.6091 12.512 15.6089 12.8459 15.4867C13.1798 15.3645 13.1797 15.3644 13.1797 15.3643L13.1806 15.3666L13.1856 15.3796C13.1903 15.3917 13.1979 15.4103 13.2081 15.4344C13.2285 15.4825 13.2595 15.5516 13.3005 15.6319C13.3837 15.7952 13.5019 15.9928 13.648 16.1572C13.7969 16.3248 13.9481 16.4281 14.0933 16.4592C14.2176 16.4858 14.3932 16.4716 14.6372 16.2853C15.3007 15.6323 15.5757 14.8958 15.6854 14.3176C15.7407 14.026 15.7535 13.7763 15.7526 13.6014C15.7522 13.5142 15.7484 13.446 15.7449 13.4012C15.7431 13.3788 15.7415 13.3623 15.7403 13.3522L15.7391 13.342L15.7391 13.3415ZM15.7391 13.3415L15.739 13.3409L15.7391 13.3413L15.7391 13.3415Z" fill="#484848"/>
<path d="M10.5942 8.40557C10.1658 8.83055 9.10404 10.5923 8.6267 11.4201C7.73922 11.0609 7.20939 10.17 7.56845 9.28253C7.92751 8.39505 11.1296 7.87434 10.5942 8.40557Z" fill="#4CAF50"/>
<path fill-rule="evenodd" clip-rule="evenodd" d="M15.2299 6.71318C14.1576 6.86693 12.6597 7.34991 11.0092 8.68885C9.83123 9.64814 9.2383 10.6869 8.95519 11.6193C8.70516 12.4405 8.69341 13.1884 8.74464 13.7312C8.77021 14.0022 8.81133 14.2205 8.84542 14.3692C8.86245 14.4434 8.87768 14.5001 8.88826 14.537C8.89354 14.5554 8.89766 14.5689 8.90025 14.5772L8.90293 14.5856L8.90305 14.586L8.90319 14.5864L8.90333 14.5868L9.09551 15.1552L8.50413 15.05L8.50312 15.0498L8.49838 15.049L8.47766 15.0455C8.459 15.0425 8.43086 15.038 8.39442 15.0326C8.32149 15.0219 8.21562 15.0075 8.08618 14.9934C7.82634 14.9652 7.47614 14.9388 7.10916 14.9444C6.7392 14.95 6.36909 14.9881 6.06218 15.0801C5.75091 15.1735 5.55226 15.3077 5.45343 15.4698C5.43823 15.4948 5.42838 15.5144 5.42199 15.5291C5.47086 15.5561 5.5542 15.5863 5.68201 15.615C5.81149 15.6441 5.96414 15.6671 6.13525 15.6889C6.20785 15.6982 6.28455 15.7073 6.36359 15.7166C6.64053 15.7494 6.94627 15.7856 7.20565 15.845C7.37517 15.8839 7.54945 15.9375 7.69998 16.0195C7.8509 16.1018 8.00661 16.2287 8.08816 16.4259C8.1367 16.5433 8.17265 16.695 8.20246 16.8448C8.23338 17.0002 8.26258 17.1801 8.29196 17.365C8.2959 17.3898 8.29985 17.4147 8.30382 17.4397C8.36009 17.7947 8.41911 18.167 8.49814 18.487C8.54028 18.6577 8.58545 18.802 8.63387 18.9136C8.66905 18.9948 8.69964 19.0437 8.72099 19.0712C8.7514 19.0513 8.80295 19.0099 8.87528 18.9264L8.87562 18.926C9.26806 18.4743 9.42409 17.8674 9.46305 17.2874C9.5012 16.7193 9.4242 16.2183 9.38453 16.0056C9.36957 15.9375 9.37183 15.8582 9.40524 15.7796C9.44368 15.6891 9.51064 15.6294 9.57515 15.5956C9.6965 15.532 9.83876 15.5406 9.94948 15.6076L9.96163 15.615L9.96977 15.6209C9.97378 15.6229 9.99025 15.6305 10.0261 15.6398C10.078 15.6533 10.1612 15.6677 10.2894 15.676C11.2818 15.6052 12.0878 15.4492 12.7679 15.2276C14.1219 14.7821 14.9987 14.0558 15.8302 13.1104C16.1077 12.7935 16.3802 12.4525 16.6676 12.0888C17.3876 11.1702 17.615 9.99005 17.6523 9.00681C17.6708 8.5194 17.6421 8.09139 17.6088 7.78575C17.6054 7.75419 17.6019 7.72398 17.5984 7.69516L16.4333 8.04489L16.6205 6.67665C16.5823 6.67248 16.5408 6.6685 16.4961 6.66493C16.201 6.64138 15.7675 6.63609 15.2299 6.71318ZM17.0197 6.38164L17.1087 6.0374C17.2833 6.08254 17.3964 6.25118 17.372 6.42982L17.2877 7.04597L17.7858 6.89645C17.9857 6.83645 18.194 6.96072 18.2362 7.16512L17.888 7.237C18.2362 7.16512 18.2362 7.16512 18.2362 7.16512L18.2365 7.16653L18.237 7.16906L18.2387 7.17744C18.2401 7.18449 18.242 7.19443 18.2443 7.20714C18.249 7.23256 18.2555 7.26909 18.2631 7.3157C18.2782 7.40889 18.2976 7.54261 18.3157 7.70873C18.3519 8.04046 18.383 8.50409 18.3629 9.03375C18.3231 10.0845 18.0801 11.4399 17.2268 12.5281L17.226 12.5292C16.9383 12.8932 16.6557 13.2471 16.3651 13.579L16.3645 13.5796C15.4782 14.5875 14.5004 15.4063 12.9895 15.9033L12.9886 15.9036C12.238 16.1482 11.3659 16.3137 10.3159 16.387L10.2935 16.3885L10.2711 16.3873C10.2308 16.385 10.192 16.3821 10.1546 16.3787C10.181 16.6455 10.1966 16.9775 10.1726 17.335C10.1285 17.9907 9.94848 18.7754 9.41241 19.3924C9.2611 19.567 9.08835 19.7126 8.88766 19.771C8.65669 19.8382 8.44498 19.7744 8.2852 19.6396C8.14414 19.5205 8.04924 19.3529 7.98143 19.1965C7.91098 19.034 7.85466 18.8474 7.80777 18.6575C7.72112 18.3066 7.65758 17.9054 7.60253 17.5577C7.59819 17.5303 7.5939 17.5033 7.58966 17.4766C7.56006 17.2903 7.53286 17.1235 7.50502 16.9836C7.47618 16.8386 7.45107 16.7464 7.43122 16.6981C7.42927 16.6948 7.41519 16.6742 7.35964 16.6439C7.29093 16.6065 7.18806 16.5705 7.04687 16.5382C6.82846 16.4882 6.57693 16.4583 6.30766 16.4263C6.22182 16.4161 6.13418 16.4057 6.04524 16.3943C5.86889 16.3718 5.68925 16.3455 5.526 16.3088C5.36667 16.273 5.19843 16.2221 5.05705 16.1395C4.91255 16.0551 4.75878 15.9141 4.71244 15.6908C4.66796 15.4764 4.74123 15.2726 4.84569 15.1005L4.84594 15.1001C5.07493 14.7242 5.4672 14.5162 5.85784 14.399C6.253 14.2805 6.69607 14.2395 7.09833 14.2334C7.4747 14.2276 7.8302 14.2523 8.10194 14.2801C8.07731 14.142 8.05385 13.98 8.03667 13.798C7.97897 13.1867 7.99166 12.3426 8.27475 11.4127C8.59815 10.3477 9.27034 9.18771 10.5605 8.13716L10.561 8.13676C12.3159 6.71305 13.9352 6.18044 15.1289 6.00927C15.7243 5.92389 16.211 5.92881 16.5527 5.95608C16.7236 5.96971 16.8583 5.98894 16.9524 6.0053C16.9994 6.01348 17.0364 6.02095 17.0626 6.02665C17.0757 6.0295 17.0862 6.03191 17.0939 6.03374L17.1034 6.03605L17.1066 6.03685L17.1078 6.03716L17.1083 6.03729C17.1083 6.03729 17.1087 6.0374 17.0197 6.38164ZM7.43148 16.6986L7.43122 16.6981L7.43148 16.6986Z" fill="#484848"/>
<path fill-rule="evenodd" clip-rule="evenodd" d="M11.0663 7.85225C11.0665 7.85229 11.0666 7.85232 10.9928 8.20014C10.919 8.54795 10.9192 8.54798 10.9193 8.54801L10.9199 8.54814L10.9188 8.54792L10.9087 8.54602C10.8987 8.5442 10.8824 8.54139 10.8601 8.53809C10.8157 8.53148 10.748 8.52294 10.661 8.51645C10.4866 8.50345 10.2368 8.49885 9.94222 8.53371C9.35805 8.60285 8.60485 8.82597 7.90845 9.44228C7.70578 9.67229 7.67937 9.8464 7.69726 9.9724C7.71814 10.1195 7.81064 10.2778 7.96736 10.4382C8.12112 10.5956 8.30988 10.7275 8.46691 10.8221C8.54413 10.8687 8.61077 10.9045 8.65737 10.9283C8.68061 10.9402 8.6987 10.949 8.71042 10.9546L8.72303 10.9606L8.72528 10.9616C8.72519 10.9616 8.72508 10.9615 8.57945 11.2859C8.43381 11.6102 8.43369 11.6102 8.43357 11.6101L8.43256 11.6097L8.43057 11.6088L8.42444 11.606C8.41943 11.6036 8.41256 11.6004 8.40401 11.5963C8.38692 11.5882 8.36303 11.5765 8.33362 11.5615C8.2749 11.5314 8.19351 11.4876 8.09983 11.4312C7.91507 11.3198 7.67061 11.1521 7.45867 10.9351C7.2497 10.7212 7.04403 10.4304 6.9932 10.0724C6.93974 9.69576 7.06666 9.31326 7.39295 8.95193L7.40569 8.93782L7.41987 8.92515C8.25434 8.17917 9.16265 7.9099 9.85864 7.82753C10.2062 7.78639 10.5026 7.79155 10.7139 7.80731C10.8197 7.8152 10.9047 7.82578 10.9647 7.83471C10.9948 7.83918 11.0186 7.84324 11.0358 7.84635C11.0443 7.8479 11.0512 7.84923 11.0564 7.85024L11.0628 7.85154L11.0651 7.852L11.0659 7.85218L11.0663 7.85225Z" fill="#484848"/>
<path d="M14.7401 8.89595C14.9692 8.89685 15.1557 8.71187 15.1566 8.48278C15.1575 8.25369 14.9725 8.06724 14.7434 8.06633C14.5143 8.06543 14.3279 8.25041 14.327 8.47951C14.3261 8.7086 14.5111 8.89505 14.7401 8.89595Z" fill="#484848"/>
</svg>
