<svg width="18" height="18" viewBox="0 0 18 18" fill="none" xmlns="http://www.w3.org/2000/svg">
<mask id="mask0_2601_5511" style="mask-type:luminance" maskUnits="userSpaceOnUse" x="1" y="1" width="16" height="16">
<path d="M1.5 1.5H16.5V16.5H1.5V1.5Z" fill="white"/>
</mask>
<g mask="url(#mask0_2601_5511)">
<path fill-rule="evenodd" clip-rule="evenodd" d="M8.75129 10.4653C8.31673 10.5845 7.95165 10.5575 7.66822 10.4761ZM7.66822 10.4761C7.65487 10.9293 7.8105 11.3473 8.07028 11.6228C8.36102 11.9311 8.81475 12.0982 9.43287 11.8863C9.69966 11.7949 9.9242 11.5873 10.0874 11.3154C10.252 11.0411 10.3307 10.7392 10.3324 10.5191L10.3324 10.519C10.3358 10.102 10.26 9.60072 9.94551 8.91597C9.88671 9.18555 9.79605 9.46832 9.65397 9.72017C9.47062 10.0452 9.1841 10.3466 8.75129 10.4653M9.17327 7.48434L9.17327 7.48441C9.17331 7.4849 9.17338 7.48593 9.17348 7.48746C9.17369 7.49054 9.17401 7.49567 9.17442 7.50272C9.17523 7.51683 9.17636 7.5386 9.17745 7.56702C9.17962 7.62393 9.18163 7.70703 9.18071 7.80825C9.17885 8.01228 9.16513 8.28238 9.11961 8.55691C9.0734 8.83562 8.99845 9.09337 8.88847 9.28832C8.78128 9.47833 8.65918 9.57919 8.51888 9.61766C8.19399 9.70676 7.96782 9.65867 7.83194 9.60445C7.76111 9.57619 7.70985 9.54413 7.6791 9.52195C7.66381 9.51092 7.65395 9.5026 7.6497 9.49886C7.64909 9.49832 7.6486 9.49788 7.64823 9.49755C7.53836 9.38848 7.37894 9.34511 7.22862 9.38398C7.07538 9.4236 6.95529 9.54258 6.91423 9.69544L7.33864 9.80944C6.91423 9.69544 6.91423 9.69545 6.91422 9.69546L6.9134 9.69854C6.91291 9.70036 6.91223 9.70293 6.91137 9.70618C6.90965 9.71269 6.90721 9.72196 6.90423 9.73339C6.8983 9.7562 6.89016 9.78795 6.88129 9.82388C6.86441 9.89228 6.84178 9.98818 6.82836 10.066L6.82835 10.066C6.69163 10.8591 6.91233 11.6759 7.43084 12.2258C7.96766 12.7951 8.7867 13.0369 9.71786 12.7178C10.2307 12.542 10.602 12.1658 10.8409 11.7677C11.0784 11.3721 11.2082 10.9179 11.2113 10.5261L10.7719 10.5226L11.2113 10.5262C11.2113 10.5262 11.2113 10.5262 11.2113 10.5261C11.2183 9.6692 10.9585 8.67272 9.97661 7.20723C9.86554 7.04146 9.65674 6.97132 9.46812 7.03643C9.27965 7.10149 9.15861 7.28528 9.17325 7.4841C9.17326 7.48417 9.17326 7.48423 9.17327 7.4843C9.17327 7.48431 9.17327 7.48433 9.17327 7.48434Z" fill="#484848"/>
<path fill-rule="evenodd" clip-rule="evenodd" d="M6.82271 11.05C6.03603 10.2157 5.65372 8.90932 5.88227 7.58356L5.88228 7.58353C5.8934 7.519 5.90554 7.4558 5.91845 7.39404L7.21122 7.9229C7.37318 7.98916 7.55901 7.95302 7.68433 7.83089C7.80933 7.70906 7.85036 7.52484 7.78896 7.36153C7.78882 7.36113 7.78838 7.35996 7.78769 7.35801C7.78628 7.3541 7.78381 7.3471 7.78046 7.33714C7.77375 7.31722 7.76351 7.28554 7.75122 7.24322C7.72659 7.15847 7.69386 7.03169 7.66448 6.87167C7.60551 6.55057 7.5612 6.10228 7.61861 5.59434C7.71748 4.71953 8.11956 3.63826 9.34347 2.70507C9.35991 2.79266 9.3789 2.88623 9.40082 2.98465C9.52977 3.56373 9.76404 4.3301 10.1879 5.03919C10.261 5.16138 10.3887 5.24062 10.5306 5.2518C10.6725 5.26299 10.8111 5.20472 10.9024 5.09547C11.0536 4.91441 11.2048 4.78439 11.3424 4.69088C11.3219 5.25414 11.4254 5.83917 11.5399 6.30891C11.6296 6.67729 11.7335 7.00293 11.8148 7.23632C11.8555 7.3533 11.8908 7.44782 11.9162 7.51377C11.9289 7.54677 11.9392 7.57266 11.9464 7.5907C11.9485 7.59585 11.9503 7.60036 11.9519 7.60421C11.9531 7.60754 11.9544 7.61087 11.9557 7.61418C12.0767 7.91794 12.1487 8.23866 12.1775 8.63602C12.2511 9.83422 11.7169 11.2611 10.2917 11.7496L10.4342 12.1653L10.2917 11.7496C8.77942 12.268 7.59109 11.8648 6.82271 11.05ZM12.7701 7.28314L12.77 7.28277C12.7697 7.28213 12.7692 7.28098 12.7685 7.27932C12.7672 7.276 12.765 7.27068 12.7621 7.26344C12.7563 7.24895 12.7475 7.22683 12.7364 7.1978C12.714 7.13972 12.682 7.05422 12.6448 6.94727C12.5701 6.73281 12.4752 6.43498 12.3938 6.10086C12.2243 5.405 12.1403 4.65581 12.3154 4.15453C12.3634 4.01693 12.3401 3.86446 12.2532 3.7475C12.1662 3.63052 12.0269 3.56427 11.8813 3.57062L11.9005 4.00966C11.8813 3.57062 11.8811 3.57063 11.8809 3.57064L11.8804 3.57066L11.8793 3.57071L11.8771 3.57082C11.8755 3.57091 11.8737 3.57101 11.8718 3.57112C11.8697 3.57125 11.8674 3.5714 11.8648 3.57158C11.8627 3.57173 11.8605 3.57189 11.8581 3.57208C11.8477 3.5729 11.8346 3.57412 11.8189 3.57594C11.7877 3.57956 11.7465 3.58556 11.6967 3.5955C11.5973 3.61535 11.4634 3.65103 11.3079 3.71512C11.1207 3.79224 10.9047 3.90956 10.6815 4.08677C10.4773 3.63504 10.3442 3.17734 10.2587 2.79362C10.2004 2.53178 10.1654 2.3091 10.145 2.15315C10.1348 2.07528 10.1283 2.01435 10.1245 1.97384C10.1225 1.95359 10.1213 1.93846 10.1205 1.9289C10.1201 1.92413 10.1199 1.92074 10.1197 1.9188L10.1196 1.91739C10.1196 1.91734 10.1196 1.91728 10.1196 1.91722C10.1196 1.91718 10.1196 1.91713 10.1196 1.91708C10.1196 1.91705 10.1196 1.91702 10.1196 1.91699C10.1095 1.76404 10.0204 1.6274 9.88448 1.55645C9.74846 1.48544 9.58524 1.49052 9.4539 1.56986C7.53078 2.73148 6.88598 4.25063 6.74526 5.49563C6.68943 5.98959 6.71329 6.43426 6.76156 6.78934L5.78195 6.38859C5.66642 6.34132 5.53624 6.34542 5.42391 6.39986C5.31158 6.4543 5.2277 6.55394 5.19321 6.6739C5.12991 6.89407 5.06501 7.15069 5.01614 7.43425M12.7701 7.28314C12.7701 7.28318 12.7701 7.28322 12.7702 7.28327C12.7702 7.28328 12.7702 7.2833 12.7702 7.28331C12.773 7.29016 12.7757 7.29704 12.7782 7.30396C12.9334 7.69841 13.0205 8.1054 13.0543 8.57501C13.0544 8.57554 13.0544 8.57607 13.0544 8.5766C13.0545 8.57754 13.0546 8.57849 13.0546 8.57943C13.1435 10.0122 12.5102 11.9183 10.5767 12.581C8.75137 13.2067 7.19772 12.7288 6.18326 11.653C5.18712 10.5966 4.74575 9.00275 5.01614 7.43428" fill="#484848"/>
<path fill-rule="evenodd" clip-rule="evenodd" d="M1.5 16.0605C1.5 16.3033 1.69675 16.5 1.93945 16.5H16.0567C16.2994 16.5 16.4962 16.3033 16.4962 16.0605V14.0264C16.4962 13.7837 16.2994 13.5869 16.0567 13.5869H1.93945C1.69675 13.5869 1.5 13.7837 1.5 14.0264V16.0605ZM2.37891 15.6211V14.4658H15.6173V15.6211H2.37891Z" fill="#484848"/>
<path fill-rule="evenodd" clip-rule="evenodd" d="M3.02039 14.0261C3.02039 14.2688 3.21714 14.4656 3.45984 14.4656H14.5407C14.7834 14.4656 14.9802 14.2688 14.9802 14.0261V11.992C14.9802 11.7492 14.7834 11.5525 14.5407 11.5525H10.8453C10.6026 11.5525 10.4059 11.7492 10.4059 11.992C10.4059 12.2347 10.6026 12.4314 10.8453 12.4314H14.1013V13.5867H3.89929V12.4314H7.31841C7.56112 12.4314 7.75787 12.2347 7.75787 11.992C7.75787 11.7492 7.56112 11.5525 7.31841 11.5525H3.45984C3.21714 11.5525 3.02039 11.7492 3.02039 11.992V14.0261Z" fill="#484848"/>
<path fill-rule="evenodd" clip-rule="evenodd" d="M4.2019 16.5C4.44461 16.5 4.64136 16.3033 4.64136 16.0605V14.0264C4.64136 13.7837 4.44461 13.5869 4.2019 13.5869C3.9592 13.5869 3.76245 13.7837 3.76245 14.0264V16.0605C3.76245 16.3033 3.9592 16.5 4.2019 16.5Z" fill="#484848"/>
<path fill-rule="evenodd" clip-rule="evenodd" d="M13.7131 16.5C13.9558 16.5 14.1526 16.3033 14.1526 16.0605V14.0264C14.1526 13.7837 13.9558 13.5869 13.7131 13.5869C13.4704 13.5869 13.2737 13.7837 13.2737 14.0264V16.0605C13.2737 16.3033 13.4704 16.5 13.7131 16.5Z" fill="#484848"/>
</g>
</svg>
