<svg width="18" height="18" viewBox="0 0 18 18" fill="none" xmlns="http://www.w3.org/2000/svg">
<path d="M11.106 13.4226C10.3071 14.2215 9.34506 14.6209 8.21981 14.6209C7.09458 14.6209 6.13251 14.2215 5.33363 13.4226C5.22394 13.3129 5.12121 13.1962 5.02544 13.0726C4.92969 12.949 4.84884 12.8331 4.78289 12.725C4.75978 12.7835 4.7251 12.8412 4.67887 12.8984C4.63264 12.9555 4.58996 13.0036 4.55082 13.0427C4.22213 13.3714 3.83338 13.5354 3.38457 13.5346C2.93577 13.5339 2.5486 13.3708 2.22305 13.0452C1.89752 12.7197 1.72944 12.3374 1.7188 11.8985C1.70819 11.4596 1.86642 11.0766 2.19349 10.7495C2.46137 10.4816 2.77633 10.32 3.13838 10.2646C3.50042 10.2092 3.83443 10.2644 4.14038 10.4303C4.15331 9.92786 4.26209 9.43221 4.46673 8.94336C4.67139 8.4545 4.96035 8.02344 5.33361 7.65018L11.1672 1.81655L12.7582 3.4075L9.81077 6.35493L11.106 7.65018C11.9077 8.4519 12.3086 9.41396 12.3086 10.5364C12.3086 11.6588 11.9077 12.6209 11.106 13.4226ZM3.91601 12.4129C4.06627 12.2627 4.1414 12.0859 4.1414 11.8826C4.1414 11.6793 4.06627 11.5025 3.91601 11.3523C3.76575 11.202 3.58898 11.1269 3.38568 11.1269C3.18239 11.1269 3.00561 11.202 2.85535 11.3523C2.70509 11.5025 2.62996 11.6793 2.62996 11.8826C2.62996 12.0859 2.70509 12.2627 2.85535 12.4129C3.00561 12.5632 3.18239 12.6383 3.38568 12.6383C3.58898 12.6383 3.76575 12.5632 3.91601 12.4129ZM10.1481 12.4632C10.6807 11.9306 10.9467 11.2881 10.9462 10.5357C10.9457 9.78319 10.6792 9.14068 10.1466 8.60811C9.61407 8.07554 8.97156 7.80949 8.2191 7.80998C7.46663 7.81046 6.82411 8.07698 6.29155 8.60955C5.75897 9.14212 5.49293 9.78464 5.49341 10.5371C5.49389 11.2896 5.76041 11.9321 6.29298 12.4646C6.82555 12.9972 7.46807 13.2633 8.22053 13.2628C8.973 13.2623 9.61552 12.9958 10.1481 12.4632ZM9.17938 11.4941C9.44326 11.2303 9.5749 10.9107 9.5743 10.5355C9.5737 10.1603 9.44146 9.8407 9.17758 9.57681C8.91369 9.31293 8.59414 9.18129 8.21891 9.18189C7.84369 9.18249 7.52413 9.31473 7.26025 9.57862C6.99637 9.8425 6.86472 10.1621 6.86533 10.5373C6.86593 10.9125 6.99817 11.2321 7.26205 11.4959C7.52593 11.7598 7.84549 11.8915 8.22072 11.8909C8.59594 11.8903 8.9155 11.758 9.17938 11.4941Z" fill="#484848"/>
</svg>
