<svg width="24" height="24" viewBox="0 0 24 24" fill="none" xmlns="http://www.w3.org/2000/svg">
<rect width="24" height="24" rx="12" fill="#F7F7F7"/>
<path d="M8.3333 14.6806C8.88544 14.6806 9.42263 14.7432 9.94485 14.8684C10.4671 14.9936 10.9855 15.19 11.5 15.4575V8.90365C11.0316 8.59853 10.5248 8.36968 9.97947 8.21711C9.43417 8.06455 8.88544 7.98827 8.3333 7.98827C7.9333 7.98827 7.55958 8.01967 7.21215 8.08248C6.86472 8.1453 6.50767 8.24808 6.141 8.39081C6.08971 8.40791 6.05338 8.43249 6.03202 8.46455C6.01065 8.4966 5.99997 8.53186 5.99997 8.57031V14.8754C5.99997 14.9353 6.02133 14.9791 6.06407 15.0068C6.10681 15.0346 6.15383 15.0378 6.20512 15.0165C6.52135 14.9088 6.85511 14.8259 7.20638 14.7677C7.55766 14.7096 7.9333 14.6806 8.3333 14.6806ZM12.5 15.4575C13.0145 15.19 13.5329 14.9936 14.0551 14.8684C14.5773 14.7432 15.1145 14.6806 15.6666 14.6806C16.0666 14.6806 16.4423 14.7096 16.7936 14.7677C17.1448 14.8259 17.4786 14.9088 17.7948 15.0165C17.8461 15.0378 17.8931 15.0346 17.9359 15.0068C17.9786 14.9791 18 14.9353 18 14.8754V8.57031C18 8.53186 17.9893 8.49767 17.9679 8.46775C17.9466 8.43783 17.9102 8.41218 17.8589 8.39081C17.4923 8.24808 17.1352 8.1453 16.7878 8.08248C16.4403 8.01967 16.0666 7.98827 15.6666 7.98827C15.1145 7.98827 14.5658 8.06455 14.0205 8.21711C13.4752 8.36968 12.9683 8.59853 12.5 8.90365V15.4575ZM12 16.9241C11.4624 16.5276 10.8824 16.2211 10.2602 16.0049C9.63799 15.7887 8.99569 15.6805 8.3333 15.6805C7.92647 15.6805 7.5269 15.7256 7.1346 15.8158C6.74229 15.906 6.36408 16.0387 5.99998 16.2139C5.76238 16.3233 5.53632 16.306 5.32178 16.1619C5.10726 16.0179 5 15.8139 5 15.5498V8.31135C5 8.16776 5.03696 8.03293 5.11088 7.90686C5.18482 7.7808 5.29144 7.68999 5.43077 7.63443C5.88204 7.41478 6.35234 7.25217 6.84165 7.14661C7.33096 7.04106 7.82818 6.98828 8.3333 6.98828C8.98202 6.98828 9.61578 7.07696 10.2346 7.25431C10.8534 7.43166 11.4418 7.69341 12 8.03957C12.5581 7.69341 13.1466 7.43166 13.7653 7.25431C14.3841 7.07696 15.0179 6.98828 15.6666 6.98828C16.1718 6.98828 16.669 7.04106 17.1583 7.14661C17.6476 7.25217 18.1179 7.41478 18.5692 7.63443C18.7085 7.68999 18.8151 7.7808 18.889 7.90686C18.963 8.03293 19 8.16776 19 8.31135V15.5498C19 15.8139 18.8884 16.0158 18.6653 16.1555C18.4423 16.2953 18.2076 16.3104 17.9615 16.201C17.6017 16.0301 17.2288 15.9006 16.8429 15.8126C16.457 15.7246 16.0649 15.6805 15.6666 15.6805C15.0042 15.6805 14.3619 15.7887 13.7397 16.0049C13.1175 16.2211 12.5376 16.5276 12 16.9241Z" fill="#484848"/>
</svg>
