<svg width="18" height="18" viewBox="0 0 18 18" fill="none" xmlns="http://www.w3.org/2000/svg">
<path d="M11.25 16.68H13.05C13.2985 16.68 13.5 16.4785 13.5 16.23V1.77001C13.5 1.52149 13.2985 1.32001 13.05 1.32001H11.25C11.0015 1.32001 10.8 1.52149 10.8 1.77001V3.15001H7.2V1.77001C7.2 1.52149 6.99852 1.32001 6.75 1.32001H4.95C4.70148 1.32001 4.5 1.52149 4.5 1.77001V16.23C4.5 16.4785 4.70148 16.68 4.95 16.68H6.75C6.99852 16.68 7.2 16.4785 7.2 16.23V14.85H10.8V16.23C10.8 16.4785 11.0015 16.68 11.25 16.68ZM10.8 8.55001H7.2V6.75001H10.8V8.55001ZM7.2 9.45001H10.8V11.25H7.2V9.45001ZM11.7 2.22001H12.6V15.78H11.7V2.22001ZM10.8 4.05001V5.85001H7.2V4.05001H10.8ZM6.3 15.78H5.4V2.22001H6.3V15.78ZM7.2 13.95V12.15H10.8V13.95H7.2Z" fill="#484848"/>
</svg>
