<svg width="24" height="24" viewBox="0 0 24 24" fill="none" xmlns="http://www.w3.org/2000/svg">
<rect width="24" height="24" rx="12" fill="#F7F7F7"/>
<path d="M12.0003 18.3346C11.1319 18.3346 10.3125 18.1681 9.54199 17.8352C8.77148 17.5023 8.09947 17.0491 7.52596 16.4756C6.95246 15.9021 6.49926 15.2301 6.16636 14.4596C5.83345 13.6891 5.66699 12.8697 5.66699 12.0013C5.66699 11.1261 5.83345 10.3049 6.16636 9.53784C6.49926 8.77075 6.95246 8.10045 7.52596 7.52694C8.09947 6.95344 8.77148 6.50024 9.54199 6.16734C10.3125 5.83442 11.1319 5.66797 12.0003 5.66797C12.8755 5.66797 13.6967 5.83442 14.4638 6.16734C15.2308 6.50024 15.9011 6.95344 16.4747 7.52694C17.0482 8.10045 17.5014 8.77075 17.8343 9.53784C18.1672 10.3049 18.3336 11.1261 18.3336 12.0013C18.3336 12.8697 18.1672 13.6891 17.8343 14.4596C17.5014 15.2301 17.0482 15.9021 16.4747 16.4756C15.9011 17.0491 15.2308 17.5023 14.4638 17.8352C13.6967 18.1681 12.8755 18.3346 12.0003 18.3346ZM12.0003 17.3205C12.3405 16.8692 12.6268 16.4141 12.8593 15.9551C13.0918 15.4961 13.2811 14.9944 13.4272 14.45H10.5734C10.7281 15.0115 10.9195 15.5218 11.1477 15.9808C11.3759 16.4397 11.6601 16.8863 12.0003 17.3205ZM10.7093 17.1372C10.4538 16.7705 10.2243 16.3536 10.0208 15.8865C9.81742 15.4194 9.6593 14.9406 9.54648 14.45H7.28491C7.63705 15.1423 8.10928 15.7239 8.70159 16.1949C9.29391 16.6658 9.96315 16.9799 10.7093 17.1372ZM13.2913 17.1372C14.0375 16.9799 14.7067 16.6658 15.299 16.1949C15.8913 15.7239 16.3636 15.1423 16.7157 14.45H14.4541C14.32 14.9449 14.1511 15.4259 13.9477 15.893C13.7443 16.3601 13.5255 16.7748 13.2913 17.1372ZM6.86569 13.45H9.34391C9.30203 13.2022 9.27169 12.9592 9.25289 12.7212C9.23409 12.4831 9.22469 12.2432 9.22469 12.0013C9.22469 11.7594 9.23409 11.5194 9.25289 11.2814C9.27169 11.0434 9.30203 10.8004 9.34391 10.5526H6.86569C6.80159 10.7791 6.75245 11.0145 6.71826 11.259C6.68407 11.5034 6.66698 11.7509 6.66698 12.0013C6.66698 12.2517 6.68407 12.4992 6.71826 12.7436C6.75245 12.988 6.80159 13.2235 6.86569 13.45ZM10.3439 13.45H13.6567C13.6986 13.2022 13.7289 12.9613 13.7478 12.7276C13.7666 12.4938 13.776 12.2517 13.776 12.0013C13.776 11.7509 13.7666 11.5088 13.7478 11.275C13.7289 11.0412 13.6986 10.8004 13.6567 10.5526H10.3439C10.302 10.8004 10.2717 11.0412 10.2529 11.275C10.2341 11.5088 10.2247 11.7509 10.2247 12.0013C10.2247 12.2517 10.2341 12.4938 10.2529 12.7276C10.2717 12.9613 10.302 13.2022 10.3439 13.45ZM14.6567 13.45H17.1349C17.199 13.2235 17.2482 12.988 17.2824 12.7436C17.3165 12.4992 17.3336 12.2517 17.3336 12.0013C17.3336 11.7509 17.3165 11.5034 17.2824 11.259C17.2482 11.0145 17.199 10.7791 17.1349 10.5526H14.6567C14.6986 10.8004 14.7289 11.0434 14.7477 11.2814C14.7665 11.5194 14.7759 11.7594 14.7759 12.0013C14.7759 12.2432 14.7665 12.4831 14.7477 12.7212C14.7289 12.9592 14.6986 13.2022 14.6567 13.45ZM14.4541 9.55259H16.7157C16.3593 8.85172 15.8903 8.27009 15.3086 7.80769C14.727 7.3453 14.0546 7.02906 13.2913 6.85897C13.5469 7.247 13.7742 7.67136 13.9734 8.13205C14.1725 8.59274 14.3328 9.06625 14.4541 9.55259ZM10.5734 9.55259H13.4272C13.2725 8.99532 13.0779 8.48185 12.8433 8.01219C12.6086 7.54253 12.3277 7.09915 12.0003 6.68205C11.673 7.09915 11.392 7.54253 11.1574 8.01219C10.9227 8.48185 10.7281 8.99532 10.5734 9.55259ZM7.28491 9.55259H9.54648C9.66784 9.06625 9.8281 8.59274 10.0273 8.13205C10.2264 7.67136 10.4538 7.247 10.7093 6.85897C9.94179 7.02906 9.26828 7.34637 8.68878 7.8109C8.10929 8.27544 7.64133 8.856 7.28491 9.55259Z" fill="#484848"/>
</svg>
