<svg width="16" height="17" viewBox="0 0 16 17" fill="none" xmlns="http://www.w3.org/2000/svg">
<path d="M7.99933 14.0508L7.26345 13.3893C6.15833 12.3868 5.24444 11.5252 4.52178 10.8047C3.79914 10.0842 3.22649 9.44296 2.80385 8.88099C2.38119 8.31903 2.08589 7.80642 1.91795 7.34318C1.74999 6.87993 1.66602 6.40985 1.66602 5.93293C1.66602 4.98678 1.98503 4.19469 2.62307 3.55666C3.2611 2.91863 4.05319 2.59961 4.99933 2.59961C5.58139 2.59961 6.13139 2.73573 6.64933 3.00796C7.16728 3.28018 7.61728 3.67057 7.99933 4.17911C8.38139 3.67057 8.83139 3.28018 9.34933 3.00796C9.86728 2.73573 10.4173 2.59961 10.9993 2.59961C11.9455 2.59961 12.7376 2.91863 13.3756 3.55666C14.0136 4.19469 14.3327 4.98678 14.3327 5.93293C14.3327 6.40985 14.2487 6.87993 14.0807 7.34318C13.9128 7.80642 13.6175 8.31903 13.1948 8.88099C12.7722 9.44296 12.2006 10.0842 11.4801 10.8047C10.7596 11.5252 9.84462 12.3868 8.73522 13.3893L7.99933 14.0508ZM7.99933 12.6996C9.066 11.7398 9.94378 10.9171 10.6327 10.2316C11.3216 9.54618 11.866 8.95066 12.266 8.44511C12.666 7.93955 12.9438 7.49062 13.0993 7.09831C13.2549 6.706 13.3327 6.31754 13.3327 5.93293C13.3327 5.26626 13.1104 4.7107 12.666 4.26626C12.2216 3.82182 11.666 3.59959 10.9993 3.59959C10.4728 3.59959 9.98629 3.74895 9.53972 4.04768C9.09314 4.34639 8.7395 4.76199 8.47882 5.29448H7.51985C7.25489 4.75772 6.90019 4.34105 6.45575 4.04446C6.0113 3.74788 5.52583 3.59959 4.99933 3.59959C4.33694 3.59959 3.78245 3.82182 3.33587 4.26626C2.88929 4.7107 2.666 5.26626 2.666 5.93293C2.666 6.31754 2.74378 6.706 2.89933 7.09831C3.05489 7.49062 3.33267 7.93955 3.73267 8.44511C4.13267 8.95066 4.67711 9.54511 5.366 10.2284C6.05489 10.9118 6.93267 11.7355 7.99933 12.6996Z" fill="#484848"/>
</svg>
