<svg width="16" height="16" viewBox="0 0 16 16" fill="none" xmlns="http://www.w3.org/2000/svg">
<path d="M8.00192 7.91154C8.33364 7.91154 8.61723 7.79342 8.8527 7.5572C9.08817 7.32098 9.2059 7.03701 9.2059 6.70529C9.2059 6.37356 9.08779 6.08997 8.85157 5.8545C8.61534 5.61904 8.33137 5.5013 7.99965 5.5013C7.66793 5.5013 7.38433 5.61941 7.14887 5.85564C6.9134 6.09186 6.79567 6.37583 6.79567 6.70755C6.79567 7.03927 6.91378 7.32287 7.15 7.55834C7.38622 7.7938 7.67019 7.91154 8.00192 7.91154ZM8.00078 13.0103C9.30505 11.8428 10.3031 10.7229 10.995 9.65065C11.6869 8.57843 12.0328 7.63932 12.0328 6.83333C12.0328 5.61796 11.6467 4.61881 10.8745 3.8359C10.1023 3.05299 9.14437 2.66154 8.00078 2.66154C6.85719 2.66154 5.89929 3.05299 5.12707 3.8359C4.35484 4.61881 3.96873 5.61796 3.96873 6.83333C3.96873 7.63932 4.31467 8.57843 5.00655 9.65065C5.69844 10.7229 6.69652 11.8428 8.00078 13.0103ZM8.00078 14.341C6.32302 12.8872 5.0649 11.5342 4.22643 10.2821C3.38798 9.02992 2.96875 7.88035 2.96875 6.83333C2.96875 5.29489 3.4664 4.04939 4.4617 3.09682C5.45699 2.14425 6.63668 1.66797 8.00078 1.66797C9.36488 1.66797 10.5446 2.14425 11.5399 3.09682C12.5352 4.04939 13.0328 5.29489 13.0328 6.83333C13.0328 7.88035 12.6136 9.02992 11.7751 10.2821C10.9367 11.5342 9.67855 12.8872 8.00078 14.341Z" fill="#484848"/>
</svg>
