<svg width="16" height="16" viewBox="0 0 16 16" fill="none" xmlns="http://www.w3.org/2000/svg">
<path d="M4.66663 9.07705C4.36834 9.07705 4.11429 8.97214 3.90447 8.76231C3.69464 8.55249 3.58973 8.29844 3.58973 8.00015C3.58973 7.70186 3.69464 7.4478 3.90447 7.23798C4.11429 7.02816 4.36834 6.92325 4.66663 6.92325C4.96492 6.92325 5.21898 7.02816 5.4288 7.23798C5.63862 7.4478 5.74353 7.70186 5.74353 8.00015C5.74353 8.29844 5.63862 8.55249 5.4288 8.76231C5.21898 8.97214 4.96492 9.07705 4.66663 9.07705ZM4.66663 11.6668C3.64954 11.6668 2.78417 11.31 2.0705 10.5963C1.35683 9.88261 1 9.01724 1 8.00015C1 6.98306 1.35683 6.11768 2.0705 5.40401C2.78417 4.69034 3.64954 4.3335 4.66663 4.3335C5.38116 4.3335 6.02731 4.5179 6.60508 4.88671C7.18286 5.25551 7.62388 5.73777 7.92815 6.3335H13.9295L15.5961 8.00015L13.032 10.5514L11.7949 9.62191L10.5256 10.5642L9.22435 9.6668H7.92815C7.62388 10.2582 7.18286 10.7394 6.60508 11.1104C6.02731 11.4813 5.38116 11.6668 4.66663 11.6668ZM4.66663 10.6668C5.30596 10.6668 5.85959 10.4737 6.32753 10.0873C6.79548 9.701 7.10082 9.22749 7.24355 8.66681H9.53845L10.4987 9.33091L11.8013 8.37836L12.9333 9.24373L14.1769 8.00015L13.5102 7.33348H7.24355C7.10082 6.7728 6.79548 6.2993 6.32753 5.91296C5.85959 5.52664 5.30596 5.33348 4.66663 5.33348C3.9333 5.33348 3.30552 5.59459 2.7833 6.11681C2.26108 6.63904 1.99997 7.26681 1.99997 8.00015C1.99997 8.73348 2.26108 9.36126 2.7833 9.88348C3.30552 10.4057 3.9333 10.6668 4.66663 10.6668Z" fill="#484848"/>
</svg>
