<svg width="12" height="13" viewBox="0 0 12 13" fill="none" xmlns="http://www.w3.org/2000/svg">
<path d="M1.53912 12.1673C1.20236 12.1673 0.917318 12.0506 0.683984 11.8173C0.450651 11.584 0.333984 11.2989 0.333984 10.9622V2.03912C0.333984 1.70236 0.450651 1.41732 0.683984 1.18398C0.917318 0.950651 1.20236 0.833984 1.53912 0.833984H6.00705V1.83397H1.53912C1.48783 1.83397 1.44081 1.85533 1.39807 1.89807C1.35533 1.94081 1.33397 1.98783 1.33397 2.03912V10.9622C1.33397 11.0134 1.35533 11.0605 1.39807 11.1032C1.44081 11.1459 1.48783 11.1673 1.53912 11.1673H6.00705V12.1673H1.53912ZM8.82115 9.34675L8.12887 8.6237L9.75194 7.00062H4.06473V6.00065H9.75194L8.12887 4.37757L8.82115 3.65452L11.6673 6.50064L8.82115 9.34675Z" fill="#484848"/>
</svg>
