<svg width="40" height="40" viewBox="0 0 40 40" fill="none" xmlns="http://www.w3.org/2000/svg">
<rect width="40" height="40" rx="20" fill="#484848" fill-opacity="0.05"/>
<path d="M14.8716 25C14.5349 25 14.2498 24.8833 14.0165 24.65C13.7832 24.4166 13.6665 24.1316 13.6665 23.7948L13.6665 16.2051C13.6665 15.8684 13.7832 15.5833 14.0165 15.35C14.2498 15.1167 14.5349 15 14.8716 15L25.128 15C25.4648 15 25.7498 15.1167 25.9831 15.35C26.2165 15.5833 26.3331 15.8684 26.3331 16.2051V23.7948C26.3331 24.1316 26.2165 24.4166 25.9831 24.65C25.7498 24.8833 25.4648 25 25.128 25H14.8716ZM19.9998 20.3718L14.6665 16.9615L14.6665 23.7948C14.6665 23.8547 14.6857 23.9038 14.7242 23.9423C14.7627 23.9808 14.8118 24 14.8716 24H25.128C25.1878 24 25.237 23.9808 25.2755 23.9423C25.3139 23.9038 25.3332 23.8547 25.3332 23.7948V16.9615L19.9998 20.3718ZM19.9998 19.3333L25.2306 16L14.7691 16L19.9998 19.3333ZM14.6665 16.9615V16L14.6665 23.7948C14.6665 23.8547 14.6857 23.9038 14.7242 23.9423C14.7627 23.9808 14.8118 24 14.8716 24H14.6665L14.6665 16.9615Z" fill="#484848"/>
</svg>
