<svg width="14" height="10" viewBox="0 0 14 10" fill="none" xmlns="http://www.w3.org/2000/svg">
<path d="M1.87115 9.99997C1.53439 9.99997 1.24935 9.8833 1.01602 9.64997C0.782682 9.41663 0.666016 9.13159 0.666016 8.79483V1.20513C0.666016 0.868379 0.782682 0.583333 1.01602 0.35C1.24935 0.116667 1.53439 0 1.87115 0H12.1275C12.4643 0 12.7493 0.116667 12.9827 0.35C13.216 0.583333 13.3327 0.868379 13.3327 1.20513V8.79483C13.3327 9.13159 13.216 9.41663 12.9827 9.64997C12.7493 9.8833 12.4643 9.99997 12.1275 9.99997H1.87115ZM6.99933 5.37175L1.666 1.9615V8.79483C1.666 8.85467 1.68523 8.90382 1.7237 8.94228C1.76217 8.98075 1.81132 8.99998 1.87115 8.99998H12.1275C12.1873 8.99998 12.2365 8.98075 12.275 8.94228C12.3134 8.90382 12.3327 8.85467 12.3327 8.79483V1.9615L6.99933 5.37175ZM6.99933 4.33332L12.2301 0.999984H1.76857L6.99933 4.33332ZM1.666 1.9615V0.999984V8.79483C1.666 8.85467 1.68523 8.90382 1.7237 8.94228C1.76217 8.98075 1.81132 8.99998 1.87115 8.99998H1.666V1.9615Z" fill="#484848"/>
</svg>
