<svg width="14" height="12" viewBox="0 0 14 12" fill="none" xmlns="http://www.w3.org/2000/svg">
<path d="M2.21149 9.87496V10.8125C2.21149 10.9718 2.15759 11.1054 2.04977 11.2132C1.94197 11.3211 1.80839 11.375 1.64901 11.375H1.1875C1.02813 11.375 0.894531 11.3211 0.786719 11.2132C0.678906 11.1054 0.625 10.9718 0.625 10.8125V5.05768L2.15674 0.6875C2.21251 0.515388 2.31491 0.378613 2.46394 0.277176C2.61298 0.175726 2.77884 0.125 2.96153 0.125H11.0673C11.2428 0.125 11.4021 0.176563 11.5453 0.279688C11.6885 0.382813 11.7878 0.51875 11.8432 0.6875L13.375 5.05768V10.8125C13.375 10.9718 13.3211 11.1054 13.2132 11.2132C13.1054 11.3211 12.9718 11.375 12.8125 11.375H12.351C12.1916 11.375 12.058 11.3211 11.9502 11.2132C11.8424 11.1054 11.7885 10.9718 11.7885 10.8125V9.87496H2.21149ZM2.20574 3.93271H11.7942L10.8481 1.24998H3.1519L2.20574 3.93271ZM3.59783 7.88459C3.87073 7.88459 4.10213 7.78908 4.29203 7.59804C4.48194 7.407 4.5769 7.17503 4.5769 6.90213C4.5769 6.62923 4.48138 6.39783 4.29034 6.20793C4.09931 6.01802 3.86734 5.92306 3.59444 5.92306C3.32154 5.92306 3.09013 6.01858 2.90022 6.20962C2.71032 6.40066 2.61537 6.63263 2.61537 6.90553C2.61537 7.17843 2.71089 7.40983 2.90193 7.59974C3.09296 7.78964 3.32493 7.88459 3.59783 7.88459ZM10.4055 7.88459C10.6784 7.88459 10.9098 7.78908 11.0997 7.59804C11.2896 7.407 11.3846 7.17503 11.3846 6.90213C11.3846 6.62923 11.2891 6.39783 11.098 6.20793C10.907 6.01802 10.675 5.92306 10.4021 5.92306C10.1292 5.92306 9.89783 6.01858 9.70793 6.20962C9.51802 6.40066 9.42306 6.63263 9.42306 6.90553C9.42306 7.17843 9.51858 7.40983 9.70962 7.59974C9.90066 7.78964 10.1326 7.88459 10.4055 7.88459ZM1.74998 8.74998H12.25V5.05768H1.74998V8.74998Z" fill="#484848"/>
</svg>
