<svg width="284" height="192" viewBox="0 0 284 192" fill="none" xmlns="http://www.w3.org/2000/svg">
<path opacity="0.6" d="M141.673 163.201C193.96 163.201 236.346 160.036 236.346 156.132C236.346 152.227 193.96 149.062 141.673 149.062C89.3866 149.062 47 152.227 47 156.132C47 160.036 89.3866 163.201 141.673 163.201Z" fill="#DBF9D8"/>
<path d="M122.057 45.6008C122.057 42.9498 124.1 40.8008 126.62 40.8008H152.595C155.115 40.8008 157.158 42.9498 157.158 45.6008C157.158 48.2517 155.115 50.4008 152.595 50.4008H126.62C124.1 50.4008 122.057 48.2517 122.057 45.6008Z" fill="#B7DFB9"/>
<path d="M178.697 79.2414L180.51 72L187.037 74.069L194.652 87.1724L185.587 92L178.697 79.2414Z" fill="#B7DFB9"/>
<path d="M133.225 142.802C133.225 147.883 129.118 152.002 124.051 152.002C118.984 152.002 114.877 147.883 114.877 142.802C114.877 137.721 118.984 133.602 124.051 133.602C129.118 133.602 133.225 137.721 133.225 142.802Z" fill="#B7DFB9"/>
<path fill-rule="evenodd" clip-rule="evenodd" d="M179.416 69.5391L187.674 72.9576C188.192 73.1722 188.623 73.5567 188.895 74.0484L195.37 85.7336C196.05 86.959 195.585 88.5048 194.344 89.1499L187.103 92.9133C185.885 93.5464 184.386 93.0677 183.757 91.8449L177.418 79.5148C177.136 78.9649 177.067 78.329 177.227 77.7314L179.416 69.5391ZM180.843 72.4361L179.28 78.2831C179.258 78.3685 179.267 78.4593 179.308 78.5379L185.647 90.868C185.737 91.0427 185.951 91.1111 186.125 91.0206L193.366 87.2572C193.543 87.165 193.609 86.9442 193.512 86.7691L187.037 75.0839C186.998 75.0137 186.937 74.9588 186.863 74.9281L180.843 72.4361Z" fill="#484848"/>
<path fill-rule="evenodd" clip-rule="evenodd" d="M180.025 72.4705L173.293 66.075V63.1992L181.487 70.9229L180.025 72.4705Z" fill="#484848"/>
<path fill-rule="evenodd" clip-rule="evenodd" d="M164.88 59.7324H114.334C110.069 59.7324 106.612 63.2304 106.612 67.5455V123.658C106.612 127.973 110.069 131.471 114.334 131.471H164.88C169.145 131.471 172.602 127.973 172.602 123.658V67.5455C172.602 63.2304 169.145 59.7324 164.88 59.7324ZM114.334 57.6016C108.906 57.6016 104.506 62.0536 104.506 67.5455V123.658C104.506 129.15 108.906 133.602 114.334 133.602H164.88C170.308 133.602 174.708 129.15 174.708 123.658V67.5455C174.708 62.0536 170.308 57.6016 164.88 57.6016H114.334Z" fill="#484848"/>
<path fill-rule="evenodd" clip-rule="evenodd" d="M151.813 50.25H127.402V57.75H151.813V50.25ZM125.248 48V60H153.967V48H125.248Z" fill="#484848"/>
<path fill-rule="evenodd" clip-rule="evenodd" d="M152.595 43.0162H126.62C125.263 43.0162 124.163 44.1733 124.163 45.6008C124.163 47.0282 125.263 48.1854 126.62 48.1854H152.595C153.952 48.1854 155.052 47.0282 155.052 45.6008C155.052 44.1733 153.952 43.0162 152.595 43.0162ZM126.62 40.8008C124.1 40.8008 122.057 42.9498 122.057 45.6008C122.057 48.2517 124.1 50.4008 126.62 50.4008H152.595C155.115 50.4008 157.158 48.2517 157.158 45.6008C157.158 42.9498 155.115 40.8008 152.595 40.8008H126.62Z" fill="#484848"/>
<path d="M118.398 72.4134C118.398 71.6285 119.033 70.9922 119.816 70.9922C120.598 70.9922 121.233 71.6285 121.233 72.4134V118.603C121.233 119.388 120.598 120.025 119.816 120.025C119.033 120.025 118.398 119.388 118.398 118.603V72.4134Z" fill="#484848"/>
<path d="M138.24 72.4134C138.24 71.6285 138.875 70.9922 139.657 70.9922C140.44 70.9922 141.075 71.6285 141.075 72.4134V118.603C141.075 119.388 140.44 120.025 139.657 120.025C138.875 120.025 138.24 119.388 138.24 118.603V72.4134Z" fill="#484848"/>
<path d="M158.08 72.4134C158.08 71.6285 158.715 70.9922 159.497 70.9922C160.28 70.9922 160.915 71.6285 160.915 72.4134V118.603C160.915 119.388 160.28 120.025 159.497 120.025C158.715 120.025 158.08 119.388 158.08 118.603V72.4134Z" fill="#484848"/>
<path fill-rule="evenodd" clip-rule="evenodd" d="M124.051 149.878C127.949 149.878 131.108 146.71 131.108 142.802C131.108 138.893 127.949 135.725 124.051 135.725C120.154 135.725 116.994 138.893 116.994 142.802C116.994 146.71 120.154 149.878 124.051 149.878ZM124.051 152.002C129.118 152.002 133.225 147.883 133.225 142.802C133.225 137.721 129.118 133.602 124.051 133.602C118.984 133.602 114.877 137.721 114.877 142.802C114.877 147.883 118.984 152.002 124.051 152.002Z" fill="#484848"/>
<path fill-rule="evenodd" clip-rule="evenodd" d="M124.052 145.002C125.263 145.002 126.246 144.017 126.246 142.802C126.246 141.587 125.263 140.602 124.052 140.602C122.84 140.602 121.858 141.587 121.858 142.802C121.858 144.017 122.84 145.002 124.052 145.002ZM124.052 147.202C126.475 147.202 128.439 145.232 128.439 142.802C128.439 140.372 126.475 138.402 124.052 138.402C121.628 138.402 119.664 140.372 119.664 142.802C119.664 145.232 121.628 147.202 124.052 147.202Z" fill="#484848"/>
<path d="M161.944 142.802C161.944 147.883 157.837 152.002 152.77 152.002C147.703 152.002 143.596 147.883 143.596 142.802C143.596 137.721 147.703 133.602 152.77 133.602C157.837 133.602 161.944 137.721 161.944 142.802Z" fill="#B7DFB9"/>
<path fill-rule="evenodd" clip-rule="evenodd" d="M153.168 145.002C154.27 145.002 155.163 144.017 155.163 142.802C155.163 141.587 154.27 140.602 153.168 140.602C152.067 140.602 151.174 141.587 151.174 142.802C151.174 144.017 152.067 145.002 153.168 145.002ZM153.168 147.202C155.371 147.202 157.157 145.232 157.157 142.802C157.157 140.372 155.371 138.402 153.168 138.402C150.966 138.402 149.18 140.372 149.18 142.802C149.18 145.232 150.966 147.202 153.168 147.202Z" fill="#484848"/>
<path fill-rule="evenodd" clip-rule="evenodd" d="M152.77 149.878C156.667 149.878 159.827 146.71 159.827 142.802C159.827 138.893 156.667 135.725 152.77 135.725C148.872 135.725 145.713 138.893 145.713 142.802C145.713 146.71 148.872 149.878 152.77 149.878ZM152.77 152.002C157.837 152.002 161.944 147.883 161.944 142.802C161.944 137.721 157.837 133.602 152.77 133.602C147.703 133.602 143.596 137.721 143.596 142.802C143.596 147.883 147.703 152.002 152.77 152.002Z" fill="#484848"/>
<path d="M65.0484 122.453C66.3987 126.19 70.5145 128.122 74.2421 126.768C77.9691 125.414 79.8959 121.287 78.5455 117.549C77.1952 113.811 73.0794 111.879 69.3518 113.233C65.6248 114.587 63.6981 118.715 65.0484 122.453ZM76.1158 118.431C76.9798 120.823 75.7467 123.465 73.3614 124.332C70.9761 125.198 68.3415 123.962 67.4775 121.57C66.6135 119.178 67.8466 116.536 70.2319 115.669C72.6172 114.803 75.2512 116.039 76.1158 118.431Z" fill="#DBF9D8"/>
<path d="M176.734 34.4528C178.084 38.1903 182.2 40.1225 185.928 38.7684C189.655 37.4142 191.581 33.2868 190.231 29.5487C188.881 25.8113 184.765 23.8791 181.037 25.2332C177.31 26.5873 175.384 30.7147 176.734 34.4528ZM187.801 30.4313C188.665 32.8233 187.432 35.4653 185.047 36.3318C182.662 37.1982 180.027 35.9617 179.163 33.5697C178.299 31.1777 179.532 28.5356 181.917 27.6692C184.303 26.8027 186.937 28.0393 187.801 30.4313Z" fill="#DBF9D8"/>
<path d="M81.1447 40.8016L84.2923 36.5972L88.0912 39.3854L89.3473 37.7068L85.5478 34.9186L88.6948 30.7143L87.1786 29.6016L84.0316 33.8059L80.2327 31.0183L78.9766 32.6963L82.7761 35.4845L79.6285 39.6889L81.1447 40.8016Z" fill="#484848"/>
<path d="M88.5752 71.6608C89.1479 70.0809 88.3303 68.3362 86.7492 67.764C85.1681 67.1917 83.4221 68.0086 82.8494 69.5885C82.2767 71.1684 83.0943 72.9131 84.6754 73.4853C86.2565 74.0576 88.0025 73.2407 88.5752 71.6608Z" fill="#4CAF50"/>
<path d="M218.583 78.7088L214.309 76.4045L216.608 72.1193L214.903 71.1992L212.604 75.4844L208.332 73.1795L207.414 74.8896L211.687 77.1946L209.389 81.4798L211.094 82.3992L213.393 78.114L217.666 80.4189L218.583 78.7088Z" fill="#484848"/>
<path d="M216.014 138.508C218.114 137.254 218.798 134.525 217.54 132.414C216.282 130.302 213.559 129.607 211.458 130.861C209.357 132.116 208.673 134.844 209.931 136.955C211.19 139.067 213.912 139.762 216.014 138.508ZM212.278 132.237C213.623 131.435 215.365 131.879 216.17 133.231C216.976 134.582 216.538 136.328 215.194 137.131C213.849 137.933 212.106 137.489 211.301 136.137C210.496 134.786 210.933 133.04 212.278 132.237Z" fill="#DBF9D8"/>
<path d="M199.666 111.193C201.209 110.537 201.926 108.748 201.267 107.198C200.607 105.648 198.821 104.922 197.277 105.578C195.734 106.234 195.017 108.022 195.676 109.573C196.336 111.123 198.122 111.848 199.666 111.193Z" fill="#4CAF50"/>
</svg>
