<svg width="60" height="60" viewBox="0 0 60 60" fill="none" xmlns="http://www.w3.org/2000/svg">
<rect width="60" height="60" rx="30" fill="#EACD37" fill-opacity="0.1"/>
<path d="M13.9536 43.4582L30 15.75L46.0464 43.4582H13.9536ZM18.0458 41.0832H41.9542L30 20.4999L18.0458 41.0832ZM30 39.1954C30.3623 39.1954 30.6661 39.0728 30.9112 38.8277C31.1563 38.5826 31.2788 38.2789 31.2788 37.9165C31.2788 37.5542 31.1563 37.2505 30.9112 37.0054C30.6661 36.7603 30.3623 36.6377 30 36.6377C29.6376 36.6377 29.3339 36.7603 29.0888 37.0054C28.8437 37.2505 28.7212 37.5542 28.7212 37.9165C28.7212 38.2789 28.8437 38.5826 29.0888 38.8277C29.3339 39.0728 29.6376 39.1954 30 39.1954ZM28.8125 35.0544H31.1874V27.1377L28.8125 27.1377L28.8125 35.0544Z" fill="#EACD37"/>
</svg>
