<svg width="18" height="18" viewBox="0 0 18 18" fill="none" xmlns="http://www.w3.org/2000/svg">
<path d="M13.4156 13.7414H16.5L15.7097 11.9633H16.4987L13.2737 4.6732H12.6679L11.5395 7.23579L9.30248 2.18388H8.69753L6.46054 7.23576L5.33208 4.6732H4.72634L1.50129 11.9633H2.29028L1.5 13.7414H4.58443V14.9268H2.18402V15.8158H15.816V14.9268H13.4156V13.7414ZM8.99999 3.69656L11.8732 10.1852H10.6867L11.8721 12.8524H6.12784L7.31322 10.1852H6.12679L8.99999 3.69656ZM2.86801 12.8524L3.65827 11.0743H2.86676L5.02807 6.18875L5.97351 8.33571L4.76088 11.0743H5.94521L5.15492 12.8524H2.86801ZM8.55546 14.9268H5.47347V13.7414H8.55546V14.9268ZM12.5265 14.9268H9.44451V13.7414H12.5265L12.5265 14.9268ZM12.0548 11.0743H13.2391L12.0265 8.33574L12.9719 6.18875L15.1332 11.0743H14.3417L15.132 12.8524H12.845L12.0548 11.0743Z" fill="#484848"/>
</svg>
