<svg width="18" height="18" viewBox="0 0 18 18" fill="none" xmlns="http://www.w3.org/2000/svg">
<path fill-rule="evenodd" clip-rule="evenodd" d="M13.9993 4.07349H15.764V15.0292H13.9993V4.07349ZM14.6611 4.73524V14.3675H15.1022V4.73524H14.6611Z" fill="#484848"/>
<path fill-rule="evenodd" clip-rule="evenodd" d="M2.60223 4.07324H4.36692V15.029H2.60223V4.07324ZM3.26399 4.735V14.3672H3.70516V4.735H3.26399Z" fill="#484848"/>
<path fill-rule="evenodd" clip-rule="evenodd" d="M1.133 4.73535L1.133 2.97067L16.8681 2.97067L16.8681 4.73535L1.133 4.73535ZM1.79475 4.07359L16.2063 4.07359L16.2063 3.63242L1.79475 3.63242L1.79475 4.07359Z" fill="#484848"/>
<path fill-rule="evenodd" clip-rule="evenodd" d="M1.50005 2.16176H1.09564V1.5H5.50735V2.16176H5.10295V3.30145H4.44119V2.16176H2.16181V3.30145H1.50005V2.16176Z" fill="#484848"/>
<path fill-rule="evenodd" clip-rule="evenodd" d="M12.8973 2.16176H12.4929V1.5H16.9046V2.16176H16.5002V3.30145H15.8384V2.16176H13.559V3.30145H12.8973V2.16176Z" fill="#484848"/>
<path fill-rule="evenodd" clip-rule="evenodd" d="M1.6473 15.4338C1.6473 14.845 2.12464 14.3677 2.71346 14.3677H4.18403C4.77286 14.3677 5.2502 14.845 5.2502 15.4338V15.8382H5.28696V16.5H1.61053V15.8382H1.6473V15.4338ZM2.30906 15.8382H4.58844V15.4338C4.58844 15.2105 4.40738 15.0294 4.18403 15.0294H2.71346C2.49011 15.0294 2.30906 15.2105 2.30906 15.4338V15.8382Z" fill="#484848"/>
<path fill-rule="evenodd" clip-rule="evenodd" d="M13.1178 15.4338C13.1178 14.845 13.5951 14.3677 14.1839 14.3677H15.6545C16.2433 14.3677 16.7207 14.845 16.7207 15.4338V15.8382H16.7574V16.5H13.081V15.8382H13.1178V15.4338ZM13.7795 15.8382H16.0589V15.4338C16.0589 15.2105 15.8778 15.0294 15.6545 15.0294H14.1839C13.9606 15.0294 13.7795 15.2105 13.7795 15.4338V15.8382Z" fill="#484848"/>
<path fill-rule="evenodd" clip-rule="evenodd" d="M5.10327 10.1397V9.55151H4.44152V11.0588H4.03711V11.7206H4.44152V12.5294H4.03711V13.1912H4.44152V14.3309H5.10327V13.9265H7.97525V14.3309H8.63701V9.55151H7.97525V10.1397H5.10327ZM7.43249 10.8015H5.64603L6.53926 11.5914L7.43249 10.8015ZM6.03979 12.0331L5.10327 11.2049V12.8613L6.03979 12.0331ZM5.64603 13.2647L6.53926 12.4748L7.43249 13.2647H5.64603ZM7.97525 12.8613L7.03874 12.0331L7.97525 11.2049V12.8613Z" fill="#484848"/>
<path fill-rule="evenodd" clip-rule="evenodd" d="M13.1918 10.1397V9.55151H13.8536V11.0588H14.258V11.7206H13.8536V12.5294H14.258V13.1912H13.8536V14.3309H13.1918V13.9265H10.3199V14.3309H9.6581V9.55151H10.3199V10.1397H13.1918ZM10.8626 10.8015H12.6491L11.7558 11.5914L10.8626 10.8015ZM12.2553 12.0331L13.1918 11.2049V12.8613L12.2553 12.0331ZM12.6491 13.2647L11.7558 12.4748L10.8626 13.2647H12.6491ZM10.3199 12.8613L11.2564 12.0331L10.3199 11.2049V12.8613Z" fill="#484848"/>
</svg>
