<svg width="16" height="16" viewBox="0 0 16 16" fill="none" xmlns="http://www.w3.org/2000/svg">
<path d="M7.99998 7.79552C7.35833 7.79552 6.80903 7.56706 6.35208 7.11012C5.89514 6.65318 5.66667 6.10388 5.66667 5.46222C5.66667 4.82056 5.89514 4.27126 6.35208 3.81432C6.80903 3.35738 7.35833 3.12891 7.99998 3.12891C8.64164 3.12891 9.19094 3.35738 9.64788 3.81432C10.1048 4.27126 10.3333 4.82056 10.3333 5.46222C10.3333 6.10388 10.1048 6.65318 9.64788 7.11012C9.19094 7.56706 8.64164 7.79552 7.99998 7.79552ZM3 12.8724V11.3904C3 11.0639 3.08868 10.7616 3.26603 10.4834C3.44338 10.2052 3.68034 9.99128 3.97692 9.84171C4.63589 9.51863 5.30064 9.27632 5.97115 9.11479C6.64166 8.95326 7.31794 8.87249 7.99998 8.87249C8.68203 8.87249 9.35831 8.95326 10.0288 9.11479C10.6993 9.27632 11.3641 9.51863 12.023 9.84171C12.3196 9.99128 12.5566 10.2052 12.7339 10.4834C12.9113 10.7616 13 11.0639 13 11.3904V12.8724H3ZM3.99998 11.8725H12V11.3904C12 11.2554 11.9609 11.1304 11.8827 11.0154C11.8045 10.9005 11.6983 10.8066 11.5641 10.734C10.9897 10.4511 10.4041 10.2368 9.80712 10.091C9.21016 9.94532 8.60778 9.87246 7.99998 9.87246C7.39218 9.87246 6.78981 9.94532 6.19285 10.091C5.59589 10.2368 5.01024 10.4511 4.43588 10.734C4.30169 10.8066 4.1955 10.9005 4.1173 11.0154C4.03909 11.1304 3.99998 11.2554 3.99998 11.3904V11.8725ZM7.99998 6.79556C8.36665 6.79556 8.68054 6.665 8.94165 6.40389C9.20276 6.14278 9.33332 5.82889 9.33332 5.46222C9.33332 5.09556 9.20276 4.78167 8.94165 4.52056C8.68054 4.25945 8.36665 4.12889 7.99998 4.12889C7.63332 4.12889 7.31943 4.25945 7.05832 4.52056C6.79721 4.78167 6.66665 5.09556 6.66665 5.46222C6.66665 5.82889 6.79721 6.14278 7.05832 6.40389C7.31943 6.665 7.63332 6.79556 7.99998 6.79556Z" fill="#484848"/>
</svg>
