<svg width="24" height="25" viewBox="0 0 24 25" fill="none" xmlns="http://www.w3.org/2000/svg">
<rect x="0.5" y="1" width="23" height="23" rx="11.5" fill="#4CAF50" fill-opacity="0.2"/>
<rect x="0.5" y="1" width="23" height="23" rx="11.5" stroke="#4CAF50"/>
<path d="M11.9058 16.5886C12.2016 16.7082 12.9713 16.8772 13.6835 16.5956C14.5738 16.2435 11.7315 15.699 11.9058 16.5886Z" fill="#4CAF50"/>
<path d="M14.0258 17.8371C13.7036 17.7049 12.8651 17.5182 12.0892 17.8295C11.1193 18.2186 14.2156 18.8202 14.0258 17.8371Z" fill="#4CAF50"/>
<path d="M13.9976 16.3926C13.9976 16.3926 13.9976 16.3926 13.9975 16.3904C13.9898 16.3796 13.9822 16.3687 13.9746 16.3579C13.4838 15.7302 12.5786 15.6182 11.9508 16.1089C11.8003 16.2272 11.6747 16.3731 11.5802 16.5395C11.574 16.549 11.5681 16.5608 11.5622 16.5727C11.3007 17.0633 11.3453 17.6584 11.6767 18.1024C11.682 18.1134 11.6897 18.1242 11.6996 18.1348C12.1881 18.7627 13.0934 18.877 13.7214 18.3885C13.8784 18.2653 14.0103 18.112 14.1062 17.9342C14.1081 17.9295 14.1125 17.9269 14.1122 17.9223C14.1122 17.9223 14.1122 17.9223 14.112 17.9201C14.3713 17.4319 14.3269 16.839 13.9978 16.3949L13.9976 16.3926ZM11.8977 17.7718C11.7406 17.4968 11.7157 17.1642 11.8301 16.8689C12.4717 17.078 13.1711 17.0257 13.7743 16.7234C13.9315 16.9983 13.9564 17.331 13.8419 17.6263C13.2005 17.4194 12.5012 17.4718 11.8977 17.7718ZM13.5361 16.4294C13.0606 16.6448 12.5265 16.6848 12.0242 16.5426C12.4118 16.0949 13.0862 16.0444 13.5361 16.4294ZM12.1382 18.0656C12.6137 17.8502 13.1479 17.8102 13.6501 17.9524C13.2626 18.4001 12.5881 18.4506 12.1382 18.0656Z" fill="#484848"/>
<path fill-rule="evenodd" clip-rule="evenodd" d="M14.1936 17.7367C14.3338 17.3508 14.3014 16.9227 14.1048 16.5622C14.0733 16.5046 14.0376 16.4486 13.9978 16.3949L13.9975 16.3904L13.9746 16.3579C13.9544 16.3321 13.9335 16.3072 13.912 16.2832C13.9065 16.277 13.901 16.271 13.8954 16.265C13.3912 15.7203 12.5463 15.6435 11.9508 16.1089C11.8327 16.2017 11.73 16.3115 11.6456 16.4348C11.6434 16.4379 11.6413 16.441 11.6392 16.4441C11.6184 16.4751 11.5987 16.5069 11.5802 16.5395C11.5762 16.5457 11.5723 16.5528 11.5684 16.5603C11.5663 16.5644 11.5642 16.5685 11.5622 16.5727C11.53 16.633 11.5025 16.6949 11.4795 16.758C11.3388 17.1448 11.3711 17.5733 11.5681 17.9334C11.6 17.9917 11.6362 18.0482 11.6767 18.1024C11.6794 18.108 11.6827 18.1135 11.6866 18.119C11.6904 18.1243 11.6947 18.1296 11.6996 18.1348C11.7219 18.1635 11.7451 18.1911 11.7691 18.2176C11.7722 18.2211 11.7754 18.2246 11.7786 18.2281C12.281 18.7729 13.1259 18.8517 13.7214 18.3885C13.8399 18.2954 13.9442 18.1853 14.0294 18.0603C14.0324 18.056 14.0353 18.0517 14.0382 18.0473C14.0595 18.0154 14.0795 17.9825 14.0983 17.9487C14.1009 17.9439 14.1036 17.939 14.1062 17.9342C14.107 17.9323 14.1081 17.9308 14.1092 17.9293C14.1108 17.9271 14.1124 17.9251 14.1122 17.9223L14.112 17.9201C14.1437 17.8604 14.1709 17.7991 14.1936 17.7367ZM12.4119 16.2583C12.2673 16.3205 12.1342 16.4155 12.0242 16.5426C12.174 16.585 12.3265 16.6112 12.4796 16.6214C12.6867 16.6352 12.8947 16.6196 13.0976 16.5751C13.2474 16.5423 13.3943 16.4937 13.5361 16.4294C13.4084 16.3202 13.2626 16.246 13.1104 16.206C12.8786 16.1451 12.632 16.1635 12.4119 16.2583ZM13.8257 16.8259C13.8105 16.791 13.7934 16.7567 13.7743 16.7234C13.1711 17.0257 12.4717 17.078 11.8301 16.8689C11.8163 16.9047 11.8044 16.9411 11.7946 16.9779C11.7735 17.0573 11.7618 17.1384 11.7596 17.2196C11.7575 17.292 11.763 17.3644 11.7757 17.4357C11.7897 17.5135 11.8124 17.5899 11.8438 17.6633C11.8596 17.7003 11.8776 17.7365 11.8977 17.7718C12.5012 17.4718 13.2005 17.4194 13.8419 17.6263C13.8566 17.5884 13.869 17.5499 13.8791 17.5109C13.8992 17.4337 13.9103 17.3547 13.9125 17.2757C13.9145 17.2033 13.9091 17.1309 13.8963 17.0596C13.882 16.9797 13.8584 16.9012 13.8257 16.8259ZM13.2625 18.2367C13.407 18.1745 13.5401 18.0795 13.6501 17.9524C13.5004 17.91 13.3478 17.8838 13.1948 17.8736C12.9876 17.8598 12.7796 17.8754 12.5768 17.9199C12.427 17.9527 12.28 18.0013 12.1382 18.0656C12.2659 18.1748 12.4117 18.249 12.5639 18.289C12.7957 18.3499 13.0423 18.3315 13.2625 18.2367Z" fill="#484848"/>
<path fill-rule="evenodd" clip-rule="evenodd" d="M15.2845 6.40218L9.38908 13.6677L9.11299 13.4437L15.0084 6.17815L15.2845 6.40218Z" fill="#484848"/>
<path fill-rule="evenodd" clip-rule="evenodd" d="M13.6862 6.03994L8.68398 12.2423L8.40722 12.019L13.4095 5.81673L13.6862 6.03994Z" fill="#484848"/>
<path fill-rule="evenodd" clip-rule="evenodd" d="M16.9242 8.88362L12.2077 14.9415L11.9271 14.7231L16.6436 8.66519L16.9242 8.88362Z" fill="#484848"/>
<path fill-rule="evenodd" clip-rule="evenodd" d="M16.3486 7.47088L10.631 14.7373L10.3516 14.5175L16.0692 7.25101L16.3486 7.47088Z" fill="#484848"/>
<path fill-rule="evenodd" clip-rule="evenodd" d="M16.4976 11.25L10.6568 7.05203L10.8643 6.76331L16.7051 10.9612L16.4976 11.25Z" fill="#484848"/>
<path fill-rule="evenodd" clip-rule="evenodd" d="M15.5532 12.9246L9.33127 8.39862L9.54043 8.11109L15.7623 12.637L15.5532 12.9246Z" fill="#484848"/>
<path fill-rule="evenodd" clip-rule="evenodd" d="M14.2288 14.2723L8.38801 10.0743L8.59552 9.78562L14.4363 13.9835L14.2288 14.2723Z" fill="#484848"/>
<path d="M9.23953 16.578L7.99789 15.862L6.56657 18.1675L7.63042 18.8828L9.23953 16.578Z" fill="#4CAF50"/>
<path fill-rule="evenodd" clip-rule="evenodd" d="M9.81994 16.8802L8.34909 19.0793C8.13172 19.4043 7.69276 19.4928 7.3664 19.2775L6.70335 18.8401C6.37552 18.6238 6.28509 18.1828 6.50136 17.8549L7.95701 15.6485L8.55059 16.04L7.09494 18.2465L7.758 18.684L9.22885 16.4848L9.81994 16.8802Z" fill="#484848"/>
<path fill-rule="evenodd" clip-rule="evenodd" d="M9.12908 8.04207C10.6657 5.71292 13.5434 4.75263 15.5876 6.1012C17.6318 7.44977 17.8814 10.4732 16.3448 12.8024C14.8082 15.1315 11.9305 16.0918 9.88629 14.7433C9.26501 14.3334 8.80676 13.7625 8.51616 13.1036C7.85734 11.6107 8.05426 9.67129 9.12908 8.04207ZM15.196 6.69478C13.5828 5.63049 11.1179 6.31872 9.72266 8.43366C8.76192 9.88995 8.61874 11.5747 9.16673 12.8165L9.16677 12.8166C9.40648 13.3602 9.779 13.8206 10.2779 14.1497C11.8911 15.214 14.356 14.5257 15.7512 12.4108C17.1465 10.2959 16.8092 7.75906 15.196 6.69478Z" fill="#484848"/>
<path fill-rule="evenodd" clip-rule="evenodd" d="M11.1571 15.7786C10.6445 16.0666 10.1028 16.4516 9.8201 16.8801L9.62431 17.1769L7.76014 15.9471L7.95593 15.6503C8.23866 15.2218 8.37947 14.5723 8.4425 13.9877C8.47321 13.7029 8.48413 13.4475 8.48734 13.2634C8.48894 13.1715 8.48861 13.0979 8.48791 13.0479C8.48755 13.0229 8.48711 13.0038 8.48676 12.9913L8.48635 12.9776L8.48624 12.9746L8.48623 12.9742C8.48623 12.9742 8.48623 12.9743 8.8415 12.9601C9.19678 12.946 9.19678 12.946 9.19678 12.9461L9.19681 12.9468L9.19687 12.9484L9.19705 12.9535L9.1976 12.9717C9.19803 12.9872 9.19855 13.0095 9.19895 13.0379C9.19975 13.0946 9.20009 13.1757 9.19834 13.2758C9.19486 13.4756 9.18304 13.753 9.14951 14.064C9.09518 14.5679 8.98006 15.2006 8.72443 15.7314L9.44319 16.2055C9.83056 15.7617 10.3669 15.4069 10.8088 15.1586C11.0814 15.0054 11.3318 14.8854 11.5142 14.8036C11.6055 14.7626 11.6802 14.731 11.7326 14.7094C11.7589 14.6986 11.7796 14.6903 11.794 14.6846L11.8109 14.6779L11.8157 14.6761L11.8177 14.6753C11.8177 14.6753 11.818 14.6752 11.9448 15.0074C12.0715 15.3396 12.0716 15.3396 12.0716 15.3396L12.0713 15.3397L12.0685 15.3408L12.0557 15.3458C12.0441 15.3504 12.0264 15.3575 12.0032 15.367C11.957 15.3861 11.8892 15.4147 11.8053 15.4523C11.6374 15.5277 11.4068 15.6383 11.1571 15.7786Z" fill="#484848"/>
</svg>
