<svg width="16" height="16" viewBox="0 0 16 16" fill="none" xmlns="http://www.w3.org/2000/svg">
<path d="M14.3033 3.8087C13.6853 2.36779 12.2283 1.4082 10.6367 1.4082H7.12109C5.52948 1.4082 4.07255 2.36779 3.45456 3.8087C3.34218 3.89568 3.23601 3.99028 3.13672 4.09171V0.5H0.5C0.5 0.953486 0.5 9.34437 0.5 9.78711C0.5 12.4526 2.66853 14.6211 5.33398 14.6211H7.12229C7.52357 15.1544 8.1616 15.5 8.87891 15.5C10.0905 15.5 11.0762 14.5143 11.0762 13.3027C11.0762 12.0912 10.0905 11.1055 8.87891 11.1055C8.1616 11.1055 7.52357 11.4511 7.12229 11.9844H5.33398C4.12241 11.9844 3.13672 10.9987 3.13672 9.78711V8.3927C3.6955 8.96349 4.474 9.31836 5.33398 9.31836H6.21289C6.49991 9.31836 6.77791 9.27942 7.04193 9.20688C7.4431 9.81893 8.12773 10.1973 8.87891 10.1973C9.62806 10.1973 10.311 9.82098 10.7126 9.21181C10.9687 9.28112 11.2379 9.31836 11.5156 9.31836H12.4238C14.12 9.31836 15.5 7.93839 15.5 6.24219C15.5 5.25315 15.0307 4.37182 14.3033 3.8087ZM8.87891 11.9844C9.60585 11.9844 10.1973 12.5758 10.1973 13.3027C10.1973 14.0297 9.60585 14.6211 8.87891 14.6211C8.15196 14.6211 7.56055 14.0297 7.56055 13.3027C7.56055 12.5758 8.15196 11.9844 8.87891 11.9844ZM1.37891 1.37891H2.25781V5.80273H1.37891V1.37891ZM1.37891 6.68164H2.28934C2.3339 6.99184 2.42483 7.28724 2.55503 7.56055H1.37891V6.68164ZM5.33398 12.8633H6.72585C6.6969 13.0053 6.68164 13.1523 6.68164 13.3027C6.68164 13.4532 6.6969 13.6002 6.72585 13.7422H5.33398C3.15315 13.7422 1.37891 11.9679 1.37891 9.78711V8.43945H2.25781V9.78711C2.25781 11.4833 3.63778 12.8633 5.33398 12.8633ZM7.12109 2.28711H10.6367C11.4756 2.28711 12.2662 2.62769 12.8392 3.19414C12.7033 3.17574 12.5647 3.16602 12.4238 3.16602C12.1884 3.16602 5.57483 3.16602 5.33398 3.16602C5.19312 3.16602 5.05452 3.17574 4.91864 3.19414C5.49163 2.62769 6.28221 2.28711 7.12109 2.28711ZM6.21289 8.43945H5.33398C4.12241 8.43945 3.13672 7.45376 3.13672 6.24219C3.13672 5.03062 4.12241 4.04492 5.33398 4.04492H8.43945V6.24219C8.43945 7.45376 7.44063 8.43945 6.21289 8.43945ZM8.87891 9.31836C8.47997 9.31836 8.11232 9.14053 7.86614 8.84504C8.27841 8.58717 8.62546 8.23596 8.87683 7.82155C9.12761 8.23897 9.4746 8.59224 9.88687 8.85061C9.64074 9.1427 9.27532 9.31836 8.87891 9.31836ZM12.4238 8.43945H11.5156C10.3041 8.43945 9.31836 7.45376 9.31836 6.24219V4.04492H12.4238C13.6354 4.04492 14.6211 5.03062 14.6211 6.24219C14.6211 7.45376 13.6354 8.43945 12.4238 8.43945Z" fill="#484848"/>
</svg>
