<svg width="24" height="25" viewBox="0 0 24 25" fill="none" xmlns="http://www.w3.org/2000/svg">
<rect x="0.5" y="1" width="23" height="23" rx="11.5" fill="#4CAF50" fill-opacity="0.2"/>
<rect x="0.5" y="1" width="23" height="23" rx="11.5" stroke="#4CAF50"/>
<path fill-rule="evenodd" clip-rule="evenodd" d="M16.6446 6.42875C15.9006 6.42582 15.2936 7.03169 15.2906 7.7842C15.2897 8.00141 15.1145 8.1768 14.8993 8.17595C14.684 8.1751 14.5102 7.99833 14.5111 7.78113C14.5157 6.59343 15.474 5.63755 16.6477 5.64218C17.8218 5.64681 18.772 6.61322 18.7674 7.79791C18.7665 8.01512 18.5913 8.19051 18.376 8.18966C18.1608 8.18881 17.987 8.01204 17.9878 7.79484C17.9908 7.04456 17.3882 6.43168 16.6446 6.42875Z" fill="#484848"/>
<path fill-rule="evenodd" clip-rule="evenodd" d="M14.9054 7.38948C15.1207 7.39033 15.2945 7.56709 15.2936 7.7843L15.2666 14.6275C15.2658 14.8447 15.0906 15.0201 14.8753 15.0192C14.66 15.0184 14.4862 14.8416 14.4871 14.6244L14.5141 7.78122C14.5149 7.56402 14.6901 7.38863 14.9054 7.38948Z" fill="#484848"/>
<path fill-rule="evenodd" clip-rule="evenodd" d="M10.1729 6.40336C9.42895 6.40043 8.82189 7.0063 8.81893 7.75881C8.81807 7.97602 8.64287 8.15141 8.4276 8.15056C8.21234 8.14971 8.03853 7.97294 8.03938 7.75574C8.04407 6.56804 9.00228 5.61216 10.176 5.61679C11.3501 5.62142 12.3004 6.58783 12.2957 7.77252C12.2948 7.98973 12.1196 8.16512 11.9044 8.16427C11.6891 8.16342 11.5153 7.98665 11.5161 7.76945C11.5191 7.01917 10.9165 6.40629 10.1729 6.40336Z" fill="#484848"/>
<path fill-rule="evenodd" clip-rule="evenodd" d="M8.43274 7.36409C8.64801 7.36493 8.82182 7.5417 8.82096 7.75891L8.79335 14.7594C8.7925 14.9766 8.6173 15.152 8.40203 15.1511C8.18677 15.1503 8.01295 14.9735 8.01381 14.7563L8.04142 7.75583C8.04227 7.53863 8.21748 7.36324 8.43274 7.36409Z" fill="#484848"/>
<path fill-rule="evenodd" clip-rule="evenodd" d="M14.8402 12.7485L8.2635 12.7226L8.2666 11.936L14.8433 11.962L14.8402 12.7485Z" fill="#484848"/>
<path fill-rule="evenodd" clip-rule="evenodd" d="M14.851 9.96412L8.27424 9.93818L8.27734 9.15161L14.8541 9.17755L14.851 9.96412Z" fill="#484848"/>
<path d="M5.40187 17.4517L5.40958 15.4961C5.82345 15.7348 6.89995 16.2488 7.89494 16.3949C9.13867 16.5776 9.67761 15.1575 11.4526 15.8756C13.2274 16.5937 14.1184 16.0639 15.0093 15.5341L15.0095 15.534C15.7223 15.1101 17.5569 15.7218 18.3852 16.0806L18.3753 18.5695C17.7249 18.2114 16.2459 17.5655 15.5337 17.8472C14.6434 18.1992 13.3969 18.7276 11.4442 18.0088C9.49142 17.29 10.0205 18.3588 8.24278 18.3518C6.82057 18.3461 5.75625 17.7494 5.40187 17.4517Z" fill="#4CAF50"/>
<path fill-rule="evenodd" clip-rule="evenodd" d="M5.23574 15.3578C5.30603 15.1525 5.52796 15.0436 5.73143 15.1145L7.52748 15.7405C8.03039 15.9163 8.58034 15.9028 9.07316 15.7021L9.59619 15.4892C9.59614 15.4893 9.59624 15.4892 9.59619 15.4892C10.2347 15.2291 10.9429 15.2021 11.5985 15.4063L12.6024 15.7195C12.6025 15.7196 12.6026 15.7196 12.6027 15.7196C13.0688 15.8642 13.5683 15.8504 14.0238 15.6807L14.9208 15.3465L14.9323 15.3423L15.058 15.2954L15.0622 15.2954C15.5708 15.1243 16.1135 15.1384 16.6073 15.2825L18.1053 15.7211C18.312 15.7817 18.431 15.9998 18.371 16.2084C18.311 16.417 18.0947 16.5371 17.888 16.4765L16.3908 16.0381C16.3907 16.0381 16.3908 16.0381 16.3908 16.0381C16.0175 15.9292 15.6288 15.9278 15.2845 16.05C15.2681 16.057 15.2532 16.0621 15.2406 16.0659L14.2939 16.4185C14.2938 16.4185 14.2939 16.4185 14.2939 16.4185C13.6773 16.6483 13.0022 16.6666 12.3732 16.4714L11.3684 16.1579C11.3683 16.1579 11.3684 16.1579 11.3684 16.1579C10.8821 16.0064 10.3583 16.027 9.88808 16.2186L9.36482 16.4315C9.36481 16.4316 9.36483 16.4315 9.36482 16.4315C8.69692 16.7035 7.95274 16.7216 7.27242 16.4838C7.27235 16.4838 7.27248 16.4838 7.27242 16.4838L5.47687 15.858C5.2734 15.7871 5.16544 15.5631 5.23574 15.3578Z" fill="#484848"/>
<path fill-rule="evenodd" clip-rule="evenodd" d="M5.22695 17.4894C5.29725 17.2841 5.51917 17.1752 5.72264 17.2461L7.5187 17.8721C8.0216 18.0479 8.57155 18.0344 9.06437 17.8337L9.5874 17.6208C9.58735 17.6208 9.58745 17.6208 9.5874 17.6208C10.2259 17.3607 10.9341 17.3336 11.5897 17.5379L12.5936 17.8511C12.5937 17.8512 12.5939 17.8512 12.594 17.8512C13.0601 17.9958 13.5595 17.982 14.015 17.8123L14.912 17.4781L14.9232 17.4739L15.0492 17.427L15.0534 17.427C15.562 17.2559 16.1047 17.27 16.5985 17.4141L16.5989 17.4142L18.0965 17.8527C18.3033 17.9132 18.4222 18.1314 18.3622 18.34C18.3022 18.5486 18.0859 18.6687 17.8792 18.6081L16.382 18.1697C16.3819 18.1697 16.382 18.1697 16.382 18.1697C16.0087 18.0608 15.62 18.0594 15.2757 18.1816C15.2593 18.1886 15.2444 18.1937 15.2318 18.1975L14.2851 18.5501C14.2851 18.5501 14.2851 18.5501 14.2851 18.5501C13.6685 18.7799 12.9934 18.7982 12.3644 18.603L11.3596 18.2895C11.3596 18.2895 11.3596 18.2895 11.3596 18.2895C10.8733 18.138 10.3495 18.1585 9.87929 18.3502L9.35603 18.5631C9.35602 18.5631 9.35604 18.5631 9.35603 18.5631C8.68813 18.8351 7.94395 18.8532 7.26363 18.6154C7.26356 18.6154 7.26369 18.6154 7.26363 18.6154L5.46808 17.9896C5.26461 17.9187 5.15666 17.6947 5.22695 17.4894Z" fill="#484848"/>
</svg>
