<svg width="18" height="18" viewBox="0 0 18 18" fill="none" xmlns="http://www.w3.org/2000/svg">
<mask id="mask0_2601_8670" style="mask-type:luminance" maskUnits="userSpaceOnUse" x="1" y="1" width="16" height="17">
<path d="M1.5 1.50024H16.5V17.2502H1.5V1.50024Z" fill="white"/>
</mask>
<g mask="url(#mask0_2601_8670)">
<path fill-rule="evenodd" clip-rule="evenodd" d="M5.32356 16.2263C5.1926 16.2263 5.08655 16.1203 5.08655 15.9893V13.0702C5.08655 11.3537 6.47811 9.96206 8.19495 9.96206H9.81272C11.5292 9.96206 12.9208 11.3536 12.9208 13.0702V15.9893C12.9208 16.1204 12.8147 16.2263 12.6841 16.2263H5.32356ZM4.33655 15.9893C4.33655 16.5344 4.77834 16.9763 5.32356 16.9763H12.6841C13.2291 16.9763 13.6708 16.5343 13.6708 15.9893V13.0702C13.6708 10.9394 11.9435 9.21206 9.81272 9.21206H8.19495C6.06393 9.21206 4.33655 10.9394 4.33655 13.0702V15.9893Z" fill="#484848"/>
<path fill-rule="evenodd" clip-rule="evenodd" d="M9.97852 9.96606C10.1856 9.96606 10.3535 9.79817 10.3535 9.59106V7.00913C10.3535 6.6174 10.0362 6.30015 9.64453 6.30015H8.36279C7.97164 6.30015 7.65381 6.61719 7.65381 7.00913V8.03481C7.65381 8.24192 7.8217 8.40981 8.02881 8.40981C8.23592 8.40981 8.40381 8.24192 8.40381 8.03481V7.05015H9.60352V9.59106C9.60352 9.79817 9.77141 9.96606 9.97852 9.96606Z" fill="#484848"/>
<path fill-rule="evenodd" clip-rule="evenodd" d="M8.02881 9.96606C8.23592 9.96606 8.40381 9.79817 8.40381 9.59106V8.07648C8.40381 7.86937 8.23592 7.70148 8.02881 7.70148C7.8217 7.70148 7.65381 7.86937 7.65381 8.07648V9.59106C7.65381 9.79817 7.8217 9.96606 8.02881 9.96606Z" fill="#484848"/>
<path fill-rule="evenodd" clip-rule="evenodd" d="M9.41675 6.86279C9.5203 6.86279 9.60425 6.77885 9.60425 6.67529V5.23154C9.60425 5.12799 9.5203 5.04404 9.41675 5.04404C9.31319 5.04404 9.22925 5.12799 9.22925 5.23154V6.67529C9.22925 6.77885 9.31319 6.86279 9.41675 6.86279Z" fill="#484848"/>
<path fill-rule="evenodd" clip-rule="evenodd" d="M8.58911 6.86279C8.69266 6.86279 8.77661 6.77885 8.77661 6.67529V5.23154C8.77661 5.12799 8.69266 5.04404 8.58911 5.04404C8.48556 5.04404 8.40161 5.12799 8.40161 5.23154V6.67529C8.40161 6.77885 8.48556 6.86279 8.58911 6.86279Z" fill="#484848"/>
<path fill-rule="evenodd" clip-rule="evenodd" d="M7.61572 4.22857C7.61572 4.99467 8.23678 5.61572 9.00287 5.61572C9.76896 5.61572 10.39 4.99467 10.39 4.22857C10.39 4.02963 10.3323 3.78525 10.2601 3.55468C10.185 3.31482 10.0826 3.05461 9.97059 2.8114C9.85907 2.56928 9.73346 2.3342 9.60928 2.14779C9.54752 2.05509 9.48065 1.96613 9.41058 1.89255C9.34921 1.82812 9.24876 1.73556 9.1147 1.69367C9.0785 1.68236 9.04079 1.67661 9.00287 1.67661C8.67831 1.67661 8.44775 1.90421 8.3096 2.08723C8.15885 2.28693 8.03494 2.54267 7.93735 2.7954C7.74447 3.29492 7.61572 3.88693 7.61572 4.22857ZM9.00287 4.86572C8.65099 4.86572 8.36572 4.58045 8.36572 4.22857C8.36572 4.01123 8.46355 3.51476 8.63701 3.06555C8.72258 2.84391 8.81677 2.66021 8.9082 2.53908C8.91971 2.52384 8.93038 2.51059 8.9402 2.49909C8.95421 2.51827 8.9692 2.53974 8.9851 2.56361C9.08095 2.70749 9.18821 2.90553 9.28938 3.12517C9.39005 3.34373 9.4802 3.57392 9.54441 3.77888C9.61153 3.99315 9.64002 4.14803 9.64002 4.22857C9.64002 4.58045 9.35475 4.86572 9.00287 4.86572ZM8.84392 2.38761C8.84392 2.38764 8.84443 2.38805 8.84545 2.38877C8.84443 2.38794 8.84392 2.38759 8.84392 2.38761Z" fill="#484848"/>
<path fill-rule="evenodd" clip-rule="evenodd" d="M8.3323 5.0564C8.45656 5.0564 8.5573 4.95566 8.5573 4.8314C8.5573 4.69517 8.61676 4.48401 8.72203 4.30669C8.77349 4.22 8.82954 4.15245 8.88326 4.10886C8.93675 4.06546 8.97634 4.05462 9.00217 4.05462C9.02811 4.05462 9.06774 4.06549 9.12121 4.10887C9.17493 4.15245 9.23096 4.21999 9.2824 4.30667C9.38763 4.48396 9.44705 4.69513 9.44705 4.8314C9.44705 4.95566 9.54778 5.0564 9.67205 5.0564C9.79631 5.0564 9.89705 4.95566 9.89705 4.8314C9.89705 4.59785 9.80656 4.30813 9.66938 4.07699C9.59961 3.95945 9.5113 3.84588 9.40473 3.75941C9.2979 3.67275 9.16128 3.60462 9.00217 3.60462C8.8431 3.60462 8.7065 3.67278 8.59972 3.75943C8.49317 3.84588 8.40486 3.95943 8.33508 4.07697C8.19787 4.30808 8.1073 4.59781 8.1073 4.8314C8.1073 4.95566 8.20804 5.0564 8.3323 5.0564Z" fill="#484848"/>
<path fill-rule="evenodd" clip-rule="evenodd" d="M8.31702 8.04157C8.4492 7.88213 8.42711 7.64572 8.26766 7.51354L4.10935 4.06618C4.00975 3.9836 4.06816 3.82173 4.1975 3.82173H6.65108C6.85819 3.82173 7.02608 3.65383 7.02608 3.44673C7.02608 3.23962 6.85819 3.07173 6.65108 3.07173H4.1975C3.36567 3.07173 2.99037 4.11272 3.63068 4.64357L7.78899 8.09093C7.94844 8.22311 8.18484 8.20101 8.31702 8.04157Z" fill="#484848"/>
<path fill-rule="evenodd" clip-rule="evenodd" d="M9.68911 8.0367C9.82129 8.19613 10.0577 8.21823 10.2171 8.08604L14.3691 4.64369C14.3691 4.64369 14.3691 4.64369 14.3691 4.64369C15.0093 4.11295 14.6346 3.07183 13.8025 3.07183H11.3488C11.1417 3.07183 10.9738 3.23972 10.9738 3.44683C10.9738 3.65393 11.1417 3.82183 11.3488 3.82183H13.8025C13.9316 3.82183 13.9903 3.98351 13.8905 4.06631L13.8905 4.06631L9.73845 7.50867C9.57901 7.64085 9.55692 7.87726 9.68911 8.0367Z" fill="#484848"/>
<path fill-rule="evenodd" clip-rule="evenodd" d="M4.33655 15.3657C4.33655 15.5728 4.50444 15.7407 4.71155 15.7407H13.2958C13.5029 15.7407 13.6708 15.5728 13.6708 15.3657C13.6708 15.1586 13.5029 14.9907 13.2958 14.9907H4.71155C4.50444 14.9907 4.33655 15.1586 4.33655 15.3657Z" fill="#484848"/>
<path fill-rule="evenodd" clip-rule="evenodd" d="M4.43188 12.2554C4.43188 12.4625 4.59978 12.6304 4.80688 12.6304H13.1996C13.4067 12.6304 13.5746 12.4625 13.5746 12.2554C13.5746 12.0483 13.4067 11.8804 13.1996 11.8804H4.80688C4.59978 11.8804 4.43188 12.0483 4.43188 12.2554Z" fill="#484848"/>
<path fill-rule="evenodd" clip-rule="evenodd" d="M9.60278 8.54785C9.60278 8.75496 9.77068 8.92285 9.97778 8.92285H12.7194C12.9265 8.92285 13.0944 8.75496 13.0944 8.54785C13.0944 8.34074 12.9265 8.17285 12.7194 8.17285H9.97778C9.77068 8.17285 9.60278 8.34074 9.60278 8.54785Z" fill="#484848"/>
<path fill-rule="evenodd" clip-rule="evenodd" d="M12.72 9.68042C12.9271 9.68042 13.095 9.51253 13.095 9.30542V7.78948C13.095 7.58238 12.9271 7.41448 12.72 7.41448C12.5129 7.41448 12.345 7.58238 12.345 7.78948V9.30542C12.345 9.51253 12.5129 9.68042 12.72 9.68042Z" fill="#484848"/>
</g>
</svg>
