<svg width="25" height="24" viewBox="0 0 25 24" fill="none" xmlns="http://www.w3.org/2000/svg">
<path d="M6.6923 13.8077H9.3192L14.4538 8.67303C14.5718 8.54868 14.6602 8.4115 14.7192 8.2615C14.7782 8.1115 14.8077 7.96407 14.8077 7.8192C14.8077 7.67433 14.7756 7.53203 14.7115 7.39228C14.6474 7.25254 14.5615 7.12049 14.4538 6.99613L13.5442 6.04613C13.4263 5.92819 13.2932 5.83973 13.1452 5.78075C12.9971 5.72178 12.8455 5.6923 12.6904 5.6923C12.5455 5.6923 12.3981 5.72178 12.2481 5.78075C12.0981 5.83973 11.9609 5.92819 11.8366 6.04613L6.6923 11.1808V13.8077ZM7.88458 12.6154V11.6654L10.8712 8.6788L11.3519 9.14803L11.8116 9.6384L8.83458 12.6154H7.88458ZM11.3519 9.14803L11.8116 9.6384L10.8712 8.6788L11.3519 9.14803ZM11.9923 13.8077H18.3077V12.3077H13.4923L11.9923 13.8077ZM3 21.0384V4.3077C3 3.80257 3.175 3.375 3.525 3.025C3.875 2.675 4.30257 2.5 4.8077 2.5H20.1923C20.6974 2.5 21.125 2.675 21.475 3.025C21.825 3.375 22 3.80257 22 4.3077V15.6923C22 16.1974 21.825 16.625 21.475 16.975C21.125 17.325 20.6974 17.5 20.1923 17.5H6.53845L3 21.0384ZM5.9 16H20.1923C20.2692 16 20.3397 15.9679 20.4038 15.9038C20.4679 15.8397 20.5 15.7692 20.5 15.6923V4.3077C20.5 4.23077 20.4679 4.16024 20.4038 4.09613C20.3397 4.03203 20.2692 3.99998 20.1923 3.99998H4.8077C4.73077 3.99998 4.66024 4.03203 4.59613 4.09613C4.53202 4.16024 4.49998 4.23077 4.49998 4.3077V17.3846L5.9 16Z" fill="#484848"/>
</svg>
