<svg width="12" height="14" viewBox="0 0 12 14" fill="none" xmlns="http://www.w3.org/2000/svg">
<path d="M5.30063 10.9898L3.16475 8.85393L3.88782 8.13086L5.30063 9.54368L8.11345 6.73086L8.83652 7.45393L5.30063 10.9898ZM1.53912 13.3334C1.20236 13.3334 0.917318 13.2167 0.683984 12.9834C0.450651 12.7501 0.333984 12.465 0.333984 12.1283V3.20523C0.333984 2.86847 0.450651 2.58343 0.683984 2.35009C0.917318 2.11676 1.20236 2.00009 1.53912 2.00009H2.4622V0.589844H3.48782V2.00009H8.53908V0.589844H9.53907V2.00009H10.4622C10.7989 2.00009 11.084 2.11676 11.3173 2.35009C11.5506 2.58343 11.6673 2.86847 11.6673 3.20523V12.1283C11.6673 12.465 11.5506 12.7501 11.3173 12.9834C11.084 13.2167 10.7989 13.3334 10.4622 13.3334H1.53912ZM1.53912 12.3334H10.4622C10.5134 12.3334 10.5605 12.312 10.6032 12.2693C10.6459 12.2266 10.6673 12.1795 10.6673 12.1283V5.87189H1.33397V12.1283C1.33397 12.1795 1.35533 12.2266 1.39807 12.2693C1.44081 12.312 1.48783 12.3334 1.53912 12.3334ZM1.33397 4.87191H10.6673V3.20523C10.6673 3.15394 10.6459 3.10692 10.6032 3.06418C10.5605 3.02144 10.5134 3.00008 10.4622 3.00008H1.53912C1.48783 3.00008 1.44081 3.02144 1.39807 3.06418C1.35533 3.10692 1.33397 3.15394 1.33397 3.20523V4.87191Z" fill="#484848"/>
</svg>
