<svg width="18" height="18" viewBox="0 0 18 18" fill="none" xmlns="http://www.w3.org/2000/svg">
<path d="M13.368 15.6325C13.1893 15.6325 13.0444 15.4877 13.0444 15.309V9.16191C13.0444 8.98326 13.1893 8.83838 13.368 8.83838C13.5466 8.83838 13.6915 8.98322 13.6915 9.16191V15.309C13.6915 15.4877 13.5466 15.6325 13.368 15.6325Z" fill="#484848"/>
<path d="M16.9265 15.6324H1.07353C0.894844 15.6324 0.75 15.4876 0.75 15.3089C0.75 15.1302 0.894844 14.9854 1.07353 14.9854H16.9265C17.1051 14.9854 17.25 15.1302 17.25 15.3089C17.25 15.4876 17.1051 15.6324 16.9265 15.6324Z" fill="black"/>
<path d="M9.27756 14.3383H2.85291C2.31773 14.3383 1.88232 13.9029 1.88232 13.3677C1.88232 12.8325 2.31773 12.3971 2.85291 12.3971H8.59449C10.3583 10.3776 10.2876 10.4581 10.2965 10.4484C10.6697 10.0425 11.3107 10.0213 11.7083 10.4191C12.0705 10.7813 12.0904 11.3675 11.7537 11.7536H11.7538L10.8155 12.8296C10.8065 12.8399 10.7064 12.9475 9.51497 14.2346C9.45372 14.3007 9.36769 14.3383 9.27756 14.3383ZM2.85291 13.0441C2.67452 13.0441 2.52938 13.1893 2.52938 13.3677C2.52938 13.5461 2.67452 13.6912 2.85291 13.6912H9.13618L10.331 12.4006C11.4331 11.1368 10.1201 12.6426 11.2661 11.3282C11.38 11.1976 11.3733 10.9991 11.2507 10.8765C11.1211 10.7468 10.9056 10.7449 10.7751 10.8838L8.98515 12.9334C8.92372 13.0038 8.83484 13.0441 8.74147 13.0441H2.85291Z" fill="black"/>
<path d="M2.70822 15.5985C2.5484 15.5186 2.48363 15.3243 2.56351 15.1645L3.21057 13.8704C3.29048 13.7105 3.48482 13.6457 3.64461 13.7256C3.80444 13.8056 3.86921 13.9999 3.78933 14.1597L3.14227 15.4538C3.06239 15.6136 2.86801 15.6784 2.70822 15.5985Z" fill="black"/>
<path d="M9.35756 15.4538L8.7105 14.1597C8.63059 13.9999 8.69536 13.8056 8.85521 13.7257C9.01491 13.6457 9.20935 13.7105 9.28926 13.8704L9.93632 15.1645C10.0162 15.3243 9.95146 15.5187 9.7916 15.5986C9.63217 15.6783 9.4376 15.614 9.35756 15.4538Z" fill="black"/>
<path d="M3.66228 6.57383C2.94871 6.57383 2.36816 5.99329 2.36816 5.27971C2.36816 4.56614 2.94871 3.9856 3.66228 3.9856C4.37586 3.9856 4.9564 4.56614 4.9564 5.27971C4.9564 5.99329 4.37586 6.57383 3.66228 6.57383ZM3.66228 4.63265C3.30549 4.63265 3.01522 4.92292 3.01522 5.27971C3.01522 5.6365 3.30549 5.92677 3.66228 5.92677C4.01907 5.92677 4.30934 5.6365 4.30934 5.27971C4.30934 4.92292 4.01907 4.63265 3.66228 4.63265Z" fill="black"/>
<path d="M3.66191 3.33826C3.48326 3.33826 3.33838 3.19339 3.33838 3.01473V2.69121C3.33838 2.51255 3.48326 2.36768 3.66191 2.36768C3.84056 2.36768 3.98544 2.51255 3.98544 2.69121V3.01473C3.98544 3.19339 3.84056 3.33826 3.66191 3.33826Z" fill="black"/>
<path d="M5.03421 3.9068C4.90787 3.78046 4.90787 3.5756 5.03421 3.44923L5.26297 3.22046C5.38935 3.09416 5.59414 3.09416 5.72054 3.22046C5.84688 3.3468 5.84688 3.55166 5.72054 3.67803L5.49177 3.9068C5.36534 4.03317 5.16058 4.03314 5.03421 3.9068Z" fill="black"/>
<path d="M6.25009 5.60311H5.92656C5.74787 5.60311 5.60303 5.45824 5.60303 5.27958C5.60303 5.1009 5.74787 4.95605 5.92656 4.95605H6.25009C6.42877 4.95605 6.57362 5.1009 6.57362 5.27958C6.57362 5.45824 6.42877 5.60311 6.25009 5.60311Z" fill="black"/>
<path d="M5.26297 7.33844L5.03421 7.10967C4.90787 6.98333 4.90787 6.77847 5.03421 6.6521C5.16058 6.5258 5.36537 6.5258 5.49177 6.6521L5.72054 6.88087C5.84688 7.00721 5.84688 7.21207 5.72054 7.33844C5.59411 7.46478 5.38938 7.46474 5.26297 7.33844Z" fill="black"/>
<path d="M3.66191 8.19129C3.48326 8.19129 3.33838 8.04642 3.33838 7.86776V7.54423C3.33838 7.36555 3.48326 7.2207 3.66191 7.2207C3.84056 7.2207 3.98544 7.36555 3.98544 7.54423V7.86776C3.98544 8.04642 3.84056 8.19129 3.66191 8.19129Z" fill="black"/>
<path d="M1.60257 7.33844C1.47623 7.2121 1.47623 7.00724 1.60257 6.88087L1.83133 6.6521C1.9577 6.5258 2.1625 6.5258 2.2889 6.6521C2.41524 6.77844 2.41524 6.9833 2.2889 7.10967L2.06013 7.33844C1.93373 7.46478 1.72897 7.46474 1.60257 7.33844Z" fill="black"/>
<path d="M1.39706 5.60311H1.07353C0.894844 5.60311 0.75 5.45824 0.75 5.27958C0.75 5.1009 0.894844 4.95605 1.07353 4.95605H1.39706C1.57571 4.95605 1.72059 5.1009 1.72059 5.27958C1.72059 5.45824 1.57571 5.60311 1.39706 5.60311Z" fill="black"/>
<path d="M1.83133 3.9068L1.60257 3.67803C1.47623 3.55169 1.47623 3.34683 1.60257 3.22046C1.72894 3.09416 1.93373 3.09416 2.0601 3.22046L2.28887 3.44923C2.41521 3.57557 2.41521 3.78043 2.28887 3.9068C2.16247 4.03317 1.9577 4.03314 1.83133 3.9068Z" fill="black"/>
<path d="M13.6912 4.95962V4.63237C13.6912 4.45371 13.5464 4.30884 13.3677 4.30884C13.1891 4.30884 13.0442 4.45371 13.0442 4.63237V4.95962C11.0674 5.04464 9.48535 6.67914 9.48535 8.67649V9.16178C9.48535 9.34046 9.63023 9.48531 9.80888 9.48531H16.9265C17.1052 9.48531 17.2501 9.34046 17.2501 9.16178V8.67649C17.2501 6.67918 15.668 5.04464 13.6912 4.95962ZM14.2453 8.83825H12.5071C12.4915 8.17197 12.5456 6.54281 13.3763 5.71302C14.2046 6.54148 14.2602 8.17152 14.2453 8.83825ZM10.1324 8.67649C10.1324 7.19427 11.1871 5.95376 12.5853 5.66595C11.8985 6.69762 11.8436 8.16871 11.859 8.83825H10.1324V8.67649ZM16.603 8.83825H14.8938C14.9092 8.16964 14.8545 6.70186 14.1704 5.67038C15.5585 5.96605 16.603 7.20151 16.603 8.67649V8.83825Z" fill="black"/>
</svg>
