<svg width="16" height="16" viewBox="0 0 16 16" fill="none" xmlns="http://www.w3.org/2000/svg">
<path d="M6.19776 9.30897L8.00031 8.21539L9.80286 9.30897L9.32466 7.25897L10.9234 5.88079L8.81954 5.70385L8.00031 3.77054L7.18108 5.70385L5.07724 5.88079L6.67596 7.25897L6.19776 9.30897ZM1.66699 14.0269V2.8731C1.66699 2.53635 1.78366 2.2513 2.01699 2.01797C2.25033 1.78464 2.53537 1.66797 2.87213 1.66797H13.1285C13.4652 1.66797 13.7503 1.78464 13.9836 2.01797C14.217 2.2513 14.3336 2.53635 14.3336 2.8731V10.4628C14.3336 10.7996 14.217 11.0846 13.9836 11.3179C13.7503 11.5513 13.4652 11.6679 13.1285 11.6679H4.02596L1.66699 14.0269ZM3.60033 10.668H13.1285C13.1798 10.668 13.2268 10.6466 13.2695 10.6039C13.3123 10.5611 13.3336 10.5141 13.3336 10.4628V2.8731C13.3336 2.82181 13.3123 2.7748 13.2695 2.73205C13.2268 2.68932 13.1798 2.66795 13.1285 2.66795H2.87213C2.82084 2.66795 2.77382 2.68932 2.73108 2.73205C2.68834 2.7748 2.66698 2.82181 2.66698 2.8731V11.591L3.60033 10.668Z" fill="#484848"/>
</svg>
