<svg width="18" height="18" viewBox="0 0 18 18" fill="none" xmlns="http://www.w3.org/2000/svg">
<mask id="mask0_2601_31869" style="mask-type:luminance" maskUnits="userSpaceOnUse" x="1" y="1" width="16" height="16">
<path d="M1.5 1.5H16.5V16.5H1.5V1.5Z" fill="white"/>
</mask>
<g mask="url(#mask0_2601_31869)">
<path fill-rule="evenodd" clip-rule="evenodd" d="M6.04102 9.76172C4.01848 9.76172 2.37891 8.12214 2.37891 6.09961V4.92773C2.37891 4.84682 2.44448 4.78125 2.52539 4.78125H15.4746C15.5555 4.78125 15.6211 4.84682 15.6211 4.92773V6.09961C15.6211 8.12214 13.9815 9.76172 11.959 9.76172H10.1719C9.92917 9.76172 9.73242 9.95847 9.73242 10.2012C9.73242 10.4439 9.92917 10.6406 10.1719 10.6406H11.959C14.4669 10.6406 16.5 8.60755 16.5 6.09961V4.92773C16.5 4.36142 16.0409 3.90234 15.4746 3.90234H2.52539C1.95907 3.90234 1.5 4.36142 1.5 4.92773V6.09961C1.5 8.60755 3.53308 10.6406 6.04102 10.6406H7.82813C8.07083 10.6406 8.26758 10.4439 8.26758 10.2012C8.26758 9.95847 8.07083 9.76172 7.82813 9.76172H6.04102Z" fill="#484848"/>
<path fill-rule="evenodd" clip-rule="evenodd" d="M6.04102 8.00391C4.9893 8.00391 4.13672 7.15133 4.13672 6.09961V4.78125H12.1055V6.09961C12.1055 7.15133 11.2529 8.00391 10.2012 8.00391H6.04102ZM3.25781 6.09961C3.25781 7.63674 4.50389 8.88281 6.04102 8.88281H10.2012C11.7383 8.88281 12.9844 7.63674 12.9844 6.09961V4.3418C12.9844 4.09909 12.7876 3.90234 12.5449 3.90234H3.69727C3.45456 3.90234 3.25781 4.09909 3.25781 4.3418V6.09961Z" fill="#484848"/>
<path fill-rule="evenodd" clip-rule="evenodd" d="M2.37891 4.3418C2.37891 4.5845 2.57566 4.78125 2.81836 4.78125H4.57617C4.81888 4.78125 5.01563 4.5845 5.01563 4.3418V3.11133C5.01563 2.22143 4.29423 1.5 3.4043 1.5H2.81836C2.57566 1.5 2.37891 1.69675 2.37891 1.93945V4.3418ZM3.25781 3.90234V2.37891H3.4043C3.80881 2.37891 4.13672 2.70683 4.13672 3.11133V3.90234H3.25781Z" fill="#484848"/>
<path fill-rule="evenodd" clip-rule="evenodd" d="M1.5 1.93945C1.5 2.18216 1.69675 2.37891 1.93945 2.37891H2.81836C3.06106 2.37891 3.25781 2.18216 3.25781 1.93945C3.25781 1.69675 3.06106 1.5 2.81836 1.5H1.93945C1.69675 1.5 1.5 1.69675 1.5 1.93945Z" fill="#484848"/>
<path fill-rule="evenodd" clip-rule="evenodd" d="M7.38867 12.252C7.38867 12.8183 7.84775 13.2773 8.41406 13.2773H9.58594C10.1523 13.2773 10.6113 12.8183 10.6113 12.252V8.44336C10.6113 8.20066 10.4146 8.00391 10.1719 8.00391H7.82813C7.58542 8.00391 7.38867 8.20066 7.38867 8.44336V12.252ZM8.41406 12.3984C8.33315 12.3984 8.26758 12.3329 8.26758 12.252V8.88281H9.73242V12.252C9.73242 12.3329 9.66685 12.3984 9.58594 12.3984H8.41406Z" fill="#484848"/>
<path fill-rule="evenodd" clip-rule="evenodd" d="M7.0957 16.0605C7.0957 16.3033 7.29245 16.5 7.53516 16.5H10.4648C10.7075 16.5 10.9043 16.3033 10.9043 16.0605V15.7676C10.9043 14.7159 10.0517 13.8633 9 13.8633C7.94829 13.8633 7.0957 14.7159 7.0957 15.7676V16.0605ZM7.98499 15.6211C8.05607 15.1242 8.48343 14.7422 9 14.7422C9.51657 14.7422 9.94393 15.1242 10.015 15.6211H7.98499Z" fill="#484848"/>
<path fill-rule="evenodd" clip-rule="evenodd" d="M9 14.7422C9.2427 14.7422 9.43945 14.5454 9.43945 14.3027V12.252C9.43945 12.0092 9.2427 11.8125 9 11.8125C8.7573 11.8125 8.56055 12.0092 8.56055 12.252V14.3027C8.56055 14.5454 8.7573 14.7422 9 14.7422Z" fill="#484848"/>
<path fill-rule="evenodd" clip-rule="evenodd" d="M4.57617 13.5703C4.33348 13.5703 4.13672 13.3735 4.13672 13.1309V9.46289C4.13672 9.22019 3.93997 9.02344 3.69727 9.02344C3.45456 9.02344 3.25781 9.22019 3.25781 9.46289V13.1309C3.25781 13.859 3.84808 14.4492 4.57617 14.4492C5.30427 14.4492 5.89453 13.859 5.89453 13.1309V10.1546C5.89453 9.91186 5.69778 9.71511 5.45508 9.71511C5.21238 9.71511 5.01563 9.91186 5.01563 10.1546V13.1309C5.01563 13.3735 4.81886 13.5703 4.57617 13.5703Z" fill="#484848"/>
<path fill-rule="evenodd" clip-rule="evenodd" d="M12.1055 4.3418C12.1055 4.5845 12.3022 4.78125 12.5449 4.78125H14.3027C14.5454 4.78125 14.7422 4.5845 14.7422 4.3418V3.46289C14.7422 2.7348 14.1519 2.14453 13.4238 2.14453C12.6957 2.14453 12.1055 2.7348 12.1055 3.46289V4.3418ZM12.9844 3.90234V3.46289C12.9844 3.2202 13.1811 3.02344 13.4238 3.02344C13.6665 3.02344 13.8633 3.2202 13.8633 3.46289V3.90234H12.9844Z" fill="#484848"/>
</g>
</svg>
