<svg width="18" height="18" viewBox="0 0 18 18" fill="none" xmlns="http://www.w3.org/2000/svg">
<mask id="mask0_2601_6395" style="mask-type:luminance" maskUnits="userSpaceOnUse" x="1" y="1" width="16" height="16">
<path d="M1.10742 1.10742H16.8926V16.8926H1.10742V1.10742Z" fill="white"/>
</mask>
<g mask="url(#mask0_2601_6395)">
<path fill-rule="evenodd" clip-rule="evenodd" d="M3.63281 11.0393C3.63281 11.7862 4.24347 12.3972 4.99154 12.3972C5.73957 12.3972 6.35026 11.7862 6.35026 11.0393V9.69959C6.35026 9.36704 6.07811 9.09667 5.74627 9.09667H4.23592C3.90284 9.09667 3.63281 9.36828 3.63281 9.69959V11.0393ZM4.99154 11.7752C4.58692 11.7752 4.25485 11.4425 4.25485 11.0393V9.7187H5.72823V11.0393C5.72823 11.4425 5.39613 11.7752 4.99154 11.7752Z" fill="#484848"/>
<path fill-rule="evenodd" clip-rule="evenodd" d="M4.00049 13.6908C4.00049 13.8626 4.13974 14.0019 4.31151 14.0019H5.6714C5.84317 14.0019 5.98242 13.8626 5.98242 13.6908V11.8338C5.98242 11.662 5.84317 11.5228 5.6714 11.5228C5.49963 11.5228 5.36039 11.662 5.36039 11.8338V13.3798H4.62252V11.8338C4.62252 11.662 4.48327 11.5228 4.31151 11.5228C4.13974 11.5228 4.00049 11.662 4.00049 11.8338V13.6908ZM4.31151 9.71881C4.48327 9.71881 4.62252 9.57956 4.62252 9.40779V1.72687H5.36039V9.40779C5.36039 9.57956 5.49963 9.71881 5.6714 9.71881C5.84317 9.71881 5.98242 9.57956 5.98242 9.40779V1.41585C5.98242 1.24408 5.84317 1.10483 5.6714 1.10483H4.31151C4.13974 1.10483 4.00049 1.24408 4.00049 1.41585V9.40779C4.00049 9.57956 4.13974 9.71881 4.31151 9.71881Z" fill="#484848"/>
<path fill-rule="evenodd" clip-rule="evenodd" d="M11.6499 11.0393C11.6499 11.7862 12.2606 12.3972 13.0087 12.3972C13.7567 12.3972 14.3674 11.7862 14.3674 11.0393V9.69959C14.3674 9.36706 14.0952 9.09667 13.7634 9.09667H12.253C11.9199 9.09667 11.6499 9.36826 11.6499 9.69959V11.0393ZM13.0087 11.7752C12.604 11.7752 12.2719 11.4425 12.2719 11.0393V9.7187H13.7453V11.0393C13.7453 11.4425 13.4132 11.7752 13.0087 11.7752Z" fill="#484848"/>
<path fill-rule="evenodd" clip-rule="evenodd" d="M5.57452 9.62587C5.69213 9.75106 5.88896 9.75721 6.01415 9.6396L8.99939 6.83514L11.9847 9.6396C12.1099 9.75721 12.3067 9.75106 12.4243 9.62587C12.5419 9.50068 12.5358 9.30385 12.4106 9.18624L9.21234 6.18173C9.09264 6.06928 8.90614 6.06928 8.78644 6.18173L5.58825 9.18624C5.46306 9.30385 5.45691 9.50068 5.57452 9.62587ZM5.4442 7.88327C5.56181 8.00847 5.75863 8.01462 5.88383 7.89701L8.21975 5.70262C8.28232 5.64385 8.31781 5.56182 8.31782 5.47597C8.31783 5.39013 8.28236 5.30809 8.2198 5.2493L5.88387 3.05403C5.7587 2.93639 5.56187 2.9425 5.44424 3.06767C5.32661 3.19284 5.33272 3.38967 5.45789 3.5073L7.5526 5.4759L5.45793 7.44364C5.33274 7.56125 5.32659 7.75808 5.4442 7.88327ZM12.5546 7.88327C12.6722 7.75808 12.6661 7.56125 12.5409 7.44364L10.4462 5.4759L12.5409 3.5073C12.6661 3.38967 12.6722 3.19284 12.5546 3.06767C12.4369 2.9425 12.2401 2.93639 12.1149 3.05403L9.77901 5.2493C9.71646 5.30809 9.68098 5.39013 9.68099 5.47597C9.681 5.56182 9.71649 5.64385 9.77906 5.70262L12.115 7.89701C12.2402 8.01462 12.437 8.00847 12.5546 7.88327ZM8.78641 4.77013C8.90612 4.88262 9.09266 4.88262 9.21237 4.77013L12.5409 1.64239C12.6661 1.52476 12.6722 1.32793 12.5546 1.20276C12.437 1.07758 12.2401 1.07146 12.115 1.18908L8.99939 4.11669L5.88386 1.18908C5.75869 1.07146 5.56186 1.07758 5.44423 1.20275C5.3266 1.32793 5.33272 1.52476 5.4579 1.64239L8.78641 4.77013Z" fill="#484848"/>
<path fill-rule="evenodd" clip-rule="evenodd" d="M12.0166 13.6908C12.0166 13.8626 12.1558 14.0019 12.3276 14.0019H13.6875C13.8593 14.0019 13.9985 13.8626 13.9985 13.6908V11.8338C13.9985 11.662 13.8593 11.5228 13.6875 11.5228C13.5157 11.5228 13.3765 11.662 13.3765 11.8338V13.3798H12.6386V11.8338C12.6386 11.662 12.4994 11.5228 12.3276 11.5228C12.1558 11.5228 12.0166 11.662 12.0166 11.8338V13.6908ZM12.3276 9.71878C12.4994 9.71878 12.6386 9.57953 12.6386 9.40776V1.72684H13.3765V9.40776C13.3765 9.57953 13.5157 9.71878 13.6875 9.71878C13.8593 9.71878 13.9985 9.57953 13.9985 9.40776V1.41582C13.9985 1.24405 13.8593 1.1048 13.6875 1.1048H12.3276C12.1558 1.1048 12.0166 1.24405 12.0166 1.41582V9.40776C12.0166 9.57953 12.1558 9.71878 12.3276 9.71878Z" fill="#484848"/>
<path fill-rule="evenodd" clip-rule="evenodd" d="M7.95459 11.1389C7.95459 11.5329 8.27683 11.8546 8.67053 11.8546H9.32818C9.72317 11.8546 10.0441 11.5324 10.0441 11.1389V9.77999C10.0441 9.38643 9.72316 9.06433 9.32818 9.06433H8.67053C8.27685 9.06433 7.95459 9.386 7.95459 9.77999V11.1389ZM8.67053 11.2325C8.61997 11.2325 8.57662 11.1889 8.57662 11.1389V9.77999C8.57662 9.72997 8.61995 9.68636 8.67053 9.68636H9.32818C9.37919 9.68636 9.42209 9.72954 9.42209 9.77999V11.1389C9.42209 11.1893 9.37917 11.2325 9.32818 11.2325H8.67053Z" fill="#484848"/>
<path fill-rule="evenodd" clip-rule="evenodd" d="M5.72314 11.1389C5.72314 11.3107 5.86239 11.4499 6.03416 11.4499H8.266C8.43777 11.4499 8.57702 11.3107 8.57702 11.1389C8.57702 10.9671 8.43777 10.8279 8.266 10.8279H6.03416C5.86239 10.8279 5.72314 10.9671 5.72314 11.1389ZM9.42248 11.1389C9.42248 11.3107 9.56173 11.4499 9.7335 11.4499H11.9653C12.1371 11.4499 12.2764 11.3107 12.2764 11.1389C12.2764 10.9671 12.1371 10.8279 11.9653 10.8279H9.7335C9.56173 10.8279 9.42248 10.9671 9.42248 11.1389ZM5.72842 9.77998C5.72842 9.95175 5.86766 10.091 6.03943 10.091H8.266C8.43777 10.091 8.57702 9.95175 8.57702 9.77998C8.57702 9.60821 8.43777 9.46896 8.266 9.46896H6.03943C5.86766 9.46896 5.72842 9.60821 5.72842 9.77998ZM9.42248 9.77998C9.42248 9.95175 9.56173 10.091 9.7335 10.091H11.961C12.1327 10.091 12.272 9.95175 12.272 9.77998C12.272 9.60821 12.1327 9.46896 11.961 9.46896H9.7335C9.56173 9.46896 9.42248 9.60821 9.42248 9.77998Z" fill="#484848"/>
<path fill-rule="evenodd" clip-rule="evenodd" d="M4.00049 16.2277C4.00049 16.5954 4.30083 16.8953 4.66831 16.8953H5.31547C5.68392 16.8953 5.98242 16.5944 5.98242 16.2277V15.581C5.98242 15.2133 5.68292 14.9143 5.31547 14.9143H4.66831C4.30183 14.9143 4.00049 15.2123 4.00049 15.581V16.2277ZM4.63629 16.2594C4.62681 16.2499 4.62252 16.2387 4.62252 16.2277V15.581C4.62252 15.5582 4.64299 15.5364 4.66831 15.5364H5.31547C5.3398 15.5364 5.36039 15.5572 5.36039 15.581V16.2277C5.36039 16.2392 5.35592 16.2505 5.34668 16.2598C5.33749 16.269 5.32657 16.2733 5.31547 16.2733H4.66831C4.65709 16.2733 4.64578 16.2689 4.63629 16.2594Z" fill="#484848"/>
<path fill-rule="evenodd" clip-rule="evenodd" d="M12.0166 16.2277C12.0166 16.5954 12.3169 16.8953 12.6844 16.8953H13.3316C13.7001 16.8953 13.9985 16.5944 13.9985 16.2277V15.581C13.9985 15.2133 13.6991 14.9143 13.3316 14.9143H12.6844C12.3179 14.9143 12.0166 15.2123 12.0166 15.581V16.2277ZM12.6524 16.2594C12.6429 16.2499 12.6386 16.2387 12.6386 16.2277V15.581C12.6386 15.5582 12.6591 15.5364 12.6844 15.5364H13.3316C13.3559 15.5364 13.3765 15.5572 13.3765 15.581V16.2277C13.3765 16.2525 13.3549 16.2733 13.3316 16.2733H12.6844C12.6732 16.2733 12.6619 16.2689 12.6524 16.2594Z" fill="#484848"/>
<path fill-rule="evenodd" clip-rule="evenodd" d="M4.99119 15.5363C5.16296 15.5363 5.30221 15.397 5.30221 15.2253V13.6907C5.30221 13.5189 5.16296 13.3797 4.99119 13.3797C4.81942 13.3797 4.68018 13.5189 4.68018 13.6907V15.2253C4.68018 15.397 4.81942 15.5363 4.99119 15.5363Z" fill="#484848"/>
<path fill-rule="evenodd" clip-rule="evenodd" d="M13.0083 15.5363C13.1801 15.5363 13.3193 15.397 13.3193 15.2253V13.6907C13.3193 13.5189 13.1801 13.3797 13.0083 13.3797C12.8365 13.3797 12.6973 13.5189 12.6973 13.6907V15.2253C12.6973 15.397 12.8365 15.5363 13.0083 15.5363Z" fill="#484848"/>
</g>
</svg>
