<svg width="18" height="18" viewBox="0 0 18 18" fill="none" xmlns="http://www.w3.org/2000/svg">
<path d="M13.9876 12.9977V10.7847H11.9092C12.7719 10.054 13.2837 8.95499 13.2837 7.82377V5.93199C12.8828 5.93199 12.4862 5.9443 12.0952 5.83633C10.9397 5.51735 10.1182 4.42193 10.1363 3.22314C10.1413 2.89887 10.1868 2.57279 10.2156 2.25L9.49896 2.54361C8.39626 2.9954 7.64144 3.84484 7.24994 5.07221L5.97556 4.64234L5.77798 4.95653C4.56009 6.89287 5.04567 9.42418 6.83175 10.7847H1.5V13.9397H4.01221V16.1527H16.4998V12.9977H13.9876ZM9.96086 10.0928C9.65513 10.7266 8.73233 10.7269 8.42641 10.0928C8.28036 9.79008 8.3116 9.4493 8.50997 9.18121L9.19364 8.0819L9.8773 9.18121C10.0757 9.4493 10.1069 9.79008 9.96086 10.0928ZM6.39667 5.77862L7.91992 6.29243L8.03384 5.78113C8.24035 4.85463 8.62575 4.19762 9.22787 3.76112C9.45038 5.36617 10.7317 6.63757 12.3416 6.84458V7.82377C12.3416 8.86311 11.7693 9.85364 10.8667 10.3698C11.0918 9.79281 11.0118 9.14268 10.6468 8.63757L9.19361 6.2945L7.74042 8.63754C7.44046 9.05259 7.33313 9.56558 7.42916 10.0554C6.10252 9.06452 5.67155 7.25824 6.39667 5.77862ZM2.44208 12.9977V11.7268H13.0455V12.9977H2.44208ZM15.5577 15.2106H4.95429V13.9397H15.5577V15.2106Z" fill="#484848"/>
</svg>
