<svg width="18" height="18" viewBox="0 0 18 18" fill="none" xmlns="http://www.w3.org/2000/svg">
<path d="M5.04134 3.41089C4.08319 3.41089 3.30371 4.1904 3.30371 5.14852C3.30371 6.10665 4.08322 6.88616 5.04134 6.88616C5.99947 6.88616 6.77898 6.10668 6.77898 5.14852C6.77898 4.19037 5.9995 3.41089 5.04134 3.41089ZM5.04134 6.00728C4.5678 6.00728 4.18259 5.62206 4.18259 5.14852C4.18259 4.67498 4.56783 4.28977 5.04134 4.28977C5.51486 4.28977 5.9001 4.67501 5.9001 5.14852C5.9001 5.62203 5.51488 6.00728 5.04134 6.00728Z" fill="#484848"/>
<path d="M12.3435 15.0634L10.7878 10.6758H7.77319L6.39276 7.39941H4.13996L2.4221 12.0717C2.35267 12.2606 2.33823 12.4621 2.37564 12.6543H1.50098V13.5332H8.94002L10.4051 15.9769C10.6049 16.3102 10.9616 16.4998 11.3302 16.4998C11.4759 16.4998 11.6236 16.4702 11.7641 16.408C12.2761 16.1817 12.5306 15.591 12.3435 15.0634ZM4.59302 12.6543L5.11634 11.8153L5.56035 12.6543H4.59302ZM11.4086 15.6043C11.3175 15.6446 11.2101 15.6105 11.1589 15.525L9.43782 12.6543H6.55468L5.1788 10.0545L3.61817 12.5566C3.57997 12.6178 3.51411 12.6543 3.44195 12.6543C3.34771 12.6543 3.2948 12.5987 3.27166 12.5655C3.24851 12.5323 3.21453 12.4634 3.24702 12.375L4.75324 8.27832H5.80936L7.18979 11.5548H10.1669L11.5152 15.3571C11.5495 15.4541 11.5027 15.5627 11.4086 15.6043Z" fill="#484848"/>
<path d="M12.0387 4.80046C12.0387 4.24348 11.8135 3.93784 11.649 3.71466C11.5128 3.52992 11.4306 3.41839 11.4306 3.15027C11.4306 2.88213 11.5128 2.77063 11.649 2.58583C11.8134 2.36265 12.0387 2.057 12.0387 1.5H11.1599C11.1599 1.76812 11.0776 1.87965 10.9415 2.06442C10.777 2.28759 10.5518 2.59324 10.5518 3.15024C10.5518 3.70722 10.777 4.01286 10.9415 4.23604C11.0776 4.42078 11.1599 4.53231 11.1599 4.80043C11.1599 5.06863 11.0777 5.18016 10.9415 5.36496C10.777 5.58823 10.5518 5.8939 10.5518 6.45094C10.5518 7.00797 10.777 7.31364 10.9415 7.53682C11.0777 7.72162 11.1599 7.83318 11.1599 8.10135H12.0387C12.0387 7.54432 11.8135 7.23865 11.649 7.01544C11.5128 6.83064 11.4306 6.71911 11.4306 6.45091C11.4306 6.1827 11.5128 6.0712 11.649 5.88637C11.8135 5.66317 12.0387 5.35749 12.0387 4.80046Z" fill="#484848"/>
<path d="M14.2692 4.80086C14.2692 4.24388 14.0439 3.93824 13.8794 3.71506C13.7433 3.53032 13.6611 3.41879 13.6611 3.15067C13.6611 2.88253 13.7433 2.77103 13.8795 2.58623C14.0439 2.36314 14.2692 2.05749 14.2692 1.50049H13.3903C13.3903 1.76861 13.3081 1.88014 13.172 2.0649C13.0075 2.28808 12.7822 2.59373 12.7822 3.15073C12.7822 3.70771 13.0075 4.01335 13.172 4.23653C13.3081 4.42127 13.3903 4.5328 13.3903 4.80092C13.3903 5.06912 13.3081 5.18065 13.172 5.36545C13.0075 5.58866 12.7822 5.89433 12.7822 6.45134C12.7822 7.00834 13.0075 7.31404 13.172 7.53722C13.3081 7.72202 13.3903 7.83358 13.3903 8.10176H14.2692C14.2692 7.54472 14.044 7.23905 13.8795 7.01584C13.7433 6.83104 13.6611 6.71951 13.6611 6.45131C13.6611 6.1831 13.7433 6.0716 13.8795 5.88677C14.0439 5.66357 14.2692 5.35789 14.2692 4.80086Z" fill="#484848"/>
<path d="M16.5002 4.80095C16.5002 4.24397 16.2749 3.93833 16.1104 3.71515C15.9743 3.53041 15.8921 3.41888 15.8921 3.15076C15.8921 2.88261 15.9743 2.77111 16.1104 2.58632C16.2749 2.36314 16.5002 2.05749 16.5002 1.50049H15.6213C15.6213 1.76861 15.5391 1.88014 15.4029 2.0649C15.2385 2.28808 15.0132 2.59373 15.0132 3.15073C15.0132 3.70771 15.2384 4.01335 15.4029 4.23653C15.5391 4.42127 15.6213 4.5328 15.6213 4.80092C15.6213 5.06912 15.5391 5.18065 15.4029 5.36545C15.2384 5.58866 15.0132 5.89433 15.0132 6.45134C15.0132 7.00834 15.2384 7.31404 15.4029 7.53722C15.5391 7.72202 15.6213 7.83358 15.6213 8.10176H16.5002C16.5002 7.54472 16.2749 7.23905 16.1104 7.01584C15.9743 6.83104 15.8921 6.71951 15.8921 6.45131C15.8921 6.1831 15.9743 6.0716 16.1104 5.88677C16.2749 5.66365 16.5002 5.35798 16.5002 4.80095Z" fill="#484848"/>
</svg>
