<svg width="18" height="18" viewBox="0 0 18 18" fill="none" xmlns="http://www.w3.org/2000/svg">
<path d="M5.29326 7.14666C4.92883 7.14666 4.61898 7.01885 4.36369 6.76324C4.10841 6.50763 3.98078 6.20035 3.98078 5.8414C3.98078 5.47847 4.10841 5.16779 4.36369 4.90935C4.61898 4.65091 4.92883 4.52169 5.29326 4.52169C5.65767 4.52169 5.96752 4.65057 6.22281 4.90832C6.47809 5.16607 6.60574 5.47593 6.60574 5.83789C6.60574 6.19984 6.47809 6.50846 6.22281 6.76374C5.96752 7.01902 5.65767 7.14666 5.29326 7.14666ZM3.98078 16.125C3.76828 16.125 3.59015 16.0507 3.4464 15.9021C3.30265 15.7536 3.23078 15.573 3.23078 15.3605C2.85193 15.3605 2.53125 15.2264 2.26875 14.9581C2.00625 14.6897 1.875 14.3672 1.875 13.9904V10.0673H3.98078V9.49763C3.98078 9.06589 4.13005 8.69834 4.4286 8.39498C4.72716 8.09161 5.09231 7.93993 5.52403 7.93993C5.76441 7.93993 5.98844 7.99114 6.19614 8.09355C6.40383 8.19595 6.59037 8.33465 6.75576 8.50965L7.66151 9.53513C7.76151 9.6365 7.85839 9.73154 7.95214 9.82024C8.04589 9.90894 8.14901 9.9913 8.26151 10.0673H13.5V3.83944C13.5 3.61155 13.4219 3.41467 13.2656 3.24879C13.1094 3.08293 12.9197 3 12.6966 3C12.5945 3 12.4966 3.02164 12.4029 3.06491C12.3093 3.10818 12.224 3.16827 12.1471 3.2452L11.2096 4.19351C11.2721 4.40846 11.2846 4.62026 11.2471 4.8289C11.2096 5.03752 11.1346 5.23174 11.0221 5.41155L9.21921 3.57118C9.39421 3.45719 9.58171 3.38436 9.78171 3.35269C9.98171 3.32103 10.1817 3.34319 10.3817 3.41919L11.3192 2.46926C11.5029 2.28284 11.7123 2.13719 11.9477 2.03233C12.183 1.92746 12.4326 1.87502 12.6966 1.87502C13.2379 1.87502 13.6946 2.06564 14.0668 2.44689C14.4389 2.82814 14.625 3.29233 14.625 3.83944V10.0673H16.125V13.9904C16.125 14.3672 15.9937 14.6897 15.7312 14.9581C15.4687 15.2264 15.148 15.3605 14.7692 15.3605C14.7692 15.573 14.6973 15.7536 14.5536 15.9021C14.4098 16.0507 14.2317 16.125 14.0192 16.125H3.98078ZM3.23078 14.2356H14.7692C14.8365 14.2356 14.8918 14.2115 14.9351 14.1635C14.9783 14.1154 15 14.0577 15 13.9904V11.1923H2.99998V13.9904C2.99998 14.0577 3.02162 14.1154 3.06489 14.1635C3.10817 14.2115 3.16346 14.2356 3.23078 14.2356ZM3.23078 14.2356H2.99998H15H3.23078Z" fill="#484848"/>
</svg>
