<svg width="16" height="16" viewBox="0 0 16 16" fill="none" xmlns="http://www.w3.org/2000/svg">
<path d="M7.99998 7.79503C7.35833 7.79503 6.80903 7.56657 6.35208 7.10964C5.89514 6.65269 5.66667 6.10339 5.66667 5.46173C5.66667 4.82007 5.89514 4.27077 6.35208 3.81383C6.80903 3.35689 7.35833 3.12842 7.99998 3.12842C8.64164 3.12842 9.19094 3.35689 9.64788 3.81383C10.1048 4.27077 10.3333 4.82007 10.3333 5.46173C10.3333 6.10339 10.1048 6.65269 9.64788 7.10964C9.19094 7.56657 8.64164 7.79503 7.99998 7.79503ZM3 12.872V11.3899C3 11.0634 3.08868 10.7611 3.26603 10.4829C3.44338 10.2047 3.68034 9.9908 3.97692 9.84122C4.63589 9.51814 5.30064 9.27583 5.97115 9.1143C6.64166 8.95277 7.31794 8.872 7.99998 8.872C8.68203 8.872 9.35831 8.95277 10.0288 9.1143C10.6993 9.27583 11.3641 9.51814 12.023 9.84122C12.3196 9.9908 12.5566 10.2047 12.7339 10.4829C12.9113 10.7611 13 11.0634 13 11.3899V12.872H3ZM3.99998 11.872H12V11.3899C12 11.2549 11.9609 11.1299 11.8827 11.0149C11.8045 10.9 11.6983 10.8062 11.5641 10.7335C10.9897 10.4506 10.4041 10.2363 9.80712 10.0906C9.21016 9.94483 8.60778 9.87197 7.99998 9.87197C7.39218 9.87197 6.78981 9.94483 6.19285 10.0906C5.59589 10.2363 5.01024 10.4506 4.43588 10.7335C4.30169 10.8062 4.1955 10.9 4.1173 11.0149C4.03909 11.1299 3.99998 11.2549 3.99998 11.3899V11.872ZM7.99998 6.79507C8.36665 6.79507 8.68054 6.66451 8.94165 6.4034C9.20276 6.14229 9.33332 5.8284 9.33332 5.46173C9.33332 5.09507 9.20276 4.78118 8.94165 4.52007C8.68054 4.25896 8.36665 4.1284 7.99998 4.1284C7.63332 4.1284 7.31943 4.25896 7.05832 4.52007C6.79721 4.78118 6.66665 5.09507 6.66665 5.46173C6.66665 5.8284 6.79721 6.14229 7.05832 6.4034C7.31943 6.66451 7.63332 6.79507 7.99998 6.79507Z" fill="#484848"/>
</svg>
