<svg width="37" height="36" viewBox="0 0 37 36" fill="none" xmlns="http://www.w3.org/2000/svg">
<path fill-rule="evenodd" clip-rule="evenodd" d="M26.2911 3.40553C27.5611 2.98215 30.1638 3.50401 32.2885 6.49591C33.5049 8.20885 33.0622 10.0451 32.4308 11.3229C32.1112 11.9694 31.7267 12.5129 31.4255 12.8923C31.274 13.0831 31.1414 13.2351 31.0452 13.3408C30.9971 13.3937 30.958 13.4352 30.93 13.4644C30.916 13.479 30.9048 13.4905 30.8966 13.4988L30.8866 13.5088L30.8834 13.5121L30.8823 13.5132C30.8821 13.5134 30.8814 13.514 30.3987 13.0276L30.8814 13.514L13.7191 30.5415C13.7066 30.5563 13.6912 30.5741 13.6726 30.5947C13.6279 30.6442 13.5652 30.7097 13.4837 30.7859C13.3206 30.9382 13.0814 31.1339 12.7592 31.3299C12.1113 31.724 11.1404 32.1114 9.80578 32.1588C8.47025 32.2063 7.29006 31.8939 6.2878 31.2053C5.29241 30.5214 4.52152 29.5004 3.93784 28.2091C3.36253 26.9364 3.96675 25.7165 4.66634 24.8482C5.38415 23.9574 6.36404 23.2217 7.01059 22.7854C7.46032 22.4819 7.87119 22.1741 8.22374 21.8232L20.9719 9.13547L22.7367 7.09296L22.7487 7.0768C22.7667 7.05265 22.7929 7.01755 22.8264 6.97298C22.8935 6.88385 22.9899 6.75671 23.1084 6.60341C23.3449 6.2973 23.6708 5.88449 24.0268 5.46069C24.381 5.03899 24.7734 4.59616 25.1417 4.23486C25.3257 4.05442 25.5124 3.88559 25.6923 3.74745C25.8618 3.61723 26.0692 3.47949 26.2911 3.40553ZM23.8235 7.92835L23.8078 7.94963L21.9753 10.0706L9.19059 22.7947C8.74881 23.2344 8.25649 23.5981 7.77726 23.9215C7.16807 24.3326 6.32249 24.9773 5.7336 25.7082C5.12649 26.4617 4.94277 27.1048 5.18677 27.6446C5.69745 28.7743 6.32762 29.5698 7.06395 30.0757C7.79341 30.5768 8.6756 30.8275 9.75707 30.7891C10.8395 30.7506 11.5839 30.4406 12.0469 30.1589C12.2803 30.0169 12.4456 29.8801 12.5481 29.7843C12.5993 29.7364 12.6347 29.699 12.6549 29.6766C12.665 29.6654 12.6713 29.658 12.6738 29.655C12.6738 29.655 12.6738 29.655 12.6738 29.655L12.6976 29.6243L29.9153 12.5418L29.9161 12.5411L29.9199 12.5372C29.9227 12.5344 29.9266 12.5304 29.9317 12.5251C29.9346 12.5221 29.9378 12.5188 29.9415 12.515C29.9614 12.4943 29.992 12.4619 30.0312 12.4188C30.1097 12.3324 30.2221 12.2037 30.3521 12.04C30.6138 11.7105 30.9381 11.2498 31.202 10.7157C31.7375 9.63212 31.9603 8.40092 31.171 7.2895C29.2842 4.63267 27.2589 4.52765 26.7245 4.70579C26.725 4.70562 26.7253 4.70554 26.7253 4.70554C26.7253 4.7056 26.7087 4.71195 26.6735 4.7329C26.6357 4.75541 26.587 4.78848 26.5272 4.83442C26.4067 4.92695 26.2632 5.05475 26.1015 5.21334C25.7785 5.53011 25.4183 5.93498 25.0763 6.34218C24.7361 6.74727 24.4223 7.14456 24.193 7.44133C24.0786 7.58947 23.9857 7.71196 23.9216 7.79711C23.8895 7.83967 23.8648 7.87286 23.8481 7.89523L23.8294 7.92045L23.8235 7.92835Z" fill="#484848"/>
<path d="M12.1336 23.6308C12.4434 23.6321 12.6955 23.3819 12.6967 23.0722C12.6979 22.7624 12.4478 22.5103 12.138 22.509C11.8283 22.5078 11.5762 22.758 11.5749 23.0677C11.5737 23.3775 11.8238 23.6296 12.1336 23.6308Z" fill="#484848"/>
<path d="M13.9354 25.0759C14.2451 25.0771 14.4973 24.827 14.4985 24.5172C14.4997 24.2075 14.2496 23.9553 13.9398 23.9541C13.63 23.9529 13.3779 24.203 13.3767 24.5128C13.3755 24.8226 13.6256 25.0747 13.9354 25.0759Z" fill="#484848"/>
<path d="M10.6717 25.0273C10.9815 25.0285 11.2336 24.7784 11.2348 24.4686C11.236 24.1589 10.9859 23.9068 10.6761 23.9055C10.3664 23.9043 10.1142 24.1544 10.113 24.4642C10.1118 24.774 10.3619 25.0261 10.6717 25.0273Z" fill="#484848"/>
<path d="M12.4744 26.4724C12.7842 26.4736 13.0363 26.2235 13.0375 25.9137C13.0388 25.6039 12.7886 25.3518 12.4789 25.3506C12.1691 25.3494 11.917 25.5995 11.9158 25.9093C11.9145 26.2191 12.1647 26.4712 12.4744 26.4724Z" fill="#484848"/>
<path d="M23.8875 11.9099C24.1973 11.9111 24.4494 11.661 24.4506 11.3512C24.4519 11.0414 24.2017 10.7893 23.892 10.7881C23.5822 10.7869 23.3301 11.037 23.3288 11.3468C23.3276 11.6566 23.5778 11.9087 23.8875 11.9099Z" fill="#484848"/>
<path d="M25.6961 13.355C26.0059 13.3562 26.258 13.106 26.2592 12.7963C26.2604 12.4865 26.0103 12.2344 25.7005 12.2332C25.3908 12.2319 25.1387 12.4821 25.1374 12.7919C25.1362 13.1016 25.3863 13.3537 25.6961 13.355Z" fill="#484848"/>
<path d="M22.4256 13.3064C22.7354 13.3076 22.9875 13.0575 22.9887 12.7477C22.9899 12.4379 22.7398 12.1858 22.43 12.1846C22.1203 12.1834 21.8682 12.4335 21.8669 12.7433C21.8657 13.053 22.1158 13.3052 22.4256 13.3064Z" fill="#484848"/>
<path d="M24.2283 14.7514C24.5381 14.7527 24.7902 14.5025 24.7915 14.1928C24.7927 13.883 24.5425 13.6309 24.2328 13.6297C23.923 13.6284 23.6709 13.8786 23.6697 14.1883C23.6684 14.4981 23.9186 14.7502 24.2283 14.7514Z" fill="#484848"/>
<path d="M30.3542 17.8252C30.9677 16.9113 30.9306 15.8116 30.2712 15.3689C29.6118 14.9263 28.5799 15.3082 27.9664 16.222C27.3528 17.1359 27.39 18.2356 28.0494 18.6783C28.7088 19.121 29.7407 18.739 30.3542 17.8252Z" fill="#B7DFB9"/>
<path fill-rule="evenodd" clip-rule="evenodd" d="M28.2152 17.604C28.2249 17.8905 28.3303 18.0419 28.4312 18.1096C28.532 18.1773 28.7121 18.2175 28.9809 18.118C29.2487 18.0189 29.5496 17.7942 29.785 17.4435C30.0205 17.0927 30.1146 16.7292 30.1049 16.4438C30.0952 16.1573 29.9898 16.0059 29.889 15.9382C29.7881 15.8705 29.6081 15.8302 29.3392 15.9298C29.0715 16.0289 28.7706 16.2536 28.5351 16.6043C28.2996 16.955 28.2056 17.3186 28.2152 17.604ZM26.8454 17.6503C26.825 17.0467 27.0191 16.4034 27.3972 15.8403C27.7752 15.2772 28.297 14.854 28.8635 14.6444C29.4288 14.4351 30.0944 14.4252 30.6529 14.8002C31.2115 15.1752 31.4544 15.795 31.4747 16.3975C31.4951 17.0011 31.301 17.6443 30.923 18.2074C30.5449 18.7705 30.0231 19.1937 29.4567 19.4034C28.8914 19.6126 28.2258 19.6225 27.6672 19.2475C27.1086 18.8725 26.8658 18.2527 26.8454 17.6503Z" fill="#484848"/>
<path fill-rule="evenodd" clip-rule="evenodd" d="M26.0105 17.778C26.0104 17.7778 26.0103 17.7776 26.5685 17.3801C27.1268 16.9826 27.1267 16.9825 27.1266 16.9824L27.1261 16.9818C27.126 16.9816 27.1261 16.9817 27.1261 16.9818L27.127 16.983L27.1344 16.993C27.1416 17.0028 27.1533 17.0184 27.1692 17.0391C27.2012 17.0804 27.2494 17.1411 27.3114 17.2136C27.4367 17.3603 27.6109 17.5469 27.8124 17.7182C28.2723 18.1093 28.625 18.2154 28.8434 18.1392L29.2948 19.4334C28.3123 19.7761 27.4146 19.1791 26.9245 18.7624C26.651 18.5298 26.4252 18.2864 26.2693 18.1039C26.1907 18.0119 26.128 17.9333 26.0842 17.8764C26.0622 17.848 26.0449 17.8248 26.0325 17.8081L26.0176 17.7877L26.013 17.7814L26.0114 17.7792L26.0105 17.778Z" fill="#484848"/>
<path d="M18.4538 29.7798C19.0674 28.8659 19.0302 27.7662 18.3708 27.3235C17.7114 26.8808 16.6795 27.2628 16.066 28.1766C15.4524 29.0905 15.4896 30.1902 16.149 30.6329C16.8084 31.0756 17.8403 30.6936 18.4538 29.7798Z" fill="#B7DFB9"/>
<path fill-rule="evenodd" clip-rule="evenodd" d="M16.3148 29.5585C16.3245 29.8451 16.43 29.9965 16.5308 30.0642C16.6316 30.1319 16.8117 30.1721 17.0805 30.0726C17.3483 29.9735 17.6492 29.7488 17.8846 29.398C18.1201 29.0473 18.2142 28.6838 18.2045 28.3984C18.1948 28.1119 18.0894 27.9605 17.9886 27.8928C17.8877 27.8251 17.7077 27.7848 17.4388 27.8843C17.1711 27.9835 16.8702 28.2082 16.6347 28.5589C16.3992 28.9096 16.3052 29.2732 16.3148 29.5585ZM14.945 29.6049C14.9246 29.0012 15.1187 28.358 15.4968 27.7949C15.8748 27.2318 16.3967 26.8086 16.9631 26.599C17.5284 26.3897 18.194 26.3798 18.7525 26.7548C19.3111 27.1298 19.554 27.7496 19.5743 28.3521C19.5947 28.9557 19.4006 29.5989 19.0226 30.162C18.6445 30.7251 18.1227 31.1483 17.5563 31.358C16.991 31.5672 16.3254 31.5771 15.7668 31.2021C15.2082 30.8271 14.9654 30.2073 14.945 29.6049Z" fill="#484848"/>
<path fill-rule="evenodd" clip-rule="evenodd" d="M14.1072 29.7262C14.1071 29.726 14.107 29.7259 14.6652 29.3284C15.2234 28.9309 15.2233 28.9307 15.2232 28.9306L15.2228 28.93C15.2227 28.9298 15.2228 28.93 15.2228 28.93L15.2237 28.9312L15.2311 28.9412C15.2383 28.951 15.25 28.9667 15.2659 28.9873C15.2978 29.0286 15.3461 29.0893 15.408 29.1618C15.5334 29.3085 15.7075 29.4951 15.909 29.6665C16.369 30.0576 16.7216 30.1637 16.9401 30.0875L17.3915 31.3816C16.409 31.7243 15.5113 31.1274 15.0212 30.7106C14.7477 30.4781 14.5219 30.2346 14.366 30.0522C14.2874 29.9601 14.2247 29.8815 14.1809 29.8247C14.1589 29.7962 14.1415 29.7731 14.1291 29.7563L14.1142 29.736L14.1096 29.7296L14.1081 29.7274L14.1072 29.7262Z" fill="#484848"/>
</svg>
