<svg width="18" height="18" viewBox="0 0 18 18" fill="none" xmlns="http://www.w3.org/2000/svg">
<path d="M12.8633 1.11035H5.13685C4.37214 1.11035 3.75 1.73249 3.75 2.4972V15.5027C3.75 16.2674 4.37214 16.8896 5.13685 16.8896H12.8633C13.628 16.8896 14.2501 16.2674 14.2501 15.5027V2.4972C14.2501 1.73249 13.628 1.11035 12.8633 1.11035ZM12.8633 15.965H5.13685C4.88194 15.965 4.67456 15.7576 4.67456 15.5027V2.4972C4.67456 2.24229 4.88194 2.03492 5.13685 2.03492H12.8633C13.1182 2.03492 13.3256 2.24229 13.3256 2.4972V15.5027H13.3256C13.3256 15.7576 13.1182 15.965 12.8633 15.965Z" fill="#484848"/>
<path d="M9.00024 2.88379C7.90377 2.88379 7.01172 3.77584 7.01172 4.87231C7.01172 5.96878 7.90377 6.86086 9.00024 6.86086C10.0967 6.86086 10.9888 5.96881 10.9888 4.87234C10.9888 3.77587 10.0967 2.88379 9.00024 2.88379ZM9.00024 5.9363C8.41357 5.9363 7.93628 5.45901 7.93628 4.87234C7.93628 4.28567 8.41357 3.80835 9.00024 3.80835C9.58691 3.80835 10.0642 4.28564 10.0642 4.87231C10.0642 5.45898 9.58691 5.9363 9.00024 5.9363Z" fill="#484848"/>
<path d="M9.00102 7.55054C6.99138 7.55054 5.35645 9.18547 5.35645 11.1951C5.35645 13.2047 6.99138 14.8396 9.00102 14.8396C11.0106 14.8396 12.6456 13.2047 12.6456 11.1951C12.6456 9.18551 11.0106 7.55054 9.00102 7.55054ZM9.00102 13.9151C7.50122 13.9151 6.28101 12.6949 6.28101 11.1951C6.28101 9.69528 7.50122 8.4751 9.00102 8.4751C10.5008 8.4751 11.721 9.69528 11.721 11.1951C11.721 12.6949 10.5008 13.9151 9.00102 13.9151Z" fill="#484848"/>
<path d="M8.99998 9.65747C8.15216 9.65747 7.4624 10.3472 7.4624 11.1951C7.4624 12.0428 8.15216 12.7326 8.99998 12.7326C9.84781 12.7326 10.5376 12.0428 10.5376 11.1951C10.5376 10.3472 9.84781 9.65747 8.99998 9.65747ZM8.99998 11.808C8.66196 11.808 8.38697 11.533 8.38697 11.1951C8.38697 10.857 8.66196 10.582 8.99998 10.582C9.338 10.582 9.613 10.857 9.613 11.1951C9.613 11.533 9.338 11.808 8.99998 11.808Z" fill="#484848"/>
</svg>
