<svg width="18" height="18" viewBox="0 0 18 18" fill="none" xmlns="http://www.w3.org/2000/svg">
<path fill-rule="evenodd" clip-rule="evenodd" d="M8.64171 1.13281L13.3242 2.93375L15.8167 7.5627V14.8238H16.5V17.2154H1.12509V14.8238H1.46676V7.5627L3.95927 2.93375L8.64171 1.13281ZM1.80842 15.5071V16.5321H15.8167V15.5071H1.80842ZM15.1333 14.8238V7.9905H14.45V14.8238H15.1333ZM13.7667 14.8238V7.9905H12.0584V14.8238H13.7667ZM11.375 14.2083V8.60598L9.08317 11.4071L11.375 14.2083ZM8.98338 10.45L10.9957 7.9905H8.98338V10.45ZM8.30005 7.9905H6.28773L8.30005 10.45V7.9905ZM8.20026 11.4071L5.9084 8.60598V14.2083L8.20026 11.4071ZM5.22507 14.8238V7.9905H3.85841V14.8238H5.22507ZM3.17508 14.8238H2.15009V7.9905H3.17508V14.8238ZM2.38044 7.30717H4.20007V3.92786L2.38044 7.30717ZM4.8834 3.31045V7.30717H11.8534V3.10019L8.64171 1.86494L4.8834 3.31045ZM12.5367 3.36301V7.30717H14.903L12.8425 3.48065L12.5367 3.36301ZM6.28773 14.8238L8.30005 12.3643V14.8238H6.28773ZM8.98338 14.8238H10.9957L8.98338 12.3643V14.8238Z" fill="#484848"/>
<path fill-rule="evenodd" clip-rule="evenodd" d="M8.43696 2.65674L10.3503 3.0394V6.82911H6.52364V3.0394L8.43696 2.65674ZM6.93363 3.70237L8.14705 4.91578L6.93363 6.1292V3.70237ZM7.22355 6.41911H8.23196V5.4107L7.22355 6.41911ZM8.64196 5.4107V6.41911H9.65037L8.64196 5.4107ZM9.94028 6.1292V3.70237L8.72687 4.91578L9.94028 6.1292ZM8.64196 4.42087L9.72947 3.33336L8.64196 3.11586V4.42087ZM8.23196 3.11586V4.42087L7.14444 3.33336L8.23196 3.11586Z" fill="#484848"/>
</svg>
