<svg width="284" height="192" viewBox="0 0 284 192" fill="none" xmlns="http://www.w3.org/2000/svg">
<path opacity="0.6" d="M140.105 163.201C181.817 163.201 215.631 160.036 215.631 156.132C215.631 152.227 181.817 149.062 140.105 149.062C98.3931 149.062 64.5791 152.227 64.5791 156.132C64.5791 160.036 98.3931 163.201 140.105 163.201Z" fill="#DBF9D8"/>
<g clip-path="url(#clip0_1042_27092)">
<path fill-rule="evenodd" clip-rule="evenodd" d="M140.405 123.602C156.486 123.602 169.523 110.529 169.523 94.4023C169.523 78.2756 156.486 65.2023 140.405 65.2023C124.323 65.2023 111.287 78.2756 111.287 94.4023C111.287 110.529 124.323 123.602 140.405 123.602ZM140.405 126.402C158.028 126.402 172.315 112.075 172.315 94.4023C172.315 76.7292 158.028 62.4023 140.405 62.4023C122.781 62.4023 108.495 76.7292 108.495 94.4023C108.495 112.075 122.781 126.402 140.405 126.402Z" fill="#484848"/>
<path d="M152.298 100.08C151.619 99.8357 150.874 100.198 150.634 100.89C149.045 105.469 144.774 108.546 140.006 108.546C135.237 108.546 130.966 105.469 129.377 100.89C129.137 100.198 128.392 99.8357 127.713 100.08C127.034 100.325 126.678 101.084 126.918 101.776C128.874 107.415 134.134 111.204 140.006 111.204C145.878 111.204 151.137 107.415 153.094 101.776C153.334 101.084 152.978 100.325 152.298 100.08Z" fill="#484848"/>
<path d="M122.854 87.2031C122.854 87.2031 124.848 89.6031 128.039 89.6031C131.23 89.6031 133.624 87.2031 133.624 87.2031" stroke="#484848" stroke-width="2.5" stroke-linecap="round"/>
<path d="M146.787 87.2031C146.787 87.2031 148.781 89.6031 151.972 89.6031C155.163 89.6031 157.556 87.2031 157.556 87.2031" stroke="#484848" stroke-width="2.5" stroke-linecap="round"/>
</g>
<path d="M68.2992 121.333C69.8339 125.566 74.5117 127.754 78.7484 126.221C82.9843 124.687 85.1742 120.013 83.6395 115.779C82.1047 111.547 77.4269 109.359 73.1903 110.892C68.9543 112.426 66.7645 117.1 68.2992 121.333ZM80.8779 116.779C81.8599 119.488 80.4585 122.48 77.7474 123.461C75.0364 124.442 72.042 123.042 71.06 120.333C70.078 117.624 71.4795 114.632 74.1905 113.651C76.9015 112.67 79.8952 114.07 80.8779 116.779Z" fill="#DBF9D8"/>
<path d="M185.569 53.3332C187.103 57.5659 191.781 59.7541 196.018 58.2206C200.254 56.687 202.444 52.0128 200.909 47.7794C199.374 43.5467 194.696 41.3585 190.46 42.8921C186.224 44.4256 184.034 49.0999 185.569 53.3332ZM198.147 48.7789C199.129 51.4878 197.728 54.4799 195.017 55.4611C192.306 56.4424 189.312 55.042 188.33 52.3331C187.348 49.6241 188.749 46.632 191.46 45.6508C194.171 44.6695 197.165 46.0699 198.147 48.7789Z" fill="#DBF9D8"/>
<path d="M91.3775 63.9561C92.0222 62.1775 91.1019 60.2134 89.3218 59.5692C87.5418 58.9249 85.5762 59.8446 84.9315 61.6232C84.2868 63.4019 85.2071 65.366 86.9872 66.0102C88.7672 66.6544 90.7328 65.7348 91.3775 63.9561Z" fill="#4CAF50"/>
<path d="M214.648 134.588C217.013 133.177 217.783 130.105 216.367 127.728C214.95 125.351 211.885 124.568 209.52 125.98C207.154 127.392 206.385 130.464 207.801 132.84C209.218 135.218 212.283 136.001 214.648 134.588ZM210.443 127.529C211.957 126.626 213.919 127.126 214.825 128.648C215.731 130.169 215.239 132.135 213.725 133.038C212.211 133.942 210.249 133.441 209.343 131.92C208.437 130.398 208.929 128.433 210.443 127.529Z" fill="#DBF9D8"/>
<path d="M116.525 36.9869C118.89 35.5752 119.66 32.5033 118.243 30.1265C116.827 27.7493 113.761 26.9667 111.396 28.3785C109.03 29.7907 108.261 32.8621 109.677 35.2389C111.094 37.6162 114.159 38.3992 116.525 36.9869ZM112.319 29.9277C113.833 29.0243 115.795 29.5248 116.701 31.0462C117.608 32.5676 117.115 34.5333 115.602 35.4367C114.088 36.3401 112.126 35.8396 111.219 34.3182C110.313 32.7968 110.805 30.8311 112.319 29.9277Z" fill="#DBF9D8"/>
<path d="M188.521 102.062C190.259 101.324 191.066 99.3103 190.323 97.5649C189.581 95.8195 187.57 95.0031 185.832 95.7414C184.094 96.4796 183.287 98.493 184.03 100.238C184.772 101.984 186.783 102.8 188.521 102.062Z" fill="#4CAF50"/>
<defs>
<clipPath id="clip0_1042_27092">
<rect width="63.8202" height="64" fill="white" transform="translate(108.495 62.4023)"/>
</clipPath>
</defs>
</svg>
