<svg width="36" height="36" viewBox="0 0 36 36" fill="none" xmlns="http://www.w3.org/2000/svg">
<ellipse cx="17.979" cy="12.9446" rx="12.8333" ry="3.88889" transform="rotate(0.225954 17.979 12.9446)" fill="#B7DFB9"/>
<path d="M32.2542 27.9487C32.7139 27.773 32.943 27.2568 32.7648 26.7979L29.8365 19.2564C31.5014 18.2731 31.9184 17.21 31.9216 16.397L31.9359 12.7787C31.9403 11.6688 31.1773 10.0869 27.5175 8.85484C24.9643 7.99519 21.5844 7.51413 18.0005 7.5C14.4167 7.48586 11.0333 7.94025 8.4732 8.77973C4.80381 9.98292 4.02834 11.5587 4.02396 12.6686L4.00969 16.2869C4.00648 17.0999 4.41514 18.1663 6.07239 19.1627L3.0845 26.6809C2.90271 27.1383 3.12771 27.6563 3.58609 27.8357V27.8357C4.04105 28.0137 4.55437 27.7908 4.73481 27.3367L7.67567 19.9369C7.91183 20.0299 8.1621 20.1213 8.42812 20.2108C9.8643 20.6945 11.562 21.0582 13.4104 21.2864L13.381 28.7597C13.3799 29.0359 13.6028 29.2606 13.879 29.2617L14.6568 29.2648C14.9329 29.2658 15.1577 29.0429 15.1588 28.7667L15.161 28.1885L20.677 28.2102L20.6747 28.7885C20.6736 29.0646 20.8966 29.2894 21.1727 29.2905L21.9503 29.2935C22.2265 29.2946 22.4512 29.0716 22.4523 28.7955L22.4818 21.3222C24.3319 21.1084 26.0324 20.758 27.4724 20.2859C27.7391 20.1985 27.9901 20.109 28.2272 20.0179L31.1094 27.4407C31.2862 27.8962 31.7978 28.1232 32.2542 27.9487V27.9487ZM9.03128 10.4545C11.4137 9.67328 14.5967 9.25049 17.9936 9.26388C21.3904 9.27728 24.5698 9.72517 26.9462 10.5251C29.3203 11.3244 30.1602 12.2349 30.1581 12.7717C30.156 13.3085 29.3089 14.2124 26.9286 14.9929C24.546 15.7741 21.3631 16.1971 17.9663 16.1837C14.5695 16.1703 11.3898 15.7222 9.01366 14.9223C6.63959 14.123 5.79963 13.2125 5.80175 12.6757C5.80387 12.1388 6.65098 11.235 9.03128 10.4545ZM15.168 26.4246L15.1753 24.5702L20.6913 24.592L20.684 26.4463L15.168 26.4246ZM20.6982 22.8281L15.1823 22.8063L15.1876 21.4601C16.0855 21.5261 17.0083 21.5621 17.9451 21.5658C18.8821 21.5695 19.8049 21.5408 20.7035 21.4819L20.6982 22.8281ZM26.9143 18.6111C24.5319 19.3925 21.3488 19.8153 17.952 19.802C14.5552 19.7886 11.3758 19.3407 8.99939 18.5405C6.62532 17.7413 5.78536 16.831 5.78748 16.2941L5.79117 15.3575C6.43447 15.7867 7.2965 16.2069 8.44239 16.5925C10.9958 17.4522 14.3755 17.9332 17.9593 17.9474C21.5432 17.9615 24.9266 17.5071 27.4867 16.6676C28.6358 16.291 29.5009 15.8777 30.1475 15.4536L30.1438 16.3902C30.1417 16.9268 29.2946 17.8307 26.9143 18.6111Z" fill="#484848"/>
</svg>
