<svg width="37" height="36" viewBox="0 0 37 36" fill="none" xmlns="http://www.w3.org/2000/svg">
<path d="M13.0085 23.0342L16.5085 23.048L17.3062 17.9955L20.8062 18.0093L20.7863 23.0649L24.2862 23.0787L25.0947 15.304L18.502 10.6113L13.4296 14.8691L16.5377 15.6592L16.5238 19.1591L13.0223 19.5342L13.0085 23.0342Z" fill="#B7DFB9"/>
<path d="M31.4331 15.7793C31.6012 15.6242 31.7586 15.4563 31.9021 15.2751C32.5313 14.4803 32.88 13.4774 32.8841 12.4513C32.8927 10.2707 31.3773 8.42034 29.3455 8.01151C28.6715 6.36963 27.0882 5.2606 25.3215 5.25364C24.7872 5.25153 24.2567 5.35044 23.7595 5.54256C22.4323 4.30083 20.7349 3.61999 18.9188 3.61283C17.1028 3.60567 15.4 4.2731 14.0632 5.50427C13.5675 5.30823 13.0378 5.20514 12.5035 5.20303C10.7367 5.19606 9.14478 6.29257 8.4579 7.92908C6.42283 8.32187 4.89291 10.1603 4.88431 12.3408C4.88048 13.3113 5.18544 14.263 5.74528 15.0399C5.20349 15.6218 4.86826 16.4089 4.86484 17.2759C4.85776 19.0713 6.2731 20.5375 8.01997 20.5444L8.78094 20.5474L8.7754 21.9525C8.76379 24.8968 11.0849 27.3013 13.9496 27.3126L16.3644 27.3221L16.3484 31.3807C16.3462 31.933 16.7921 32.3824 17.3444 32.3846L20.2663 32.3961C20.8186 32.3983 21.268 31.9524 21.2702 31.4001L21.2862 27.3415L23.7016 27.3511C26.5663 27.3624 28.9063 24.9762 28.9179 22.032L28.919 21.7509L29.6794 21.7539C31.4263 21.7608 32.8531 20.3059 32.8602 18.5105C32.8647 17.371 32.2957 16.3647 31.4331 15.7793ZM9.10664 9.5427L9.6874 9.50773L9.8475 8.93291C10.1839 7.72477 11.2734 6.88439 12.4969 6.88922C12.9628 6.89105 13.4227 7.01534 13.8269 7.24856L14.3832 7.56957L14.823 7.09433C15.8997 5.93042 17.352 5.29286 18.9122 5.29901C20.4724 5.30517 21.9196 5.95416 22.9872 7.12652L23.4232 7.60522L23.982 7.28861C24.388 7.05859 24.8489 6.93793 25.3148 6.93977C26.5383 6.94459 27.6211 7.79354 27.948 9.00429L28.1035 9.58035L28.684 9.61991C30.1251 9.71811 31.2493 10.9589 31.2435 12.4448C31.2387 13.6524 30.5051 14.6962 29.4234 15.0901C28.6889 14.2079 27.6075 13.6804 26.4556 13.6759C25.9436 13.6739 25.4448 13.7754 24.9834 13.9657L19.499 9.77055C19.1427 9.49803 18.6486 9.49608 18.2901 9.76578L13.62 13.28C12.9599 12.7802 12.1527 12.4953 11.3075 12.492C10.0893 12.4872 8.94503 13.0675 8.2039 14.0372C8.15114 14.0343 8.09837 14.0327 8.0456 14.0325C7.73607 14.0313 7.43691 14.0768 7.15357 14.1611C6.75482 13.667 6.52222 13.0327 6.52492 12.3473C6.53078 10.8614 7.66478 9.62953 9.10664 9.5427ZM13.7028 20.5668L14.5313 20.57C15.0848 20.5722 15.606 20.4272 16.0603 20.1716L16.052 22.2623L13.9696 22.254C13.8188 22.2535 13.6966 22.1269 13.6972 21.9719L13.7028 20.5668ZM17.7068 18.6715L20.012 18.6806L19.9978 22.2778L17.6927 22.2687L17.7068 18.6715ZM17.696 16.9853C17.5594 15.5884 16.5594 14.4488 15.2527 14.141L18.8881 11.4055L24.0223 15.3327L23.996 22.0137C23.9947 22.1681 23.8719 22.2932 23.7215 22.2926L21.6384 22.2843L21.6593 17.001L17.696 16.9853ZM8.02662 18.8582C7.18439 18.8549 6.50204 18.148 6.50546 17.2824C6.50887 16.4167 7.19677 15.7153 8.039 15.7186C8.15948 15.7191 8.28072 15.7345 8.39933 15.7644L9.0004 15.9161L9.30741 15.3636C9.71549 14.6291 10.4794 14.1749 11.3008 14.1781C12.1223 14.1813 12.8825 14.6416 13.2848 15.3792L13.5874 15.9342L14.1897 15.7873C14.3085 15.7583 14.4299 15.7438 14.5504 15.7443C15.3926 15.7476 16.075 16.4545 16.0715 17.3201C16.0681 18.1857 15.3802 18.8872 14.538 18.8839L8.02662 18.8582ZM27.2773 22.0255C27.2694 24.04 25.6683 25.6726 23.7082 25.6649L19.6523 25.6489L19.6323 30.7074L17.9917 30.701L18.0116 25.6424L13.9563 25.6264C11.9962 25.6187 10.4081 23.9735 10.416 21.959L10.4216 20.5538L12.0622 20.5603L12.0566 21.9655C12.0523 23.0502 12.9075 23.9361 13.9629 23.9402L23.7149 23.9787C24.7703 23.9829 25.6324 23.1037 25.6367 22.019L25.6378 21.738L27.2784 21.7445L27.2773 22.0255ZM29.686 20.0677L25.6443 20.0518L25.6623 15.5037C25.9109 15.4106 26.1766 15.361 26.4489 15.362C27.2703 15.3653 28.0306 15.8256 28.4328 16.5632L28.7355 17.1181L29.3377 16.9712C29.4566 16.9422 29.5779 16.9278 29.6984 16.9282C30.5406 16.9316 31.223 17.6384 31.2196 18.504C31.2162 19.3697 30.5283 20.0711 29.686 20.0677Z" fill="#484848"/>
</svg>
