<svg width="8" height="13" viewBox="0 0 8 13" fill="none" xmlns="http://www.w3.org/2000/svg">
<path d="M4.17676 10.2891C4.95605 10.2526 5.49381 9.96777 5.79004 9.43457C5.94499 9.16113 6.02246 8.8444 6.02246 8.48438C6.02246 7.91471 5.81283 7.48177 5.39355 7.18555C5.15202 7.01237 4.74642 6.84831 4.17676 6.69336V10.2891ZM1.85938 3.69238C1.85938 4.14355 2.00749 4.49674 2.30371 4.75195C2.60449 5.00716 3.00781 5.1849 3.51367 5.28516V2.07227C2.91667 2.09505 2.49056 2.27734 2.23535 2.61914C1.9847 2.96094 1.85938 3.31868 1.85938 3.69238ZM0.628906 3.77441C0.628906 3.08171 0.881836 2.45736 1.3877 1.90137C1.89811 1.34538 2.61133 1.06283 3.52734 1.05371V0.144531H4.17676V1.04004C5.08366 1.10384 5.77865 1.37272 6.26172 1.84668C6.74935 2.31608 7.00456 2.93815 7.02734 3.71289H5.83105C5.79915 3.36654 5.70573 3.06803 5.55078 2.81738C5.26367 2.3571 4.80566 2.11556 4.17676 2.09277V5.41504C5.23405 5.71126 5.95182 5.98926 6.33008 6.24902C6.94531 6.67741 7.25293 7.31087 7.25293 8.14941C7.25293 9.36165 6.85872 10.223 6.07031 10.7334C5.63281 11.016 5.00163 11.2028 4.17676 11.2939V12.6201H3.52734V11.2939C2.20117 11.2074 1.30111 10.738 0.827148 9.88574C0.567383 9.42546 0.4375 8.80339 0.4375 8.01953H1.64746C1.68392 8.64388 1.7819 9.09961 1.94141 9.38672C2.22396 9.90169 2.74805 10.1911 3.51367 10.2549V6.5293C2.5293 6.34245 1.80241 6.03027 1.33301 5.59277C0.863607 5.15527 0.628906 4.54915 0.628906 3.77441Z" fill="#484848"/>
</svg>
