<svg width="18" height="18" viewBox="0 0 18 18" fill="none" xmlns="http://www.w3.org/2000/svg">
<path d="M16.7669 15.7746H16.3843V5.89864C16.3843 5.63183 16.168 5.41553 15.9012 5.41553C15.6344 5.41553 15.418 5.63183 15.418 5.89864V6.46272C11.2063 7.14258 6.80118 7.14403 2.55995 6.46294V5.89864C2.55995 5.63183 2.34365 5.41553 2.07684 5.41553C1.81004 5.41553 1.59374 5.63183 1.59374 5.89864V15.7746H1.23311C0.966304 15.7746 0.75 15.9909 0.75 16.2577C0.75 16.5245 0.966304 16.7408 1.23311 16.7408H16.7669C17.0337 16.7408 17.25 16.5245 17.25 16.2577C17.25 15.9909 17.0337 15.7746 16.7669 15.7746ZM9.48633 11.494V10.1982C10.3789 10.1878 11.2705 10.149 12.1574 10.0818V11.3746C11.2706 11.4434 10.3791 11.4833 9.48633 11.494ZM2.55995 9.70277C3.33396 9.82435 4.11438 9.92368 4.89885 10.0008V11.2917C4.11418 11.2127 3.33364 11.1114 2.55995 10.9867V9.70277ZM5.86507 10.0846C6.74752 10.1505 7.63367 10.1885 8.52011 10.1985V11.4942C7.63361 11.484 6.74739 11.4449 5.86507 11.3773V10.0846ZM9.48633 7.93633C10.3789 7.92593 11.2705 7.88705 12.1574 7.8199V9.11267C11.2706 9.18146 10.3791 9.22143 9.48633 9.23206V7.93633ZM8.52011 9.23232C7.63361 9.22208 6.74739 9.18298 5.86507 9.11544V7.82267C6.74752 7.8886 7.63367 7.9266 8.52011 7.93659V9.23232ZM13.1237 9.99702C13.8938 9.92046 14.6593 9.82239 15.418 9.70268V10.9865C14.6597 11.1093 13.894 11.2094 13.1237 11.2879V9.99702ZM15.418 8.72464C14.6597 8.84738 13.894 8.94754 13.1237 9.02603V7.73513C13.8938 7.65857 14.6593 7.5605 15.418 7.44079V8.72464ZM4.89885 7.73887V9.02977C4.11418 8.9508 3.33364 8.84944 2.55995 8.72483V7.44088C3.33396 7.56247 4.11438 7.66179 4.89885 7.73887ZM2.55995 11.9647C6.78146 12.6263 11.1738 12.6324 15.418 11.9646V15.7746H2.55995V11.9647Z" fill="#484848"/>
<path d="M8.99802 4.69483C9.9452 4.69483 10.7158 3.92424 10.7158 2.97705C10.7158 2.02987 9.9452 1.25928 8.99802 1.25928C8.05083 1.25928 7.28027 2.02987 7.28027 2.97705C7.28027 3.92424 8.05083 4.69483 8.99802 4.69483ZM8.99802 2.22546C9.41243 2.22546 9.74961 2.56261 9.74961 2.97702C9.74961 3.39143 9.41243 3.72858 8.99802 3.72858C8.58361 3.72858 8.24649 3.39143 8.24649 2.97702C8.24646 2.56261 8.58361 2.22546 8.99802 2.22546Z" fill="#484848"/>
</svg>
