<svg width="18" height="18" viewBox="0 0 18 18" fill="none" xmlns="http://www.w3.org/2000/svg">
<path fill-rule="evenodd" clip-rule="evenodd" d="M16.1824 15.3279C15.9689 15.2372 15.7799 15.1005 15.6278 14.9303C15.5287 14.8193 15.3871 14.7559 15.2378 14.7559C15.0892 14.7559 14.9476 14.8193 14.8485 14.9303C14.5603 15.2512 14.1431 15.4535 13.6785 15.4535C13.2139 15.4535 12.7966 15.2512 12.5085 14.9303C12.4094 14.8193 12.2678 14.7559 12.1192 14.7559C11.9699 14.7559 11.8283 14.8193 11.7292 14.9303C11.4418 15.2512 11.0239 15.4535 10.5592 15.4535C10.0946 15.4535 9.67738 15.2512 9.38995 14.9303C9.29018 14.8193 9.14855 14.7559 8.99995 14.7559C8.85135 14.7559 8.70972 14.8193 8.60996 14.9303C8.32252 15.2512 7.90531 15.4535 7.44067 15.4535C6.97602 15.4535 6.55812 15.2512 6.27068 14.9303C6.17161 14.8193 6.02999 14.7559 5.88069 14.7559C5.73209 14.7559 5.59046 14.8193 5.49139 14.9303C5.20325 15.2512 4.78605 15.4535 4.32141 15.4535C3.85676 15.4535 3.43956 15.2512 3.15142 14.9303C3.05235 14.8193 2.91073 14.7559 2.76212 14.7559C2.61282 14.7559 2.4712 14.8193 2.37213 14.9303C2.22004 15.1005 2.03097 15.2372 1.81748 15.3279C1.55237 15.4417 1.42888 15.7493 1.54191 16.0151C1.65562 16.2803 1.9633 16.4037 2.22911 16.2907C2.41887 16.2091 2.59817 16.1058 2.76212 15.9838C3.19747 16.3082 3.73746 16.5 4.32141 16.5C4.90535 16.5 5.44534 16.3082 5.88139 15.9838C6.31673 16.3082 6.85602 16.5 7.44067 16.5C8.02462 16.5 8.56461 16.3082 8.99995 15.9838C9.43529 16.3082 9.97529 16.5 10.5592 16.5C11.1439 16.5 11.6832 16.3082 12.1192 15.9838C12.5546 16.3082 13.0946 16.5 13.6785 16.5C14.2624 16.5 14.8024 16.3082 15.2385 15.9838C15.4017 16.1058 15.5803 16.2091 15.7708 16.2907C16.0366 16.4037 16.3443 16.2803 16.458 16.0151C16.571 15.7493 16.4475 15.4417 16.1824 15.3279Z" fill="#484848"/>
<path fill-rule="evenodd" clip-rule="evenodd" d="M15.0695 1.54389C13.6526 2.16202 12.6626 3.57549 12.6626 5.22059V14.2916C12.6626 14.5805 12.897 14.8149 13.1858 14.8149C13.4747 14.8149 13.7091 14.5805 13.7091 14.2916V5.22059C13.7091 4.00456 14.4409 2.96015 15.4881 2.50248C15.7526 2.38737 15.874 2.0783 15.7581 1.81389C15.643 1.54947 15.334 1.42808 15.0695 1.54389Z" fill="#484848"/>
<path fill-rule="evenodd" clip-rule="evenodd" d="M2.51213 2.50248C3.55932 2.96015 4.29117 4.00456 4.29117 5.22059V14.2916C4.29117 14.5805 4.52559 14.8149 4.81442 14.8149C5.10326 14.8149 5.33767 14.5805 5.33767 14.2916C5.33767 14.2916 5.33767 8.71938 5.33767 5.22059C5.33767 3.57549 4.34769 2.16202 2.93073 1.54389C2.66631 1.42808 2.35725 1.54947 2.24213 1.81389C2.12632 2.0783 2.24771 2.38737 2.51213 2.50248Z" fill="#484848"/>
<path fill-rule="evenodd" clip-rule="evenodd" d="M11.6163 13.8837V11.0931C11.6163 10.8042 11.3819 10.5698 11.0931 10.5698C10.8042 10.5698 10.5698 10.8042 10.5698 11.0931V13.8837C10.5698 14.1726 10.8042 14.407 11.0931 14.407C11.3819 14.407 11.6163 14.1726 11.6163 13.8837Z" fill="#484848"/>
<path fill-rule="evenodd" clip-rule="evenodd" d="M7.43029 6.90702V4.81402C7.43029 4.52519 7.19587 4.29077 6.90704 4.29077C6.6182 4.29077 6.38379 4.52519 6.38379 4.81402V6.90702C6.38379 7.19585 6.6182 7.43027 6.90704 7.43027C7.19587 7.43027 7.43029 7.19585 7.43029 6.90702Z" fill="#484848"/>
<path fill-rule="evenodd" clip-rule="evenodd" d="M7.43029 13.8836V11.7906C7.43029 11.5017 7.19587 11.2673 6.90704 11.2673C6.6182 11.2673 6.38379 11.5017 6.38379 11.7906V13.8836C6.38379 14.1724 6.6182 14.4068 6.90704 14.4068C7.19587 14.4068 7.43029 14.1724 7.43029 13.8836Z" fill="#484848"/>
<path fill-rule="evenodd" clip-rule="evenodd" d="M9.87218 11.7907V8.65118C9.87218 8.36235 9.63777 8.12793 9.34893 8.12793C9.0601 8.12793 8.82568 8.36235 8.82568 8.65118V11.7907C8.82568 12.0795 9.0601 12.3139 9.34893 12.3139C9.63777 12.3139 9.87218 12.0795 9.87218 11.7907Z" fill="#484848"/>
<path fill-rule="evenodd" clip-rule="evenodd" d="M11.9654 7.60473V5.1629C11.9654 4.87406 11.731 4.63965 11.4422 4.63965C11.1534 4.63965 10.9189 4.87406 10.9189 5.1629V7.60473C10.9189 7.89356 11.1534 8.12798 11.4422 8.12798C11.731 8.12798 11.9654 7.89356 11.9654 7.60473Z" fill="#484848"/>
<path fill-rule="evenodd" clip-rule="evenodd" d="M9.87218 5.51175V3.41876C9.87218 3.12992 9.63777 2.89551 9.34893 2.89551C9.0601 2.89551 8.82568 3.12992 8.82568 3.41876V5.51175C8.82568 5.80059 9.0601 6.035 9.34893 6.035C9.63777 6.035 9.87218 5.80059 9.87218 5.51175Z" fill="#484848"/>
<path fill-rule="evenodd" clip-rule="evenodd" d="M7.43029 10.0466V9.34893C7.43029 9.0601 7.19587 8.82568 6.90704 8.82568C6.6182 8.82568 6.38379 9.0601 6.38379 9.34893V10.0466C6.38379 10.3354 6.6182 10.5698 6.90704 10.5698C7.19587 10.5698 7.43029 10.3354 7.43029 10.0466Z" fill="#484848"/>
</svg>
