<svg width="9" height="15" viewBox="0 0 9 15" fill="none" xmlns="http://www.w3.org/2000/svg">
<path d="M6.33072 6.06248H2.41921C2.37112 6.25094 2.29732 6.43147 2.19781 6.60407C2.09828 6.77667 1.974 6.92739 1.82496 7.05624L2.34708 12.7908C2.35669 12.8485 2.38193 12.8978 2.42281 12.9387C2.46367 12.9796 2.51536 13 2.57787 13H6.17206C6.23457 13 6.28626 12.9796 6.32712 12.9387C6.368 12.8978 6.39324 12.8485 6.40285 12.7908L6.92496 7.05624C6.77593 6.91971 6.65165 6.76706 6.55212 6.59831C6.45261 6.42955 6.37881 6.25094 6.33072 6.06248ZM2.16246 3.24999L1.95621 4.07499C2.06295 4.20384 2.1567 4.34014 2.23746 4.48389C2.31824 4.62764 2.37882 4.77885 2.41921 4.93751H6.33072C6.37111 4.77885 6.43048 4.62645 6.50885 4.4803C6.58722 4.33413 6.68218 4.19903 6.79371 4.07499L6.58746 3.24999H2.16246ZM2.57534 14.125C2.22799 14.125 1.9241 14.0092 1.66368 13.7776C1.40327 13.5459 1.25608 13.255 1.22211 12.9048L0.669702 6.82116C0.657202 6.71218 0.675471 6.61138 0.724509 6.51876C0.773546 6.42613 0.844702 6.34857 0.937977 6.28607C1.06201 6.18991 1.16273 6.07645 1.24013 5.94568C1.31753 5.81491 1.35623 5.67057 1.35623 5.51267C1.35623 5.37056 1.32883 5.2358 1.27403 5.1084C1.21922 4.98099 1.13701 4.87161 1.0274 4.78028C0.926434 4.71778 0.851915 4.63051 0.80384 4.51849C0.755765 4.40648 0.748071 4.29374 0.780759 4.18028L1.16009 2.63704C1.19278 2.48128 1.272 2.35699 1.39775 2.26419C1.5235 2.17141 1.66639 2.12501 1.82643 2.12501H3.81248V1.20193H2.68748V0.0769501H6.06245V1.20193H4.93745V2.12501H6.9235C7.08256 2.12501 7.22174 2.17053 7.34103 2.26155C7.46033 2.35258 7.53701 2.47774 7.57109 2.63704L7.96195 4.16586C7.99464 4.27931 7.98695 4.39204 7.93887 4.50407C7.8908 4.61608 7.81628 4.70334 7.71531 4.76584C7.6057 4.8495 7.52157 4.95311 7.46292 5.07668C7.40427 5.20023 7.37495 5.33268 7.37495 5.47403C7.37495 5.64038 7.41172 5.79086 7.48527 5.92549C7.55883 6.0601 7.65908 6.17549 7.786 6.27165C7.87926 6.33415 7.95234 6.41171 8.00523 6.50434C8.05811 6.59696 8.07831 6.69776 8.06581 6.80674L7.52781 12.886C7.49393 13.2368 7.34706 13.531 7.08721 13.7686C6.82735 14.0062 6.5223 14.125 6.17206 14.125H2.57534Z" fill="#484848"/>
</svg>
