<svg width="18" height="18" viewBox="0 0 18 18" fill="none" xmlns="http://www.w3.org/2000/svg">
<path d="M15.0634 15.3207C14.7756 15.4615 14.527 15.583 13.9999 15.583C13.7529 15.583 13.5674 15.5561 13.41 15.5133L13.4568 15.0396C13.5543 14.0534 12.9972 13.1326 12.1045 12.8012L10.8239 12.3166C10.8239 12.3166 13.0775 11.4388 13.2025 11.3588C13.5719 11.1225 13.8161 10.7299 13.8726 10.2818C13.9598 9.58913 13.566 8.91734 12.9356 8.68272L10.9456 7.90844C10.9456 7.90844 13.3084 6.99201 13.4456 6.90419C13.8149 6.66789 14.0591 6.27532 14.1156 5.82714C14.203 5.1331 13.8074 4.45999 13.1769 4.22742L5.90054 1.5V3.91501H1.5V15.8887C2.02708 15.8887 2.27563 16.0103 2.56342 16.151C2.89793 16.3146 3.27703 16.5 3.99993 16.5C4.72283 16.5 5.10193 16.3146 5.43645 16.151C5.72423 16.0103 5.97278 15.8887 6.49986 15.8887C7.02697 15.8887 7.27553 16.0103 7.56334 16.151C7.89782 16.3146 8.27692 16.5 8.99979 16.5C9.72267 16.5 10.1018 16.3146 10.4363 16.151C10.7241 16.0103 10.9727 15.8887 11.4998 15.8887C12.0269 15.8887 12.2755 16.0103 12.5633 16.151C12.8978 16.3146 13.277 16.5 13.9999 16.5C14.7228 16.5 15.1019 16.3146 15.4364 16.151C15.7242 16.0103 15.9729 15.8887 16.5 15.8887V14.9717C15.7771 14.9717 15.3979 15.1572 15.0634 15.3207ZM12.5826 14.9455L12.5627 15.1466L6.77877 12.9832C6.49204 12.8781 6.34131 12.5503 6.44221 12.2512C6.54316 11.9519 6.85778 11.7949 7.14454 11.9006L11.8073 13.6641C12.3196 13.8543 12.6383 14.3812 12.5826 14.9455ZM8.19785 11.3227L9.81161 10.6505L11.196 11.1891L9.55632 11.8368L8.19785 11.3227ZM12.6388 9.54576C12.8824 9.63562 13.0349 9.8949 13.0012 10.1622C12.9794 10.3349 12.8854 10.4861 12.7431 10.5771C12.6017 10.6676 12.4311 10.6868 12.2746 10.6301L6.87937 8.53096L6.87234 8.5283C6.62868 8.43841 6.47625 8.1791 6.50994 7.91177C6.53168 7.73914 6.62575 7.58791 6.76805 7.49688C6.90943 7.40644 7.08 7.38712 7.23647 7.44391L12.6317 9.54307L12.6388 9.54576ZM8.30432 6.88075L9.98528 6.2104L11.416 6.74043L9.69773 7.42288L8.30432 6.88075ZM6.77944 2.80379L12.7768 5.04962C13.0909 5.16733 13.2335 5.54676 13.08 5.85587C12.9532 6.11109 12.6653 6.2295 12.4057 6.13328L6.77944 4.04971V2.80379ZM3.29625 7.6704H2.39127V6.66545H3.29625V7.6704ZM3.29625 8.58736V9.59231H2.39127V8.58736H3.29625ZM3.29625 10.5092V11.5142H2.39127V10.5092H3.29625ZM3.29625 12.4311V13.4361H2.39127V12.4311H3.29625ZM3.29625 4.83194V5.74846H2.39127V4.83194H3.29625ZM2.3913 15.0932V14.353H3.29628V15.4781C3.16813 15.4337 3.05555 15.379 2.93648 15.3207C2.77605 15.2423 2.60525 15.1589 2.3913 15.0932ZM8.99979 15.583C8.47271 15.583 8.22416 15.4615 7.93635 15.3207C7.60187 15.1571 7.22276 14.9717 6.49986 14.9717C5.77699 14.9717 5.39789 15.1571 5.06341 15.3207C4.80955 15.4449 4.58599 15.5539 4.17519 15.578V4.83194H6.26432L8.70911 5.73761C8.70911 5.73761 6.42469 6.64091 6.30855 6.71524C5.93921 6.95154 5.69502 7.34412 5.63853 7.79226C5.55126 8.48484 5.94516 9.15663 6.57542 9.39134L8.58604 10.1736C8.58604 10.1736 6.34099 11.0887 6.21413 11.1698C5.84479 11.4061 5.6006 11.7987 5.54411 12.2469C5.45669 12.9409 5.85234 13.614 6.48311 13.8467L10.221 15.2448C10.1667 15.2701 10.1144 15.2956 10.0633 15.3207C9.77546 15.4615 9.52687 15.583 8.99979 15.583Z" fill="#484848"/>
</svg>
