<svg width="60" height="60" viewBox="0 0 60 60" fill="none" xmlns="http://www.w3.org/2000/svg">
<rect width="60" height="60" rx="30" fill="#4CAF50" fill-opacity="0.1"/>
<path d="M18.917 24.9473L41.0836 24.9473V20.9889C41.0836 20.8671 41.0329 20.7554 40.9314 20.6539C40.8299 20.5524 40.7182 20.5016 40.5964 20.5016L19.4042 20.5016C19.2824 20.5016 19.1707 20.5524 19.0692 20.6539C18.9677 20.7554 18.917 20.8671 18.917 20.9889V24.9473ZM19.4042 45.0433C18.6044 45.0433 17.9274 44.7662 17.3732 44.212C16.8191 43.6579 16.542 42.9809 16.542 42.1811L16.542 20.9889C16.542 20.1891 16.8191 19.5121 17.3732 18.9579C17.9274 18.4038 18.6044 18.1267 19.4042 18.1267H21.5965V14.7773L24.0323 14.7773V18.1267L36.0291 18.1267V14.7773H38.4041V18.1267H40.5964C41.3962 18.1267 42.0732 18.4038 42.6273 18.9579C43.1815 19.5121 43.4586 20.1891 43.4586 20.9889V29.6393C43.079 29.4729 42.6913 29.3384 42.2955 29.2359C41.8996 29.1334 41.4957 29.0527 41.0836 28.9938V27.3222L18.917 27.3222V42.1811C18.917 42.3029 18.9677 42.4146 19.0692 42.5161C19.1707 42.6176 19.2824 42.6683 19.4042 42.6683H29.6989C29.8329 43.1068 29.9948 43.5214 30.1845 43.9121C30.3743 44.3029 30.59 44.6799 30.8316 45.0433H19.4042ZM39.8048 46.6266C37.8277 46.6266 36.1459 45.9334 34.7595 44.547C33.3731 43.1605 32.6798 41.4788 32.6798 39.5016C32.6798 37.5245 33.3731 35.8428 34.7595 34.4563C36.1459 33.0699 37.8277 32.3767 39.8048 32.3767C41.7819 32.3767 43.4637 33.0699 44.8501 34.4563C46.2365 35.8428 46.9297 37.5245 46.9297 39.5016C46.9297 41.4788 46.2365 43.1605 44.8501 44.547C43.4637 45.9334 41.7819 46.6266 39.8048 46.6266ZM42.4416 43.125L43.4282 42.1385L40.5051 39.2154V34.843H39.1045V39.7879L42.4416 43.125Z" fill="#4CAF50"/>
</svg>
