<svg width="24" height="24" viewBox="0 0 24 24" fill="none" xmlns="http://www.w3.org/2000/svg">
<rect x="0.5" y="0.5" width="23" height="23" rx="11.5" fill="#4CAF50" fill-opacity="0.2"/>
<rect x="0.5" y="0.5" width="23" height="23" rx="11.5" stroke="#4CAF50"/>
<path d="M8.62627 10.92L7.02628 10.9137C7.02815 10.4396 7.20953 9.52774 7.92007 9.67277C8.63062 9.8178 8.68693 10.5647 8.62627 10.92Z" fill="#4CAF50"/>
<path d="M12.5301 12.7132C11.9612 12.7109 10.0342 14.4811 9.14183 15.3665C9.14159 15.4258 9.31848 15.6516 10.0279 16.0811C10.7373 16.5106 12.1055 15.2004 12.7009 14.4916L14.4716 16.2764L15.3654 15.0355L15.1918 13.9681C14.5416 13.5507 13.099 12.7154 12.5301 12.7132Z" fill="#4CAF50"/>
<path d="M19.2982 6.91612C19.2891 6.88552 19.2741 6.857 19.2541 6.8322C19.234 6.80739 19.2092 6.78678 19.1812 6.77154C19.1532 6.7563 19.1224 6.74674 19.0907 6.74339C19.0589 6.74004 19.0269 6.74297 18.9963 6.75202L16.2282 7.57053C14.8604 7.97517 13.4409 8.17782 12.0145 8.17207C11.6926 8.1708 11.3673 8.15807 11.045 8.13545L11.0305 8.09135C11.0146 8.04291 10.9838 8.00072 10.9426 7.97074C10.9013 7.94076 10.8517 7.92452 10.8007 7.92432L9.82884 7.92049C9.77308 7.92029 9.71895 7.93931 9.67556 7.97434C9.04342 7.86956 8.4188 7.72358 7.8057 7.53734L5.04424 6.69703C4.98259 6.67826 4.91601 6.68475 4.85914 6.71507C4.80228 6.74539 4.75979 6.79706 4.74102 6.85871C4.72225 6.92036 4.72874 6.98694 4.75906 7.04381C4.78938 7.10067 4.84105 7.14316 4.9027 7.16193L7.66423 8.00224C8.24187 8.17781 8.82945 8.3188 9.42387 8.42447L9.36611 8.53889C9.3491 8.57256 9.34017 8.60973 9.34002 8.64745C9.33988 8.68517 9.34851 8.72241 9.36525 8.75622L9.58086 9.1917L9.57563 10.5185L8.84244 11.609L8.84359 11.3181C8.90802 11.3184 8.96992 11.293 9.01567 11.2476C9.06141 11.2022 9.08725 11.1405 9.0875 11.0761L9.08942 10.5902C9.09069 10.268 8.96392 9.95849 8.737 9.72978C8.51008 9.50106 8.2016 9.37185 7.87941 9.37058C7.55723 9.36931 7.24773 9.49608 7.01901 9.723C6.7903 9.94992 6.66109 10.2584 6.65982 10.5806L6.6579 11.0665C6.65765 11.1309 6.683 11.1928 6.72839 11.2386C6.77377 11.2843 6.83547 11.3102 6.8999 11.3104L6.89799 11.7964C6.89757 11.954 6.93546 12.1095 7.0084 12.2492C7.08134 12.389 7.18715 12.509 7.31673 12.5989C7.23978 12.6807 7.16961 12.7686 7.1069 12.8618C7.03855 12.9634 6.99222 13.0782 6.97091 13.1988C6.94959 13.3194 6.95375 13.4432 6.98313 13.5621C7.0125 13.681 7.06644 13.7924 7.14147 13.8892C7.2165 13.986 7.31096 14.0661 7.41877 14.1242C7.42681 14.1359 7.43585 14.1469 7.4458 14.157L9.2694 15.995C9.40391 16.1313 9.56412 16.2396 9.74076 16.3136C9.9174 16.3876 10.107 16.4258 10.2985 16.4261L10.3106 16.4261C10.6637 16.4275 11.0053 16.3007 11.272 16.0692L12.706 14.8244L14.2399 16.3705L15.2079 17.3461C15.2304 17.3688 15.2571 17.3868 15.2866 17.3991C15.316 17.4114 15.3476 17.4179 15.3795 17.418C15.4114 17.4181 15.443 17.4119 15.4725 17.3999C15.502 17.3878 15.5289 17.37 15.5516 17.3475L17.0151 15.8955C17.0377 15.873 17.0557 15.8463 17.068 15.8169C17.0804 15.7874 17.0868 15.7559 17.0869 15.724C17.087 15.6921 17.0809 15.6604 17.0688 15.6309C17.0567 15.6014 17.0389 15.5745 17.0164 15.5519L16.6988 15.2317L17.0809 14.1001C17.0954 14.0574 17.0976 14.0115 17.0874 13.9675C17.0773 13.9236 17.055 13.8833 17.0232 13.8513L16.5392 13.3634C16.5033 13.3272 16.4569 13.3032 16.4066 13.2949C16.3563 13.2865 16.3047 13.2942 16.259 13.3168L15.3853 13.7492L13.4333 12.9198C13.2344 12.7404 12.9895 12.6199 12.7261 12.5716L12.729 11.8193C12.7292 11.7684 12.7134 11.7186 12.6837 11.6771C12.6541 11.6356 12.6121 11.6045 12.5638 11.5882L12.0391 11.411C12.0391 11.411 12.2488 10.3756 12.2489 10.3597L12.2556 8.65673C13.6477 8.64011 15.0309 8.43143 16.366 8.03659L19.1341 7.21806C19.1647 7.20901 19.1932 7.19402 19.218 7.17394C19.2428 7.15387 19.2634 7.12911 19.2787 7.10107C19.2939 7.07303 19.3035 7.04227 19.3068 7.01054C19.3102 6.9788 19.3072 6.94672 19.2982 6.91612ZM11.7697 8.65466L11.763 10.3337L11.6996 10.6444L11.189 9.14067L11.2567 9.00667C11.2711 8.97819 11.2797 8.94715 11.2821 8.91533C11.2845 8.88351 11.2806 8.85153 11.2706 8.82122L11.2087 8.63292C11.3955 8.64358 11.5825 8.65083 11.7697 8.65466ZM8.16607 14.1931C8.4375 14.1321 8.68613 13.9955 8.88321 13.7991L9.54515 13.1424L10.2083 13.978L9.07161 15.1058L8.16607 14.1931ZM7.51012 13.1329C7.61712 12.9735 7.75239 12.8351 7.90925 12.7245C7.91353 12.7216 7.91773 12.7186 7.92183 12.7154C8.02081 12.6471 8.12727 12.5903 8.23914 12.5461L8.78106 12.3318L9.22311 12.7774L8.54096 13.4542C8.44812 13.5468 8.33782 13.6201 8.21646 13.6698C8.09511 13.7195 7.96509 13.7446 7.83395 13.7438C7.76298 13.7435 7.69341 13.724 7.63267 13.6872C7.57193 13.6505 7.52229 13.598 7.48905 13.5353C7.45581 13.4726 7.44022 13.4021 7.44393 13.3312C7.44765 13.2603 7.47051 13.1918 7.51012 13.1329ZM9.87133 12.7717L10.9854 11.2248C11.015 11.1837 11.031 11.1344 11.0312 11.0838L11.0347 10.1974L11.4597 11.4492L11.1635 11.5959C11.123 11.6159 11.089 11.6468 11.0651 11.6851C11.0412 11.7233 11.0285 11.7675 11.0283 11.8126L11.0267 12.2133L10.221 13.2124L9.87133 12.7717ZM10.02 10.7287C10.0467 10.6888 10.0611 10.642 10.0613 10.594L10.067 9.13625C10.0672 9.09852 10.0585 9.06128 10.0418 9.02748L9.85464 8.64948L9.97707 8.407L10.6237 8.40955L10.6339 8.44081C10.6342 8.44178 10.6345 8.44273 10.6349 8.44367L10.7776 8.87744L10.5781 9.27256C10.5611 9.30623 10.5521 9.3434 10.552 9.38112L10.5456 11.004L9.53719 12.404L9.15346 12.0172L10.02 10.7287ZM7.14574 10.5825C7.1465 10.3892 7.22403 10.2041 7.36126 10.068C7.49849 9.9318 7.68418 9.85574 7.87749 9.8565C8.07081 9.85726 8.2559 9.93479 8.39205 10.072C8.5282 10.2092 8.60426 10.3949 8.6035 10.5883L8.60254 10.8312L7.14478 10.8255L7.14574 10.5825ZM8.35767 11.3162L8.35575 11.8021C8.35548 11.8679 8.34186 11.9329 8.31573 11.9933L8.06046 12.0942C7.9436 12.1404 7.83119 12.1972 7.72462 12.2638C7.62562 12.2326 7.53917 12.1707 7.47787 12.0869C7.41658 12.0032 7.38365 11.902 7.38391 11.7983L7.38583 11.3123L8.35767 11.3162ZM12.5592 14.3084L10.9535 15.7022C10.7758 15.8565 10.548 15.9411 10.3126 15.9402L10.3005 15.9402C10.1728 15.94 10.0464 15.9145 9.92867 15.8652C9.8109 15.8159 9.70409 15.7437 9.61442 15.6528L9.41386 15.4507L10.6971 14.1775L11.8123 13.2558C11.9875 13.1111 12.2079 13.0323 12.4352 13.033L12.464 13.0331C12.5917 13.0333 12.7181 13.0588 12.8358 13.1081C12.9536 13.1574 13.0604 13.2296 13.1501 13.3205L15.0446 15.23L14.4139 15.8557L12.891 14.3208C12.8476 14.277 12.7891 14.2514 12.7275 14.2491C12.6659 14.2468 12.6058 14.268 12.5592 14.3084ZM15.3819 16.8314L14.7561 16.2007L15.5186 15.4442L16.0513 15.269L16.5005 15.7216L15.3819 16.8314ZM16.3176 13.8299L16.5725 14.0868L16.316 14.8459L16.2904 14.8201C16.2586 14.7881 16.2185 14.7655 16.1747 14.755C16.1308 14.7444 16.0848 14.7463 16.042 14.7604L15.6325 14.8952L15.6353 14.1676L16.3176 13.8299ZM15.1475 14.6438L14.3454 13.8354L15.1494 14.177L15.1475 14.6438ZM12.2402 12.5599C11.9691 12.5958 11.7135 12.7072 11.5025 12.8813L10.5701 13.6521L10.5309 13.6024L11.4587 12.452C11.4932 12.4091 11.5121 12.3556 11.5123 12.3005L11.5136 11.9647L11.7758 11.835L12.2424 11.9925L12.2402 12.5599Z" fill="#484848"/>
</svg>
