<svg width="20" height="20" viewBox="0 0 20 20" fill="none" xmlns="http://www.w3.org/2000/svg">
<rect width="20" height="20" rx="10" fill="#005600"/>
<path d="M5.51348 14.375C5.21882 14.375 4.9694 14.2729 4.76523 14.0687C4.56107 13.8646 4.45898 13.6151 4.45898 13.3205V6.67949C4.45898 6.38483 4.56107 6.13542 4.76523 5.93125C4.9694 5.72708 5.21882 5.625 5.51348 5.625H14.4878C14.7825 5.625 15.0319 5.72708 15.236 5.93125C15.4402 6.13542 15.5423 6.38483 15.5423 6.67949V13.3205C15.5423 13.6151 15.4402 13.8646 15.236 14.0687C15.0319 14.2729 14.7825 14.375 14.4878 14.375H5.51348ZM10.0006 10.3253L5.33397 7.34131V13.3205C5.33397 13.3728 5.3508 13.4158 5.38446 13.4495C5.41812 13.4832 5.46112 13.5 5.51348 13.5H14.4878C14.5402 13.5 14.5832 13.4832 14.6168 13.4495C14.6505 13.4158 14.6673 13.3728 14.6673 13.3205V7.34131L10.0006 10.3253ZM10.0006 9.41665L14.5776 6.49999H5.42372L10.0006 9.41665ZM5.33397 7.34131V6.49999V13.3205C5.33397 13.3728 5.3508 13.4158 5.38446 13.4495C5.41812 13.4832 5.46112 13.5 5.51348 13.5H5.33397V7.34131Z" fill="white"/>
</svg>
