<svg width="18" height="18" viewBox="0 0 18 18" fill="none" xmlns="http://www.w3.org/2000/svg">
<path d="M4.0125 16.1238V8.9627H5.13748V14.9988H10.575V11.4594L12.4861 9.5411C12.863 9.16418 13.155 8.73749 13.3622 8.26104C13.5695 7.7846 13.6731 7.28051 13.6731 6.74878C13.6731 6.22474 13.5687 5.7257 13.3601 5.25166C13.1514 4.77761 12.8625 4.35213 12.4933 3.9752L11.8875 3.35068L9.4269 5.81126H6.61442L5.62065 6.80503L4.81875 6.02188L6.15433 4.68629H8.96681L11.8875 1.76562L13.2952 3.1661C13.7759 3.64686 14.1454 4.19325 14.4036 4.80526C14.6617 5.41729 14.7932 6.06513 14.798 6.74878C14.7932 7.43243 14.6617 8.08026 14.4036 8.69229C14.1454 9.3043 13.7759 9.85069 13.2952 10.3315L11.7 11.9194V16.1238H4.0125ZM7.51153 12.7185L3.74856 8.9627C3.62548 8.83963 3.53246 8.69636 3.46948 8.53291C3.40649 8.36945 3.375 8.19974 3.375 8.02378C3.375 7.84781 3.40649 7.68123 3.46948 7.52401C3.53246 7.36681 3.62548 7.22668 3.74856 7.1036L5.19375 5.64688L7.38893 7.8161C7.7245 8.15168 7.98195 8.53556 8.16128 8.96776C8.3406 9.39998 8.43026 9.85406 8.43026 10.33C8.43026 10.7723 8.35334 11.1976 8.19951 11.6057C8.04566 12.0139 7.81633 12.3848 7.51153 12.7185Z" fill="#484848"/>
</svg>
