<svg width="16" height="17" viewBox="0 0 16 17" fill="none" xmlns="http://www.w3.org/2000/svg">
<path d="M7.05318 11.3372L11.5352 6.85514L10.8327 6.15259L7.05318 9.93207L5.15318 8.03207L4.45063 8.73462L7.05318 11.3372ZM8.00045 14.8346C7.12449 14.8346 6.30114 14.6684 5.53038 14.3359C4.75962 14.0035 4.08916 13.5523 3.51902 12.9824C2.94886 12.4125 2.49749 11.7424 2.1649 10.972C1.83231 10.2015 1.66602 9.37836 1.66602 8.5024C1.66602 7.62645 1.83224 6.80309 2.16468 6.03234C2.49713 5.26157 2.94829 4.59111 3.51818 4.02097C4.08808 3.45081 4.75824 2.99944 5.52867 2.66685C6.29908 2.33426 7.12226 2.16797 7.99822 2.16797C8.87417 2.16797 9.69753 2.33419 10.4683 2.66664C11.2391 2.99908 11.9095 3.45025 12.4796 4.02014C13.0498 4.59004 13.5012 5.2602 13.8338 6.03062C14.1664 6.80103 14.3327 7.62421 14.3327 8.50017C14.3327 9.37613 14.1664 10.1995 13.834 10.9702C13.5015 11.741 13.0504 12.4115 12.4805 12.9816C11.9106 13.5518 11.2404 14.0031 10.47 14.3357C9.69959 14.6683 8.8764 14.8346 8.00045 14.8346ZM7.99933 13.8346C9.48822 13.8346 10.7493 13.318 11.7827 12.2846C12.816 11.2513 13.3327 9.99018 13.3327 8.50129C13.3327 7.0124 12.816 5.75129 11.7827 4.71795C10.7493 3.68462 9.48822 3.16795 7.99933 3.16795C6.51044 3.16795 5.24933 3.68462 4.216 4.71795C3.18267 5.75129 2.666 7.0124 2.666 8.50129C2.666 9.99018 3.18267 11.2513 4.216 12.2846C5.24933 13.318 6.51044 13.8346 7.99933 13.8346Z" fill="#4CAF50"/>
</svg>
