<svg width="12" height="12" viewBox="0 0 12 12" fill="none" xmlns="http://www.w3.org/2000/svg">
<path fill-rule="evenodd" clip-rule="evenodd" d="M11.2537 7.86877C11.7898 6.37599 11.6583 4.72285 10.8926 3.33335C10.7701 3.11112 10.6314 2.89564 10.4766 2.68863L10.4753 2.67115L10.3862 2.54627C10.3079 2.44694 10.2268 2.35097 10.1433 2.25841C10.122 2.23484 10.1006 2.2115 10.079 2.18837C8.12145 0.0919411 4.85444 -0.191721 2.55978 1.61525C2.10497 1.97524 1.70948 2.4009 1.38499 2.87856C1.37681 2.8906 1.36867 2.90268 1.36058 2.91478C1.28047 3.03468 1.2048 3.1578 1.13376 3.28392C1.11852 3.30794 1.10358 3.33564 1.08873 3.36463C1.0807 3.38032 1.0727 3.39639 1.06469 3.41246C0.941317 3.64606 0.83586 3.8857 0.748175 4.12954C0.21005 5.62599 0.341337 7.28067 1.10853 8.66879C1.23264 8.89335 1.37339 9.11093 1.53064 9.31973C1.54131 9.3413 1.55425 9.36268 1.56946 9.38388C1.5841 9.40429 1.60085 9.42453 1.6197 9.44461C1.70638 9.55505 1.79642 9.66134 1.88954 9.76344C1.90187 9.77697 1.91426 9.79042 1.92671 9.8038C3.87695 11.9006 7.14387 12.1922 9.43877 10.3938C9.89535 10.0325 10.2966 9.60538 10.6242 9.12144C10.6355 9.10467 10.6468 9.08783 10.658 9.07093C10.7397 8.94725 10.8167 8.81993 10.8886 8.68914C10.8989 8.67047 10.9091 8.65173 10.9191 8.63292C10.922 8.62576 10.9264 8.61984 10.9305 8.61424C10.9369 8.60563 10.9427 8.59775 10.9419 8.58716L10.9412 8.57843C11.0629 8.34726 11.1671 8.11011 11.2537 7.86877ZM4.34432 2.18506C3.78659 2.42753 3.27349 2.79683 2.85023 3.28939C3.4297 3.45085 4.01988 3.54971 4.61149 3.58672C5.41257 3.63683 6.21627 3.57351 6.9996 3.3986C7.5781 3.26942 8.14549 3.07937 8.69249 2.82917C8.19723 2.40896 7.63258 2.12457 7.04371 1.97242C6.14683 1.7407 5.1938 1.81577 4.34432 2.18506ZM9.81787 4.35604C9.75872 4.22145 9.69201 4.08952 9.61778 3.96091C7.29055 5.13783 4.58807 5.35071 2.10506 4.55271C2.05191 4.69136 2.00671 4.83211 1.96939 4.97429C1.88887 5.28112 1.8451 5.59465 1.83755 5.90827C1.83082 6.18796 1.85291 6.46773 1.90343 6.74291C1.95856 7.04314 2.04754 7.33791 2.16991 7.62113C2.23152 7.76374 2.3016 7.90342 2.38008 8.0394C4.708 6.87122 7.41048 6.65834 9.8928 7.4476C9.94899 7.30101 9.9963 7.15207 10.0348 7.00158C10.1112 6.70269 10.1529 6.39764 10.1603 6.09248C10.1671 5.81279 10.145 5.53302 10.0945 5.25784C10.0379 4.94927 9.9455 4.64647 9.81787 4.35604ZM7.66228 9.81456C8.22002 9.57209 8.73311 9.2028 9.15637 8.71023C8.5769 8.54877 7.98672 8.44991 7.39511 8.4129C6.59404 8.3628 5.79033 8.42611 5.00701 8.60102C4.4285 8.7302 3.86111 8.92025 3.31412 9.17045C3.80937 9.59066 4.37403 9.87506 4.96289 10.0272C5.85977 10.2589 6.8128 10.1838 7.66228 9.81456Z" fill="#484848"/>
</svg>
