<svg width="18" height="18" viewBox="0 0 18 18" fill="none" xmlns="http://www.w3.org/2000/svg">
<path fill-rule="evenodd" clip-rule="evenodd" d="M2.25 2.4375C2.14645 2.4375 2.0625 2.52145 2.0625 2.625V11.625C2.0625 11.7286 2.14645 11.8125 2.25 11.8125H15.75C15.8536 11.8125 15.9375 11.7286 15.9375 11.625V2.625C15.9375 2.52145 15.8536 2.4375 15.75 2.4375H2.25ZM0.9375 2.625C0.9375 1.90013 1.52513 1.3125 2.25 1.3125H15.75C16.4749 1.3125 17.0625 1.90013 17.0625 2.625V11.625C17.0625 12.3499 16.4749 12.9375 15.75 12.9375H2.25C1.52513 12.9375 0.9375 12.3499 0.9375 11.625V2.625Z" fill="#484848"/>
<path fill-rule="evenodd" clip-rule="evenodd" d="M5.8125 5.625C5.8125 5.31434 6.06434 5.0625 6.375 5.0625H11.625C11.9357 5.0625 12.1875 5.31434 12.1875 5.625V8.25C12.1875 8.56065 11.9357 8.8125 11.625 8.8125C11.3143 8.8125 11.0625 8.56065 11.0625 8.25V6.1875H6.9375V8.25C6.9375 8.56065 6.68566 8.8125 6.375 8.8125C6.06434 8.8125 5.8125 8.56065 5.8125 8.25V5.625Z" fill="#484848"/>
<path fill-rule="evenodd" clip-rule="evenodd" d="M6.1875 14.625C6.1875 14.3143 6.43934 14.0625 6.75 14.0625H11.25C11.5607 14.0625 11.8125 14.3143 11.8125 14.625C11.8125 14.9357 11.5607 15.1875 11.25 15.1875H6.75C6.43934 15.1875 6.1875 14.9357 6.1875 14.625Z" fill="#484848"/>
<path fill-rule="evenodd" clip-rule="evenodd" d="M5.8125 12.375C5.8125 12.0643 6.06434 11.8125 6.375 11.8125H11.625C11.9357 11.8125 12.1875 12.0643 12.1875 12.375C12.1875 12.6857 11.9357 12.9375 11.625 12.9375H6.375C6.06434 12.9375 5.8125 12.6857 5.8125 12.375Z" fill="#484848"/>
<path fill-rule="evenodd" clip-rule="evenodd" d="M12.0925 9.57024C12.3989 9.62132 12.6059 9.91112 12.5549 10.2176L11.8241 14.6021L12.1707 15.9887C12.2461 16.2901 12.0628 16.5955 11.7614 16.6708C11.4601 16.7462 11.1547 16.5629 11.0793 16.2615L10.7043 14.7615C10.6856 14.6867 10.6825 14.6087 10.6952 14.5326L11.4452 10.0326C11.4962 9.72617 11.786 9.51917 12.0925 9.57024Z" fill="#484848"/>
<path fill-rule="evenodd" clip-rule="evenodd" d="M5.90762 9.57024C6.21404 9.51917 6.50386 9.72617 6.55493 10.0326L7.30493 14.5326C7.31762 14.6087 7.31451 14.6867 7.29579 14.7615L6.92079 16.2615C6.84545 16.5629 6.54005 16.7462 6.23866 16.6708C5.93728 16.5955 5.75404 16.2901 5.82938 15.9887L6.176 14.6021L5.44524 10.2176C5.39417 9.91112 5.60118 9.62132 5.90762 9.57024Z" fill="#484848"/>
<path fill-rule="evenodd" clip-rule="evenodd" d="M9 9.5625C9.31065 9.5625 9.5625 9.81435 9.5625 10.125V16.125C9.5625 16.4357 9.31065 16.6875 9 16.6875C8.68935 16.6875 8.4375 16.4357 8.4375 16.125V10.125C8.4375 9.81435 8.68935 9.5625 9 9.5625Z" fill="#484848"/>
<path fill-rule="evenodd" clip-rule="evenodd" d="M4.6875 10.125C4.6875 9.81435 4.93934 9.5625 5.25 9.5625H12.75C13.0607 9.5625 13.3125 9.81435 13.3125 10.125C13.3125 10.4357 13.0607 10.6875 12.75 10.6875H5.25C4.93934 10.6875 4.6875 10.4357 4.6875 10.125Z" fill="#484848"/>
</svg>
