<svg width="18" height="18" viewBox="0 0 18 18" fill="none" xmlns="http://www.w3.org/2000/svg">
<g clip-path="url(#clip0_2601_33700)">
<mask id="mask0_2601_33700" style="mask-type:luminance" maskUnits="userSpaceOnUse" x="0" y="0" width="18" height="18">
<path d="M0.75 0.750002H17.25V17.25H0.75V0.750002Z" fill="white"/>
</mask>
<g mask="url(#mask0_2601_33700)">
<path fill-rule="evenodd" clip-rule="evenodd" d="M0.70166 13.5601C0.70166 15.6247 2.37533 17.2983 4.43994 17.2983H8.146C8.30618 17.2983 8.43604 17.1685 8.43604 17.0083C8.43604 16.8481 8.30618 16.7183 8.146 16.7183H4.43994C2.6957 16.7183 1.28174 15.3043 1.28174 13.5601V5.18115C1.28174 4.28796 1.58167 3.46569 2.0865 2.80837C2.18406 2.68133 2.16017 2.49925 2.03313 2.40168C1.90609 2.30411 1.72401 2.32801 1.62644 2.45505C1.04651 3.21016 0.70166 4.15577 0.70166 5.18115V13.5601Z" fill="#484848"/>
<path fill-rule="evenodd" clip-rule="evenodd" d="M7.8291 17.0083C7.8291 17.1685 7.95896 17.2983 8.11914 17.2983H12.8191C15.2931 17.2983 17.2986 15.2928 17.2986 12.8188C17.2986 11.2128 16.4532 9.80445 15.1845 9.01412C15.0486 8.92942 14.8697 8.97098 14.785 9.10694C14.7003 9.2429 14.7419 9.42178 14.8778 9.50647C15.9837 10.1953 16.7185 11.4214 16.7185 12.8188C16.7185 14.9724 14.9727 16.7183 12.8191 16.7183H8.11914C7.95896 16.7183 7.8291 16.8481 7.8291 17.0083Z" fill="#484848"/>
<path fill-rule="evenodd" clip-rule="evenodd" d="M15.3213 9.41784C15.403 9.28003 15.3575 9.10212 15.2197 9.02046C14.5319 8.61292 13.7805 8.33942 12.82 8.33942H10.9485C10.2379 8.33942 9.66176 7.76333 9.66176 7.05262V5.18122C9.66176 2.70726 7.65622 0.701727 5.18227 0.701727C4.13924 0.701727 2.68095 1.04886 1.64273 2.43749C1.54681 2.56578 1.57305 2.74753 1.70134 2.84345C1.82963 2.93937 2.01139 2.91313 2.10731 2.78484C3.00268 1.58728 4.25819 1.28181 5.18227 1.28181C7.33586 1.28181 9.08168 3.02763 9.08168 5.18122V7.05262C9.08168 8.08369 9.91749 8.9195 10.9485 8.9195H12.82C13.6561 8.9195 14.3065 9.1536 14.9239 9.51949C15.0617 9.60115 15.2396 9.55564 15.3213 9.41784Z" fill="#484848"/>
<path fill-rule="evenodd" clip-rule="evenodd" d="M2.47737 16.6795C2.61173 16.7667 2.79135 16.7285 2.87857 16.5942L3.77285 15.2165C3.86007 15.0821 3.82185 14.9025 3.68749 14.8153C3.55313 14.7281 3.37351 14.7663 3.2863 14.9006L2.39201 16.2783C2.30479 16.4127 2.34301 16.5923 2.47737 16.6795Z" fill="#484848"/>
<path fill-rule="evenodd" clip-rule="evenodd" d="M0.996424 14.8688C1.0652 15.0135 1.23823 15.075 1.3829 15.0063L2.85726 14.3053C3.00193 14.2366 3.06345 14.0635 2.99468 13.9189C2.9259 13.7742 2.75287 13.7127 2.6082 13.7814L1.13384 14.4824C0.98917 14.5511 0.927648 14.7242 0.996424 14.8688Z" fill="#484848"/>
<path fill-rule="evenodd" clip-rule="evenodd" d="M0.70166 12.7141C0.70166 12.8743 0.831515 13.0042 0.991699 13.0042H2.39355C2.55374 13.0042 2.68359 12.8743 2.68359 12.7141C2.68359 12.5539 2.55374 12.4241 2.39355 12.4241H0.991699C0.831515 12.4241 0.70166 12.5539 0.70166 12.7141Z" fill="#484848"/>
<path fill-rule="evenodd" clip-rule="evenodd" d="M0.70166 10.8047C0.70166 10.9649 0.831515 11.0947 0.991699 11.0947H2.39355C2.55374 11.0947 2.68359 10.9649 2.68359 10.8047C2.68359 10.6445 2.55374 10.5146 2.39355 10.5146H0.991699C0.831515 10.5146 0.70166 10.6445 0.70166 10.8047Z" fill="#484848"/>
<path fill-rule="evenodd" clip-rule="evenodd" d="M0.70166 8.89526C0.70166 9.05545 0.831515 9.1853 0.991699 9.1853H2.39355C2.55374 9.1853 2.68359 9.05545 2.68359 8.89526C2.68359 8.73508 2.55374 8.60522 2.39355 8.60522H0.991699C0.831515 8.60522 0.70166 8.73508 0.70166 8.89526Z" fill="#484848"/>
<path fill-rule="evenodd" clip-rule="evenodd" d="M0.702134 6.97436C0.701063 6.81418 0.830047 6.68346 0.990228 6.68239L2.60961 6.67157C2.76979 6.6705 2.90051 6.79948 2.90158 6.95966C2.90265 7.11984 2.77367 7.25056 2.61349 7.25163L0.994104 7.26245C0.833924 7.26352 0.703204 7.13454 0.702134 6.97436Z" fill="#484848"/>
<path fill-rule="evenodd" clip-rule="evenodd" d="M2.92502 5.08919C2.93208 4.92917 2.80807 4.79371 2.64804 4.78665L1.00449 4.71414C0.844459 4.70708 0.709007 4.83109 0.701947 4.99112C0.694887 5.15115 0.818893 5.2866 0.978921 5.29366L2.62248 5.36617C2.7825 5.37323 2.91796 5.24922 2.92502 5.08919Z" fill="#484848"/>
<path fill-rule="evenodd" clip-rule="evenodd" d="M3.09793 3.92627C3.18357 3.7909 3.14326 3.61174 3.00789 3.5261L1.82356 2.77683C1.68819 2.69119 1.50903 2.7315 1.42339 2.86687C1.33775 3.00224 1.37806 3.1814 1.51343 3.26704L2.69775 4.01631C2.83312 4.10195 3.01229 4.06164 3.09793 3.92627Z" fill="#484848"/>
<path fill-rule="evenodd" clip-rule="evenodd" d="M4.17032 3.09687C4.30514 3.01038 4.34432 2.83097 4.25783 2.69614L3.43605 1.41513C3.34956 1.28031 3.17015 1.24113 3.03532 1.32762C2.9005 1.41411 2.86131 1.59352 2.94781 1.72835L3.76958 3.00936C3.85608 3.14418 4.03549 3.18336 4.17032 3.09687Z" fill="#484848"/>
<path fill-rule="evenodd" clip-rule="evenodd" d="M5.22217 2.94946C5.38235 2.94946 5.51221 2.81961 5.51221 2.65942V0.991699C5.51221 0.831515 5.38235 0.70166 5.22217 0.70166C5.06198 0.70166 4.93213 0.831515 4.93213 0.991699V2.65942C4.93213 2.81961 5.06198 2.94946 5.22217 2.94946Z" fill="#484848"/>
<path fill-rule="evenodd" clip-rule="evenodd" d="M6.5615 2.96474C6.70346 3.03895 6.87869 2.98403 6.9529 2.84207L7.50881 1.77859C7.58301 1.63663 7.52809 1.46139 7.38613 1.38719C7.24417 1.31298 7.06893 1.36791 6.99473 1.50987L6.43882 2.57334C6.36461 2.7153 6.41954 2.89054 6.5615 2.96474Z" fill="#484848"/>
<path fill-rule="evenodd" clip-rule="evenodd" d="M7.71673 3.71116C7.79737 3.84956 7.97495 3.89638 8.11335 3.81574L8.94873 3.32899C9.08713 3.24835 9.13396 3.07077 9.05331 2.93237C8.97267 2.79397 8.79509 2.74714 8.65669 2.82779L7.82131 3.31454C7.68291 3.39518 7.63609 3.57275 7.71673 3.71116Z" fill="#484848"/>
<path fill-rule="evenodd" clip-rule="evenodd" d="M7.84424 5.14893C7.84424 5.30911 7.97409 5.43896 8.13428 5.43896H9.37903C9.53921 5.43896 9.66907 5.30911 9.66907 5.14893C9.66907 4.98874 9.53921 4.85889 9.37903 4.85889H8.13428C7.97409 4.85889 7.84424 4.98874 7.84424 5.14893Z" fill="#484848"/>
<path fill-rule="evenodd" clip-rule="evenodd" d="M8.21924 7.05835C8.21924 7.21853 8.34909 7.34839 8.50928 7.34839H9.37939C9.53958 7.34839 9.66943 7.21853 9.66943 7.05835C9.66943 6.89817 9.53958 6.76831 9.37939 6.76831H8.50928C8.34909 6.76831 8.21924 6.89817 8.21924 7.05835Z" fill="#484848"/>
<path fill-rule="evenodd" clip-rule="evenodd" d="M9.32991 9.23275C9.45846 9.32831 9.64014 9.30158 9.73571 9.17302L10.1601 8.60216C10.2557 8.47361 10.2289 8.29193 10.1004 8.19636C9.97183 8.10079 9.79014 8.12753 9.69458 8.25608L9.27018 8.82694C9.17462 8.95549 9.20135 9.13718 9.32991 9.23275Z" fill="#484848"/>
<path fill-rule="evenodd" clip-rule="evenodd" d="M11.5864 10.0555C11.4262 10.056 11.2928 9.92652 11.2884 9.7664L11.2572 8.63041C11.2528 8.47029 11.3791 8.34012 11.5393 8.33966C11.6995 8.33921 11.8329 8.46865 11.8373 8.62877L11.8685 9.76476C11.8729 9.92488 11.7466 10.0551 11.5864 10.0555Z" fill="#484848"/>
<path fill-rule="evenodd" clip-rule="evenodd" d="M13.2356 10.1459C13.3923 10.1787 13.5461 10.0782 13.5789 9.92142L13.7964 8.88211C13.8292 8.72533 13.7287 8.57162 13.5719 8.53881C13.4151 8.50599 13.2614 8.60649 13.2286 8.76328L13.0111 9.80258C12.9783 9.95937 13.0788 10.1131 13.2356 10.1459Z" fill="#484848"/>
<path fill-rule="evenodd" clip-rule="evenodd" d="M14.7405 10.4885C14.864 10.5905 15.0468 10.5731 15.1489 10.4496L15.6611 9.82983C15.7631 9.70635 15.7457 9.52354 15.6223 9.4215C15.4988 9.31946 15.316 9.33683 15.2139 9.46031L14.7017 10.0801C14.5997 10.2036 14.6171 10.3864 14.7405 10.4885Z" fill="#484848"/>
<path fill-rule="evenodd" clip-rule="evenodd" d="M15.1896 11.7235C15.2299 11.8786 15.3882 11.9716 15.5433 11.9313L16.7518 11.6171C16.9068 11.5768 16.9998 11.4184 16.9595 11.2634C16.9192 11.1083 16.7608 11.0153 16.6058 11.0556L15.3973 11.3699C15.2423 11.4102 15.1493 11.5685 15.1896 11.7235Z" fill="#484848"/>
<path fill-rule="evenodd" clip-rule="evenodd" d="M17.1854 13.4614C17.1977 13.3017 17.0782 13.1623 16.9185 13.15L15.3475 13.0292C15.1877 13.0169 15.0483 13.1364 15.036 13.2961C15.0237 13.4558 15.1433 13.5952 15.303 13.6075L16.874 13.7284C17.0337 13.7407 17.1732 13.6212 17.1854 13.4614Z" fill="#484848"/>
<path fill-rule="evenodd" clip-rule="evenodd" d="M16.2823 15.5468C16.3785 15.4187 16.3525 15.2369 16.2243 15.1408L15.0642 14.2706C14.936 14.1745 14.7542 14.2005 14.6581 14.3286C14.562 14.4568 14.588 14.6386 14.7161 14.7347L15.8763 15.6048C16.0044 15.7009 16.1862 15.675 16.2823 15.5468Z" fill="#484848"/>
<path fill-rule="evenodd" clip-rule="evenodd" d="M14.476 16.8944C14.6222 16.8291 14.6879 16.6576 14.6226 16.5113L14.0183 15.1578C13.953 15.0115 13.7815 14.9459 13.6353 15.0112C13.489 15.0765 13.4233 15.248 13.4886 15.3943L14.0929 16.7478C14.1582 16.8941 14.3297 16.9597 14.476 16.8944Z" fill="#484848"/>
<path fill-rule="evenodd" clip-rule="evenodd" d="M12.3281 17.3064C12.4883 17.3064 12.6182 17.1765 12.6182 17.0164V15.5903C12.6182 15.4301 12.4883 15.3003 12.3281 15.3003C12.1679 15.3003 12.0381 15.4301 12.0381 15.5903V17.0164C12.0381 17.1765 12.1679 17.3064 12.3281 17.3064Z" fill="#484848"/>
<path fill-rule="evenodd" clip-rule="evenodd" d="M10.418 17.3064C10.5782 17.3064 10.708 17.1765 10.708 17.0164V15.5903C10.708 15.4301 10.5782 15.3003 10.418 15.3003C10.2578 15.3003 10.1279 15.4301 10.1279 15.5903V17.0164C10.1279 17.1765 10.2578 17.3064 10.418 17.3064Z" fill="#484848"/>
<path fill-rule="evenodd" clip-rule="evenodd" d="M8.50928 17.3064C8.66946 17.3064 8.79932 17.1765 8.79932 17.0164V15.5903C8.79932 15.4301 8.66946 15.3003 8.50928 15.3003C8.34909 15.3003 8.21924 15.4301 8.21924 15.5903V17.0164C8.21924 17.1765 8.34909 17.3064 8.50928 17.3064Z" fill="#484848"/>
<path fill-rule="evenodd" clip-rule="evenodd" d="M6.59912 17.3064C6.75931 17.3064 6.88916 17.1765 6.88916 17.0164V15.5903C6.88916 15.4301 6.75931 15.3003 6.59912 15.3003C6.43894 15.3003 6.30908 15.4301 6.30908 15.5903V17.0164C6.30908 17.1765 6.43894 17.3064 6.59912 17.3064Z" fill="#484848"/>
<path fill-rule="evenodd" clip-rule="evenodd" d="M4.69043 17.3064C4.85061 17.3064 4.98047 17.1765 4.98047 17.0164V15.5903C4.98047 15.4301 4.85061 15.3003 4.69043 15.3003C4.53025 15.3003 4.40039 15.4301 4.40039 15.5903V17.0164C4.40039 17.1765 4.53025 17.3064 4.69043 17.3064Z" fill="#484848"/>
<path fill-rule="evenodd" clip-rule="evenodd" d="M2.34521 13.1284C2.34521 14.5262 3.48189 15.6628 4.87963 15.6628H12.458C14.2254 15.6628 15.6628 14.2254 15.6628 12.458C15.6628 10.6545 14.1868 9.52368 12.458 9.52368H10.7654C10.2249 9.52368 9.6261 9.24175 9.15586 8.79387C8.68516 8.34554 8.3877 7.77381 8.3877 7.24263V5.55002C8.3877 4.69229 8.13688 3.89438 7.65016 3.30521C7.15886 2.71048 6.43984 2.34521 5.55002 2.34521C3.78261 2.34521 2.34521 3.78261 2.34521 5.55002V13.1284ZM4.87963 15.0828C3.80226 15.0828 2.92529 14.2058 2.92529 13.1284V5.55002C2.92529 4.10298 4.10298 2.92529 5.55002 2.92529C6.26744 2.92529 6.82224 3.2138 7.20295 3.67465C7.58823 4.14105 7.80762 4.80053 7.80762 5.55002V7.24263C7.80762 7.98002 8.20976 8.69383 8.75579 9.21391C9.30229 9.73443 10.0374 10.1038 10.7654 10.1038H12.458C13.9437 10.1038 15.0828 11.047 15.0828 12.458C15.0828 13.9051 13.9051 15.0828 12.458 15.0828H4.87963Z" fill="#484848"/>
</g>
</g>
<defs>
<clipPath id="clip0_2601_33700">
<rect width="18" height="18" fill="white"/>
</clipPath>
</defs>
</svg>
