<svg width="18" height="18" viewBox="0 0 18 18" fill="none" xmlns="http://www.w3.org/2000/svg">
<mask id="mask0_2601_5404" style="mask-type:luminance" maskUnits="userSpaceOnUse" x="1" y="1" width="16" height="16">
<path d="M1.5 1.5H16.5V16.5H1.5V1.5Z" fill="white"/>
</mask>
<g mask="url(#mask0_2601_5404)">
<path fill-rule="evenodd" clip-rule="evenodd" d="M11.855 3.82231C11.855 5.10402 12.8952 6.14455 14.1773 6.14455C15.459 6.14455 16.4995 5.10406 16.4995 3.82231C16.4995 2.54053 15.459 1.50003 14.1773 1.50003C12.8952 1.50003 11.855 2.54057 11.855 3.82231ZM14.1773 5.26565C13.3807 5.26565 12.7339 4.61868 12.7339 3.82231C12.7339 3.0259 13.3807 2.37894 14.1773 2.37894C14.9736 2.37894 15.6206 3.02594 15.6206 3.82231C15.6206 4.61864 14.9736 5.26565 14.1773 5.26565Z" fill="#484848"/>
<path fill-rule="evenodd" clip-rule="evenodd" d="M16.2916 16.4344C16.4211 16.3543 16.5 16.2129 16.5 16.0605V13.707C16.5 13.5905 16.4537 13.4787 16.3713 13.3963L15.0879 12.1129V9.94143C15.0879 9.69872 14.8911 9.50197 14.6484 9.50197H12.2949C12.0522 9.50197 11.8555 9.69872 11.8555 9.94143V10.9141H10.4121C10.1694 10.9141 9.97266 11.1108 9.97266 11.3535V13.2363C9.97266 13.4028 10.0667 13.5549 10.2156 13.6294L15.864 16.4536C16.0002 16.5217 16.162 16.5144 16.2916 16.4344ZM10.8516 12.9647V11.793H12.2949C12.5376 11.793 12.7344 11.5962 12.7344 11.3535V10.3809H14.209V12.2949C14.209 12.4115 14.2553 12.5233 14.3377 12.6057L15.6211 13.8891V15.3495L10.8516 12.9647Z" fill="#484848"/>
<path fill-rule="evenodd" clip-rule="evenodd" d="M10.4121 11.7929C10.6548 11.7929 10.8516 11.5961 10.8516 11.3534V10.412C10.8516 10.1693 10.6548 9.97255 10.4121 9.97255C10.1694 9.97255 9.97266 10.1693 9.97266 10.412V11.3534C9.97266 11.5961 10.1694 11.7929 10.4121 11.7929Z" fill="#484848"/>
<path fill-rule="evenodd" clip-rule="evenodd" d="M1.5 16.0605C1.5 16.3033 1.69675 16.5 1.93945 16.5H16.0605C16.2644 16.5 16.4414 16.3599 16.4882 16.1615C16.5351 15.9632 16.4394 15.7586 16.2571 15.6675L8.96877 12.0233V10.8828C8.96877 10.7663 8.92247 10.6545 8.84006 10.5721L7.08595 8.81797V6.17578C7.08595 5.93308 6.8892 5.73633 6.64649 5.73633H4.94572L4.13301 4.92364C4.0506 4.84123 3.93882 4.79493 3.82227 4.79493H1.93945C1.69675 4.79493 1.5 4.99168 1.5 5.23439V16.0605ZM2.37891 15.6211V5.67384H3.64025L4.45297 6.48653C4.53538 6.56894 4.64715 6.61524 4.7637 6.61524H6.20704V9C6.20704 9.11655 6.25334 9.22833 6.33575 9.31074L8.08986 11.0649V12.2949C8.08986 12.4614 8.18391 12.6136 8.33279 12.688L14.199 15.6211H2.37891Z" fill="#484848"/>
<path fill-rule="evenodd" clip-rule="evenodd" d="M1.5 12.2949C1.5 12.5376 1.69675 12.7344 1.93945 12.7344H6.64649C6.8892 12.7344 7.08595 12.5376 7.08595 12.2949C7.08595 12.0522 6.8892 11.8554 6.64649 11.8554H1.93945C1.69675 11.8554 1.5 12.0522 1.5 12.2949Z" fill="#484848"/>
<path fill-rule="evenodd" clip-rule="evenodd" d="M8.52979 12.7346C8.77249 12.7346 8.96924 12.5379 8.96924 12.2952V7.58813C8.96924 7.34542 8.77249 7.14867 8.52979 7.14867C8.28708 7.14867 8.09033 7.34542 8.09033 7.58813V12.2952C8.09033 12.5379 8.28708 12.7346 8.52979 12.7346Z" fill="#484848"/>
<path fill-rule="evenodd" clip-rule="evenodd" d="M4.76465 10.381C5.00735 10.381 5.2041 10.1842 5.2041 9.94153V6.17588C5.2041 5.93318 5.00735 5.73643 4.76465 5.73643C4.52195 5.73643 4.3252 5.93318 4.3252 6.17588V9.94153C4.3252 10.1842 4.52195 10.381 4.76465 10.381Z" fill="#484848"/>
</g>
</svg>
