<svg width="18" height="18" viewBox="0 0 18 18" fill="none" xmlns="http://www.w3.org/2000/svg">
<path d="M9.25961 9.02878V3.30289C9.25961 3.11083 9.32476 2.94983 9.45506 2.81991C9.58536 2.68997 9.74681 2.625 9.93941 2.625H14.6981C14.8907 2.625 15.0516 2.68997 15.181 2.81991C15.3103 2.94983 15.375 3.11083 15.375 3.30289V6.50477C15.375 6.69683 15.31 6.85783 15.1801 6.98777C15.0501 7.11769 14.8891 7.18266 14.6971 7.18266H11.1057L9.25961 9.02878ZM10.3846 6.05768H14.25V3.74998H10.3846V6.05768ZM14.5802 15.375C13.1668 15.375 11.7468 15.0464 10.3204 14.3891C8.89397 13.7319 7.58341 12.8048 6.38871 11.6077C5.19399 10.4105 4.26803 9.09998 3.61082 7.67595C2.95361 6.25191 2.625 4.83317 2.625 3.41972C2.625 3.19266 2.7 3.00344 2.85 2.85206C3 2.70069 3.1875 2.625 3.4125 2.625H5.85862C6.04805 2.625 6.21512 2.68678 6.35983 2.81034C6.50454 2.93391 6.59661 3.08655 6.63602 3.26828L7.06583 5.47498C7.09564 5.67979 7.08939 5.85576 7.04708 6.00287C7.00478 6.14998 6.92881 6.27354 6.81919 6.37354L5.08699 8.0596C5.36584 8.57017 5.68435 9.0531 6.04253 9.50839C6.4007 9.96369 6.78844 10.3986 7.20574 10.813C7.61729 11.2245 8.05479 11.6067 8.51826 11.9596C8.98172 12.3125 9.4822 12.6409 10.0197 12.9447L11.7029 11.2471C11.8202 11.125 11.9623 11.0394 12.1291 10.9904C12.2959 10.9414 12.4692 10.9293 12.649 10.9543L14.7317 11.3784C14.9211 11.4284 15.0757 11.525 15.1954 11.6683C15.3151 11.8115 15.375 11.974 15.375 12.1558V14.5875C15.375 14.8125 15.2993 15 15.1479 15.15C14.9965 15.3 14.8073 15.375 14.5802 15.375ZM4.55479 6.99519L5.89326 5.71442C5.91729 5.69518 5.93292 5.66874 5.94013 5.63509C5.94734 5.60143 5.94614 5.57018 5.93653 5.54134L5.61056 3.86537C5.60095 3.82691 5.58413 3.79806 5.56009 3.77884C5.53605 3.7596 5.5048 3.74998 5.46634 3.74998H3.86248C3.83364 3.74998 3.80961 3.7596 3.79037 3.77884C3.77113 3.79806 3.76151 3.8221 3.76151 3.85095C3.79998 4.36345 3.88387 4.88413 4.01319 5.41298C4.14253 5.94183 4.32306 6.46923 4.55479 6.99519ZM11.0798 13.4769C11.5769 13.7086 12.0954 13.8858 12.6353 14.0084C13.1752 14.131 13.6798 14.2038 14.149 14.2269C14.1779 14.2269 14.2019 14.2173 14.2211 14.1981C14.2404 14.1788 14.25 14.1548 14.25 14.1259V12.5481C14.25 12.5096 14.2404 12.4783 14.2211 12.4543C14.2019 12.4303 14.1731 12.4134 14.1346 12.4038L12.5596 12.0836C12.5308 12.074 12.5055 12.0728 12.4839 12.08C12.4622 12.0872 12.4394 12.1029 12.4154 12.1269L11.0798 13.4769Z" fill="#484848"/>
</svg>
