<svg width="18" height="18" viewBox="0 0 18 18" fill="none" xmlns="http://www.w3.org/2000/svg">
<path d="M3.71539 7.73078C3.8327 7.3 3.83438 6.91202 3.72043 6.56683C3.60649 6.22163 3.39856 5.84519 3.09664 5.4375C2.7226 4.9423 2.47356 4.48605 2.34952 4.06875C2.22549 3.65144 2.1952 3.17019 2.25866 2.625H3.36776C3.29661 3.07116 3.30262 3.45146 3.3858 3.76588C3.46897 4.08029 3.66152 4.44135 3.96345 4.84905C4.37595 5.3904 4.64422 5.86973 4.76826 6.28703C4.89229 6.70434 4.91104 7.18559 4.82451 7.73078H3.71539ZM6.68655 7.73078C6.80385 7.3 6.80745 6.91202 6.69735 6.56683C6.58726 6.22163 6.38126 5.84519 6.07933 5.4375C5.70529 4.9423 5.45433 4.48605 5.32644 4.06875C5.19857 3.65144 5.16636 3.17019 5.22981 2.625H6.33892C6.26777 3.07116 6.27379 3.45146 6.35696 3.76588C6.44014 4.08029 6.63268 4.44135 6.93459 4.84905C7.34709 5.3904 7.61536 5.86973 7.7394 6.28703C7.86344 6.70434 7.88219 7.18559 7.79565 7.73078H6.68655ZM9.68655 7.73078C9.80385 7.3 9.80625 6.91202 9.69375 6.56683C9.58125 6.22163 9.37404 5.84519 9.07211 5.4375C8.69807 4.9423 8.44832 4.48605 8.32284 4.06875C8.19737 3.65144 8.16636 3.17019 8.22981 2.625H9.33892C9.26777 3.07116 9.27379 3.45146 9.35696 3.76588C9.44014 4.08029 9.63268 4.44135 9.93459 4.84905C10.3471 5.3904 10.6154 5.86973 10.7394 6.28703C10.8634 6.70434 10.8822 7.18559 10.7956 7.73078H9.68655ZM3.74998 14.625C3.22596 14.625 2.78245 14.4435 2.41946 14.0805C2.05649 13.7175 1.875 13.274 1.875 12.75V9.375H12.0115C12.05 8.97405 12.1935 8.61901 12.442 8.30987C12.6906 8.00073 13.0053 7.78223 13.386 7.65435L16.6961 6.54233L17.0495 7.60673L13.7394 8.71873C13.5557 8.77836 13.4074 8.88822 13.2944 9.04832C13.1814 9.20841 13.125 9.38653 13.125 9.58269V12.75C13.125 13.2692 12.9435 13.7115 12.5805 14.0769C12.2175 14.4423 11.774 14.625 11.25 14.625H3.74998ZM3.74998 13.5H11.25C11.4625 13.5 11.6406 13.4281 11.7844 13.2844C11.9281 13.1406 12 12.9625 12 12.75V10.5H2.99998V12.75C2.99998 12.9625 3.07186 13.1406 3.21561 13.2844C3.35936 13.4281 3.53748 13.5 3.74998 13.5Z" fill="#484848"/>
</svg>
