<svg width="16" height="16" viewBox="0 0 16 16" fill="none" xmlns="http://www.w3.org/2000/svg">
<path d="M3.53814 14.3334C3.20139 14.3334 2.91634 14.2167 2.68301 13.9834C2.44967 13.7501 2.33301 13.465 2.33301 13.1283L2.33301 4.20523C2.33301 3.86847 2.44967 3.58343 2.68301 3.35009C2.91634 3.11676 3.20139 3.00009 3.53814 3.00009L4.46122 3.00009V1.58984H5.48684V3.00009L10.5381 3.00009V1.58984L11.5381 1.58984V3.00009H12.4612C12.7979 3.00009 13.083 3.11676 13.3163 3.35009C13.5496 3.58343 13.6663 3.86847 13.6663 4.20523L13.6663 13.1283C13.6663 13.465 13.5496 13.7501 13.3163 13.9834C13.083 14.2167 12.7979 14.3334 12.4612 14.3334L3.53814 14.3334ZM3.53814 13.3334L12.4612 13.3334C12.5125 13.3334 12.5595 13.312 12.6022 13.2693C12.645 13.2266 12.6663 13.1795 12.6663 13.1283L12.6663 6.87189L3.33299 6.87189L3.33299 13.1283C3.33299 13.1795 3.35436 13.2266 3.39709 13.2693C3.43984 13.312 3.48685 13.3334 3.53814 13.3334ZM3.33299 5.87191L12.6663 5.87191V4.20523C12.6663 4.15394 12.645 4.10692 12.6022 4.06418C12.5595 4.02144 12.5125 4.00008 12.4612 4.00008L3.53814 4.00008C3.48685 4.00008 3.43984 4.02144 3.39709 4.06418C3.35436 4.10692 3.33299 4.15394 3.33299 4.20523L3.33299 5.87191ZM7.99966 9.38469C7.83641 9.38469 7.69731 9.32722 7.58236 9.21226C7.4674 9.0973 7.40992 8.9582 7.40992 8.79496C7.40992 8.63172 7.4674 8.49262 7.58236 8.37766C7.69731 8.2627 7.83641 8.20523 7.99966 8.20523C8.1629 8.20523 8.302 8.2627 8.41696 8.37766C8.53191 8.49262 8.58939 8.63172 8.58939 8.79496C8.58939 8.9582 8.53191 9.0973 8.41696 9.21226C8.302 9.32722 8.1629 9.38469 7.99966 9.38469ZM5.33299 9.38469C5.16975 9.38469 5.03065 9.32722 4.91569 9.21226C4.80074 9.0973 4.74326 8.9582 4.74326 8.79496C4.74326 8.63172 4.80074 8.49262 4.91569 8.37766C5.03065 8.2627 5.16975 8.20523 5.33299 8.20523C5.49624 8.20523 5.63534 8.2627 5.75029 8.37766C5.86525 8.49262 5.92272 8.63172 5.92272 8.79496C5.92272 8.9582 5.86525 9.0973 5.75029 9.21226C5.63534 9.32722 5.49624 9.38469 5.33299 9.38469ZM10.6663 9.38469C10.5031 9.38469 10.364 9.32722 10.249 9.21226C10.1341 9.0973 10.0766 8.9582 10.0766 8.79496C10.0766 8.63172 10.1341 8.49262 10.249 8.37766C10.364 8.2627 10.5031 8.20523 10.6663 8.20523C10.8296 8.20523 10.9687 8.2627 11.0836 8.37766C11.1986 8.49262 11.2561 8.63172 11.2561 8.79496C11.2561 8.9582 11.1986 9.0973 11.0836 9.21226C10.9687 9.32722 10.8296 9.38469 10.6663 9.38469ZM7.99966 12.0001C7.83641 12.0001 7.69731 11.9426 7.58236 11.8276C7.4674 11.7127 7.40992 11.5736 7.40992 11.4103C7.40992 11.2471 7.4674 11.108 7.58236 10.993C7.69731 10.8781 7.83641 10.8206 7.99966 10.8206C8.1629 10.8206 8.302 10.8781 8.41696 10.993C8.53191 11.108 8.58939 11.2471 8.58939 11.4103C8.58939 11.5736 8.53191 11.7127 8.41696 11.8276C8.302 11.9426 8.1629 12.0001 7.99966 12.0001ZM5.33299 12.0001C5.16975 12.0001 5.03065 11.9426 4.91569 11.8276C4.80074 11.7127 4.74326 11.5736 4.74326 11.4103C4.74326 11.2471 4.80074 11.108 4.91569 10.993C5.03065 10.8781 5.16975 10.8206 5.33299 10.8206C5.49624 10.8206 5.63534 10.8781 5.75029 10.993C5.86525 11.108 5.92272 11.2471 5.92272 11.4103C5.92272 11.5736 5.86525 11.7127 5.75029 11.8276C5.63534 11.9426 5.49624 12.0001 5.33299 12.0001ZM10.6663 12.0001C10.5031 12.0001 10.364 11.9426 10.249 11.8276C10.1341 11.7127 10.0766 11.5736 10.0766 11.4103C10.0766 11.2471 10.1341 11.108 10.249 10.993C10.364 10.8781 10.5031 10.8206 10.6663 10.8206C10.8296 10.8206 10.9687 10.8781 11.0836 10.993C11.1986 11.108 11.2561 11.2471 11.2561 11.4103C11.2561 11.5736 11.1986 11.7127 11.0836 11.8276C10.9687 11.9426 10.8296 12.0001 10.6663 12.0001Z" fill="#484848"/>
</svg>
