<svg width="40" height="40" viewBox="0 0 40 40" fill="none" xmlns="http://www.w3.org/2000/svg">
<rect width="40" height="40" rx="20" fill="#484848" fill-opacity="0.05"/>
<path d="M12.9231 25.4863V24.4863H27.0769V25.4863H12.9231ZM14.8718 23.8196C14.5351 23.8196 14.25 23.7029 14.0167 23.4696C13.7833 23.2363 13.6667 22.9512 13.6667 22.6145L13.6667 15.6914C13.6667 15.3547 13.7833 15.0697 14.0167 14.8363C14.25 14.603 14.5351 14.4863 14.8718 14.4863L25.1282 14.4863C25.4649 14.4863 25.75 14.603 25.9833 14.8363C26.2166 15.0697 26.3333 15.3547 26.3333 15.6914V22.6145C26.3333 22.9512 26.2166 23.2363 25.9833 23.4696C25.75 23.7029 25.4649 23.8196 25.1282 23.8196H14.8718ZM14.8718 22.8196H25.1282C25.1795 22.8196 25.2265 22.7983 25.2692 22.7555C25.312 22.7128 25.3333 22.6658 25.3333 22.6145V15.6914C25.3333 15.6402 25.312 15.5931 25.2692 15.5504C25.2265 15.5077 25.1795 15.4863 25.1282 15.4863L14.8718 15.4863C14.8205 15.4863 14.7735 15.5077 14.7308 15.5504C14.688 15.5931 14.6667 15.6402 14.6667 15.6914L14.6667 22.6145C14.6667 22.6658 14.688 22.7128 14.7308 22.7555C14.7735 22.7983 14.8205 22.8196 14.8718 22.8196Z" fill="#484848"/>
</svg>
