<svg width="20" height="20" viewBox="0 0 20 20" fill="none" xmlns="http://www.w3.org/2000/svg">
<path d="M6.34615 11.5576H13.6538V11.2C13.6538 10.5692 13.3144 10.0545 12.6355 9.65575C11.9567 9.25703 11.0782 9.05768 9.99998 9.05768C8.92178 9.05768 8.04326 9.25703 7.36443 9.65575C6.68558 10.0545 6.34615 10.5692 6.34615 11.2V11.5576ZM9.99998 7.74995C10.4859 7.74995 10.899 7.57976 11.2394 7.23938C11.5798 6.89901 11.75 6.48588 11.75 5.99998C11.75 5.51408 11.5798 5.10094 11.2394 4.76058C10.899 4.42019 10.4859 4.25 9.99998 4.25C9.51408 4.25 9.10094 4.42019 8.76058 4.76058C8.42019 5.10094 8.25 5.51408 8.25 5.99998C8.25 6.48588 8.42019 6.89901 8.76058 7.23938C9.10094 7.57976 9.51408 7.74995 9.99998 7.74995ZM0.5 19.0384V2.3077C0.5 1.80257 0.675 1.375 1.025 1.025C1.375 0.675 1.80257 0.5 2.3077 0.5H17.6923C18.1974 0.5 18.625 0.675 18.975 1.025C19.325 1.375 19.5 1.80257 19.5 2.3077V13.6923C19.5 14.1974 19.325 14.625 18.975 14.975C18.625 15.325 18.1974 15.5 17.6923 15.5H4.03845L0.5 19.0384ZM3.4 14H17.6923C17.7692 14 17.8397 13.9679 17.9038 13.9038C17.9679 13.8397 18 13.7692 18 13.6923V2.3077C18 2.23077 17.9679 2.16024 17.9038 2.09613C17.8397 2.03203 17.7692 1.99998 17.6923 1.99998H2.3077C2.23077 1.99998 2.16024 2.03203 2.09613 2.09613C2.03202 2.16024 1.99998 2.23077 1.99998 2.3077V15.3846L3.4 14Z" fill="#484848"/>
</svg>
