<svg width="18" height="18" viewBox="0 0 18 18" fill="none" xmlns="http://www.w3.org/2000/svg">
<mask id="mask0_2601_14932" style="mask-type:luminance" maskUnits="userSpaceOnUse" x="1" y="1" width="16" height="16">
<path d="M1.5 1.5H16.5V16.5H1.5V1.5Z" fill="white"/>
</mask>
<g mask="url(#mask0_2601_14932)">
<path fill-rule="evenodd" clip-rule="evenodd" d="M1.5 15.7969C1.5 16.1852 1.81479 16.5 2.20312 16.5H15.7969C16.1852 16.5 16.5 16.1852 16.5 15.7969V2.20313C16.5 1.81479 16.1852 1.5 15.7969 1.5H2.20312C1.81479 1.5 1.5 1.81479 1.5 2.20313V15.7969ZM2.37891 15.6211V2.37891H15.6211V15.6211H2.37891Z" fill="#484848"/>
<path fill-rule="evenodd" clip-rule="evenodd" d="M5.7724 5.00579C5.97016 5.14648 6.24454 5.10021 6.38522 4.90244L6.70098 4.45857L7.01673 4.90243C7.15741 5.1002 7.43178 5.14648 7.62955 5.0058C7.82732 4.86511 7.8736 4.59074 7.73291 4.39297L7.05909 3.44572C6.97665 3.32982 6.84322 3.26099 6.701 3.26099C6.55877 3.26099 6.42534 3.32982 6.3429 3.44571L5.66905 4.39296C5.52836 4.59073 5.57463 4.8651 5.7724 5.00579Z" fill="#484848"/>
<path fill-rule="evenodd" clip-rule="evenodd" d="M11.2991 5.08719C11.4413 5.08719 11.5748 5.01836 11.6572 4.90247L12.3311 3.95522C12.4717 3.75745 12.4255 3.48308 12.2277 3.34239C12.0299 3.2017 11.7556 3.24798 11.6149 3.44574L11.2991 3.88961L10.9834 3.44575C10.8427 3.24798 10.5683 3.2017 10.3705 3.34239C10.1728 3.48307 10.1265 3.75744 10.2672 3.95521L10.941 4.90247C11.0235 5.01836 11.1569 5.08719 11.2991 5.08719Z" fill="#484848"/>
<path fill-rule="evenodd" clip-rule="evenodd" d="M8.56055 16.0614C8.56055 16.3041 8.7573 16.5009 9 16.5009H13.5976C13.8403 16.5009 14.037 16.3041 14.037 16.0614V6.41213C14.037 6.16942 13.8403 5.97267 13.5976 5.97267H9C8.7573 5.97267 8.56055 6.16942 8.56055 6.41213V16.0614ZM9.43945 15.622V6.85158H13.1581V15.622H9.43945Z" fill="#484848"/>
<path fill-rule="evenodd" clip-rule="evenodd" d="M3.9624 16.0614C3.9624 16.3041 4.15915 16.5009 4.40186 16.5009H8.99941C9.24212 16.5009 9.43887 16.3041 9.43887 16.0614V6.41213C9.43887 6.16942 9.24212 5.97267 8.99941 5.97267H4.40186C4.15915 5.97267 3.9624 6.16942 3.9624 6.41213V16.0614ZM4.84131 15.622V6.85158H8.55996V15.622H4.84131Z" fill="#484848"/>
</g>
</svg>
