<svg width="18" height="18" viewBox="0 0 18 18" fill="none" xmlns="http://www.w3.org/2000/svg">
<path d="M16.0567 4.90335C15.8992 4.74947 15.7136 4.63545 15.5117 4.56603C16.0718 3.99195 16.0682 3.06741 15.501 2.49786C14.9345 1.92914 14.0157 1.92464 13.4438 2.48454C13.3744 2.28488 13.2617 2.1012 13.1103 1.945C12.8374 1.66357 12.4718 1.50566 12.081 1.50036C12.0742 1.5003 12.0674 1.50024 12.0605 1.50024C11.6771 1.50024 11.3153 1.64774 11.04 1.91688C10.7597 2.19081 10.6025 2.55787 10.5973 2.94865L10.576 4.17807C9.47106 4.04182 8.31676 4.3985 7.47038 5.24832C6.67942 6.04253 5.15976 8.09648 3.93548 10.026C2.81306 11.795 1.47947 14.1623 1.50024 15.3941C1.50616 15.7444 1.61335 16.0198 1.8189 16.2127C2.02307 16.4042 2.29723 16.5002 2.65263 16.5002C3.06867 16.5002 3.59599 16.3687 4.25232 16.1046C5.11828 15.7563 6.20103 15.1842 7.47052 14.4039C9.72881 13.016 12.0297 11.2966 12.7618 10.5615C13.6067 9.71306 13.9622 8.55639 13.8284 7.44857L15.0556 7.42713C15.4466 7.42183 15.8122 7.26398 16.085 6.98255C16.3578 6.70117 16.5052 6.3299 16.4999 5.93715C16.4944 5.54438 16.3371 5.17722 16.0567 4.90335ZM12.0716 9.8685C11.3971 10.5457 9.22215 12.1695 7.05946 13.5073C5.87194 14.2419 4.81614 14.8089 4.0062 15.147C2.89588 15.6105 2.54892 15.5206 2.4917 15.4984C2.47128 15.4364 2.40109 15.0867 2.87268 13.9799C3.16547 13.2927 3.61834 12.4328 4.19247 11.4716L4.91812 12.2002C5.01343 12.2959 5.13832 12.3438 5.26321 12.3438C5.38807 12.3438 5.51303 12.2959 5.6083 12.2002C5.7989 12.0089 5.7989 11.6986 5.6083 11.5072L4.71946 10.6147C5.08181 10.0415 5.45625 9.47867 5.82252 8.95019L6.98871 10.1212C7.08401 10.2169 7.2089 10.2647 7.33379 10.2647C7.45869 10.2647 7.58361 10.2169 7.67888 10.1212C7.86949 9.92981 7.86949 9.61952 7.67888 9.42816L6.39641 8.14043C6.8412 7.527 7.25545 6.98905 7.59808 6.57494L9.05926 8.04209C9.15456 8.13778 9.27945 8.18564 9.40435 8.18564C9.52921 8.18564 9.65416 8.13778 9.74943 8.04209C9.94004 7.85073 9.94004 7.54044 9.74943 7.34908L8.25638 5.8499C9.34042 4.85978 11.0247 4.89014 12.0716 5.94133C13.1499 7.02405 13.1499 8.78578 12.0716 9.8685ZM15.3856 6.29898C15.2947 6.39282 15.1728 6.44542 15.0405 6.44721L13.575 6.47281C13.3927 6.02714 13.1217 5.60974 12.7618 5.24835C12.4034 4.88844 11.9896 4.61715 11.5478 4.43409L11.5732 2.96374C11.575 2.83286 11.6274 2.71049 11.7208 2.61918C11.8142 2.52793 11.9383 2.47974 12.0678 2.48039C12.1981 2.48215 12.3199 2.53481 12.4109 2.62868C12.5015 2.72202 12.5505 2.8449 12.5491 2.9748L12.5345 3.58894C12.5297 3.78924 12.6469 3.97221 12.8303 4.05108C13.0137 4.12992 13.2264 4.08876 13.3674 3.94709L14.1205 3.1909C14.3109 2.99984 14.6205 2.99984 14.8108 3.1909C15.0011 3.38199 15.0011 3.69287 14.8108 3.88393L14.0521 4.64569C13.911 4.7873 13.87 5.0009 13.9485 5.18505C14.027 5.3692 14.209 5.48696 14.4087 5.4821L15.0316 5.46733C15.1607 5.46625 15.2831 5.51508 15.376 5.6058C15.4696 5.69717 15.522 5.81969 15.5238 5.95066C15.5256 6.0815 15.4766 6.2052 15.3856 6.29898Z" fill="#484848"/>
</svg>
