<svg width="18" height="18" viewBox="0 0 18 18" fill="none" xmlns="http://www.w3.org/2000/svg">
<path d="M14.2287 4.63099H12.3091V3.31676C12.3091 2.72854 11.8513 2.25 11.2887 2.25H6.71133C6.14868 2.25 5.69092 2.72854 5.69092 3.31676V4.63099H3.77131C2.93246 4.63099 2.25 5.34444 2.25 6.22136V14.1596C2.25 15.0366 2.93246 15.75 3.77131 15.75H14.2287C15.0675 15.75 15.75 15.0366 15.75 14.1596V6.22136C15.75 5.34444 15.0675 4.63099 14.2287 4.63099ZM6.53467 3.31676C6.53467 3.21665 6.61556 3.13205 6.71133 3.13205H11.2887C11.3844 3.13205 11.4653 3.21662 11.4653 3.31676V4.63099H6.53467V3.31676ZM14.9062 14.1596C14.9062 14.5502 14.6023 14.8679 14.2287 14.8679H3.77131C3.39768 14.8679 3.09375 14.5502 3.09375 14.1596V6.22136C3.09375 5.83081 3.39768 5.51305 3.77131 5.51305H14.2287C14.6023 5.51305 14.9062 5.83078 14.9062 6.22136V14.1596ZM11.6367 8.70548H10.4205V7.43408C10.4205 7.19052 10.2316 6.99305 9.99866 6.99305H8.00137C7.76839 6.99305 7.57949 7.19052 7.57949 7.43408V8.70548H6.36328C6.1303 8.70548 5.94141 8.90295 5.94141 9.1465V11.2345C5.94141 11.478 6.1303 11.6755 6.36328 11.6755H7.57947V12.9469C7.57947 13.1904 7.76836 13.3879 8.00134 13.3879H9.99863C10.2316 13.3879 10.4205 13.1904 10.4205 12.9469V11.6755H11.6367C11.8697 11.6755 12.0586 11.478 12.0586 11.2345V9.1465C12.0586 8.90295 11.8697 8.70548 11.6367 8.70548ZM11.2148 10.7934H9.99866C9.76568 10.7934 9.57678 10.9909 9.57678 11.2345V12.5059H8.42324V11.2345C8.42324 10.9909 8.23435 10.7934 8.00137 10.7934H6.78516V9.58753H8.00134C8.23432 9.58753 8.42322 9.39006 8.42322 9.1465V7.87511H9.57676V9.1465C9.57676 9.39006 9.76565 9.58753 9.99863 9.58753H11.2148V10.7934Z" fill="#484848"/>
</svg>
