<svg width="18" height="18" viewBox="0 0 18 18" fill="none" xmlns="http://www.w3.org/2000/svg">
<mask id="mask0_2601_8532" style="mask-type:luminance" maskUnits="userSpaceOnUse" x="1" y="1" width="16" height="16">
<path d="M1.5 1.5H16.5V16.5H1.5V1.5Z" fill="white"/>
</mask>
<g mask="url(#mask0_2601_8532)">
<path fill-rule="evenodd" clip-rule="evenodd" d="M2.35488 16.1139C2.86974 16.6287 3.70446 16.6287 4.21931 16.1139L4.21933 16.1139L6.08375 14.2494L5.46227 13.6279L3.59786 15.4924C3.59785 15.4924 3.59785 15.4924 3.59784 15.4924C3.42622 15.664 3.14798 15.664 2.97636 15.4924C2.97636 15.4924 2.97636 15.4924 2.97636 15.4924C2.97636 15.4924 2.97634 15.4924 2.97633 15.4924C2.80475 15.3208 2.80475 15.0425 2.97635 14.8709C2.97635 14.8709 2.97634 14.8709 2.97635 14.8709L15.7257 2.12152L15.1042 1.50004L2.35487 14.2494C1.84005 14.7643 1.84004 15.599 2.35485 16.1139L2.35488 16.1139Z" fill="#484848"/>
<path fill-rule="evenodd" clip-rule="evenodd" d="M5.46216 14.2495C6.32026 15.1076 7.71146 15.1076 8.56956 14.2495L8.56957 14.2495C9.42767 13.3914 9.42767 12.0002 8.56957 11.1421L8.56956 11.1421C7.71146 10.284 6.32026 10.284 5.46216 11.1421L5.46215 11.1421C4.60409 12.0002 4.60409 13.3914 5.46215 14.2495L5.46216 14.2495ZM6.08363 13.628C6.08364 13.628 6.08364 13.628 6.08364 13.628C6.59851 14.1429 7.43323 14.1429 7.94809 13.628C8.46295 13.1132 8.46295 12.2785 7.94809 11.7636C7.94809 11.7636 7.94809 11.7636 7.94808 11.7636" fill="#484848"/>
<path fill-rule="evenodd" clip-rule="evenodd" d="M7.63675 12.6959L7.01528 12.0744L6.3938 12.6959L7.01527 13.3174L7.63675 12.6959Z" fill="#484848"/>
<path fill-rule="evenodd" clip-rule="evenodd" d="M8.56958 8.65611L7.63735 7.72388L7.01587 8.34536L7.9481 9.27759L8.56958 8.65611Z" fill="#484848"/>
<path fill-rule="evenodd" clip-rule="evenodd" d="M11.0547 6.17027L10.1225 5.23804L9.50098 5.85952L10.4332 6.79175L11.0547 6.17027Z" fill="#484848"/>
<path fill-rule="evenodd" clip-rule="evenodd" d="M13.5413 3.68443L12.609 2.7522L11.9875 3.37368L12.9198 4.30591L13.5413 3.68443Z" fill="#484848"/>
<path fill-rule="evenodd" clip-rule="evenodd" d="M15.1523 10.7871V2.51291H14.2734V10.7871H15.1523Z" fill="#484848"/>
<path fill-rule="evenodd" clip-rule="evenodd" d="M13.3945 11.666C13.3945 12.3941 13.9848 12.9844 14.7129 12.9844C15.441 12.9844 16.0312 12.3941 16.0312 11.666C16.0312 10.9379 15.441 10.3477 14.7129 10.3477C13.9848 10.3477 13.3945 10.9379 13.3945 11.666ZM14.7129 12.1055C14.4702 12.1055 14.2734 11.9087 14.2734 11.666C14.2734 11.4233 14.4702 11.2266 14.7129 11.2266C14.9556 11.2266 15.1523 11.4233 15.1523 11.666C15.1523 11.9087 14.9556 12.1055 14.7129 12.1055Z" fill="#484848"/>
<path fill-rule="evenodd" clip-rule="evenodd" d="M11.6367 14.7422C11.6367 15.713 12.4237 16.5 13.3945 16.5C14.3653 16.5 15.1523 15.713 15.1523 14.7422V12.5449H14.2734V14.7422C14.2734 15.2276 13.8799 15.6211 13.3945 15.6211C12.9091 15.6211 12.5156 15.2276 12.5156 14.7422V14.245L13.1508 14.6684L13.6383 13.9371L11.6367 12.6027V14.7422Z" fill="#484848"/>
</g>
</svg>
