<svg width="16" height="13" viewBox="0 0 16 13" fill="none" xmlns="http://www.w3.org/2000/svg">
<path fill-rule="evenodd" clip-rule="evenodd" d="M15.5 2.10712H1.92859V1.35712H15.5V2.10712Z" fill="#484848"/>
<path fill-rule="evenodd" clip-rule="evenodd" d="M15.5 4.25H1.92859V3.5H15.5V4.25Z" fill="#484848"/>
<path fill-rule="evenodd" clip-rule="evenodd" d="M15.5 6.39285H1.92859V5.64285H15.5V6.39285Z" fill="#484848"/>
<path fill-rule="evenodd" clip-rule="evenodd" d="M15.5 8.53571H1.92859V7.78571H15.5V8.53571Z" fill="#484848"/>
<path fill-rule="evenodd" clip-rule="evenodd" d="M15.5 10.6786H1.92859V9.92856H15.5V10.6786Z" fill="#484848"/>
<path fill-rule="evenodd" clip-rule="evenodd" d="M5.16077 1.73213L5.16077 10.3036L4.41077 10.3036L4.41077 1.73213L5.16077 1.73213Z" fill="#484848"/>
<path fill-rule="evenodd" clip-rule="evenodd" d="M8.01782 1.73213L8.01782 10.3036L7.26782 10.3036L7.26782 1.73213L8.01782 1.73213Z" fill="#484848"/>
<path fill-rule="evenodd" clip-rule="evenodd" d="M10.875 1.73213L10.875 10.3036L10.125 10.3036L10.125 1.73213L10.875 1.73213Z" fill="#484848"/>
<path fill-rule="evenodd" clip-rule="evenodd" d="M13.7322 1.73213L13.7322 10.3036L12.9822 10.3036L12.9822 1.73213L13.7322 1.73213Z" fill="#484848"/>
<path fill-rule="evenodd" clip-rule="evenodd" d="M1.25 1.05356V11.6964H1.89286V1.05356H1.25ZM0.875 0.303558C0.667893 0.303558 0.5 0.471451 0.5 0.678558V12.0714C0.5 12.2785 0.667894 12.4464 0.875 12.4464H2.26786C2.47496 12.4464 2.64286 12.2785 2.64286 12.0714V0.678558C2.64286 0.471452 2.47496 0.303558 2.26786 0.303558H0.875Z" fill="#484848"/>
</svg>
