<svg width="16" height="17" viewBox="0 0 16 17" fill="none" xmlns="http://www.w3.org/2000/svg">
<path d="M10.6665 14.8346C9.6494 14.8346 8.78402 14.4778 8.07035 13.7641C7.35668 13.0504 6.99984 12.185 6.99984 11.168C6.99984 10.1509 7.35668 9.28549 8.07035 8.57182C8.78402 7.85814 9.6494 7.5013 10.6665 7.5013C11.6836 7.5013 12.549 7.85814 13.2626 8.57182C13.9763 9.28549 14.3331 10.1509 14.3331 11.168C14.3331 12.185 13.9763 13.0504 13.2626 13.7641C12.549 14.4778 11.6836 14.8346 10.6665 14.8346ZM10.6665 13.8346C11.3998 13.8346 12.0276 13.5735 12.5498 13.0513C13.072 12.5291 13.3332 11.9013 13.3332 11.168C13.3332 10.4346 13.072 9.80684 12.5498 9.28462C12.0276 8.7624 11.3998 8.50129 10.6665 8.50129C9.93316 8.50129 9.30538 8.7624 8.78315 9.28462C8.26093 9.80684 7.99982 10.4346 7.99982 11.168C7.99982 11.9013 8.26093 12.5291 8.78315 13.0513C9.30538 13.5735 9.93316 13.8346 10.6665 13.8346ZM2.87164 13.5013C2.53488 13.5013 2.24984 13.3846 2.0165 13.1513C1.78317 12.9179 1.6665 12.6329 1.6665 12.2961V7.47309C1.6665 7.3842 1.67912 7.2889 1.70434 7.18719C1.72955 7.08547 1.75882 6.99017 1.79215 6.90129L3.20242 3.7064H2.88445C2.71693 3.7064 2.58104 3.65427 2.47677 3.55C2.37249 3.44572 2.32035 3.30982 2.32035 3.1423V2.73207C2.32035 2.56455 2.37249 2.42865 2.47677 2.32439C2.58104 2.22011 2.71693 2.16797 2.88445 2.16797H7.11519C7.28271 2.16797 7.4186 2.22011 7.52287 2.32439C7.62715 2.42865 7.67929 2.56455 7.67929 2.73207V3.1423C7.67929 3.30982 7.62715 3.44572 7.52287 3.55C7.4186 3.65427 7.28271 3.7064 7.11519 3.7064H6.79722L8.1793 6.85517C8.02803 6.93636 7.88251 7.02525 7.74277 7.12184C7.60303 7.21841 7.46905 7.32739 7.34085 7.44875L5.72289 3.7064H4.27675L2.66649 7.41539V12.2961C2.66649 12.356 2.68572 12.4051 2.72419 12.4436C2.76265 12.4821 2.8118 12.5013 2.87164 12.5013H5.846C5.88874 12.6791 5.94557 12.853 6.0165 13.0231C6.08745 13.1931 6.17035 13.3525 6.26522 13.5013H2.87164ZM10.6665 6.70644C10.2896 6.66797 9.97313 6.51006 9.71714 6.23272C9.46116 5.95536 9.33317 5.62182 9.33317 5.23209C9.33317 4.84234 9.46116 4.5088 9.71714 4.23145C9.97313 3.95411 10.2896 3.7962 10.6665 3.75774V6.70644C10.705 6.32951 10.8629 6.01306 11.1402 5.75709C11.4175 5.50111 11.7511 5.37312 12.1408 5.37312C12.5306 5.37312 12.8641 5.50111 13.1415 5.75709C13.4188 6.01306 13.5767 6.32951 13.6152 6.70644H10.6665Z" fill="#484848"/>
</svg>
