<svg width="18" height="18" viewBox="0 0 18 18" fill="none" xmlns="http://www.w3.org/2000/svg">
<path d="M8.99917 14.021C8.71648 14.021 8.4873 14.2502 8.4873 14.5329V15.9882C8.4873 16.2709 8.71648 16.5 8.99917 16.5C9.28192 16.5 9.51103 16.2709 9.51103 15.9882V14.5329C9.51103 14.2501 9.28185 14.021 8.99917 14.021Z" fill="#484848"/>
<path d="M8.99917 3.97943C9.28192 3.97943 9.51103 3.75025 9.51103 3.46757V2.01211C9.51103 1.72942 9.28192 1.50024 8.99917 1.50024C8.71648 1.50024 8.4873 1.72942 8.4873 2.01211V3.46757C8.4873 3.75025 8.71648 3.97943 8.99917 3.97943Z" fill="#484848"/>
<path d="M4.72587 12.5499L3.69641 13.5789C3.49645 13.7787 3.49638 14.1028 3.69621 14.3027C3.79619 14.4027 3.92723 14.4527 4.05827 14.4527C4.18923 14.4527 4.32013 14.4027 4.42012 14.3029L5.44957 13.274C5.64954 13.0742 5.64961 12.75 5.44978 12.5501C5.24981 12.3502 4.92577 12.3502 4.72587 12.5499Z" fill="#484848"/>
<path d="M12.9117 5.59933C13.0427 5.59933 13.1737 5.54937 13.2736 5.44946L14.303 4.42055C14.5029 4.22065 14.5029 3.89661 14.3031 3.69664C14.1032 3.49667 13.7792 3.4966 13.5792 3.69657L12.5499 4.72548C12.35 4.92531 12.3499 5.24942 12.5497 5.44932C12.6496 5.54937 12.7807 5.59933 12.9117 5.59933Z" fill="#484848"/>
<path d="M3.97905 9.00063C3.97905 8.71795 3.74987 8.48877 3.46719 8.48877H2.01186C1.72918 8.48877 1.5 8.71795 1.5 9.00063C1.5 9.28332 1.72918 9.51249 2.01186 9.51249H3.46719C3.74987 9.51249 3.97905 9.28332 3.97905 9.00063Z" fill="#484848"/>
<path d="M15.9879 8.48877H14.5319C14.2491 8.48877 14.02 8.71795 14.02 9.00063C14.02 9.28332 14.2491 9.51249 14.5319 9.51249H15.9879C16.2706 9.51249 16.4998 9.28332 16.4998 9.00063C16.4998 8.71802 16.2706 8.48877 15.9879 8.48877Z" fill="#484848"/>
<path d="M4.72571 5.44937C4.82562 5.54929 4.95666 5.59925 5.08763 5.59925C5.2186 5.59925 5.34963 5.54929 5.44955 5.44937C5.64945 5.24947 5.64945 4.92536 5.44955 4.72547L4.42064 3.69656C4.22074 3.49666 3.89663 3.49666 3.6968 3.69656C3.4969 3.89645 3.4969 4.22056 3.6968 4.4204L4.72571 5.44937Z" fill="#484848"/>
<path d="M13.2738 12.5501C13.0739 12.3502 12.7498 12.3501 12.5499 12.55C12.3499 12.7499 12.3499 13.074 12.5498 13.2739L13.5786 14.3028C13.6786 14.4028 13.8095 14.4527 13.9406 14.4527C14.0715 14.4527 14.2026 14.4028 14.3025 14.3029C14.5025 14.103 14.5025 13.7788 14.3026 13.579L13.2738 12.5501Z" fill="#484848"/>
<path d="M8.99948 5.01611C6.80277 5.01611 5.01562 6.8034 5.01562 9.00024C5.01562 11.197 6.80277 12.9842 8.99948 12.9842C11.1964 12.9842 12.9837 11.197 12.9837 9.00024C12.9837 6.8034 11.1963 5.01611 8.99948 5.01611ZM8.99948 11.9605C7.36725 11.9605 6.03935 10.6325 6.03935 9.00024C6.03935 7.36788 7.36725 6.03984 8.99948 6.03984C10.6319 6.03984 11.9599 7.36788 11.9599 9.00024C11.9599 10.6325 10.6319 11.9605 8.99948 11.9605Z" fill="#484848"/>
</svg>
