<svg width="16" height="16" viewBox="0 0 16 16" fill="none" xmlns="http://www.w3.org/2000/svg">
<path d="M0.666992 13.3346L0.666992 11.7122C0.666992 11.336 0.762607 11.0004 0.953838 10.7052C1.14506 10.41 1.40043 10.1803 1.71996 10.0162C2.40309 9.67691 3.09001 9.41536 3.78071 9.2315C4.47143 9.04765 5.23057 8.95572 6.05814 8.95572C6.88571 8.95572 7.64484 9.04765 8.33555 9.2315C9.02626 9.41536 9.71319 9.67691 10.3963 10.0162C10.7158 10.1803 10.9712 10.41 11.1624 10.7052C11.3537 11.0004 11.4493 11.336 11.4493 11.7122V13.3346H0.666992ZM12.8869 13.3346V11.6224C12.8869 11.1433 12.7714 10.6867 12.5403 10.2527C12.3093 9.81861 11.9815 9.44617 11.5571 9.13536C12.0391 9.20835 12.4966 9.32133 12.9298 9.47432C13.3629 9.6273 13.7762 9.80811 14.1697 10.0168C14.5411 10.2179 14.8279 10.455 15.0302 10.7281C15.2325 11.0011 15.3337 11.2992 15.3337 11.6224V13.3346H12.8869ZM6.05814 7.77672C5.36629 7.77672 4.77401 7.5266 4.28132 7.02638C3.78863 6.52614 3.54228 5.9248 3.54228 5.22235C3.54228 4.51989 3.78863 3.91855 4.28132 3.41832C4.77401 2.91809 5.36629 2.66797 6.05814 2.66797C6.74999 2.66797 7.34227 2.91809 7.83496 3.41832C8.32764 3.91855 8.57398 4.51989 8.57398 5.22235C8.57398 5.9248 8.32764 6.52614 7.83496 7.02638C7.34227 7.5266 6.74999 7.77672 6.05814 7.77672ZM12.2648 5.22235C12.2648 5.9248 12.0185 6.52614 11.5258 7.02638C11.0331 7.5266 10.4408 7.77672 9.74897 7.77672C9.66787 7.77672 9.56466 7.76736 9.43933 7.74865C9.31401 7.72995 9.2108 7.70936 9.1297 7.68691C9.41318 7.34089 9.63104 6.95701 9.78327 6.53529C9.93551 6.11358 10.0116 5.67564 10.0116 5.22148C10.0116 4.76733 9.93399 4.33113 9.77871 3.91287C9.62343 3.49463 9.4071 3.10961 9.1297 2.75779C9.23291 2.72036 9.33612 2.69604 9.43933 2.68481C9.54255 2.67358 9.64576 2.66797 9.74897 2.66797C10.4408 2.66797 11.0331 2.91809 11.5258 3.41832C12.0185 3.91855 12.2648 4.51989 12.2648 5.22235ZM1.74521 12.2399H10.3711V11.7122C10.3711 11.5597 10.3335 11.424 10.2584 11.3052C10.1833 11.1863 10.0642 11.0825 9.90107 10.9936C9.30942 10.6839 8.70027 10.4493 8.07361 10.2897C7.44694 10.1302 6.77512 10.0504 6.05814 10.0504C5.34116 10.0504 4.66934 10.1302 4.04267 10.2897C3.41601 10.4493 2.80686 10.6839 2.21521 10.9936C2.0521 11.0825 1.93298 11.1863 1.85786 11.3052C1.78276 11.424 1.74521 11.5597 1.74521 11.7122V12.2399ZM6.05814 6.68201C6.45349 6.68201 6.79194 6.53908 7.07348 6.25323C7.35501 5.96738 7.49578 5.62376 7.49578 5.22235C7.49578 4.82095 7.35501 4.47732 7.07348 4.19147C6.79194 3.90562 6.45349 3.76269 6.05814 3.76269C5.66279 3.76269 5.32434 3.90562 5.0428 4.19147C4.76126 4.47732 4.6205 4.82095 4.6205 5.22235C4.6205 5.62376 4.76126 5.96738 5.0428 6.25323C5.32434 6.53908 5.66279 6.68201 6.05814 6.68201Z" fill="#484848"/>
</svg>
