<svg width="18" height="18" viewBox="0 0 18 18" fill="none" xmlns="http://www.w3.org/2000/svg">
<path fill-rule="evenodd" clip-rule="evenodd" d="M4.10022 7.05221C4.17461 7.21104 4.33417 7.3125 4.50956 7.3125H12.9471C13.1224 7.3125 13.282 7.21104 13.3564 7.05221C13.4308 6.89338 13.4066 6.70586 13.2943 6.57112L11.7876 4.76309C11.7017 4.66003 11.5745 4.60045 11.4404 4.60045H6.01625C5.8821 4.60045 5.75489 4.66003 5.66901 4.76309L4.16231 6.57112C4.05003 6.70586 4.02583 6.89338 4.10022 7.05221ZM5.47461 6.40848L6.22796 5.50446H11.2286L11.982 6.40848H5.47461Z" fill="#484848"/>
<mask id="mask0_2601_20120" style="mask-type:luminance" maskUnits="userSpaceOnUse" x="2" y="1" width="14" height="16">
<path d="M2.25 1.28554H15.75V16.7141H2.25V1.28554Z" fill="white"/>
</mask>
<g mask="url(#mask0_2601_20120)">
<path fill-rule="evenodd" clip-rule="evenodd" d="M5.56432 5.05263C5.56432 5.30227 5.76669 5.50464 6.01633 5.50464H11.4404C11.6901 5.50464 11.8924 5.30227 11.8924 5.05263V3.84727C11.8924 2.43266 10.7457 1.28589 9.33106 1.28589H8.12571C6.71109 1.28589 5.56432 2.43266 5.56432 3.84727V5.05263ZM6.46834 4.60062V3.84727C6.46834 2.93193 7.21037 2.18991 8.12571 2.18991H9.33106C10.2464 2.18991 10.9884 2.93193 10.9884 3.84727V4.60062H6.46834Z" fill="#484848"/>
<path fill-rule="evenodd" clip-rule="evenodd" d="M5.56432 8.06543C5.56432 9.8129 6.98091 11.2295 8.72839 11.2295C10.4759 11.2295 11.8924 9.8129 11.8924 8.06543V6.86007C11.8924 6.61044 11.6901 6.40806 11.4404 6.40806H6.01633C5.76669 6.40806 5.56432 6.61044 5.56432 6.86007V8.06543ZM8.72839 10.3255C7.48019 10.3255 6.46834 9.31363 6.46834 8.06543V7.31208H10.9884V8.06543C10.9884 9.31363 9.97659 10.3255 8.72839 10.3255Z" fill="#484848"/>
<path fill-rule="evenodd" clip-rule="evenodd" d="M2.25 16.2621C2.25 16.5117 2.45237 16.7141 2.70201 16.7141H14.7556C15.0052 16.7141 15.2076 16.5117 15.2076 16.2621V15.9005C15.2076 13.4873 13.2513 11.5311 10.8382 11.5311C10.5885 11.5311 10.3862 11.7334 10.3862 11.9831C10.3862 12.2327 10.5885 12.4351 10.8382 12.4351C12.7218 12.4351 14.2545 13.938 14.3024 15.8101H3.15517C3.20311 13.938 4.73576 12.4351 6.61942 12.4351C6.86906 12.4351 7.07143 12.2327 7.07143 11.9831C7.07143 11.7334 6.86906 11.5311 6.61942 11.5311C4.20626 11.5311 2.25 13.4873 2.25 15.9005V16.2621Z" fill="#484848"/>
<path fill-rule="evenodd" clip-rule="evenodd" d="M8.49568 14.7817C8.63886 14.8677 8.81775 14.8677 8.96092 14.7817L9.07602 14.7127C9.07602 14.7127 9.07603 14.7127 9.07603 14.7127C9.07605 14.7126 9.07607 14.7126 9.07609 14.7126C10.0635 14.1202 10.8297 13.2205 11.2574 12.1513C11.3131 12.0121 11.2961 11.8543 11.212 11.7301C11.1279 11.6059 10.9877 11.5315 10.8377 11.5315H10.3857V10.4929C10.3857 10.2432 10.1833 10.0409 9.93366 10.0409C9.68402 10.0409 9.48165 10.2432 9.48165 10.4929V11.9835C9.48165 12.2331 9.68402 12.4355 9.93366 12.4355H10.111C9.76745 13.0097 9.29505 13.4996 8.7283 13.8645C8.16156 13.4996 7.68916 13.0097 7.34559 12.4355H7.52294C7.77258 12.4355 7.97495 12.2331 7.97495 11.9835V10.4929C7.97495 10.2432 7.77258 10.0409 7.52294 10.0409C7.27331 10.0409 7.07094 10.2432 7.07094 10.4929V11.5315H6.61893C6.46894 11.5315 6.32872 11.6059 6.24463 11.7301C6.16054 11.8543 6.14354 12.0121 6.19925 12.1513C6.62694 13.2205 7.39307 14.1202 8.38051 14.7126C8.38053 14.7126 8.38055 14.7126 8.38057 14.7127C8.38058 14.7127 8.38058 14.7127 8.38058 14.7127L8.49568 14.7817Z" fill="#484848"/>
<path fill-rule="evenodd" clip-rule="evenodd" d="M8.7283 16.6536C8.97794 16.6536 9.18031 16.4512 9.18031 16.2016V14.3935C9.18031 14.1439 8.97794 13.9415 8.7283 13.9415C8.47866 13.9415 8.27629 14.1439 8.27629 14.3935V16.2016C8.27629 16.4512 8.47866 16.6536 8.7283 16.6536Z" fill="#484848"/>
<path fill-rule="evenodd" clip-rule="evenodd" d="M12.3445 16.7139C12.5941 16.7139 12.7965 16.5115 12.7965 16.2619V14.7552C12.7965 14.5055 12.5941 14.3032 12.3445 14.3032C12.0948 14.3032 11.8924 14.5055 11.8924 14.7552V16.2619C11.8924 16.5115 12.0948 16.7139 12.3445 16.7139Z" fill="#484848"/>
<path fill-rule="evenodd" clip-rule="evenodd" d="M5.11322 16.7144C5.36286 16.7144 5.56523 16.512 5.56523 16.2623V14.7557C5.56523 14.506 5.36286 14.3036 5.11322 14.3036C4.86358 14.3036 4.66121 14.506 4.66121 14.7557V16.2623C4.66121 16.512 4.86358 16.7144 5.11322 16.7144Z" fill="#484848"/>
</g>
</svg>
