<svg width="16" height="14" viewBox="0 0 16 14" fill="none" xmlns="http://www.w3.org/2000/svg">
<path d="M7.99998 13.2459L7.17211 12.5017C5.92885 11.3738 4.90072 10.4046 4.08774 9.59402C3.27476 8.78344 2.63054 8.06205 2.15506 7.42984C1.67957 6.79763 1.34736 6.22094 1.15842 5.69979C0.969475 5.17864 0.875 4.6498 0.875 4.11326C0.875 3.04885 1.23389 2.15775 1.95168 1.43996C2.66947 0.722176 3.56057 0.363281 4.62498 0.363281C5.27979 0.363281 5.89854 0.516413 6.48123 0.822676C7.06392 1.12893 7.57017 1.56811 7.99998 2.14022C8.42979 1.56811 8.93604 1.12893 9.51873 0.822676C10.1014 0.516413 10.7202 0.363281 11.375 0.363281C12.4394 0.363281 13.3305 0.722176 14.0483 1.43996C14.7661 2.15775 15.125 3.04885 15.125 4.11326C15.125 4.6498 15.0305 5.17864 14.8415 5.69979C14.6526 6.22094 14.3204 6.79763 13.8449 7.42984C13.3694 8.06205 12.7264 8.78344 11.9158 9.59402C11.1053 10.4046 10.0759 11.3738 8.82785 12.5017L7.99998 13.2459ZM7.99998 11.7258C9.19998 10.646 10.1875 9.72047 10.9625 8.94932C11.7375 8.17817 12.35 7.50822 12.8 6.93947C13.25 6.37072 13.5625 5.86567 13.7375 5.42432C13.9125 4.98297 14 4.54595 14 4.11326C14 3.36326 13.75 2.73826 13.25 2.23826C12.75 1.73826 12.125 1.48826 11.375 1.48826C10.7827 1.48826 10.2353 1.65629 9.73291 1.99236C9.23051 2.32841 8.83268 2.79596 8.5394 3.39501H7.46056C7.16249 2.79116 6.76345 2.3224 6.26345 1.98874C5.76345 1.65509 5.21729 1.48826 4.62498 1.48826C3.87979 1.48826 3.25599 1.73826 2.75358 2.23826C2.25118 2.73826 1.99998 3.36326 1.99998 4.11326C1.99998 4.54595 2.08748 4.98297 2.26248 5.42432C2.43748 5.86567 2.74998 6.37072 3.19998 6.93947C3.64998 7.50822 4.26248 8.17697 5.03748 8.94572C5.81248 9.71447 6.79998 10.6412 7.99998 11.7258Z" fill="#484848"/>
</svg>
