<svg width="18" height="10" viewBox="0 0 18 10" fill="none" xmlns="http://www.w3.org/2000/svg">
<path d="M14.5232 5.72831H13.3673C13.0993 5.72831 12.8821 5.51106 12.8821 5.24305C12.8821 4.97504 13.0993 4.75779 13.3673 4.75779H14.8231C15.0069 4.75779 15.1749 4.86161 15.2571 5.02602L17.1982 8.90809C17.3595 9.23072 17.1248 9.61035 16.7641 9.61035H1.23588C0.87516 9.61035 0.640537 9.23072 0.80185 8.90809L2.74287 5.02602C2.82507 4.86161 2.99309 4.75779 3.1769 4.75779H4.63265C4.90066 4.75779 5.11791 4.97504 5.11791 5.24305C5.11791 5.51106 4.90066 5.72831 4.63265 5.72831H3.47677L2.02102 8.63985H15.9789L14.5232 5.72831ZM9.65874 5.47864C9.79663 5.70843 9.7221 6.0065 9.49231 6.14439C9.26248 6.28228 8.96441 6.20774 8.82652 5.97795C8.24907 5.01551 8.24907 4.01476 8.82652 3.05232C9.21959 2.39724 9.21959 1.78044 8.82652 1.12536C8.68864 0.895566 8.76317 0.597492 8.99296 0.459605C9.22278 0.321718 9.52086 0.396252 9.65874 0.626042C10.2362 1.58848 10.2362 2.58923 9.65874 3.55164C9.26567 4.20675 9.26567 4.82356 9.65874 5.47864ZM7.23246 5.47864C7.37035 5.70843 7.29581 6.0065 7.06602 6.14439C6.8362 6.28228 6.53813 6.20774 6.40024 5.97795C5.82279 5.01551 5.82279 4.01476 6.40024 3.05232C6.79331 2.39724 6.79331 1.78044 6.40024 1.12536C6.26235 0.895566 6.33689 0.597492 6.56668 0.459605C6.7965 0.321718 7.09457 0.396252 7.23246 0.626042C7.80992 1.58848 7.80992 2.58923 7.23246 3.55164C6.83939 4.20675 6.83939 4.82356 7.23246 5.47864ZM12.085 5.47864C12.2229 5.70843 12.1484 6.0065 11.9186 6.14439C11.6888 6.28228 11.3907 6.20774 11.2528 5.97795C10.6753 5.01551 10.6753 4.01476 11.2528 3.05232C11.6459 2.39724 11.6459 1.78044 11.2528 1.12536C11.1149 0.895566 11.1895 0.597492 11.4192 0.459605C11.6491 0.321718 11.9471 0.396252 12.085 0.626042C12.6625 1.58848 12.6625 2.58923 12.085 3.55164C11.692 4.20675 11.692 4.82356 12.085 5.47864Z" fill="#484848"/>
</svg>
