<svg width="18" height="18" viewBox="0 0 18 18" fill="none" xmlns="http://www.w3.org/2000/svg">
<path fill-rule="evenodd" clip-rule="evenodd" d="M9.00041 17.3481C6.58598 17.3481 4.53577 15.7952 3.79102 13.6353L4.71584 13.3164C5.32877 15.094 7.01615 16.3699 9.00041 16.3699C10.9847 16.3699 12.6721 15.094 13.285 13.3164L14.2098 13.6353C13.4651 15.7952 11.4148 17.3481 9.00041 17.3481Z" fill="#484848"/>
<path fill-rule="evenodd" clip-rule="evenodd" d="M9.00055 1.6306C8.5023 1.6306 8.09837 2.03453 8.09837 2.53278V3.17409H7.12012V2.53278C7.12012 1.49425 7.96203 0.652344 9.00055 0.652344C10.0391 0.652344 10.881 1.49425 10.881 2.53278V3.17412H9.90273V2.53278C9.90273 2.03453 9.4988 1.6306 9.00055 1.6306Z" fill="#484848"/>
<path fill-rule="evenodd" clip-rule="evenodd" d="M8.99997 3.5764C5.81233 3.5764 3.22826 6.16047 3.22826 9.34811V10.2503H14.7717V9.34811C14.7717 6.16047 12.1876 3.5764 8.99997 3.5764ZM2.25 9.34811C2.25 5.6202 5.27205 2.59814 8.99997 2.59814C12.7279 2.59814 15.7499 5.6202 15.7499 9.34811V11.2285H2.25V9.34811Z" fill="#484848"/>
<path fill-rule="evenodd" clip-rule="evenodd" d="M2.25 10.25H15.75V11.1793C15.75 12.7432 14.4822 14.0109 12.9184 14.0109H5.08156C3.51771 14.0109 2.25 12.7431 2.25 11.1793V10.25ZM3.22889 11.2283C3.25484 12.2292 4.07436 13.0326 5.08156 13.0326H12.9184C13.9256 13.0326 14.7451 12.2292 14.7711 11.2283H3.22889Z" fill="#484848"/>
<path fill-rule="evenodd" clip-rule="evenodd" d="M5.59863 6.51639C5.59863 4.43038 7.04964 2.59814 9.00006 2.59814C10.9505 2.59814 12.4015 4.43038 12.4015 6.51642V11.2285H5.59863V6.51639ZM9.00006 3.5764C7.73365 3.5764 6.57689 4.81472 6.57689 6.51639V10.2503H11.4232V6.51642C11.4232 4.81472 10.2665 3.5764 9.00006 3.5764Z" fill="#484848"/>
</svg>
