<svg width="18" height="18" viewBox="0 0 18 18" fill="none" xmlns="http://www.w3.org/2000/svg">
<path fill-rule="evenodd" clip-rule="evenodd" d="M9.00045 17.3481C6.58601 17.3481 4.53581 15.7952 3.79105 13.6353L4.71587 13.3164C5.3288 15.094 7.01619 16.3699 9.00045 16.3699C10.9847 16.3699 12.6721 15.094 13.285 13.3164L14.2098 13.6353C13.4651 15.7952 11.4149 17.3481 9.00045 17.3481Z" fill="#484848"/>
<path fill-rule="evenodd" clip-rule="evenodd" d="M9.00034 1.6306C8.50209 1.6306 8.09816 2.03453 8.09816 2.53278V3.17409H7.11991V2.53278C7.11991 1.49425 7.96182 0.652344 9.00034 0.652344C10.0389 0.652344 10.8808 1.49425 10.8808 2.53278V3.17412H9.90252V2.53278C9.90252 2.03453 9.49859 1.6306 9.00034 1.6306Z" fill="#484848"/>
<path fill-rule="evenodd" clip-rule="evenodd" d="M9 3.5764C5.81236 3.5764 3.22829 6.16047 3.22829 9.34811V10.2503H14.7717V9.34811C14.7717 6.16047 12.1876 3.5764 9 3.5764ZM2.25003 9.34811C2.25003 5.6202 5.27209 2.59814 9 2.59814C12.7279 2.59814 15.75 5.6202 15.75 9.34811V11.2285H2.25003V9.34811Z" fill="#484848"/>
<path fill-rule="evenodd" clip-rule="evenodd" d="M2.25003 10.25H15.75V11.1793C15.75 12.7432 14.4822 14.0109 12.9184 14.0109H5.0816C3.51774 14.0109 2.25003 12.7431 2.25003 11.1793V10.25ZM3.22892 11.2283C3.25487 12.2292 4.07439 13.0326 5.0816 13.0326H12.9184C13.9256 13.0326 14.7452 12.2292 14.7711 11.2283H3.22892Z" fill="#484848"/>
<path fill-rule="evenodd" clip-rule="evenodd" d="M5.59865 6.51639C5.59865 4.43038 7.04965 2.59814 9.00008 2.59814C10.9505 2.59814 12.4015 4.43038 12.4015 6.51642V11.2285H5.59865V6.51639ZM9.00008 3.5764C7.73367 3.5764 6.5769 4.81472 6.5769 6.51639V10.2503H11.4232V6.51642C11.4232 4.81472 10.2665 3.5764 9.00008 3.5764Z" fill="#484848"/>
</svg>
