<svg width="16" height="16" viewBox="0 0 16 16" fill="none" xmlns="http://www.w3.org/2000/svg">
<path d="M8.01345 11.7122C8.20405 11.7122 8.36495 11.6466 8.49613 11.5154C8.62733 11.3842 8.69294 11.2233 8.69294 11.0327C8.69294 10.8421 8.62733 10.6812 8.49613 10.55C8.36495 10.4188 8.20405 10.3532 8.01345 10.3532C7.82286 10.3532 7.66197 10.4188 7.53077 10.55C7.39958 10.6812 7.33398 10.8421 7.33398 11.0327C7.33398 11.2233 7.39958 11.3842 7.53077 11.5154C7.66197 11.6466 7.82286 11.7122 8.01345 11.7122ZM7.54167 9.32499H8.48012C8.48866 8.97627 8.53845 8.71068 8.62947 8.5282C8.72049 8.34572 8.90404 8.11645 9.18012 7.84039C9.53481 7.48569 9.78843 7.18419 9.941 6.9359C10.0936 6.68761 10.1699 6.40535 10.1699 6.0891C10.1699 5.5344 9.98053 5.08719 9.6019 4.74745C9.22327 4.40771 8.73566 4.23783 8.13908 4.23783C7.59636 4.23783 7.13248 4.37608 6.74743 4.65257C6.3624 4.92907 6.08868 5.28911 5.92628 5.73268L6.78268 6.07627C6.87755 5.79337 7.03524 5.56238 7.25575 5.38332C7.47627 5.20426 7.75277 5.11474 8.08525 5.11474C8.44508 5.11474 8.72607 5.21238 8.9282 5.40768C9.13033 5.60298 9.2314 5.84038 9.2314 6.11987C9.2314 6.32586 9.17029 6.528 9.04807 6.72629C8.92585 6.92457 8.73739 7.13867 8.4827 7.36859C8.1203 7.69509 7.87286 7.99808 7.74038 8.27757C7.60791 8.55705 7.54167 8.90619 7.54167 9.32499ZM3.53912 13.6673C3.20236 13.6673 2.91732 13.5506 2.68398 13.3173C2.45065 13.084 2.33398 12.7989 2.33398 12.4622V3.53912C2.33398 3.20236 2.45065 2.91732 2.68398 2.68398C2.91732 2.45065 3.20236 2.33398 3.53912 2.33398H12.4622C12.7989 2.33398 13.084 2.45065 13.3173 2.68398C13.5506 2.91732 13.6673 3.20236 13.6673 3.53912V12.4622C13.6673 12.7989 13.5506 13.084 13.3173 13.3173C13.084 13.5506 12.7989 13.6673 12.4622 13.6673H3.53912ZM3.53912 12.6673H12.4622C12.5134 12.6673 12.5605 12.6459 12.6032 12.6032C12.6459 12.5605 12.6673 12.5134 12.6673 12.4622V3.53912C12.6673 3.48783 12.6459 3.44081 12.6032 3.39807C12.5605 3.35533 12.5134 3.33397 12.4622 3.33397H3.53912C3.48783 3.33397 3.44081 3.35533 3.39807 3.39807C3.35533 3.44081 3.33397 3.48783 3.33397 3.53912V12.4622C3.33397 12.5134 3.35533 12.5605 3.39807 12.6032C3.44081 12.6459 3.48783 12.6673 3.53912 12.6673Z" fill="#484848"/>
</svg>
