<svg width="36" height="36" viewBox="0 0 36 36" fill="none" xmlns="http://www.w3.org/2000/svg">
<path d="M18.0524 8.27778L17.6758 5.16523C18.4535 5.1683 23.7066 4.41092 23.8964 5.57865C24.2759 7.91382 20.3842 8.67586 18.0524 8.27778Z" fill="#B7DFB9"/>
<path d="M7.94994 5.90494C3.27227 8.68652 3.11432 15.8674 3.62006 19.1102C4.40393 17.5578 5.7823 17.2325 11.0411 10.9723C12.9948 8.64663 13.7807 6.57565 13.007 5.53558C12.4267 4.75591 12.6276 3.12336 7.94994 5.90494Z" fill="#4CAF50" fill-opacity="0.4"/>
<path fill-rule="evenodd" clip-rule="evenodd" d="M13.5155 9.73955L12.8855 10.1559C12.8852 10.1561 12.8849 10.1563 12.8847 10.1565C7.5878 13.6779 4.39615 19.6061 4.37107 25.9654L4.34819 31.7675L16.6292 31.816L16.6635 23.1127L18.2191 23.1188L18.1829 32.281C18.1805 32.9017 17.6702 33.3756 17.082 33.3733L3.96873 33.3216C3.31362 33.319 2.78859 32.7898 2.79118 32.1347L2.81553 25.9592C2.84266 19.0811 6.29496 12.669 12.0244 8.86049L12.026 8.85937L12.6577 8.44186L13.5155 9.73955Z" fill="#484848"/>
<path fill-rule="evenodd" clip-rule="evenodd" d="M13.8906 4.37255L13.872 9.09362C13.8676 10.1899 14.754 11.0882 15.8552 11.0926C16.2848 11.0943 16.6316 11.4439 16.6299 11.8734C16.6282 12.303 16.2786 12.6498 15.8491 12.6481C13.8859 12.6404 12.3087 11.0401 12.3164 9.08749L12.3376 3.72864C12.3396 3.22131 12.7516 2.81249 13.259 2.81449L14.2001 2.8182C16.5107 2.82732 18.3849 4.70623 18.3757 7.02692L18.3732 7.6647L21.4425 7.6768L32.7458 19.1493C32.7461 19.1496 32.7464 19.1499 32.7467 19.1502C33.1668 19.5742 33.3897 20.1399 33.3874 20.7285L33.3739 24.1429C33.3643 26.5635 31.3906 28.5217 28.97 28.5122L27.7727 28.5075L19.1886 23.9003L17.4381 23.8934C14.0219 23.8799 11.258 21.0941 11.2714 17.6779L11.2751 16.7523C11.2768 16.3228 11.6264 15.9759 12.0559 15.9776C12.4855 15.9793 12.8323 16.3289 12.8306 16.7585L12.827 17.684C12.8169 20.2411 14.8871 22.3277 17.4442 22.3378L19.5825 22.3462L28.1667 26.9535L28.9761 26.9567C30.5376 26.9628 31.8122 25.6983 31.8183 24.1367L31.8318 20.7223C31.8326 20.5335 31.7631 20.3674 31.6415 20.2449L31.6396 20.2429L20.7888 9.22979L16.8115 9.21411L16.8202 7.02079C16.8259 5.56151 15.6477 4.37948 14.1939 4.37375L13.8906 4.37255Z" fill="#484848"/>
<path fill-rule="evenodd" clip-rule="evenodd" d="M15.9354 4.7309C15.9371 4.30135 16.2867 3.9545 16.7162 3.95619L24.3206 3.98618C24.5968 3.98727 24.8197 4.21201 24.8187 4.48815L24.8145 5.55147C24.8064 7.59101 23.145 9.23936 21.1055 9.23132C20.6759 9.22963 20.3291 8.88003 20.3308 8.45048C20.3325 8.02093 20.6821 7.67408 21.1116 7.67578C22.2921 7.68043 23.2543 6.72578 23.2589 5.54534L23.259 5.53756L16.7101 5.51174C16.2806 5.51004 15.9337 5.16045 15.9354 4.7309Z" fill="#484848"/>
<path fill-rule="evenodd" clip-rule="evenodd" d="M28.7518 20.8269C28.7496 21.3929 29.2084 21.8554 29.7744 21.8576L29.7683 23.4132C28.3432 23.4076 27.1907 22.2459 27.1963 20.8208L28.7518 20.8269Z" fill="#484848"/>
<path fill-rule="evenodd" clip-rule="evenodd" d="M13.1006 5.48983C8.32725 5.471 4.43647 9.33038 4.41761 14.1123L4.37087 25.9656L2.81533 25.9594L2.86207 14.1062C2.88431 8.46598 7.47345 3.91207 13.1067 3.93429L13.1006 5.48983Z" fill="#484848"/>
<path d="M20.0946 16.323C20.5957 16.325 21.0036 15.9203 21.0055 15.4192C21.0075 14.918 20.6029 14.5102 20.1017 14.5082C19.6006 14.5062 19.1927 14.9109 19.1908 15.412C19.1888 15.9132 19.5934 16.321 20.0946 16.323Z" fill="#484848"/>
</svg>
