<svg width="24" height="24" viewBox="0 0 24 24" fill="none" xmlns="http://www.w3.org/2000/svg">
<rect x="0.5" y="0.5" width="23" height="23" rx="11.5" fill="#4CAF50" fill-opacity="0.2"/>
<rect x="0.5" y="0.5" width="23" height="23" rx="11.5" stroke="#4CAF50"/>
<path d="M12.0174 7.55564L11.8452 6.13276C12.2008 6.13416 14.6022 5.78793 14.689 6.32175C14.8624 7.38926 13.0834 7.73762 12.0174 7.55564Z" fill="#4CAF50"/>
<path d="M7.40019 6.47069C5.26183 7.74227 5.18962 11.025 5.42081 12.5074C5.77916 11.7977 6.40927 11.649 8.8133 8.78719C9.70639 7.72403 10.0657 6.7773 9.712 6.30184C9.44672 5.94542 9.53856 5.19911 7.40019 6.47069Z" fill="#4CAF50"/>
<path fill-rule="evenodd" clip-rule="evenodd" d="M9.94373 8.22364L9.65575 8.41399C9.65562 8.41408 9.6555 8.41416 9.65537 8.41424C7.23394 10.024 5.7749 12.7341 5.76344 15.6412L5.75298 18.2936L11.3672 18.3157L11.3828 14.3371L12.094 14.3399L12.0774 18.5283C12.0763 18.8121 11.8431 19.0287 11.5741 19.0276L5.57951 19.004C5.28003 19.0028 5.04002 18.7609 5.0412 18.4614L5.05233 15.6383C5.06473 12.4941 6.64293 9.56284 9.26208 7.82179L9.26286 7.82127L9.55161 7.63041L9.94373 8.22364Z" fill="#484848"/>
<path fill-rule="evenodd" clip-rule="evenodd" d="M10.1153 5.77018L10.1068 7.92838C10.1049 8.42955 10.51 8.8402 11.0135 8.84219C11.2098 8.84296 11.3684 9.00277 11.3676 9.19914C11.3668 9.39551 11.207 9.55407 11.0107 9.55329C10.1132 9.54975 9.39221 8.81818 9.39573 7.92558L9.40539 5.47582C9.4063 5.2439 9.59467 5.05701 9.8266 5.05792L10.2568 5.05962C11.3131 5.06378 12.1699 5.92272 12.1657 6.9836L12.1645 7.27516L13.5676 7.28069L18.7349 12.5252C18.735 12.5254 18.7351 12.5255 18.7353 12.5257C18.9273 12.7195 19.0292 12.9781 19.0281 13.2472L19.022 14.808C19.0176 15.9146 18.1153 16.8098 17.0088 16.8054L16.4615 16.8033L12.5373 14.6971L11.7371 14.694C10.1754 14.6878 8.91186 13.4143 8.91801 11.8526L8.91968 11.4295C8.92046 11.2331 9.08027 11.0746 9.27664 11.0754C9.473 11.0761 9.63156 11.2359 9.63079 11.4323L9.62912 11.8554C9.62451 13.0244 10.5709 13.9783 11.7399 13.9829L12.7174 13.9867L16.6415 16.0929L17.0116 16.0943C17.7254 16.0972 18.3081 15.5191 18.3109 14.8052L18.317 13.2444C18.3174 13.1581 18.2856 13.0821 18.23 13.0261L18.2292 13.0252L13.2688 7.99063L11.4506 7.98346L11.4546 6.9808C11.4572 6.3137 10.9186 5.77334 10.254 5.77072L10.1153 5.77018Z" fill="#484848"/>
<path fill-rule="evenodd" clip-rule="evenodd" d="M11.0499 5.93392C11.0506 5.73756 11.2105 5.579 11.4068 5.57977L14.6117 5.59241C14.8878 5.5935 15.1108 5.81824 15.1097 6.09438L15.1089 6.30904C15.1052 7.2414 14.3457 7.99494 13.4133 7.99126C13.217 7.99048 13.0584 7.83067 13.0592 7.6343C13.06 7.43794 13.2198 7.27938 13.4161 7.28015C13.9558 7.28228 14.3956 6.84587 14.3978 6.30624L14.3978 6.30268L11.404 6.29088C11.2077 6.2901 11.0491 6.13029 11.0499 5.93392Z" fill="#484848"/>
<path fill-rule="evenodd" clip-rule="evenodd" d="M16.9089 13.2921C16.9078 13.5509 17.1176 13.7623 17.3763 13.7633L17.3735 14.4744C16.7221 14.4718 16.1952 13.9408 16.1978 13.2893L16.9089 13.2921Z" fill="#484848"/>
<path fill-rule="evenodd" clip-rule="evenodd" d="M9.75433 6.28102C7.57224 6.27241 5.7936 8.0367 5.78498 10.2227L5.76361 15.6413L5.05251 15.6385L5.07387 10.2199C5.08404 7.64154 7.18193 5.55975 9.75714 5.56991L9.75433 6.28102Z" fill="#484848"/>
<path d="M12.9516 11.2334C13.1807 11.2343 13.3671 11.0493 13.368 10.8202C13.3689 10.5911 13.1839 10.4046 12.9548 10.4037C12.7258 10.4028 12.5393 10.5878 12.5384 10.8169C12.5375 11.046 12.7225 11.2324 12.9516 11.2334Z" fill="#484848"/>
</svg>
