<svg width="18" height="18" viewBox="0 0 18 18" fill="none" xmlns="http://www.w3.org/2000/svg">
<path d="M15.298 0.890077C15.1095 0.702164 14.805 0.703517 14.6181 0.893042L14.2811 1.23474L13.9396 0.891527C13.752 0.70284 13.4475 0.702808 13.2597 0.891527C13.072 1.08028 13.072 1.38624 13.2597 1.57499L13.6041 1.92117C10.4826 5.0864 11.2274 4.33358 9.92824 5.6396L9.24833 4.95614L9.30668 4.89749C9.49441 4.70877 9.49441 4.40278 9.30668 4.21402C9.11894 4.02527 8.81454 4.02527 8.62677 4.21402C8.49216 4.34934 5.22455 7.63407 5.11065 7.74857C4.92288 7.93732 4.92288 8.24328 5.11065 8.43203C5.29835 8.62079 5.60282 8.62079 5.79055 8.43203L5.8489 8.37338L6.52884 9.05684L6.18892 9.39854C5.75603 9.8337 5.662 10.4659 5.87775 10.9839L2.4137 13.5003C1.68814 14.0212 1.60257 15.0723 2.23211 15.7052L3.34651 16.8254C3.63697 17.1174 4.04466 17.2788 4.47553 17.2457H9.19034C12.1063 17.2457 14.4697 14.861 14.4697 11.9297V2.40721L15.3009 1.57354C15.4879 1.38398 15.4865 1.07796 15.298 0.890077ZM11.2298 5.69816C11.4852 6.23702 11.3913 6.90269 10.9481 7.34825L7.20865 11.1072L6.86873 10.7655C6.6808 10.5766 6.6808 10.2709 6.86873 10.082L11.2298 5.69816ZM9.2484 11.7907C8.87263 12.1684 8.26448 12.1685 7.88865 11.7908L7.88859 11.7907L9.2484 10.4238C9.62326 10.8006 9.62326 11.4138 9.2484 11.7907ZM6.52871 7.68995C7.40607 6.80804 8.497 5.71143 8.56846 5.63957L9.24836 6.32303L7.20865 8.37341L6.52871 7.68995ZM4.02639 16.142L2.91199 15.0218C2.70376 14.8124 2.72681 14.4632 2.97469 14.2852L6.47844 11.74L7.2618 12.5275L4.75755 16.0811C4.5812 16.3293 4.23022 16.3469 4.02639 16.142ZM13.5081 11.9297C13.5081 14.3281 11.5762 16.2792 9.19034 16.2792H5.79633L8.11656 12.9866C8.74555 13.1381 9.43414 12.9708 9.9282 12.4741C10.678 11.7204 10.678 10.494 9.9282 9.74027L11.6279 8.03165C12.4493 7.20607 12.5507 5.92677 11.9326 4.98891L13.5081 3.38219V11.9297H13.5081Z" fill="#484848"/>
</svg>
