<svg width="40" height="40" viewBox="0 0 40 40" fill="none" xmlns="http://www.w3.org/2000/svg">
<rect width="40" height="40" rx="20" fill="#484848" fill-opacity="0.05"/>
<path d="M16.8718 27C16.535 27 16.25 26.8833 16.0166 26.65C15.7833 26.4166 15.6666 26.1316 15.6666 25.7948L15.6666 14.2051C15.6666 13.8684 15.7833 13.5833 16.0166 13.35C16.25 13.1167 16.535 13 16.8718 13L23.1281 13C23.4649 13 23.7499 13.1167 23.9833 13.35C24.2166 13.5833 24.3333 13.8684 24.3333 14.2051V25.7948C24.3333 26.1316 24.2166 26.4166 23.9833 26.65C23.7499 26.8833 23.4649 27 23.1281 27H16.8718V27ZM16.6666 23.8462L16.6666 25.7949C16.6666 25.8461 16.688 25.8932 16.7307 25.9359C16.7735 25.9786 16.8205 26 16.8718 26H23.1281C23.1794 26 23.2264 25.9786 23.2692 25.9359C23.3119 25.8932 23.3333 25.8461 23.3333 25.7949V23.8462H16.6666ZM19.9999 25.5128C20.1632 25.5128 20.3023 25.4553 20.4172 25.3404C20.5322 25.2254 20.5897 25.0863 20.5897 24.9231C20.5897 24.7598 20.5322 24.6207 20.4172 24.5058C20.3023 24.3908 20.1632 24.3333 19.9999 24.3333C19.8367 24.3333 19.6976 24.3908 19.5826 24.5058C19.4677 24.6207 19.4102 24.7598 19.4102 24.9231C19.4102 25.0863 19.4677 25.2254 19.5826 25.3404C19.6976 25.4553 19.8367 25.5128 19.9999 25.5128V25.5128ZM16.6666 22.8462H23.3333V15.8333L16.6666 15.8333V22.8462ZM16.6666 14.8333L23.3333 14.8333V14.2051C23.3333 14.1538 23.3119 14.1068 23.2692 14.0641C23.2264 14.0214 23.1794 14 23.1281 14L16.8718 14C16.8205 14 16.7735 14.0214 16.7307 14.0641C16.688 14.1068 16.6666 14.1538 16.6666 14.2051V14.8333Z" fill="#484848"/>
</svg>
