<svg width="18" height="18" viewBox="0 0 18 18" fill="none" xmlns="http://www.w3.org/2000/svg">
<mask id="mask0_2601_15511" style="mask-type:luminance" maskUnits="userSpaceOnUse" x="1" y="1" width="16" height="16">
<path d="M1.5 1.5H16.5V16.5H1.5V1.5Z" fill="white"/>
</mask>
<g mask="url(#mask0_2601_15511)">
<path fill-rule="evenodd" clip-rule="evenodd" d="M8.47813 9.46371C8.71795 9.4264 8.88212 9.20174 8.84481 8.96192C8.65427 7.73724 7.77017 6.73778 6.61093 6.37773C6.37915 6.30574 6.1329 6.43528 6.06091 6.66706C5.98892 6.89884 6.11846 7.1451 6.35024 7.21709C7.19432 7.47925 7.83823 8.20924 7.97635 9.09703C8.01366 9.33685 8.23831 9.50102 8.47813 9.46371Z" fill="#484848"/>
<path fill-rule="evenodd" clip-rule="evenodd" d="M2.84359 9.40355C3.08255 9.44602 3.31069 9.28673 3.35316 9.04777C3.50541 8.19112 4.12975 7.4888 4.9458 7.22508C5.17674 7.15044 5.30345 6.90273 5.22882 6.67178C5.15419 6.44084 4.90647 6.31413 4.67552 6.38876C3.55481 6.75094 2.69779 7.7125 2.48781 8.89398C2.44534 9.13293 2.60463 9.36108 2.84359 9.40355Z" fill="#484848"/>
<path fill-rule="evenodd" clip-rule="evenodd" d="M5.6611 6.39819C4.9792 6.39819 4.42187 5.84085 4.42187 5.15897C4.42187 4.47705 4.97921 3.91971 5.6611 3.91971C6.343 3.91971 6.90033 4.47705 6.90033 5.15897C6.90033 5.84085 6.343 6.39819 5.6611 6.39819ZM3.54297 5.15897C3.54297 6.32624 4.49379 7.2771 5.6611 7.2771C6.82842 7.2771 7.77924 6.32624 7.77924 5.15897C7.77924 3.99166 6.82843 3.0408 5.6611 3.0408C4.49378 3.0408 3.54297 3.99166 3.54297 5.15897Z" fill="#484848"/>
<path fill-rule="evenodd" clip-rule="evenodd" d="M9.60818 9.52421C9.84904 9.55402 10.0685 9.38293 10.0983 9.14207C10.2153 8.19632 11.027 7.45962 12.0027 7.45962C12.9784 7.45962 13.7901 8.19632 13.9071 9.14207C13.9369 9.38293 14.1563 9.55402 14.3972 9.52421C14.6381 9.4944 14.8092 9.27498 14.7794 9.03411C14.6086 7.65434 13.4283 6.58072 12.0027 6.58072C10.5771 6.58072 9.39679 7.65433 9.22603 9.03411C9.19622 9.27498 9.36731 9.4944 9.60818 9.52421Z" fill="#484848"/>
<path fill-rule="evenodd" clip-rule="evenodd" d="M11.0683 9.46874C11.3109 9.47687 11.5141 9.28681 11.5222 9.04424C11.5396 8.52549 11.6406 8.08312 11.7757 7.78632C11.8435 7.63731 11.9111 7.54456 11.9632 7.49495C11.9814 7.47772 11.9946 7.46834 12.003 7.46339C12.0114 7.46834 12.0246 7.47772 12.0427 7.49494C12.0949 7.54456 12.1624 7.63731 12.2303 7.78632C12.3654 8.08312 12.4664 8.52549 12.4837 9.04424C12.4919 9.28681 12.6951 9.47687 12.9377 9.46874C13.1802 9.46062 13.3703 9.2574 13.3622 9.01483C13.342 8.41192 13.2248 7.84963 13.0302 7.42218C12.9332 7.20907 12.808 7.0098 12.6482 6.85793C12.4864 6.70403 12.2677 6.58076 12.003 6.58076C11.7383 6.58076 11.5196 6.70402 11.3577 6.85792C11.1979 7.0098 11.0728 7.20907 10.9758 7.42218C10.7812 7.84963 10.664 8.41192 10.6438 9.01483C10.6357 9.2574 10.8257 9.46062 11.0683 9.46874ZM11.9919 7.45825C11.992 7.45832 11.9927 7.4586 11.9941 7.4589C11.9927 7.45833 11.9919 7.45818 11.9919 7.45825ZM12.0118 7.45891C12.0133 7.45861 12.014 7.45832 12.014 7.45825C12.014 7.45818 12.0133 7.45833 12.0118 7.45891Z" fill="#484848"/>
<path fill-rule="evenodd" clip-rule="evenodd" d="M1.5 9.12964C1.5 9.37234 1.69675 9.56909 1.93945 9.56909H16.0604C16.3031 9.56909 16.4999 9.37234 16.4999 9.12964C16.4999 8.88694 16.3031 8.69019 16.0604 8.69019H1.93945C1.69675 8.69019 1.5 8.88694 1.5 9.12964Z" fill="#484848"/>
<path fill-rule="evenodd" clip-rule="evenodd" d="M1.5 10.4773C1.5 11.4612 2.3032 12.2644 3.28711 12.2644H14.7129C15.6968 12.2644 16.5 11.4612 16.5 10.4773C16.5 9.49335 15.6968 8.69016 14.7129 8.69016H3.28711C2.30318 8.69016 1.5 9.49339 1.5 10.4773ZM3.28711 11.3855C2.7886 11.3855 2.37891 10.9758 2.37891 10.4773C2.37891 9.97877 2.78861 9.56906 3.28711 9.56906H14.7129C15.2114 9.56906 15.6211 9.97876 15.6211 10.4773C15.6211 10.9758 15.2114 11.3855 14.7129 11.3855H3.28711Z" fill="#484848"/>
<path fill-rule="evenodd" clip-rule="evenodd" d="M1.5 13.1724C1.5 14.1563 2.3032 14.9595 3.28711 14.9595H14.7129C15.6968 14.9595 16.5 14.1563 16.5 13.1724C16.5 12.1884 15.6968 11.3853 14.7129 11.3853H3.28711C2.3032 11.3853 1.5 12.1884 1.5 13.1724ZM3.28711 14.0806C2.7886 14.0806 2.37891 13.6709 2.37891 13.1724C2.37891 12.6739 2.7886 12.2642 3.28711 12.2642H14.7129C15.2114 12.2642 15.6211 12.6739 15.6211 13.1724C15.6211 13.6709 15.2114 14.0806 14.7129 14.0806H3.28711Z" fill="#484848"/>
<path fill-rule="evenodd" clip-rule="evenodd" d="M4.82176 3.64178C4.86588 4.59952 5.65522 5.35327 6.61391 5.35327C6.69228 5.35327 6.7707 5.34816 6.84865 5.33785C7.08927 5.30605 7.25854 5.08522 7.22674 4.84461C7.19494 4.604 6.9741 4.43472 6.73349 4.46652C6.69397 4.47175 6.65403 4.47437 6.61391 4.47437C6.12488 4.47437 5.72224 4.08987 5.69974 3.60134C5.68857 3.3589 5.48298 3.17141 5.24053 3.18258C4.99808 3.19374 4.8106 3.39934 4.82176 3.64178Z" fill="#484848"/>
</g>
</svg>
