<svg width="16" height="16" viewBox="0 0 16 16" fill="none" xmlns="http://www.w3.org/2000/svg">
<path d="M7.99933 14.3327C7.13095 14.3327 6.31152 14.1662 5.54102 13.8333C4.7705 13.5004 4.09849 13.0472 3.52498 12.4737C2.95148 11.9002 2.49828 11.2282 2.16538 10.4577C1.83247 9.68715 1.66602 8.86771 1.66602 7.99933C1.66602 7.12412 1.83247 6.30297 2.16538 5.53588C2.49828 4.76879 2.95148 4.09849 3.52498 3.52498C4.09849 2.95148 4.7705 2.49828 5.54102 2.16538C6.31152 1.83247 7.13095 1.66602 7.99933 1.66602C8.87454 1.66602 9.69569 1.83247 10.4628 2.16538C11.2299 2.49828 11.9002 2.95148 12.4737 3.52498C13.0472 4.09849 13.5004 4.76879 13.8333 5.53588C14.1662 6.30297 14.3327 7.12412 14.3327 7.99933C14.3327 8.86771 14.1662 9.68715 13.8333 10.4577C13.5004 11.2282 13.0472 11.9002 12.4737 12.4737C11.9002 13.0472 11.2299 13.5004 10.4628 13.8333C9.69569 14.1662 8.87454 14.3327 7.99933 14.3327ZM7.99933 13.3186C8.33951 12.8673 8.62584 12.4121 8.85832 11.9532C9.09079 11.4942 9.28011 10.9925 9.42627 10.448H6.5724C6.7271 11.0096 6.91855 11.5198 7.14677 11.9788C7.37497 12.4378 7.65915 12.8844 7.99933 13.3186ZM6.70833 13.1352C6.45278 12.7686 6.22329 12.3517 6.01987 11.8846C5.81644 11.4175 5.65832 10.9386 5.5455 10.448H3.28393C3.63608 11.1404 4.1083 11.722 4.70062 12.1929C5.29294 12.6639 5.96218 12.978 6.70833 13.1352ZM9.29033 13.1352C10.0365 12.978 10.7057 12.6639 11.298 12.1929C11.8904 11.722 12.3626 11.1404 12.7147 10.448H10.4532C10.319 10.9429 10.1502 11.4239 9.94675 11.891C9.74333 12.3581 9.52452 12.7728 9.29033 13.1352ZM2.86472 9.44807H5.34293C5.30105 9.2002 5.27072 8.95725 5.25192 8.71922C5.23312 8.48117 5.22372 8.24121 5.22372 7.99933C5.22372 7.75746 5.23312 7.51749 5.25192 7.27945C5.27072 7.04142 5.30105 6.79847 5.34293 6.5506H2.86472C2.80062 6.7771 2.75147 7.01257 2.71728 7.25702C2.68309 7.50146 2.666 7.7489 2.666 7.99933C2.666 8.24977 2.68309 8.49721 2.71728 8.74165C2.75147 8.98609 2.80062 9.22157 2.86472 9.44807ZM6.34292 9.44807H9.65575C9.69763 9.2002 9.72797 8.95938 9.74678 8.72562C9.76558 8.49186 9.77498 8.24977 9.77498 7.99933C9.77498 7.7489 9.76558 7.5068 9.74678 7.27305C9.72797 7.03928 9.69763 6.79847 9.65575 6.5506H6.34292C6.30104 6.79847 6.27069 7.03928 6.25188 7.27305C6.23308 7.5068 6.22368 7.7489 6.22368 7.99933C6.22368 8.24977 6.23308 8.49186 6.25188 8.72562C6.27069 8.95938 6.30104 9.2002 6.34292 9.44807ZM10.6557 9.44807H13.134C13.1981 9.22157 13.2472 8.98609 13.2814 8.74165C13.3156 8.49721 13.3327 8.24977 13.3327 7.99933C13.3327 7.7489 13.3156 7.50146 13.2814 7.25702C13.2472 7.01257 13.1981 6.7771 13.134 6.5506H10.6557C10.6976 6.79847 10.7279 7.04142 10.7467 7.27945C10.7655 7.51749 10.7749 7.75746 10.7749 7.99933C10.7749 8.24121 10.7655 8.48117 10.7467 8.71922C10.7279 8.95725 10.6976 9.2002 10.6557 9.44807ZM10.4532 5.55063H12.7147C12.3583 4.84977 11.8893 4.26813 11.3077 3.80573C10.726 3.34334 10.0536 3.0271 9.29033 2.85702C9.54589 3.24505 9.77324 3.66941 9.97238 4.1301C10.1715 4.59079 10.3318 5.0643 10.4532 5.55063ZM6.5724 5.55063H9.42627C9.27157 4.99337 9.07691 4.4799 8.84228 4.01023C8.60767 3.54058 8.32669 3.0972 7.99933 2.6801C7.67198 3.0972 7.39099 3.54058 7.15638 4.01023C6.92176 4.4799 6.7271 4.99337 6.5724 5.55063ZM3.28393 5.55063H5.5455C5.66687 5.0643 5.82713 4.59079 6.02628 4.1301C6.22543 3.66941 6.45278 3.24505 6.70833 2.85702C5.94081 3.0271 5.2673 3.34442 4.6878 3.80895C4.10831 4.27348 3.64035 4.85404 3.28393 5.55063Z" fill="#484848"/>
</svg>
