<svg width="16" height="17" viewBox="0 0 16 17" fill="none" xmlns="http://www.w3.org/2000/svg">
<path d="M7.05416 11.3372L11.5362 6.85514L10.8336 6.15259L7.05416 9.93207L5.15416 8.03207L4.45161 8.73462L7.05416 11.3372ZM8.00143 14.8346C7.12547 14.8346 6.30211 14.6684 5.53136 14.3359C4.76059 14.0035 4.09014 13.5523 3.51999 12.9824C2.94984 12.4125 2.49846 11.7424 2.16588 10.972C1.83329 10.2015 1.66699 9.37836 1.66699 8.5024C1.66699 7.62645 1.83321 6.80309 2.16566 6.03234C2.4981 5.26157 2.94927 4.59111 3.51916 4.02097C4.08906 3.45081 4.75922 2.99944 5.52964 2.66685C6.30005 2.33426 7.12324 2.16797 7.99919 2.16797C8.87515 2.16797 9.6985 2.33419 10.4693 2.66664C11.24 2.99908 11.9105 3.45025 12.4806 4.02014C13.0508 4.59004 13.5022 5.2602 13.8347 6.03062C14.1673 6.80103 14.3336 7.62421 14.3336 8.50017C14.3336 9.37613 14.1674 10.1995 13.835 10.9702C13.5025 11.741 13.0513 12.4115 12.4815 12.9816C11.9116 13.5518 11.2414 14.0031 10.471 14.3357C9.70057 14.6683 8.87738 14.8346 8.00143 14.8346ZM8.00031 13.8346C9.4892 13.8346 10.7503 13.318 11.7836 12.2846C12.817 11.2513 13.3336 9.99018 13.3336 8.50129C13.3336 7.0124 12.817 5.75129 11.7836 4.71795C10.7503 3.68462 9.4892 3.16795 8.00031 3.16795C6.51142 3.16795 5.25031 3.68462 4.21698 4.71795C3.18364 5.75129 2.66698 7.0124 2.66698 8.50129C2.66698 9.99018 3.18364 11.2513 4.21698 12.2846C5.25031 13.318 6.51142 13.8346 8.00031 13.8346Z" fill="#484848"/>
</svg>
