<svg width="14" height="14" viewBox="0 0 14 14" fill="none" xmlns="http://www.w3.org/2000/svg">
<path d="M8.83313 6.6971C8.60334 6.6971 8.40864 6.61776 8.24903 6.45908C8.08941 6.30042 8.00959 6.10619 8.00959 5.87641C8.00959 5.64662 8.08893 5.45191 8.24761 5.29229C8.40627 5.13268 8.60049 5.05287 8.83028 5.05287C9.06008 5.05287 9.25479 5.13221 9.4144 5.29088C9.57401 5.44955 9.65382 5.64377 9.65382 5.87356C9.65382 6.10335 9.57449 6.29805 9.41582 6.45768C9.25715 6.61729 9.06292 6.6971 8.83313 6.6971ZM5.16968 6.6971C4.93988 6.6971 4.74517 6.61776 4.58556 6.45908C4.42595 6.30042 4.34614 6.10619 4.34614 5.87641C4.34614 5.64662 4.42547 5.45191 4.58414 5.29229C4.74281 5.13268 4.93704 5.05287 5.16683 5.05287C5.39662 5.05287 5.59132 5.13221 5.75093 5.29088C5.91056 5.44955 5.99037 5.64377 5.99037 5.87356C5.99037 6.10335 5.91103 6.29805 5.75236 6.45768C5.59369 6.61729 5.39947 6.6971 5.16968 6.6971ZM6.99998 10.4615C6.32211 10.4615 5.70528 10.2829 5.14951 9.9257C4.59374 9.56848 4.16731 9.09325 3.87019 8.49998H10.1298C9.83266 9.09325 9.40622 9.56848 8.85046 9.9257C8.29468 10.2829 7.67786 10.4615 6.99998 10.4615ZM7.00039 13.375C6.11551 13.375 5.28653 13.2077 4.51345 12.873C3.74038 12.5384 3.06634 12.0836 2.49134 11.5086C1.91635 10.9336 1.46155 10.2597 1.12694 9.48693C0.792312 8.71413 0.625 7.88528 0.625 7.0004C0.625 6.11551 0.792312 5.28653 1.12694 4.51345C1.46155 3.74038 1.91635 3.06634 2.49134 2.49134C3.06634 1.91635 3.74024 1.46155 4.51304 1.12694C5.28584 0.792313 6.11468 0.625 6.99957 0.625C7.88446 0.625 8.71344 0.792313 9.48651 1.12694C10.2596 1.46155 10.9336 1.91635 11.5086 2.49134C12.0836 3.06634 12.5384 3.74024 12.873 4.51304C13.2077 5.28584 13.375 6.11468 13.375 6.99957C13.375 7.88446 13.2077 8.71344 12.873 9.48651C12.5384 10.2596 12.0836 10.9336 11.5086 11.5086C10.9336 12.0836 10.2597 12.5384 9.48693 12.873C8.71413 13.2077 7.88528 13.375 7.00039 13.375ZM6.99998 12.25C8.44998 12.25 9.68748 11.7375 10.7125 10.7125C11.7375 9.68748 12.25 8.44998 12.25 6.99998C12.25 5.54998 11.7375 4.31248 10.7125 3.28748C9.68748 2.26248 8.44998 1.74998 6.99998 1.74998C6.89453 1.74998 6.78908 1.75239 6.68363 1.7572C6.57818 1.762 6.47594 1.7769 6.3769 1.8019C6.32113 1.88653 6.28554 1.96778 6.27016 2.04565C6.25478 2.12354 6.24709 2.21248 6.24709 2.31248C6.24709 2.60383 6.34974 2.85215 6.55503 3.05744C6.76031 3.26273 7.00935 3.36537 7.30214 3.36537C7.42762 3.36537 7.53364 3.34662 7.62018 3.30912C7.70671 3.27162 7.79998 3.25287 7.89998 3.25287C8.01701 3.25287 8.11453 3.29769 8.19256 3.38733C8.27058 3.47698 8.30959 3.58156 8.30959 3.70107C8.30959 3.93014 8.19445 4.0805 7.96416 4.15214C7.73387 4.22378 7.51248 4.25959 7.29998 4.25959C6.76633 4.25959 6.3084 4.06849 5.92619 3.68628C5.54397 3.30406 5.35287 2.84613 5.35287 2.31248V2.17966C5.35287 2.13822 5.36153 2.08298 5.37884 2.01393C4.3173 2.36008 3.44711 2.98291 2.76826 3.88244C2.08941 4.78195 1.74998 5.82113 1.74998 6.99998C1.74998 8.44998 2.26248 9.68748 3.28748 10.7125C4.31248 11.7375 5.54998 12.25 6.99998 12.25Z" fill="#484848"/>
</svg>
