<svg width="14" height="16" viewBox="0 0 14 16" fill="none" xmlns="http://www.w3.org/2000/svg">
<path d="M13.0132 13.4652L11.9264 13.6779L10.5314 9.83206C10.4476 9.60144 10.2282 9.44731 9.98299 9.44731H6.18274V6.60725H8.10424C8.42655 6.60725 8.68755 6.34625 8.68755 6.02394C8.68755 5.70163 8.42655 5.44062 8.10424 5.44062H6.18274V4.36175C7.10468 4.1075 7.78699 3.27837 7.78699 2.28725C7.78699 1.09531 6.80543 0.125 5.59943 0.125C4.39343 0.125 3.41187 1.09531 3.41187 2.28725C3.41187 3.27837 4.09418 4.1075 5.01611 4.36175V10.0306C5.01611 10.3529 5.27712 10.6139 5.59943 10.6139H9.57405L11 14.5447C11.0855 14.7787 11.3071 14.9294 11.5479 14.9294C11.5856 14.9294 13.2371 14.6105 13.2371 14.6105C13.5532 14.5492 13.7596 14.2426 13.6977 13.9265C13.6353 13.6092 13.3282 13.4022 13.0132 13.4652ZM5.59943 1.29162C6.16249 1.29162 6.62036 1.73825 6.62036 2.28725C6.62036 2.83625 6.16249 3.28287 5.59943 3.28287C5.03637 3.28287 4.57849 2.83625 4.57849 2.28725C4.57849 1.73825 5.03637 1.29162 5.59943 1.29162Z" fill="#484848"/>
<path d="M5.60219 14.6656C3.34713 14.6656 1.51394 12.8639 1.51394 10.6454C1.51394 9.07942 2.43081 7.71929 3.769 7.06623V5.74829C1.74006 6.47954 0.291626 8.39654 0.291626 10.6454C0.291626 13.5294 2.67494 15.875 5.60219 15.875C7.15469 15.875 8.55981 15.2101 9.53181 14.152L9.043 12.8037C8.32188 13.922 7.04444 14.6656 5.60219 14.6656Z" fill="#484848"/>
</svg>
