<svg width="18" height="18" viewBox="0 0 18 18" fill="none" xmlns="http://www.w3.org/2000/svg">
<path fill-rule="evenodd" clip-rule="evenodd" d="M16.4997 5.10715H2.92822V4.35715H16.4997V5.10715Z" fill="#484848"/>
<path fill-rule="evenodd" clip-rule="evenodd" d="M16.4997 7.24985H2.92822V6.49985H16.4997V7.24985Z" fill="#484848"/>
<path fill-rule="evenodd" clip-rule="evenodd" d="M16.4997 9.39291H2.92822V8.64291H16.4997V9.39291Z" fill="#484848"/>
<path fill-rule="evenodd" clip-rule="evenodd" d="M16.4997 11.5356H2.92822V10.7856H16.4997V11.5356Z" fill="#484848"/>
<path fill-rule="evenodd" clip-rule="evenodd" d="M16.4997 13.6787H2.92822V12.9287H16.4997V13.6787Z" fill="#484848"/>
<path fill-rule="evenodd" clip-rule="evenodd" d="M6.1604 4.73225L6.1604 13.3037L5.4104 13.3037L5.4104 4.73225L6.1604 4.73225Z" fill="#484848"/>
<path fill-rule="evenodd" clip-rule="evenodd" d="M9.01758 4.73225L9.01758 13.3037L8.26758 13.3037L8.26758 4.73225L9.01758 4.73225Z" fill="#484848"/>
<path fill-rule="evenodd" clip-rule="evenodd" d="M11.8748 4.73225L11.8748 13.3037L11.1248 13.3037L11.1248 4.73225L11.8748 4.73225Z" fill="#484848"/>
<path fill-rule="evenodd" clip-rule="evenodd" d="M14.7319 4.73225L14.7319 13.3037L13.9819 13.3037L13.9819 4.73225L14.7319 4.73225Z" fill="#484848"/>
<path fill-rule="evenodd" clip-rule="evenodd" d="M2.25 4.05356V14.6964H2.89286V4.05356H2.25ZM1.875 3.30356C1.66789 3.30356 1.5 3.47145 1.5 3.67856V15.0714C1.5 15.2785 1.66789 15.4464 1.875 15.4464H3.26786C3.47496 15.4464 3.64286 15.2785 3.64286 15.0714V3.67856C3.64286 3.47145 3.47496 3.30356 3.26786 3.30356H1.875Z" fill="#484848"/>
</svg>
