<svg width="16" height="15" viewBox="0 0 16 15" fill="none" xmlns="http://www.w3.org/2000/svg">
<path d="M7.4375 14.3125V12.1635H8.56246V14.3125L7.4375 14.3125ZM0.6875 7.56249V6.43752H2.83653V7.56249H0.6875ZM13.1634 7.56249V6.43752H15.3125V7.56249H13.1634ZM12.5144 12.6798L11.0115 11.1769L11.8019 10.3866L13.3048 11.8894L12.5144 12.6798ZM3.48556 12.6798L2.69519 11.8894L4.19806 10.3866L4.98843 11.1769L3.48556 12.6798ZM7.99998 10.375C7.06346 10.375 6.26683 10.0466 5.61009 9.3899C4.95336 8.73316 4.625 7.93653 4.625 7.00001C4.625 6.42886 4.75938 5.89953 5.02813 5.41203C5.29688 4.92453 5.6625 4.52117 6.125 4.20194V0.884674H9.87496V4.20194C10.3375 4.52117 10.7031 4.92453 10.9718 5.41203C11.2406 5.89953 11.375 6.42886 11.375 7.00001C11.375 7.93653 11.0466 8.73316 10.3899 9.3899C9.73314 10.0466 8.93651 10.375 7.99998 10.375ZM7.24998 3.71446C7.37498 3.68465 7.49878 3.66229 7.62138 3.64739C7.74397 3.63248 7.87017 3.62502 7.99998 3.62502C8.12979 3.62502 8.25599 3.63248 8.37858 3.64739C8.50118 3.66229 8.62498 3.68465 8.74998 3.71446V2.00964H7.24998V3.71446ZM7.99998 9.25001C8.62498 9.25001 9.15623 9.03126 9.59373 8.59376C10.0312 8.15626 10.25 7.62501 10.25 7.00001C10.25 6.37501 10.0312 5.84376 9.59373 5.40626C9.15623 4.96876 8.62498 4.75001 7.99998 4.75001C7.37498 4.75001 6.84373 4.96876 6.40623 5.40626C5.96873 5.84376 5.74998 6.37501 5.74998 7.00001C5.74998 7.62501 5.96873 8.15626 6.40623 8.59376C6.84373 9.03126 7.37498 9.25001 7.99998 9.25001Z" fill="#484848"/>
</svg>
