<svg width="36" height="36" viewBox="0 0 36 36" fill="none" xmlns="http://www.w3.org/2000/svg">
<path fill-rule="evenodd" clip-rule="evenodd" d="M24.2468 11.8023L11.8025 11.7532C8.36608 11.7397 5.56933 14.5145 5.55578 17.9509C5.54223 21.3873 8.317 24.184 11.7534 24.1976L24.1978 24.2467C27.6342 24.2602 30.4309 21.4854 30.4445 18.049C30.458 14.6126 27.6832 11.8159 24.2468 11.8023ZM11.8102 9.80882C7.29987 9.79103 3.62914 13.4329 3.61135 17.9432C3.59356 22.4535 7.23546 26.1242 11.7457 26.142L24.1901 26.1911C28.7004 26.2089 32.3711 22.567 32.3889 18.0567C32.4067 13.5464 28.7648 9.87568 24.2545 9.85789L11.8102 9.80882Z" fill="#484848"/>
<path d="M14.5001 17.9861C14.4941 19.4895 13.2706 20.7035 11.7671 20.6976C10.2637 20.6916 9.04974 19.4681 9.05567 17.9646C9.0616 16.4612 10.2852 15.2472 11.7886 15.2532C13.292 15.2591 14.506 16.4827 14.5001 17.9861Z" fill="#B7DFB9"/>
<path fill-rule="evenodd" clip-rule="evenodd" d="M11.7733 19.142C12.4176 19.1446 12.942 18.6243 12.9445 17.98C12.9471 17.3356 12.4268 16.8113 11.7825 16.8087C11.1381 16.8062 10.6138 17.3264 10.6112 17.9708C10.6087 18.6151 11.1289 19.1395 11.7733 19.142ZM11.7671 20.6976C13.2706 20.7035 14.4941 19.4895 14.5001 17.9861C14.506 16.4827 13.292 15.2591 11.7886 15.2532C10.2852 15.2472 9.0616 16.4612 9.05567 17.9646C9.04974 19.4681 10.2637 20.6916 11.7671 20.6976Z" fill="#484848"/>
<path d="M20.7227 18.0108C20.7168 19.5142 19.4932 20.7282 17.9898 20.7222C16.4864 20.7163 15.2724 19.4927 15.2783 17.9893C15.2843 16.4859 16.5078 15.2719 18.0113 15.2778C19.5147 15.2838 20.7287 16.5073 20.7227 18.0108Z" fill="#B7DFB9"/>
<path fill-rule="evenodd" clip-rule="evenodd" d="M17.9959 19.1667C18.6403 19.1692 19.1646 18.649 19.1672 18.0046C19.1697 17.3603 18.6495 16.8359 18.0051 16.8334C17.3608 16.8308 16.8364 17.3511 16.8339 17.9954C16.8313 18.6398 17.3516 19.1641 17.9959 19.1667ZM17.9898 20.7222C19.4932 20.7282 20.7168 19.5142 20.7227 18.0108C20.7287 16.5073 19.5147 15.2838 18.0113 15.2778C16.5078 15.2719 15.2843 16.4859 15.2783 17.9893C15.2724 19.4927 16.4864 20.7163 17.9898 20.7222Z" fill="#484848"/>
<path d="M26.9444 18.0352C26.9385 19.5386 25.7149 20.7526 24.2115 20.7466C22.708 20.7407 21.4941 19.5171 21.5 18.0137C21.5059 16.5103 22.7295 15.2963 24.2329 15.3022C25.7364 15.3082 26.9503 16.5317 26.9444 18.0352Z" fill="#B7DFB9"/>
<path fill-rule="evenodd" clip-rule="evenodd" d="M24.2176 19.1911C24.8619 19.1936 25.3863 18.6734 25.3889 18.029C25.3914 17.3847 24.8711 16.8603 24.2268 16.8578C23.5825 16.8552 23.0581 17.3755 23.0556 18.0198C23.053 18.6642 23.5733 19.1886 24.2176 19.1911ZM24.2115 20.7466C25.7149 20.7526 26.9385 19.5386 26.9444 18.0352C26.9503 16.5317 25.7364 15.3082 24.2329 15.3022C22.7295 15.2963 21.5059 16.5103 21.5 18.0137C21.4941 19.5171 22.708 20.7407 24.2115 20.7466Z" fill="#484848"/>
</svg>
