<svg width="18" height="18" viewBox="0 0 18 18" fill="none" xmlns="http://www.w3.org/2000/svg">
<g clip-path="url(#clip0_2601_1407)">
<path d="M9.4853 10.9348V14.3382C9.4853 14.6062 9.26803 14.8235 9 14.8235C8.73197 14.8235 8.5147 14.6062 8.5147 14.3382V10.9348C6.18959 10.8745 4.11117 10.3825 2.69117 9.60053V12.6396C2.69117 12.9077 2.4739 13.1249 2.20587 13.1249C1.93784 13.1249 1.72057 12.9077 1.72057 12.6396V8.9309C1.10179 8.3854 0.75 7.75163 0.75 7.05876C0.75 4.80493 4.47233 3.17639 9 3.17639C13.5277 3.17639 17.25 4.80493 17.25 7.05876C17.25 7.75163 16.8982 8.3854 16.2794 8.93093V12.6397C16.2794 12.9077 16.0621 13.125 15.7941 13.125C15.5261 13.125 15.3088 12.9077 15.3088 12.6397V9.60056C13.8888 10.3825 11.8104 10.8745 9.4853 10.9348ZM9 9.97053C13.049 9.97053 16.2794 8.5572 16.2794 7.05876C16.2794 5.56032 13.049 4.14699 9 4.14699C4.95102 4.14699 1.7206 5.56032 1.7206 7.05876C1.7206 8.5572 4.95102 9.97053 9 9.97053ZM9 8.99992C5.74944 8.99992 3.17647 8.29822 3.17647 7.05876C3.17647 5.81929 5.74944 5.11759 9 5.11759C12.2506 5.11759 14.8235 5.81929 14.8235 7.05876C14.8235 8.29822 12.2506 8.99992 9 8.99992ZM9 8.02933C10.3944 8.02933 11.6972 7.87905 12.647 7.62002C13.0896 7.4993 13.4351 7.35982 13.6557 7.21757C13.807 7.12005 13.8529 7.05872 13.8529 7.05872C13.8529 7.05872 13.807 6.9974 13.6557 6.89988C13.4351 6.75763 13.0896 6.61816 12.647 6.49743C11.6972 6.23843 10.3944 6.08816 9 6.08816C7.60556 6.08816 6.3028 6.23843 5.35298 6.49747C4.91035 6.61819 4.56485 6.75766 4.34426 6.89991C4.19302 6.99743 4.14707 7.05876 4.14707 7.05876C4.14707 7.05876 4.19302 7.12008 4.34426 7.2176C4.56485 7.35985 4.91038 7.49933 5.35298 7.62005C6.3028 7.87905 7.60556 8.02933 9 8.02933Z" fill="#484848"/>
<path fill-rule="evenodd" clip-rule="evenodd" d="M10.5419 3.55277C10.7489 3.34576 11.0954 3.38841 11.246 3.63944L12.1429 5.1343L13.9738 4.21887C14.273 4.06927 14.625 4.28684 14.625 4.62136V6.00001H16.9803L16.4021 8.31285L14.5442 7.94127L14.163 9.84729L11.3137 9.03322L8.95222 10.6076L7.44187 9.09721L5.25 10.4123V8.66898L2.56454 8.96737C2.10915 9.01797 1.87829 8.43504 2.24485 8.16012L3.17909 7.45944L1.60983 5.89017L1.99358 5.26925L3.84059 5.88492L4.23664 3.90467L6.24637 5.11051L7.12294 3.64957C7.28429 3.38066 7.66431 3.3551 7.86021 3.59998L9.03109 5.06359L10.5419 3.55277ZM10.8005 4.35479L9.32442 5.83092C9.13477 6.02057 8.82237 6.00327 8.65483 5.79384L7.54408 4.40541L6.50362 6.13951L4.76336 5.09535L4.40941 6.8651L3.26342 6.4831L4.3209 7.54058L3.57426 8.10056L6 7.83104V9.08769L7.55813 8.15281L9.04778 9.64246L11.1863 8.2168L13.587 8.90273L13.9558 7.05875L15.8479 7.43717L16.0197 6.75001H13.875V5.10677L11.8571 6.11572L10.8005 4.35479Z" fill="#484848"/>
</g>
<defs>
<clipPath id="clip0_2601_1407">
<rect width="18" height="18" fill="white"/>
</clipPath>
</defs>
</svg>
