<svg width="18" height="18" viewBox="0 0 18 18" fill="none" xmlns="http://www.w3.org/2000/svg">
<mask id="mask0_2601_19938" style="mask-type:luminance" maskUnits="userSpaceOnUse" x="0" y="0" width="18" height="18">
<path d="M0.75 0.749998H17.25V17.25H0.75V0.749998Z" fill="white"/>
</mask>
<g mask="url(#mask0_2601_19938)">
<path d="M13.2942 13.1396L14.8266 7.42044C15.1813 6.09657 14.8818 4.68859 14.0339 3.61393C13.4279 2.84675 11.8772 5.03825 11.675 5.3483C10.492 7.16237 9.9432 9.65387 10.3924 11.7788C10.6496 12.9959 11.2193 13.9978 12.0365 14.5866C12.6788 15.049 13.1679 13.6109 13.2942 13.1396Z" stroke="#484848" stroke-width="0.916667" stroke-miterlimit="2.613" stroke-linecap="round" stroke-linejoin="round"/>
<path d="M13.446 3.4284L12.933 1.51414C12.8481 1.19645 12.5218 1.00773 12.2041 1.09261L8.55771 2.06966C8.38926 2.11468 8.257 2.22763 8.18269 2.37117L7.49733 3.55824C7.41492 3.70048 7.39746 3.86281 7.43677 4.01002L7.92591 5.83543C7.95391 5.94036 8.00786 6.03169 8.07956 6.10326L8.52745 6.55108L7.94586 8.72151L6.86517 9.80226C6.78077 9.88663 6.72701 9.99005 6.70381 10.0986L6.02912 12.6166C5.98419 12.7847 6.0159 12.9553 6.10282 13.0912L7.73049 15.9104C7.81176 16.0507 7.9416 16.1453 8.08643 16.1854L10.4074 16.9014C10.6971 16.9904 11.0098 16.8474 11.1293 16.5684L11.967 14.6206" stroke="#484848" stroke-width="0.916667" stroke-miterlimit="2.613" stroke-linecap="round" stroke-linejoin="round"/>
<path d="M11.4219 15.6965L8.81803 14.8933L7.52197 12.6485L8.05358 10.6647L9.24619 9.47207L10.2051 9.72898M12.5574 2.49917L13.037 2.37069L13.4034 3.55364C12.849 3.82732 11.5658 4.86783 10.8679 6.84038L9.26801 5.24053L8.92966 3.97783L9.27565 3.37854L12.5574 2.49917Z" stroke="#484848" stroke-width="0.916667" stroke-miterlimit="2.613" stroke-linecap="round" stroke-linejoin="round"/>
<path d="M7.40133 4.1635L4.0489 5.06178C3.87768 5.10764 3.77516 5.28527 3.82099 5.45646L4.07123 6.39036C4.11712 6.56151 4.29475 6.66409 4.46591 6.6182L7.81834 5.71991" stroke="#484848" stroke-width="0.916667" stroke-miterlimit="2.613" stroke-linecap="round" stroke-linejoin="round"/>
<path d="M6.08848 12.1169L3.26663 11.3608C3.09544 11.315 2.9929 11.1374 3.03879 10.9662L3.28903 10.0323C3.33492 9.86108 3.51252 9.75854 3.68371 9.8044L6.50553 10.5605" stroke="#484848" stroke-width="0.916667" stroke-miterlimit="2.613" stroke-linecap="round" stroke-linejoin="round"/>
<path d="M5.79199 4.71875L6.14726 6.04468" stroke="#484848" stroke-width="0.916667" stroke-miterlimit="2.613" stroke-linecap="round" stroke-linejoin="round"/>
<path d="M5.10522 10.2807L4.73584 11.6592" stroke="#484848" stroke-width="0.916667" stroke-miterlimit="2.613" stroke-linecap="round" stroke-linejoin="round"/>
</g>
</svg>
