<svg width="18" height="18" viewBox="0 0 18 18" fill="none" xmlns="http://www.w3.org/2000/svg">
<path d="M2.99866 13.5L2.25 12.7627L5.26217 9.75305C5.61496 9.40056 5.85284 8.97032 5.97582 8.46232C6.09879 7.95434 6.16028 7.17597 6.16028 6.12722C6.16028 5.47847 6.30526 4.84091 6.5952 4.21454C6.88515 3.58816 7.29674 3.00858 7.82997 2.4758C8.82009 1.48648 9.90778 0.921865 11.093 0.781943C12.2783 0.642021 13.2535 0.961778 14.0185 1.74121C14.7914 2.51549 15.1078 3.4941 14.9678 4.67704C14.8277 5.85997 14.2662 6.94251 13.2833 7.92466C12.7501 8.45743 12.1713 8.86643 11.547 9.15165C10.9226 9.43688 10.2833 9.57949 9.62887 9.57949C8.58668 9.57949 7.81424 9.64026 7.31155 9.76179C6.80885 9.88333 6.37527 10.1262 6.01081 10.4903L2.99866 13.5ZM7.81917 7.90045C8.36765 8.44131 9.10868 8.63953 10.0423 8.49512C10.9758 8.35071 11.8102 7.91121 12.5454 7.17662C13.2923 6.43037 13.7375 5.59375 13.8812 4.66677C14.0248 3.73979 13.8246 3.01394 13.2806 2.48923C12.725 1.93853 11.9938 1.73425 11.0871 1.87641C10.1805 2.01857 9.34791 2.46165 8.58937 3.20563C7.85417 3.93801 7.40669 4.76656 7.2469 5.69129C7.08712 6.61604 7.27787 7.35242 7.81917 7.90045Z" fill="#484848"/>
<ellipse cx="12.1755" cy="9.34068" rx="3.12681" ry="3.77424" transform="rotate(48.654 12.1755 9.34068)" fill="white"/>
<path d="M5.20462 17.25L4.5 16.5561L7.33498 13.7235C7.66702 13.3917 7.89091 12.9868 8.00665 12.5087C8.12239 12.0306 8.18027 11.298 8.18027 10.3109C8.18027 9.70033 8.31671 9.10027 8.5896 8.51074C8.86249 7.92121 9.24987 7.37572 9.75173 6.87428C10.6836 5.94316 11.7073 5.41176 12.8229 5.28006C13.9384 5.14837 14.8562 5.44932 15.5762 6.18291C16.3037 6.91164 16.6015 7.83268 16.4697 8.94603C16.3379 10.0594 15.8094 11.0782 14.8843 12.0026C14.3824 12.5041 13.8377 12.889 13.2501 13.1574C12.6625 13.4259 12.0607 13.5601 11.4448 13.5601C10.4639 13.5601 9.73693 13.6173 9.26381 13.7317C8.79068 13.8461 8.38261 14.0746 8.03959 14.4174L5.20462 17.25ZM9.74157 11.9798C10.2578 12.4889 10.9552 12.6754 11.8339 12.5395C12.7126 12.4036 13.4979 11.99 14.1898 11.2986C14.8927 10.5962 15.3118 9.80882 15.447 8.93637C15.5822 8.06392 15.3938 7.38077 14.8818 6.88693C14.3588 6.36861 13.6706 6.17635 12.8173 6.31015C11.964 6.44395 11.1804 6.86096 10.4665 7.56119C9.77452 8.25048 9.35335 9.03029 9.20297 9.90063C9.05258 10.771 9.23212 11.464 9.74157 11.9798Z" fill="#484848"/>
</svg>
