<svg width="37" height="36" viewBox="0 0 37 36" fill="none" xmlns="http://www.w3.org/2000/svg">
<path d="M18.2399 26.9436C18.887 27.2054 20.5708 27.575 22.1288 26.9589C24.0763 26.1888 17.8587 24.9976 18.2399 26.9436Z" fill="#B7DFB9"/>
<path d="M22.8771 29.6749C22.1722 29.3856 20.338 28.9773 18.6407 29.6582C16.5191 30.5093 23.2923 31.8252 22.8771 29.6749Z" fill="#B7DFB9"/>
<path d="M22.8161 26.5151C22.8161 26.5151 22.8161 26.5151 22.8157 26.5102C22.799 26.4865 22.7823 26.4629 22.7656 26.4393C21.692 25.0661 19.712 24.8211 18.3386 25.8946C18.0094 26.1532 17.7346 26.4724 17.5278 26.8363C17.5145 26.8572 17.5015 26.8831 17.4885 26.909C16.9166 27.9822 17.014 29.2841 17.739 30.2552C17.7507 30.2792 17.7674 30.3029 17.7891 30.3261C18.8578 31.6997 20.8381 31.9497 22.2119 30.8811C22.5552 30.6115 22.8437 30.2763 23.0536 29.8873C23.0578 29.877 23.0673 29.8713 23.0666 29.8614C23.0666 29.8614 23.0666 29.8614 23.0662 29.8564C23.6335 28.7885 23.5364 27.4916 22.8165 26.5201L22.8161 26.5151ZM18.2225 29.5321C17.8788 28.9306 17.8243 28.203 18.0747 27.557C19.4781 28.0144 21.0079 27.8999 22.3276 27.2386C22.6713 27.8401 22.7258 28.5678 22.4754 29.2137C21.0724 28.7612 19.5426 28.8758 18.2225 29.5321ZM21.8065 26.5957C20.7663 27.0668 19.5979 27.1543 18.4992 26.8433C19.347 25.8639 20.8224 25.7534 21.8065 26.5957ZM18.7486 30.1747C19.7887 29.7036 20.9572 29.6161 22.0559 29.9271C21.2081 30.9065 19.7327 31.0169 18.7486 30.1747Z" fill="#484848"/>
<path fill-rule="evenodd" clip-rule="evenodd" d="M23.2447 29.4553C23.5514 28.6111 23.4806 27.6747 23.0504 26.8861C22.9816 26.76 22.9036 26.6377 22.8165 26.5201L22.8157 26.5102L22.7656 26.4393C22.7215 26.3828 22.6758 26.3283 22.6288 26.2757C22.6168 26.2623 22.6047 26.249 22.5925 26.2359C21.4894 25.0444 19.6412 24.8764 18.3386 25.8946C18.0804 26.0974 17.8556 26.3376 17.6709 26.6073C17.6663 26.6141 17.6616 26.621 17.657 26.6278C17.6114 26.6955 17.5683 26.7651 17.5278 26.8363C17.5192 26.8499 17.5106 26.8656 17.5022 26.8819C17.4976 26.8908 17.493 26.8999 17.4885 26.909C17.4181 27.041 17.3579 27.1764 17.3077 27.3143C16.9999 28.1606 17.0705 29.0979 17.5015 29.8857C17.5713 30.0131 17.6504 30.1366 17.739 30.2552C17.745 30.2675 17.7522 30.2796 17.7608 30.2916C17.769 30.3032 17.7785 30.3147 17.7891 30.3261C17.8379 30.3889 17.8886 30.4493 17.9411 30.5073C17.948 30.515 17.955 30.5226 17.962 30.5302C19.061 31.722 20.9092 31.8944 22.2119 30.8811C22.4711 30.6775 22.6991 30.4366 22.8856 30.1632C22.8921 30.1538 22.8985 30.1443 22.9048 30.1347C22.9514 30.0648 22.9952 29.9929 23.0362 29.919C23.0421 29.9085 23.0479 29.8979 23.0536 29.8873C23.0553 29.8832 23.0577 29.8799 23.0601 29.8767C23.0637 29.8718 23.067 29.8674 23.0666 29.8614L23.0662 29.8564C23.1356 29.7258 23.1951 29.5917 23.2447 29.4553ZM19.3472 26.2212C19.031 26.3573 18.7398 26.5653 18.4992 26.8433C18.8268 26.936 19.1605 26.9933 19.4953 27.0156C19.9485 27.0457 20.4035 27.0117 20.8472 26.9144C21.1748 26.8425 21.4964 26.7361 21.8065 26.5957C21.5271 26.3566 21.2082 26.1943 20.8753 26.1068C20.3683 25.9736 19.8288 26.014 19.3472 26.2212ZM22.4399 27.4628C22.4068 27.3865 22.3693 27.3116 22.3276 27.2386C21.0079 27.8999 19.4781 28.0144 18.0747 27.557C18.0443 27.6354 18.0184 27.715 17.997 27.7954C17.9507 27.969 17.9252 28.1465 17.9203 28.324C17.9158 28.4824 17.9277 28.6409 17.9557 28.7968C17.9862 28.967 18.0359 29.1341 18.1045 29.2948C18.1391 29.3757 18.1784 29.4549 18.2225 29.5321C19.5426 28.8758 21.0724 28.7612 22.4754 29.2137C22.5076 29.1308 22.5347 29.0466 22.5568 28.9615C22.6007 28.7924 22.625 28.6197 22.6298 28.4469C22.6343 28.2886 22.6224 28.1301 22.5945 27.9741C22.5631 27.7993 22.5115 27.6276 22.4399 27.4628ZM21.2079 30.5491C21.524 30.4131 21.8152 30.2051 22.0559 29.9271C21.7283 29.8344 21.3945 29.7771 21.0598 29.7548C20.6066 29.7246 20.1516 29.7587 19.7079 29.856C19.3802 29.9279 19.0587 30.0342 18.7486 30.1747C19.0279 30.4137 19.3468 30.576 19.6797 30.6635C20.1868 30.7967 20.7263 30.7564 21.2079 30.5491Z" fill="#484848"/>
<path fill-rule="evenodd" clip-rule="evenodd" d="M25.631 4.66121L12.7348 20.5546L12.1308 20.0646L25.027 4.17115L25.631 4.66121Z" fill="#484848"/>
<path fill-rule="evenodd" clip-rule="evenodd" d="M22.1346 3.86885L11.1921 17.4364L10.5867 16.9482L21.5291 3.38057L22.1346 3.86885Z" fill="#484848"/>
<path fill-rule="evenodd" clip-rule="evenodd" d="M29.2174 10.0895L18.9001 23.3412L18.2864 22.8633L28.6037 9.61173L29.2174 10.0895Z" fill="#484848"/>
<path fill-rule="evenodd" clip-rule="evenodd" d="M27.9586 6.99892L15.4514 22.8943L14.8401 22.4133L27.3474 6.51796L27.9586 6.99892Z" fill="#484848"/>
<path fill-rule="evenodd" clip-rule="evenodd" d="M28.286 15.2657L15.5093 6.08279L15.9633 5.45121L28.74 14.6342L28.286 15.2657Z" fill="#484848"/>
<path fill-rule="evenodd" clip-rule="evenodd" d="M26.2181 18.9289L12.6077 9.02842L13.0653 8.39945L26.6757 18.2999L26.2181 18.9289Z" fill="#484848"/>
<path fill-rule="evenodd" clip-rule="evenodd" d="M23.3212 21.8771L10.5445 12.6941L10.9984 12.0625L23.7751 21.2455L23.3212 21.8771Z" fill="#484848"/>
<path d="M12.4063 26.9206L9.69019 25.3543L6.55916 30.3976L8.88634 31.9623L12.4063 26.9206Z" fill="#B7DFB9"/>
<path fill-rule="evenodd" clip-rule="evenodd" d="M13.6769 27.5815L10.4594 32.3921C9.98396 33.103 9.02373 33.2967 8.30982 32.8258L6.85939 31.8689C6.14228 31.3958 5.94446 30.431 6.41755 29.7138L9.60178 24.8872L10.9002 25.7438L7.716 30.5704L9.16643 31.5273L12.3839 26.7167L13.6769 27.5815Z" fill="#484848"/>
<path fill-rule="evenodd" clip-rule="evenodd" d="M12.1656 8.24815C15.5268 3.15314 21.8219 1.0525 26.2935 4.0025C30.7652 6.9525 31.3112 13.5663 27.9499 18.6613C24.5887 23.7564 18.2936 25.857 13.8219 22.907C12.4629 22.0104 11.4605 20.7617 10.8248 19.3202C9.38362 16.0546 9.81439 11.8121 12.1656 8.24815ZM25.4369 5.30095C21.908 2.97283 16.5162 4.47832 13.464 9.10476C11.3624 12.2904 11.0492 15.9758 12.2479 18.6922L12.248 18.6924C12.7724 19.8815 13.5873 20.8886 14.6786 21.6086C18.2075 23.9367 23.5993 22.4312 26.6515 17.8047C29.7036 13.1783 28.9659 7.62906 25.4369 5.30095Z" fill="#484848"/>
<path fill-rule="evenodd" clip-rule="evenodd" d="M16.6017 25.1721C15.4804 25.8021 14.2955 26.6443 13.6771 27.5818L13.2488 28.231L9.1709 25.5408L9.5992 24.8916C10.2177 23.9541 10.5257 22.5334 10.6636 21.2547C10.7307 20.6316 10.7546 20.0729 10.7617 19.6702C10.7652 19.4692 10.7644 19.3082 10.7629 19.1987C10.7621 19.144 10.7612 19.1023 10.7604 19.075L10.7595 19.045L10.7593 19.0384L10.7592 19.0375C10.7592 19.0376 10.7592 19.0378 11.5364 19.0068C12.3136 18.9758 12.3136 18.976 12.3136 18.9761L12.3136 18.9777L12.3138 18.9811L12.3142 18.9923L12.3154 19.032C12.3163 19.066 12.3174 19.1148 12.3183 19.1768C12.32 19.3008 12.3208 19.4783 12.317 19.6973C12.3094 20.1344 12.2835 20.7412 12.2102 21.4214C12.0913 22.5238 11.8395 23.9077 11.2803 25.0688L12.8526 26.1061C13.7 25.1351 14.8732 24.359 15.8398 23.816C16.4363 23.4809 16.984 23.2183 17.3828 23.0393C17.5826 22.9496 17.7461 22.8805 17.8608 22.8333C17.9181 22.8097 17.9634 22.7915 17.995 22.779L18.032 22.7645L18.0425 22.7604L18.0467 22.7588C18.0469 22.7587 18.0474 22.7585 18.3248 23.4852C18.6021 24.2118 18.6022 24.2118 18.6023 24.2117L18.6015 24.2121L18.5954 24.2144L18.5675 24.2254C18.542 24.2355 18.5033 24.251 18.4527 24.2718C18.3514 24.3135 18.2031 24.3762 18.0198 24.4585C17.6523 24.6234 17.148 24.8652 16.6017 25.1721Z" fill="#484848"/>
</svg>
