<svg width="18" height="18" viewBox="0 0 18 18" fill="none" xmlns="http://www.w3.org/2000/svg">
<path d="M15.1815 13.8634H14.0703C13.8942 13.8634 13.7357 13.7589 13.6663 13.5971L12.6962 11.3333C12.2108 10.2008 11.101 9.46895 9.86883 9.46895H9.41022V5.95345H9.84967C10.25 5.95345 10.4425 5.45749 10.1443 5.18799L6.18938 1.61389C6.02207 1.46269 5.76742 1.46269 5.60011 1.61389L1.64515 5.18799C1.34688 5.45752 1.53945 5.95345 1.93979 5.95345H2.37924C2.37924 6.05001 2.37924 15.5247 2.37924 15.6211H1.93979C1.6971 15.6211 1.50034 15.8179 1.50034 16.0605C1.50034 16.3032 1.6971 16.5 1.93979 16.5H2.81866C3.06135 16.5 3.25811 16.3032 3.25811 16.0605V13.8634H4.13698V16.0605C4.13698 16.3032 4.33373 16.5 4.57643 16.5C4.81912 16.5 5.01587 16.3032 5.01587 16.0605V15.6211H6.77364V16.0605C6.77364 16.3032 6.9704 16.5 7.21309 16.5C7.45578 16.5 7.65254 16.3032 7.65254 16.0605V13.8634H8.53141V16.0605C8.53141 16.3032 8.72817 16.5 8.97086 16.5H9.84973C10.0924 16.5 10.2892 16.3032 10.2892 16.0605C10.2892 15.8179 10.0924 15.6211 9.84973 15.6211H9.41028C9.41028 15.451 9.41028 12.2494 9.41028 12.1056H10.0235C10.1996 12.1056 10.3581 12.2101 10.4275 12.3719L11.6259 15.1683C11.9726 15.9773 12.7653 16.5 13.6454 16.5H15.1816C15.9085 16.5 16.4999 15.9086 16.4999 15.1817C16.4999 14.4531 15.9102 13.8634 15.1815 13.8634ZM4.13695 12.9845H3.25808V12.1056H4.13695V12.9845ZM6.77358 14.7423H5.01582V13.8634H6.77358V14.7423ZM6.77358 12.9845H5.01582V12.1056H6.77358V12.9845ZM8.53135 12.9845H7.65248V12.1056H8.53135V12.9845ZM8.53135 11.2268H3.25808V5.95348H8.53135V11.2268ZM3.08142 5.07458L5.89471 2.53222L8.70801 5.07458H3.08142ZM15.1815 15.6211H13.6453C13.1173 15.6211 12.6416 15.3075 12.4336 14.8221L11.2352 12.0257C11.0271 11.5403 10.5515 11.2268 10.0235 11.2268H9.41022V10.3479H9.86883C10.749 10.3479 11.5417 10.8706 11.8884 11.6796L12.8585 13.9433C13.0666 14.4287 13.5422 14.7423 14.0703 14.7423H15.1815C15.4244 14.7423 15.621 14.9388 15.621 15.1817C15.621 15.424 15.4238 15.6211 15.1815 15.6211Z" fill="#484848"/>
<path d="M5.89449 6.83203C4.92527 6.83203 4.13672 7.62055 4.13672 8.5898C4.13672 9.55902 4.92524 10.3476 5.89449 10.3476C6.86371 10.3476 7.65225 9.55905 7.65225 8.5898C7.65225 7.62058 6.86371 6.83203 5.89449 6.83203ZM5.89449 9.46867C5.40986 9.46867 5.01562 9.07439 5.01562 8.5898C5.01562 8.1052 5.40989 7.71093 5.89449 7.71093C6.37911 7.71093 6.77336 8.1052 6.77336 8.5898C6.77336 9.07439 6.37911 9.46867 5.89449 9.46867Z" fill="black"/>
</svg>
