<svg width="36" height="36" viewBox="0 0 36 36" fill="none" xmlns="http://www.w3.org/2000/svg">
<path fill-rule="evenodd" clip-rule="evenodd" d="M28.2032 4.71921C26.5758 4.71279 25.2479 6.03812 25.2414 7.68425C25.2395 8.15939 24.8563 8.54306 24.3854 8.5412C23.9145 8.53934 23.5343 8.15266 23.5362 7.67753C23.5464 5.07945 25.6425 2.98846 28.21 2.99858C30.7784 3.00871 32.857 5.12274 32.8468 7.71424C32.845 8.18938 32.4617 8.57305 31.9908 8.57119C31.5199 8.56934 31.1397 8.18266 31.1416 7.70752C31.1481 6.06629 29.8298 4.72562 28.2032 4.71921Z" fill="#484848"/>
<path fill-rule="evenodd" clip-rule="evenodd" d="M24.3975 6.82099C24.8684 6.82285 25.2487 7.20953 25.2468 7.68466L25.1877 22.6541C25.1859 23.1292 24.8026 23.5129 24.3317 23.511C23.8608 23.5092 23.4806 23.1225 23.4825 22.6474L23.5415 7.67794C23.5434 7.2028 23.9267 6.81913 24.3975 6.82099Z" fill="#484848"/>
<path fill-rule="evenodd" clip-rule="evenodd" d="M14.0441 4.66354C12.4167 4.65713 11.0887 5.98246 11.0822 7.62859C11.0804 8.10372 10.6971 8.48739 10.2262 8.48554C9.75532 8.48368 9.37511 8.097 9.37698 7.62186C9.38723 5.02379 11.4833 2.93279 14.0508 2.94292C16.6192 2.95305 18.6979 5.06708 18.6877 7.65858C18.6858 8.13372 18.3025 8.51739 17.8316 8.51553C17.3607 8.51367 16.9805 8.12699 16.9824 7.65186C16.9889 6.01063 15.6706 4.66996 14.0441 4.66354Z" fill="#484848"/>
<path fill-rule="evenodd" clip-rule="evenodd" d="M10.2384 6.76508C10.7093 6.76694 11.0895 7.15362 11.0876 7.62876L11.0272 22.9423C11.0253 23.4174 10.6421 23.8011 10.1712 23.7993C9.7003 23.7974 9.32008 23.4107 9.32196 22.9356L9.38235 7.62203C9.38422 7.14689 9.76748 6.76322 10.2384 6.76508Z" fill="#484848"/>
<path fill-rule="evenodd" clip-rule="evenodd" d="M24.2548 18.5435L9.86821 18.4867L9.875 16.7661L24.2616 16.8228L24.2548 18.5435Z" fill="#484848"/>
<path fill-rule="evenodd" clip-rule="evenodd" d="M24.2783 12.4529L9.89165 12.3962L9.89844 10.6755L24.2851 10.7323L24.2783 12.4529Z" fill="#484848"/>
<path d="M3.60979 28.8322L3.62666 24.5544C4.53202 25.0766 6.88686 26.2009 9.0634 26.5206C11.7841 26.9202 12.963 23.8137 16.8457 25.3846C20.7282 26.9554 22.6772 25.7964 24.6261 24.6375L24.6265 24.6372C26.1857 23.71 30.199 25.0481 32.0107 25.833L31.9893 31.2774C30.5664 30.494 27.3312 29.0813 25.7732 29.6973C23.8257 30.4674 21.0989 31.6234 16.8273 30.051C12.5557 28.4785 13.7132 30.8165 9.8243 30.8011C6.71321 30.7889 4.38501 29.4834 3.60979 28.8322Z" fill="#B7DFB9"/>
<path fill-rule="evenodd" clip-rule="evenodd" d="M3.24572 24.2515C3.39949 23.8024 3.88496 23.5641 4.33004 23.7192L8.25891 25.0885C9.35902 25.4731 10.562 25.4435 11.6401 25.0046L12.7842 24.5389C12.7841 24.539 12.7843 24.5389 12.7842 24.5389C14.1809 23.9698 15.7302 23.9107 17.1642 24.3576L19.3604 25.0427C19.3606 25.0428 19.3608 25.0429 19.361 25.0429C20.3806 25.3592 21.4733 25.329 22.4697 24.9577L24.4318 24.2267L24.4569 24.2174L24.7319 24.115L24.741 24.115C25.8537 23.7406 27.0408 23.7715 28.1211 24.0867L31.3979 25.0462C31.8501 25.1786 32.1103 25.6559 31.9791 26.1122C31.8478 26.5685 31.3748 26.8311 30.9225 26.6986L27.6473 25.7396C27.6472 25.7396 27.6474 25.7396 27.6473 25.7396C26.8307 25.5014 25.9805 25.4982 25.2273 25.7656C25.1915 25.7809 25.1589 25.7921 25.1312 25.8003L23.0604 26.5718C23.0603 26.5718 23.0604 26.5718 23.0604 26.5718C21.7116 27.0744 20.2349 27.1144 18.8589 26.6873L16.6609 26.0016C16.6608 26.0016 16.661 26.0016 16.6609 26.0016C15.5971 25.6702 14.4512 25.7152 13.4227 26.1343L12.2781 26.6002C12.2781 26.6002 12.2781 26.6002 12.2781 26.6002C10.817 27.1951 9.18915 27.2347 7.70095 26.7145C7.70081 26.7144 7.7011 26.7145 7.70095 26.7145L3.77319 25.3455C3.3281 25.1904 3.09195 24.7006 3.24572 24.2515Z" fill="#484848"/>
<path fill-rule="evenodd" clip-rule="evenodd" d="M3.22717 28.9143C3.38094 28.4652 3.8664 28.2269 4.31148 28.382L8.24036 29.7514C9.34047 30.136 10.5435 30.1064 11.6215 29.6674L12.7656 29.2018C12.7655 29.2018 12.7658 29.2017 12.7656 29.2018C14.1624 28.6326 15.7116 28.5736 17.1456 29.0204L19.3418 29.7056C19.342 29.7056 19.3423 29.7057 19.3425 29.7058C20.3621 30.0221 21.4547 29.9919 22.4511 29.6205L24.4133 28.8896L24.4377 28.8805L24.7134 28.7778L24.7225 28.7778C25.8352 28.4035 27.0222 28.4344 28.1025 28.7495L28.1033 28.7497L31.3794 29.709C31.8316 29.8414 32.0918 30.3187 31.9605 30.775C31.8292 31.2313 31.3562 31.4939 30.904 31.3615L27.6288 30.4024C27.6286 30.4024 27.6289 30.4025 27.6288 30.4024C26.8122 30.1643 25.9619 30.161 25.2087 30.4284C25.173 30.4438 25.1403 30.455 25.1127 30.4632L23.0418 31.2346C23.0418 31.2346 23.0418 31.2346 23.0418 31.2346C21.6931 31.7372 20.2164 31.7772 18.8404 31.3502L16.6423 30.6644C16.6422 30.6644 16.6424 30.6645 16.6423 30.6644C15.5785 30.333 14.4327 30.378 13.4042 30.7972L12.2595 31.2631C12.2595 31.2631 12.2596 31.2631 12.2595 31.2631C10.7985 31.8579 9.1706 31.8975 7.6824 31.3773C7.68226 31.3773 7.68254 31.3774 7.6824 31.3773L3.75463 30.0084C3.30955 29.8533 3.0734 29.3634 3.22717 28.9143Z" fill="#484848"/>
</svg>
