<svg width="18" height="18" viewBox="0 0 18 18" fill="none" xmlns="http://www.w3.org/2000/svg">
<g clip-path="url(#clip0_2601_15630)">
<mask id="mask0_2601_15630" style="mask-type:luminance" maskUnits="userSpaceOnUse" x="0" y="0" width="18" height="18">
<path d="M0.75 0.750002H17.25V17.25H0.75V0.750002Z" fill="white"/>
</mask>
<g mask="url(#mask0_2601_15630)">
<path fill-rule="evenodd" clip-rule="evenodd" d="M2.26498 14.2019C1.90013 14.0651 1.50533 13.9187 0.75 13.9187V14.7163C1.36521 14.7163 1.65811 14.8262 1.97804 14.9461L1.98492 14.9487C2.34977 15.0856 2.74458 15.2319 3.49992 15.2319C4.25527 15.2319 4.65008 15.0856 5.01493 14.9487L5.02181 14.9461C5.34174 14.8262 5.63464 14.7163 6.24985 14.7163C6.86508 14.7163 7.15799 14.8262 7.47792 14.9462L7.48479 14.9487C7.84964 15.0856 8.24444 15.2319 8.99977 15.2319C9.75512 15.2319 10.1499 15.0856 10.5148 14.9487L10.5217 14.9462C10.8416 14.8262 11.1345 14.7163 11.7498 14.7163C12.365 14.7163 12.658 14.8262 12.9779 14.9462L12.9848 14.9487C13.3497 15.0856 13.7445 15.2319 14.4999 15.2319C15.2553 15.2319 15.6501 15.0856 16.015 14.9487L16.0218 14.9462C16.3418 14.8262 16.6347 14.7163 17.25 14.7163V13.9187C16.4946 13.9187 16.0998 14.0651 15.7349 14.2019L15.728 14.2045C15.4081 14.3245 15.1151 14.4343 14.4999 14.4343C13.8846 14.4343 13.5917 14.3245 13.2717 14.2045L13.2648 14.2019C12.9 14.0651 12.5051 13.9187 11.7498 13.9187C10.9944 13.9187 10.5996 14.0651 10.2347 14.2019L10.2278 14.2045C9.90791 14.3245 9.615 14.4343 8.99977 14.4343C8.38456 14.4343 8.09166 14.3245 7.77173 14.2045L7.76486 14.2019C7.4 14.0651 7.00519 13.9187 6.24985 13.9187C5.49452 13.9187 5.09972 14.0651 4.73487 14.2019L4.728 14.2045C4.40807 14.3245 4.11516 14.4343 3.49992 14.4343C2.88469 14.4343 2.59178 14.3245 2.27185 14.2045L2.26498 14.2019Z" fill="#484848"/>
<path fill-rule="evenodd" clip-rule="evenodd" d="M2.26498 16.1355C1.90013 15.9987 1.50533 15.8523 0.75 15.8523V16.6499C1.36521 16.6499 1.65811 16.7598 1.97804 16.8797L1.98492 16.8823C2.34977 17.0191 2.74458 17.1655 3.49992 17.1655C4.25527 17.1655 4.65008 17.0191 5.01493 16.8823L5.02181 16.8797C5.34174 16.7598 5.63464 16.6499 6.24985 16.6499C6.86508 16.6499 7.15799 16.7598 7.47792 16.8797L7.48479 16.8823C7.84964 17.0191 8.24444 17.1655 8.99977 17.1655C9.75512 17.1655 10.1499 17.0191 10.5148 16.8823L10.5217 16.8797C10.8416 16.7598 11.1345 16.6499 11.7498 16.6499C12.365 16.6499 12.658 16.7598 12.9779 16.8797L12.9848 16.8823C13.3497 17.0191 13.7445 17.1655 14.4999 17.1655C15.2553 17.1655 15.6501 17.0191 16.015 16.8823L16.0218 16.8797C16.3418 16.7598 16.6347 16.6499 17.25 16.6499V15.8523C16.4946 15.8523 16.0998 15.9987 15.7349 16.1355L15.728 16.1381C15.4081 16.2581 15.1151 16.3679 14.4999 16.3679C13.8846 16.3679 13.5917 16.2581 13.2717 16.1381L13.2648 16.1355C12.9 15.9987 12.5051 15.8523 11.7498 15.8523C10.9944 15.8523 10.5996 15.9987 10.2347 16.1355L10.2278 16.1381C9.90791 16.2581 9.615 16.3679 8.99977 16.3679C8.38456 16.3679 8.09166 16.2581 7.77173 16.1381L7.76486 16.1355C7.4 15.9987 7.00519 15.8523 6.24985 15.8523C5.49452 15.8523 5.09972 15.9987 4.73487 16.1355L4.728 16.1381C4.40807 16.2581 4.11516 16.3679 3.49992 16.3679C2.88469 16.3679 2.59178 16.2581 2.27185 16.1381L2.26498 16.1355Z" fill="#484848"/>
<path fill-rule="evenodd" clip-rule="evenodd" d="M2.26498 12.2683C1.90013 12.1315 1.50533 11.9851 0.75 11.9851V12.7827C1.36521 12.7827 1.65811 12.8926 1.97804 13.0126L1.98492 13.0151C2.34977 13.152 2.74458 13.2983 3.49992 13.2983C4.25527 13.2983 4.65008 13.152 5.01493 13.0151L5.02181 13.0126C5.34174 12.8926 5.63464 12.7827 6.24985 12.7827C6.86508 12.7827 7.15799 12.8926 7.47792 13.0126L7.48479 13.0151C7.84964 13.152 8.24444 13.2983 8.99977 13.2983C9.75512 13.2983 10.1499 13.152 10.5148 13.0151L10.5217 13.0126C10.8416 12.8926 11.1345 12.7827 11.7498 12.7827C12.365 12.7827 12.658 12.8926 12.9779 13.0126L12.9848 13.0151C13.3497 13.152 13.7445 13.2983 14.4999 13.2983C15.2553 13.2983 15.6501 13.152 16.015 13.0151L16.0218 13.0126C16.3418 12.8926 16.6347 12.7827 17.25 12.7827V11.9851C16.4946 11.9851 16.0998 12.1315 15.7349 12.2683L15.728 12.2709C15.4081 12.3909 15.1151 12.5007 14.4999 12.5007C13.8846 12.5007 13.5917 12.3909 13.2717 12.2709L13.2648 12.2683C12.9 12.1315 12.5051 11.9851 11.7498 11.9851C10.9944 11.9851 10.5996 12.1315 10.2347 12.2683L10.2278 12.2709C9.90791 12.3909 9.615 12.5007 8.99977 12.5007C8.38456 12.5007 8.09166 12.3909 7.77173 12.2709L7.76486 12.2683C7.4 12.1315 7.00519 11.9851 6.24985 11.9851C5.49452 11.9851 5.09972 12.1315 4.73487 12.2683L4.728 12.2709C4.40807 12.3909 4.11516 12.5007 3.49992 12.5007C2.88469 12.5007 2.59178 12.3909 2.27185 12.2709L2.26498 12.2683Z" fill="#484848"/>
<path fill-rule="evenodd" clip-rule="evenodd" d="M3.9873 7.94043H14.0129V0.834827H3.9873V7.94043ZM4.78491 7.14282V1.63243H13.2153V7.14282H4.78491Z" fill="#484848"/>
<path fill-rule="evenodd" clip-rule="evenodd" d="M12.2227 5.22583H5.77734V6.02344H12.2227V5.22583Z" fill="#484848"/>
<path fill-rule="evenodd" clip-rule="evenodd" d="M5.86133 3.57422H12.1375V1.23341H11.3398V2.77661H6.65894V1.23341H5.86133V3.57422Z" fill="#484848"/>
<path fill-rule="evenodd" clip-rule="evenodd" d="M10.9333 10.9495L11.2556 5.64887L10.4595 5.60047L10.1372 10.9011L10.9333 10.9495Z" fill="#484848"/>
<path fill-rule="evenodd" clip-rule="evenodd" d="M7.86254 10.9011L7.54028 5.60047L6.74414 5.64887L7.06641 10.9495L7.86254 10.9011Z" fill="#484848"/>
<path fill-rule="evenodd" clip-rule="evenodd" d="M10.6231 9.07642H7.37549V9.87402H10.6231V9.07642Z" fill="#484848"/>
</g>
</g>
<defs>
<clipPath id="clip0_2601_15630">
<rect width="18" height="18" fill="white"/>
</clipPath>
</defs>
</svg>
