<svg width="16" height="18" viewBox="0 0 16 18" fill="none" xmlns="http://www.w3.org/2000/svg">
<path d="M0.998657 13.5L0.25 12.7627L3.26217 9.75305C3.61496 9.40056 3.85284 8.97032 3.97582 8.46232C4.09879 7.95434 4.16028 7.17597 4.16028 6.12722C4.16028 5.47847 4.30526 4.84091 4.5952 4.21454C4.88515 3.58816 5.29674 3.00858 5.82997 2.4758C6.82009 1.48648 7.90778 0.921865 9.09305 0.781943C10.2783 0.642021 11.2535 0.961778 12.0185 1.74121C12.7914 2.51549 13.1078 3.4941 12.9678 4.67704C12.8277 5.85997 12.2662 6.94251 11.2833 7.92466C10.7501 8.45743 10.1713 8.86643 9.54698 9.15165C8.92265 9.43688 8.28328 9.57949 7.62887 9.57949C6.58668 9.57949 5.81424 9.64026 5.31155 9.76179C4.80885 9.88333 4.37527 10.1262 4.01081 10.4903L0.998657 13.5ZM5.81917 7.90045C6.36765 8.44131 7.10868 8.63953 8.04226 8.49512C8.97584 8.35071 9.81023 7.91121 10.5454 7.17662C11.2923 6.43037 11.7375 5.59375 11.8812 4.66677C12.0248 3.73979 11.8246 3.01394 11.2806 2.48923C10.725 1.93853 9.99381 1.73425 9.08715 1.87641C8.1805 2.01857 7.34791 2.46165 6.58937 3.20563C5.85417 3.93801 5.40669 4.76656 5.2469 5.69129C5.08712 6.61604 5.27787 7.35242 5.81917 7.90045Z" fill="#484848"/>
<ellipse cx="10.1757" cy="9.34068" rx="3.12681" ry="3.77424" transform="rotate(48.654 10.1757 9.34068)" fill="white"/>
<path d="M3.20462 17.25L2.5 16.5561L5.33498 13.7235C5.66702 13.3917 5.89091 12.9868 6.00665 12.5087C6.12239 12.0306 6.18027 11.298 6.18027 10.3109C6.18027 9.70033 6.31671 9.10027 6.5896 8.51074C6.86249 7.92121 7.24987 7.37572 7.75173 6.87428C8.68361 5.94316 9.70733 5.41176 10.8229 5.28006C11.9384 5.14837 12.8562 5.44932 13.5762 6.18291C14.3037 6.91164 14.6015 7.83268 14.4697 8.94603C14.3379 10.0594 13.8094 11.0782 12.8843 12.0026C12.3824 12.5041 11.8377 12.889 11.2501 13.1574C10.6625 13.4259 10.0607 13.5601 9.44482 13.5601C8.46393 13.5601 7.73693 13.6173 7.26381 13.7317C6.79068 13.8461 6.38261 14.0746 6.03959 14.4174L3.20462 17.25ZM7.74157 11.9798C8.25778 12.4889 8.95523 12.6754 9.83389 12.5395C10.7126 12.4036 11.4979 11.99 12.1898 11.2986C12.8927 10.5962 13.3118 9.80882 13.447 8.93637C13.5822 8.06392 13.3938 7.38077 12.8818 6.88693C12.3588 6.36861 11.6706 6.17635 10.8173 6.31015C9.964 6.44395 9.18038 6.86096 8.46647 7.56119C7.77452 8.25048 7.35335 9.03029 7.20297 9.90063C7.05258 10.771 7.23212 11.464 7.74157 11.9798Z" fill="#484848"/>
</svg>
