<svg width="18" height="18" viewBox="0 0 18 18" fill="none" xmlns="http://www.w3.org/2000/svg">
<path fill-rule="evenodd" clip-rule="evenodd" d="M15.375 3.975H2.625C2.12794 3.975 1.725 4.37794 1.725 4.875V9.375C1.725 9.87206 2.12794 10.275 2.625 10.275H15.375C15.8721 10.275 16.275 9.87206 16.275 9.375V4.875C16.275 4.37794 15.8721 3.975 15.375 3.975ZM2.625 3C1.58947 3 0.75 3.83947 0.75 4.875V9.375C0.75 10.4105 1.58947 11.25 2.625 11.25H15.375C16.4105 11.25 17.25 10.4105 17.25 9.375V4.875C17.25 3.83947 16.4105 3 15.375 3H2.625Z" fill="#484848"/>
<path fill-rule="evenodd" clip-rule="evenodd" d="M13.5 6.225H4.5C4.21005 6.225 3.975 6.46005 3.975 6.75V7.5C3.975 7.78995 4.21005 8.025 4.5 8.025H13.5C13.7899 8.025 14.025 7.78995 14.025 7.5V6.75C14.025 6.46005 13.7899 6.225 13.5 6.225ZM4.5 5.25C3.67157 5.25 3 5.92157 3 6.75V7.5C3 8.32843 3.67157 9 4.5 9H13.5C14.3284 9 15 8.32843 15 7.5V6.75C15 5.92157 14.3284 5.25 13.5 5.25H4.5Z" fill="#484848"/>
<path fill-rule="evenodd" clip-rule="evenodd" d="M2.24971 10.7626C2.51895 10.7626 2.73721 10.9808 2.73721 11.2501V14.2501C2.73721 14.5193 2.51895 14.7376 2.24971 14.7376C1.98047 14.7376 1.76221 14.5193 1.76221 14.2501V11.2501C1.76221 10.9808 1.98047 10.7626 2.24971 10.7626Z" fill="#484848"/>
<path fill-rule="evenodd" clip-rule="evenodd" d="M15.7497 10.7626C16.0189 10.7626 16.2372 10.9808 16.2372 11.2501V14.2501C16.2372 14.5193 16.0189 14.7376 15.7497 14.7376C15.4805 14.7376 15.2622 14.5193 15.2622 14.2501V11.2501C15.2622 10.9808 15.4805 10.7626 15.7497 10.7626Z" fill="#484848"/>
<path fill-rule="evenodd" clip-rule="evenodd" d="M4.49971 10.7626C4.76895 10.7626 4.98721 10.9808 4.98721 11.2501L4.98721 12.7501C4.98721 13.0193 4.76895 13.2376 4.49971 13.2376C4.23047 13.2376 4.01221 13.0193 4.01221 12.7501L4.01221 11.2501C4.01221 10.9808 4.23047 10.7626 4.49971 10.7626Z" fill="#484848"/>
<path fill-rule="evenodd" clip-rule="evenodd" d="M12.7497 10.7626C13.0189 10.7626 13.2372 10.9808 13.2372 11.2501L13.2372 12.7501C13.2372 13.0193 13.0189 13.2376 12.7497 13.2376C12.4805 13.2376 12.2622 13.0193 12.2622 12.7501L12.2622 11.2501C12.2622 10.9808 12.4805 10.7626 12.7497 10.7626Z" fill="#484848"/>
</svg>
