<svg width="16" height="16" viewBox="0 0 16 16" fill="none" xmlns="http://www.w3.org/2000/svg">
<path d="M3.33299 12.6673H4.17401L10.9984 5.84292L10.1574 5.0019L3.33299 11.8263V12.6673ZM2.33301 13.6673V11.4109L11.1266 2.62117C11.2274 2.5296 11.3387 2.45885 11.4605 2.4089C11.5824 2.35896 11.7101 2.33398 11.8438 2.33398C11.9774 2.33398 12.1069 2.35771 12.2322 2.40515C12.3575 2.45258 12.4684 2.52801 12.565 2.63142L13.3791 3.45577C13.4825 3.55235 13.5563 3.66348 13.6003 3.78917C13.6443 3.91485 13.6663 4.04052 13.6663 4.1662C13.6663 4.30026 13.6434 4.42819 13.5976 4.55C13.5518 4.67182 13.479 4.78314 13.3791 4.88395L4.58939 13.6673H2.33301ZM10.5705 5.42979L10.1574 5.0019L10.9984 5.84292L10.5705 5.42979Z" fill="#484848"/>
</svg>
