<svg width="18" height="18" viewBox="0 0 18 18" fill="none" xmlns="http://www.w3.org/2000/svg">
<path fill-rule="evenodd" clip-rule="evenodd" d="M5.01562 4.20941C5.01562 4.03122 5.23105 3.94199 5.35705 4.06798L9.26874 7.97968C9.34685 8.05778 9.34685 8.18442 9.26874 8.26252L5.35705 12.1742C5.23105 12.3002 5.01562 12.211 5.01562 12.0328V10.5037C5.01562 10.3933 4.92608 10.3037 4.81563 10.3037H1.7C1.58954 10.3037 1.5 10.2142 1.5 10.1037V6.10919C1.5 5.99873 1.58954 5.90919 1.7 5.90919H4.81562C4.92608 5.90919 5.01562 5.81964 5.01562 5.70919V4.20941ZM5.89453 5.84843V6.58809C5.89453 6.69855 5.80499 6.78809 5.69453 6.78809H2.57891C2.46845 6.78809 2.37891 6.87763 2.37891 6.98809V9.42481H5.69453C5.80499 9.42481 5.89453 9.51435 5.89453 9.62481V10.3938L8.1672 8.1211L5.89453 5.84843Z" fill="#484848"/>
<path fill-rule="evenodd" clip-rule="evenodd" d="M6.77344 1.8C6.77344 1.63431 6.90775 1.5 7.07344 1.5H16.2C16.3657 1.5 16.5 1.63431 16.5 1.8V14.2355C16.5 14.365 16.4169 14.4798 16.2939 14.5204L10.683 16.3701C10.4889 16.4341 10.2891 16.2896 10.2891 16.0852V3.5964C10.2891 3.46691 10.3722 3.35203 10.4951 3.31149L13.324 2.37891H7.95234C7.78666 2.37891 7.65234 2.51322 7.65234 2.67891V6.5453H6.77344V1.8ZM15.6211 2.54705L11.168 4.01511V15.2848L15.6211 13.8168V2.54705Z" fill="#484848"/>
<path fill-rule="evenodd" clip-rule="evenodd" d="M12.0469 10.0944V8.33655H12.9258V10.0944H12.0469Z" fill="#484848"/>
<path fill-rule="evenodd" clip-rule="evenodd" d="M6.77344 9.69702H7.65234V13.5634C7.65234 13.7291 7.78666 13.8634 7.95234 13.8634H10.7285V14.7423H7.07344C6.90775 14.7423 6.77344 14.608 6.77344 14.4423V9.69702Z" fill="#484848"/>
</svg>
