<svg width="40" height="40" viewBox="0 0 40 40" fill="none" xmlns="http://www.w3.org/2000/svg">
<rect width="40" height="40" rx="20" fill="#484848" fill-opacity="0.05"/>
<path d="M26 24.6667C26 25.0333 25.8694 25.3472 25.6083 25.6083C25.3472 25.8694 25.0333 26 24.6667 26L15.3333 26C14.9667 26 14.6528 25.8694 14.3917 25.6083C14.1306 25.3472 14 25.0333 14 24.6667L14 20L15.3333 20L15.3333 24.6667L24.6667 24.6667L24.6667 20L26 20L26 24.6667ZM23.3333 17.3333L22.3667 18.25L20.6667 16.55L20.6667 22L19.3333 22L19.3333 16.55L17.6333 18.25L16.6667 17.3333L20 14L23.3333 17.3333Z" fill="#484848"/>
</svg>
