<svg width="18" height="18" viewBox="0 0 18 18" fill="none" xmlns="http://www.w3.org/2000/svg">
<path d="M14.606 15.4037L9.95889 10.771L10.7493 9.98067L15.3964 14.6278L14.606 15.4037ZM4.46947 14.6768C3.83967 13.9893 3.37236 13.2273 3.06755 12.3907C2.76275 11.5542 2.61035 10.7013 2.61035 9.83212C2.61035 8.90038 2.78319 7.99485 3.12886 7.11554C3.47454 6.23622 4.00315 5.44319 4.71468 4.73645C5.42621 4.02492 6.22356 3.4944 7.10673 3.14487C7.98991 2.79536 8.89255 2.62061 9.81465 2.62061C10.6887 2.62061 11.5408 2.77493 12.3711 3.08358C13.2014 3.39223 13.9627 3.86146 14.655 4.49126L4.46947 14.6768ZM4.59061 12.9518L5.77621 11.7662C5.57621 11.4941 5.38198 11.2109 5.19352 10.9167C5.00506 10.6225 4.83583 10.3186 4.68583 10.0052C4.53583 9.6917 4.41058 9.36742 4.3101 9.03232C4.20962 8.69722 4.13486 8.35755 4.08583 8.01331C3.78966 8.83736 3.68893 9.67944 3.78363 10.5395C3.87835 11.3996 4.14734 12.2037 4.59061 12.9518ZM6.60406 10.9759L10.9541 6.58835C10.4166 6.17585 9.87235 5.84629 9.32139 5.59966C8.77043 5.35302 8.25144 5.18644 7.76443 5.0999C7.2774 5.01336 6.83725 5.00615 6.44398 5.07826C6.05071 5.15037 5.74543 5.29509 5.52811 5.5124C5.3108 5.7374 5.16609 6.04654 5.09398 6.43981C5.02186 6.83307 5.02788 7.27514 5.11201 7.76602C5.19614 8.25688 5.36152 8.77707 5.60816 9.32658C5.8548 9.87611 6.18676 10.4259 6.60406 10.9759ZM11.7589 5.79798L12.9675 4.6124C12.1993 4.1547 11.3839 3.88018 10.5214 3.78884C9.65885 3.69749 8.81558 3.79894 7.99153 4.09319C8.34826 4.13742 8.69418 4.21217 9.02928 4.31746C9.36438 4.42275 9.68866 4.54847 10.0021 4.69462C10.3156 4.84078 10.6187 5.00809 10.9115 5.19654C11.2043 5.385 11.4868 5.58548 11.7589 5.79798Z" fill="#484848"/>
</svg>
