<svg width="16" height="16" viewBox="0 0 16 16" fill="none" xmlns="http://www.w3.org/2000/svg">
<path d="M14 12.6667C14 13.0333 13.8694 13.3472 13.6083 13.6083C13.3472 13.8694 13.0333 14 12.6667 14L3.33333 14C2.96667 14 2.65278 13.8694 2.39167 13.6083C2.13056 13.3472 2 13.0333 2 12.6667L2 8L3.33333 8L3.33333 12.6667L12.6667 12.6667L12.6667 8L14 8L14 12.6667ZM11.3333 5.33333L10.3667 6.25L8.66667 4.55L8.66667 10L7.33333 10L7.33333 4.55L5.63333 6.25L4.66667 5.33333L8 2L11.3333 5.33333Z" fill="#484848"/>
</svg>
