<svg width="17" height="20" viewBox="0 0 17 20" fill="none" xmlns="http://www.w3.org/2000/svg">
<path d="M3.52397 18.5505C2.25713 17.8191 1.43613 16.7533 1.06095 15.3532C0.685765 13.953 0.863876 12.6195 1.59528 11.3527L6.99915 1.9929C7.52535 1.0815 8.30033 0.488644 9.32409 0.214341C10.3478 -0.0599707 11.3154 0.0659736 12.2268 0.592174C13.1382 1.11837 13.7311 1.89335 14.0054 2.91709C14.2797 3.94084 14.1538 4.90841 13.6276 5.81982L8.75254 14.2636C8.4187 14.8418 7.93687 15.2153 7.30706 15.384C6.67724 15.5527 6.07318 15.4702 5.49488 15.1363C4.91658 14.8024 4.5431 14.3206 4.37446 13.6909C4.20584 13.0612 4.28845 12.4572 4.62229 11.879L9.49731 3.43522L10.5298 4.03135L5.65483 12.4751C5.48593 12.7677 5.4433 13.0701 5.52695 13.3822C5.61059 13.6944 5.7987 13.935 6.09125 14.1039C6.38381 14.2728 6.68618 14.3154 6.99837 14.2318C7.31055 14.1481 7.55109 13.96 7.72 13.6674L12.595 5.22368C12.9639 4.58481 13.055 3.91744 12.8684 3.22158C12.6818 2.52569 12.269 1.99327 11.63 1.6243C10.9909 1.25534 10.3236 1.16418 9.62816 1.35081C8.93271 1.53744 8.40056 1.95019 8.03171 2.58905L2.62785 11.9488C2.06503 12.9236 1.92932 13.9548 2.22073 15.0424C2.51214 16.13 3.14526 16.9552 4.12011 17.518C5.09495 18.0808 6.12615 18.2165 7.21371 17.9251C8.30128 17.6337 9.12647 17.0006 9.68929 16.0257L15.0932 6.66598L16.1257 7.26213L10.7218 16.6219C9.99044 17.8887 8.92465 18.7097 7.52449 19.0849C6.12431 19.4601 4.7908 19.2819 3.52397 18.5505Z" fill="#484848"/>
</svg>
