<svg width="24" height="24" viewBox="0 0 24 24" fill="none" xmlns="http://www.w3.org/2000/svg">
<path d="M3.25 11.75L5.25 11.75L5.25 18.75L19.25 18.75L19.25 11.75L21.25 11.75L21.25 18.75C21.25 19.3 21.0542 19.7708 20.6625 20.1625C20.2708 20.5542 19.8 20.75 19.25 20.75L5.25 20.75C4.7 20.75 4.22917 20.5542 3.8375 20.1625C3.44583 19.7708 3.25 19.3 3.25 18.75L3.25 11.75Z" fill="#484848"/>
<path d="M15.8 9.625L17.25 8.25L12.25 3.25L7.25 8.25L8.7 9.625L11.25 7.075L11.25 15.25L13.25 15.25L13.25 7.075L15.8 9.625Z" fill="#484848"/>
</svg>
