<svg width="18" height="18" viewBox="0 0 18 18" fill="none" xmlns="http://www.w3.org/2000/svg">
<path d="M5.34257 13.875C5.11103 13.875 4.91715 13.7998 4.76094 13.6494C4.60472 13.499 4.52661 13.3126 4.52661 13.0903C4.52661 12.868 4.60493 12.6818 4.76156 12.5318C4.91819 12.3818 5.11228 12.3068 5.34382 12.3068C5.57534 12.3068 5.76921 12.382 5.92543 12.5324C6.08164 12.6828 6.15975 12.8692 6.15975 13.0915C6.15975 13.3138 6.08143 13.5 5.9248 13.65C5.76817 13.8 5.57409 13.875 5.34257 13.875ZM8.99938 13.875C8.76784 13.875 8.57396 13.7998 8.41774 13.6494C8.26154 13.499 8.18344 13.3126 8.18344 13.0903C8.18344 12.868 8.26175 12.6818 8.41837 12.5318C8.575 12.3818 8.76908 12.3068 9.00062 12.3068C9.23216 12.3068 9.42604 12.382 9.58225 12.5324C9.73846 12.6828 9.81656 12.8692 9.81656 13.0915C9.81656 13.3138 9.73825 13.5 9.58163 13.65C9.425 13.8 9.23092 13.875 8.99938 13.875ZM12.6562 13.875C12.4247 13.875 12.2308 13.7998 12.0746 13.6494C11.9184 13.499 11.8402 13.3126 11.8402 13.0903C11.8402 12.868 11.9186 12.6818 12.0752 12.5318C12.2318 12.3818 12.4259 12.3068 12.6574 12.3068C12.889 12.3068 13.0828 12.382 13.2391 12.5324C13.3953 12.6828 13.4734 12.8692 13.4734 13.0915C13.4734 13.3138 13.3951 13.5 13.2384 13.65C13.0818 13.8 12.8877 13.875 12.6562 13.875ZM3 10.3636V9.0341C3 7.55343 3.50681 6.27246 4.52043 5.19121C5.53403 4.10996 6.79646 3.48866 8.30771 3.32729V1.5H9.69229V3.32729C11.2035 3.48866 12.466 4.10996 13.4796 5.19121C14.4932 6.27246 15 7.55343 15 9.0341V10.3636H3ZM4.3846 9.0341H13.6154C13.6154 7.80796 13.1654 6.76279 12.2654 5.89858C11.3654 5.03437 10.2769 4.60227 9 4.60227C7.72307 4.60227 6.63461 5.03437 5.7346 5.89858C4.8346 6.76279 4.3846 7.80796 4.3846 9.0341ZM5.34257 16.5C5.11103 16.5 4.91715 16.4248 4.76094 16.2744C4.60472 16.124 4.52661 15.9377 4.52661 15.7153C4.52661 15.493 4.60493 15.3068 4.76156 15.1568C4.91819 15.0068 5.11228 14.9318 5.34382 14.9318C5.57534 14.9318 5.76921 15.007 5.92543 15.1574C6.08164 15.3078 6.15975 15.4942 6.15975 15.7165C6.15975 15.9388 6.08143 16.125 5.9248 16.275C5.76817 16.425 5.57409 16.5 5.34257 16.5ZM8.99938 16.5C8.76784 16.5 8.57396 16.4248 8.41774 16.2744C8.26154 16.124 8.18344 15.9377 8.18344 15.7153C8.18344 15.493 8.26175 15.3068 8.41837 15.1568C8.575 15.0068 8.76908 14.9318 9.00062 14.9318C9.23216 14.9318 9.42604 15.007 9.58225 15.1574C9.73846 15.3078 9.81656 15.4942 9.81656 15.7165C9.81656 15.9388 9.73825 16.125 9.58163 16.275C9.425 16.425 9.23092 16.5 8.99938 16.5ZM12.6562 16.5C12.4247 16.5 12.2308 16.4248 12.0746 16.2744C11.9184 16.124 11.8402 15.9377 11.8402 15.7153C11.8402 15.493 11.9186 15.3068 12.0752 15.1568C12.2318 15.0068 12.4259 14.9318 12.6574 14.9318C12.889 14.9318 13.0828 15.007 13.2391 15.1574C13.3953 15.3078 13.4734 15.4942 13.4734 15.7165C13.4734 15.9388 13.3951 16.125 13.2384 16.275C13.0818 16.425 12.8877 16.5 12.6562 16.5Z" fill="#484848"/>
</svg>
