<svg width="24" height="24" viewBox="0 0 24 24" fill="none" xmlns="http://www.w3.org/2000/svg">
<rect x="0.5" y="0.5" width="23" height="23" rx="11.5" fill="#4CAF50" fill-opacity="0.2"/>
<rect x="0.5" y="0.5" width="23" height="23" rx="11.5" stroke="#4CAF50"/>
<path fill-rule="evenodd" clip-rule="evenodd" d="M15.5646 5.32819C16.1452 5.13465 17.3349 5.37321 18.3062 6.74094C18.8623 7.524 18.6599 8.36341 18.3713 8.94755C18.2252 9.24312 18.0494 9.49155 17.9117 9.66501C17.8425 9.75222 17.7818 9.82171 17.7379 9.87004C17.7159 9.89423 17.698 9.9132 17.6852 9.92653C17.6788 9.93319 17.6737 9.93845 17.6699 9.94225L17.6654 9.94685L17.6639 9.94832L17.6634 9.94884C17.6633 9.94893 17.663 9.94923 17.4424 9.72683L17.663 9.94923L9.81737 17.7332C9.81168 17.74 9.8046 17.7481 9.79611 17.7575C9.77569 17.7802 9.74704 17.8101 9.70975 17.8449C9.63521 17.9146 9.52585 18.004 9.37859 18.0936C9.08236 18.2738 8.63852 18.4509 8.02843 18.4726C7.4179 18.4943 6.87839 18.3515 6.42021 18.0367C5.96517 17.724 5.61277 17.2573 5.34594 16.667C5.08294 16.0852 5.35916 15.5275 5.67897 15.1306C6.00711 14.7233 6.45506 14.387 6.75063 14.1875C6.95622 14.0488 7.14405 13.9081 7.30521 13.7477L13.133 7.94759L13.9397 7.01388L13.9452 7.00649C13.9534 6.99545 13.9654 6.9794 13.9807 6.95903C14.0114 6.91828 14.0555 6.86016 14.1096 6.79008C14.2177 6.65015 14.3667 6.46143 14.5295 6.26769C14.6914 6.07492 14.8708 5.87248 15.0391 5.70732C15.1232 5.62483 15.2086 5.54765 15.2908 5.4845C15.3683 5.42497 15.4631 5.362 15.5646 5.32819ZM14.4365 7.39577L14.4294 7.4055L13.5917 8.37506L7.7472 14.1918C7.54524 14.3928 7.32018 14.5591 7.1011 14.7069C6.82262 14.8948 6.43607 15.1896 6.16686 15.5237C5.88932 15.8681 5.80534 16.1621 5.91688 16.4089C6.15034 16.9254 6.43841 17.289 6.77502 17.5203C7.10849 17.7494 7.51178 17.864 8.00616 17.8464C8.50098 17.8288 8.84128 17.6871 9.05296 17.5583C9.15965 17.4934 9.23519 17.4308 9.28205 17.3871C9.30547 17.3652 9.32165 17.3481 9.33089 17.3378C9.3355 17.3327 9.33837 17.3293 9.33953 17.3279C9.33952 17.328 9.33954 17.3279 9.33953 17.3279L9.3504 17.3139L17.2214 9.50479L17.2217 9.50444L17.2235 9.50266C17.2247 9.50138 17.2265 9.49954 17.2288 9.49715C17.2302 9.49579 17.2317 9.49424 17.2333 9.49252C17.2424 9.48304 17.2564 9.46824 17.2743 9.44853C17.3102 9.40906 17.3616 9.35022 17.421 9.27539C17.5406 9.12473 17.6889 8.91413 17.8096 8.66996C18.0543 8.17464 18.1562 7.6118 17.7954 7.10372C16.9329 5.88917 16.007 5.84116 15.7627 5.9226C15.7629 5.92252 15.7631 5.92248 15.7631 5.92249C15.7631 5.92251 15.7555 5.92541 15.7394 5.93499C15.7221 5.94528 15.6998 5.9604 15.6725 5.9814C15.6174 6.0237 15.5518 6.08212 15.4779 6.15462C15.3302 6.29943 15.1656 6.48451 15.0092 6.67066C14.8537 6.85585 14.7103 7.03747 14.6054 7.17313C14.5531 7.24085 14.5107 7.29685 14.4814 7.33577C14.4667 7.35523 14.4554 7.3704 14.4478 7.38063L14.4392 7.39216L14.4365 7.39577Z" fill="#484848"/>
<path d="M9.0913 14.5741C9.23291 14.5747 9.34816 14.4603 9.34872 14.3187C9.34928 14.1771 9.23493 14.0619 9.09332 14.0613C8.95171 14.0608 8.83646 14.1751 8.8359 14.3167C8.83534 14.4583 8.94969 14.5736 9.0913 14.5741Z" fill="#484848"/>
<path d="M9.91552 15.2345C10.0571 15.2351 10.1724 15.1207 10.1729 14.9791C10.1735 14.8375 10.0592 14.7223 9.91754 14.7217C9.77593 14.7212 9.66068 14.8355 9.66012 14.9771C9.65956 15.1187 9.77391 15.234 9.91552 15.2345Z" fill="#484848"/>
<path d="M8.42333 15.2126C8.56494 15.2131 8.68019 15.0988 8.68075 14.9572C8.68131 14.8156 8.56696 14.7003 8.42535 14.6997C8.28374 14.6992 8.16849 14.8135 8.16793 14.9551C8.16738 15.0967 8.28172 15.212 8.42333 15.2126Z" fill="#484848"/>
<path d="M9.24755 15.873C9.38916 15.8735 9.50441 15.7592 9.50497 15.6176C9.50553 15.476 9.39118 15.3607 9.24957 15.3601C9.10796 15.3596 8.99271 15.4739 8.99215 15.6155C8.99159 15.7572 9.10594 15.8724 9.24755 15.873Z" fill="#484848"/>
<path d="M14.4653 9.21598C14.6069 9.21654 14.7222 9.10219 14.7227 8.96058C14.7233 8.81897 14.609 8.70372 14.4673 8.70316C14.3257 8.7026 14.2105 8.81695 14.2099 8.95856C14.2094 9.10017 14.3237 9.21542 14.4653 9.21598Z" fill="#484848"/>
<path d="M15.2925 9.87638C15.4341 9.87694 15.5493 9.76259 15.5499 9.62098C15.5505 9.47937 15.4361 9.36412 15.2945 9.36356C15.1529 9.363 15.0376 9.47735 15.0371 9.61896C15.0365 9.76057 15.1509 9.87582 15.2925 9.87638Z" fill="#484848"/>
<path d="M13.7974 9.85441C13.939 9.85496 14.0542 9.74062 14.0548 9.59901C14.0553 9.4574 13.941 9.34215 13.7994 9.34159C13.6578 9.34103 13.5425 9.45537 13.542 9.59699C13.5414 9.7386 13.6557 9.85385 13.7974 9.85441Z" fill="#484848"/>
<path d="M14.6216 10.5148C14.7632 10.5154 14.8784 10.401 14.879 10.2594C14.8796 10.1178 14.7652 10.0025 14.6236 10.002C14.482 10.0014 14.3667 10.1158 14.3662 10.2574C14.3656 10.399 14.48 10.5142 14.6216 10.5148Z" fill="#484848"/>
<path d="M17.4227 11.92C17.7031 11.5023 17.6861 10.9996 17.3847 10.7972C17.0833 10.5948 16.6115 10.7694 16.3311 11.1872C16.0506 11.6049 16.0676 12.1077 16.369 12.31C16.6705 12.5124 17.1422 12.3378 17.4227 11.92Z" fill="#4CAF50"/>
<path fill-rule="evenodd" clip-rule="evenodd" d="M16.4451 11.8188C16.4495 11.9497 16.4977 12.019 16.5438 12.0499C16.5899 12.0808 16.6722 12.0992 16.7951 12.0538C16.9175 12.0084 17.0551 11.9057 17.1627 11.7454C17.2704 11.5851 17.3134 11.4189 17.309 11.2884C17.3045 11.1574 17.2563 11.0882 17.2102 11.0573C17.1641 11.0263 17.0818 11.0079 16.9589 11.0534C16.8365 11.0987 16.699 11.2014 16.5913 11.3618C16.4837 11.5221 16.4407 11.6883 16.4451 11.8188ZM15.8189 11.8399C15.8096 11.564 15.8983 11.27 16.0711 11.0125C16.2439 10.7551 16.4825 10.5617 16.7414 10.4658C16.9999 10.3702 17.3041 10.3656 17.5595 10.5371C17.8148 10.7085 17.9258 10.9918 17.9352 11.2672C17.9445 11.5432 17.8557 11.8372 17.6829 12.0946C17.5101 12.3521 17.2715 12.5455 17.0126 12.6414C16.7542 12.737 16.4499 12.7415 16.1946 12.5701C15.9392 12.3987 15.8282 12.1153 15.8189 11.8399Z" fill="#484848"/>
<path fill-rule="evenodd" clip-rule="evenodd" d="M15.437 11.8985C15.437 11.8984 15.4369 11.8983 15.6921 11.7166C15.9473 11.5349 15.9473 11.5348 15.9472 11.5348L15.947 11.5345C15.947 11.5344 15.947 11.5345 15.947 11.5345L15.9474 11.5351L15.9508 11.5397C15.9541 11.5441 15.9595 11.5513 15.9667 11.5607C15.9813 11.5796 16.0034 11.6074 16.0317 11.6405C16.089 11.7075 16.1686 11.7929 16.2607 11.8712C16.471 12.05 16.6322 12.0985 16.7321 12.0636L16.9384 12.6552C16.4893 12.8119 16.0789 12.539 15.8549 12.3485C15.7298 12.2422 15.6266 12.1309 15.5554 12.0475C15.5194 12.0054 15.4908 11.9695 15.4707 11.9435C15.4607 11.9305 15.4527 11.9199 15.4471 11.9122L15.4403 11.903L15.4382 11.9L15.4374 11.899L15.437 11.8985Z" fill="#484848"/>
<path d="M11.9822 17.3851C12.2627 16.9674 12.2457 16.4647 11.9443 16.2623C11.6428 16.0599 11.1711 16.2345 10.8906 16.6523C10.6102 17.07 10.6272 17.5727 10.9286 17.7751C11.23 17.9775 11.7018 17.8029 11.9822 17.3851Z" fill="#4CAF50"/>
<path fill-rule="evenodd" clip-rule="evenodd" d="M11.0047 17.2841C11.0091 17.4151 11.0573 17.4843 11.1034 17.5152C11.1495 17.5462 11.2318 17.5646 11.3547 17.5191C11.4771 17.4738 11.6146 17.3711 11.7223 17.2107C11.8299 17.0504 11.8729 16.8842 11.8685 16.7537C11.8641 16.6228 11.8159 16.5535 11.7698 16.5226C11.7237 16.4917 11.6414 16.4733 11.5185 16.5187C11.3961 16.5641 11.2585 16.6668 11.1509 16.8271C11.0433 16.9874 11.0003 17.1536 11.0047 17.2841ZM10.3785 17.3053C10.3691 17.0293 10.4579 16.7353 10.6307 16.4779C10.8035 16.2204 11.0421 16.027 11.301 15.9311C11.5594 15.8355 11.8637 15.831 12.119 16.0024C12.3744 16.1738 12.4854 16.4572 12.4947 16.7326C12.5041 17.0085 12.4153 17.3025 12.2425 17.56C12.0697 17.8174 11.8311 18.0109 11.5722 18.1067C11.3138 18.2023 11.0095 18.2069 10.7541 18.0354C10.4988 17.864 10.3878 17.5807 10.3785 17.3053Z" fill="#484848"/>
<path fill-rule="evenodd" clip-rule="evenodd" d="M9.99465 17.3606C9.9946 17.3606 9.99455 17.3605 10.2497 17.1788C10.5049 16.9971 10.5049 16.997 10.5048 16.9969L10.5047 16.9967C10.5046 16.9966 10.5046 16.9967 10.5047 16.9967L10.5051 16.9972L10.5084 17.0018C10.5117 17.0063 10.5171 17.0134 10.5244 17.0229C10.5389 17.0418 10.561 17.0695 10.5893 17.1026C10.6466 17.1697 10.7262 17.255 10.8184 17.3333C11.0286 17.5121 11.1898 17.5606 11.2897 17.5258L11.4961 18.1174C11.0469 18.2741 10.6365 18.0012 10.4125 17.8107C10.2874 17.7044 10.1842 17.5931 10.113 17.5097C10.077 17.4676 10.0484 17.4316 10.0283 17.4057C10.0183 17.3927 10.0104 17.3821 10.0047 17.3744L9.99787 17.3651L9.99577 17.3622L9.99505 17.3612L9.99465 17.3606Z" fill="#484848"/>
</svg>
