<svg width="18" height="18" viewBox="0 0 18 18" fill="none" xmlns="http://www.w3.org/2000/svg">
<path d="M5.99998 5.16345C6.18363 5.16345 6.34012 5.09879 6.46944 4.96946C6.59877 4.84014 6.66343 4.68365 6.66343 4.5C6.66343 4.31635 6.59877 4.15986 6.46944 4.03054C6.34012 3.90121 6.18363 3.83655 5.99998 3.83655C5.81633 3.83655 5.65984 3.90121 5.53052 4.03054C5.40119 4.15986 5.33653 4.31635 5.33653 4.5C5.33653 4.68365 5.40119 4.84014 5.53052 4.96946C5.65984 5.09879 5.81633 5.16345 5.99998 5.16345ZM8.24998 5.16345C8.43363 5.16345 8.59012 5.09879 8.71944 4.96946C8.84877 4.84014 8.91343 4.68365 8.91343 4.5C8.91343 4.31635 8.84877 4.15986 8.71944 4.03054C8.59012 3.90121 8.43363 3.83655 8.24998 3.83655C8.06633 3.83655 7.90984 3.90121 7.78052 4.03054C7.65119 4.15986 7.58653 4.31635 7.58653 4.5C7.58653 4.68365 7.65119 4.84014 7.78052 4.96946C7.90984 5.09879 8.06633 5.16345 8.24998 5.16345ZM8.99998 13.3125C9.73459 13.3125 10.362 13.0618 10.8822 12.5603C11.4024 12.0589 11.6625 11.4471 11.6625 10.725C11.6625 10.3865 11.6048 10.0575 11.4894 9.73774C11.374 9.41804 11.1985 9.1404 10.963 8.90483L8.99998 6.94185L7.10481 8.83703C6.84903 9.0928 6.65407 9.38366 6.51994 9.70961C6.38581 10.0356 6.325 10.374 6.3375 10.725C6.3625 11.4471 6.63197 12.0589 7.14591 12.5603C7.65984 13.0618 8.27787 13.3125 8.99998 13.3125ZM8.99998 12.2553C8.57209 12.2553 8.20887 12.1072 7.91031 11.8111C7.61174 11.5149 7.46246 11.1529 7.46246 10.725C7.46246 10.5183 7.49804 10.3221 7.56921 10.1365C7.64036 9.95096 7.75189 9.78221 7.90382 9.63028L8.99998 8.53412L10.1135 9.64759C10.2558 9.7899 10.362 9.95577 10.4322 10.1452C10.5024 10.3346 10.5375 10.5279 10.5375 10.725C10.5375 11.1529 10.3882 11.5149 10.0897 11.8111C9.79109 12.1072 9.42787 12.2553 8.99998 12.2553ZM4.73078 16.125C4.35674 16.125 4.03727 15.9925 3.77237 15.7276C3.50746 15.4627 3.375 15.1432 3.375 14.7692V3.2308C3.375 2.85676 3.50746 2.53729 3.77237 2.27239C4.03727 2.00748 4.35674 1.87502 4.73078 1.87502H13.2692C13.6432 1.87502 13.9627 2.00748 14.2276 2.27239C14.4925 2.53729 14.625 2.85676 14.625 3.2308V14.7692C14.625 15.1432 14.4925 15.4627 14.2276 15.7276C13.9627 15.9925 13.6432 16.125 13.2692 16.125H4.73078ZM4.73078 15H13.2692C13.3365 15 13.3918 14.9784 13.4351 14.9351C13.4783 14.8918 13.5 14.8365 13.5 14.7692V3.2308C13.5 3.16348 13.4783 3.10819 13.4351 3.06491C13.3918 3.02164 13.3365 3 13.2692 3H4.73078C4.66346 3 4.60817 3.02164 4.56489 3.06491C4.52162 3.10819 4.49998 3.16348 4.49998 3.2308V14.7692C4.49998 14.8365 4.52162 14.8918 4.56489 14.9351C4.60817 14.9784 4.66346 15 4.73078 15Z" fill="#484848"/>
</svg>
