<svg width="24" height="24" viewBox="0 0 24 24" fill="none" xmlns="http://www.w3.org/2000/svg">
<rect width="24" height="24" rx="12" fill="#F7F7F7"/>
<path d="M12.0003 18.3346C11.1251 18.3346 10.3022 18.1681 9.53173 17.8352C8.76121 17.5023 8.09092 17.0508 7.52084 16.4808C6.95075 15.9107 6.49926 15.2404 6.16636 14.4699C5.83345 13.6994 5.66699 12.8765 5.66699 12.0013C5.66699 11.1261 5.83345 10.3032 6.16636 9.5327C6.49926 8.76219 6.95075 8.0919 7.52084 7.52182C8.09092 6.95173 8.76121 6.50024 9.53173 6.16734C10.3022 5.83442 11.1251 5.66797 12.0003 5.66797C12.8755 5.66797 13.6984 5.83442 14.4689 6.16734C15.2394 6.50024 15.9097 6.95173 16.4798 7.52182C17.0499 8.0919 17.5014 8.76219 17.8343 9.5327C18.1672 10.3032 18.3336 11.1261 18.3336 12.0013C18.3336 12.8765 18.1672 13.6994 17.8343 14.4699C17.5014 15.2404 17.0499 15.9107 16.4798 16.4808C15.9097 17.0508 15.2394 17.5023 14.4689 17.8352C13.6984 18.1681 12.8755 18.3346 12.0003 18.3346ZM15.2182 10.5269L16.2465 10.1885L16.5388 9.17309C16.1832 8.61839 15.7448 8.14402 15.2234 7.75C14.702 7.35598 14.1242 7.06452 13.49 6.87564L12.5003 7.57309V8.6218L15.2182 10.5269ZM8.78238 10.5269L11.5003 8.6218V7.57309L10.5106 6.87564C9.87639 7.06452 9.30074 7.35598 8.78364 7.75C8.26654 8.14402 7.83021 8.61839 7.47466 9.17309L7.76698 10.1885L8.78238 10.5269ZM7.99263 15.5192L8.90033 15.4398L9.47724 14.45L8.49776 11.4987L7.43621 11.1269L6.66698 11.691C6.66698 12.4432 6.76484 13.1239 6.96056 13.7333C7.15629 14.3427 7.50031 14.938 7.99263 15.5192ZM12.0003 17.3346C12.2892 17.3346 12.5768 17.3113 12.8631 17.2648C13.1495 17.2182 13.4388 17.1483 13.7311 17.0551L14.249 15.9397L13.7388 15.091H10.2618L9.76441 15.9397L10.2824 17.0551C10.5618 17.1483 10.8458 17.2182 11.1343 17.2648C11.4227 17.3113 11.7114 17.3346 12.0003 17.3346ZM10.4362 14.091H13.5772L14.5362 11.2705L12.0003 9.49359L9.48491 11.2705L10.4362 14.091ZM16.008 15.5192C16.5003 14.938 16.8443 14.3427 17.0401 13.7333C17.2358 13.1239 17.3336 12.4432 17.3336 11.691L16.5772 11.1603L15.5029 11.4859L14.5234 14.45L15.1003 15.4398L16.008 15.5192Z" fill="#484848"/>
</svg>
