<svg width="18" height="18" viewBox="0 0 18 18" fill="none" xmlns="http://www.w3.org/2000/svg">
<path d="M9.41369 6.63787C9.41369 6.40957 9.22861 6.22449 9.0003 6.22449C8.77199 6.22449 8.58691 6.40957 8.58691 6.63787V7.34653C8.58691 7.57484 8.77199 7.75992 9.0003 7.75992C9.22861 7.75992 9.41369 7.57484 9.41369 7.34653V6.63787Z" fill="#484848"/>
<path d="M9.41369 4.27545C9.41369 4.04714 9.22861 3.86206 9.0003 3.86206C8.77199 3.86206 8.58691 4.04714 8.58691 4.27545V4.98411C8.58691 5.21241 8.77199 5.39749 9.0003 5.39749C9.22861 5.39749 9.41369 5.21241 9.41369 4.98411V4.27545Z" fill="#484848"/>
<path d="M9.41369 1.91339C9.41369 1.68508 9.22861 1.5 9.0003 1.5C8.77199 1.5 8.58691 1.68508 8.58691 1.91339V2.62205C8.58691 2.85035 8.77199 3.03543 9.0003 3.03543C9.22861 3.03543 9.41369 2.85035 9.41369 2.62205V1.91339Z" fill="#484848"/>
<path d="M5.80701 7.60367L6.16134 8.21784C6.21623 8.31275 6.30655 8.38199 6.41245 8.41034C6.51836 8.43868 6.63119 8.42383 6.72614 8.36903C6.82108 8.31423 6.89036 8.22397 6.91875 8.11809C6.94715 8.01222 6.93233 7.89941 6.87756 7.80446L6.52323 7.19029C6.49608 7.14327 6.45993 7.10206 6.41685 7.06902C6.37376 7.03597 6.32459 7.01174 6.27215 6.9977C6.2197 6.98366 6.165 6.98009 6.11117 6.9872C6.05734 6.9943 6.00544 7.01194 5.95843 7.0391C5.8635 7.0939 5.79422 7.18416 5.76582 7.29004C5.73743 7.39591 5.75224 7.50872 5.80701 7.60367Z" fill="#484848"/>
<path d="M4.62626 5.55824L4.9806 6.17241C5.03552 6.26727 5.12584 6.33647 5.23173 6.36481C5.33762 6.39315 5.45043 6.37833 5.5454 6.32359C5.64033 6.26879 5.70961 6.17853 5.73801 6.07266C5.7664 5.96679 5.75158 5.85398 5.69682 5.75903L5.34249 5.14485C5.28764 5.04991 5.19734 4.98062 5.09143 4.95223C4.98552 4.92383 4.87267 4.93866 4.77768 4.99344C4.73065 5.02057 4.68942 5.05671 4.65635 5.09978C4.62328 5.14285 4.59902 5.19202 4.58496 5.24447C4.5709 5.29692 4.56731 5.35162 4.5744 5.40546C4.58148 5.4593 4.59911 5.51121 4.62626 5.55824Z" fill="#484848"/>
<path d="M3.79962 4.1264C3.85447 4.22135 3.94477 4.29063 4.05068 4.31902C4.15659 4.34742 4.26944 4.3326 4.36443 4.27782C4.45937 4.22297 4.52866 4.13267 4.55705 4.02676C4.58544 3.92085 4.57062 3.808 4.51584 3.71301L4.16151 3.09884C4.10667 3.00389 4.01636 2.93461 3.91045 2.90621C3.80454 2.87782 3.69169 2.89264 3.59671 2.94742C3.54963 2.97458 3.50837 3.01075 3.47528 3.05386C3.44219 3.09697 3.41792 3.14618 3.40386 3.19868C3.38979 3.25118 3.38622 3.30593 3.39333 3.35981C3.40043 3.41369 3.41809 3.46565 3.44529 3.5127L3.79962 4.1264Z" fill="#484848"/>
<path d="M11.2736 8.3692C11.3686 8.424 11.4814 8.43886 11.5873 8.41051C11.6932 8.38216 11.7836 8.31293 11.8384 8.21802L12.1928 7.60385C12.2475 7.5089 12.2624 7.39608 12.234 7.29021C12.2056 7.18434 12.1363 7.09408 12.0414 7.03928C11.9944 7.01211 11.9424 6.99448 11.8886 6.98737C11.8348 6.98027 11.7801 6.98384 11.7276 6.99788C11.6752 7.01192 11.626 7.03615 11.5829 7.06919C11.5399 7.10224 11.5037 7.14344 11.4766 7.19046L11.1222 7.80463C11.0675 7.89958 11.0526 8.0124 11.081 8.11827C11.1094 8.22414 11.1787 8.3144 11.2736 8.3692Z" fill="#484848"/>
<path d="M12.4549 6.32323C12.5499 6.37796 12.6627 6.39279 12.7686 6.36444C12.8745 6.3361 12.9648 6.26691 13.0197 6.17205L13.374 5.55787C13.4288 5.46292 13.4436 5.35011 13.4152 5.24424C13.3868 5.13837 13.3176 5.04811 13.2226 4.99331C13.1276 4.93853 13.0148 4.9237 12.9089 4.9521C12.803 4.98049 12.7127 5.04978 12.6578 5.14472L12.3035 5.7589C12.2488 5.85382 12.234 5.96658 12.2624 6.0724C12.2908 6.17821 12.36 6.26843 12.4549 6.32323Z" fill="#484848"/>
<path d="M13.6359 4.27782C13.7309 4.3326 13.8437 4.34742 13.9496 4.31902C14.0555 4.29063 14.1458 4.22135 14.2007 4.1264L14.555 3.51223C14.6098 3.41724 14.6246 3.30439 14.5962 3.19848C14.5678 3.09257 14.4985 3.00227 14.4036 2.94742C14.3086 2.89264 14.1958 2.87782 14.0898 2.90621C13.9839 2.93461 13.8936 3.00389 13.8388 3.09884L13.4845 3.71301C13.4297 3.808 13.4149 3.92085 13.4432 4.02676C13.4716 4.13267 13.5409 4.22297 13.6359 4.27782Z" fill="#484848"/>
<path d="M13.3613 9.11436L12.7472 9.46869C12.7002 9.49585 12.6589 9.532 12.6259 9.57508C12.5929 9.61816 12.5686 9.66733 12.5546 9.71978C12.5405 9.77223 12.537 9.82693 12.5441 9.88076C12.5512 9.93459 12.5688 9.98649 12.596 10.0335C12.6508 10.1284 12.741 10.1977 12.8469 10.2261C12.9528 10.2545 13.0656 10.2397 13.1606 10.1849L13.7747 9.83058C13.8697 9.77574 13.939 9.68544 13.9674 9.57953C13.9957 9.47362 13.9809 9.36077 13.9261 9.26578C13.899 9.21874 13.8629 9.17751 13.8198 9.14445C13.7767 9.11138 13.7276 9.08712 13.6751 9.07306C13.6227 9.059 13.568 9.05541 13.5141 9.0625C13.4603 9.06958 13.4084 9.08721 13.3613 9.11436Z" fill="#484848"/>
<path d="M14.6424 8.85239C14.6972 8.94732 14.7874 9.0166 14.8933 9.04499C14.9992 9.07339 15.112 9.05857 15.207 9.0038L15.8211 8.64947C15.8685 8.62253 15.9101 8.58647 15.9435 8.54339C15.9769 8.5003 16.0015 8.45103 16.0158 8.39842C16.03 8.34581 16.0338 8.29089 16.0267 8.23683C16.0197 8.18276 16.0021 8.13063 15.9748 8.08341C15.9475 8.0362 15.9112 7.99484 15.8679 7.96173C15.8246 7.92861 15.7752 7.90439 15.7225 7.89046C15.6698 7.87652 15.6148 7.87315 15.5608 7.88053C15.5068 7.88792 15.4548 7.90592 15.4077 7.93349L14.7936 8.28782C14.7465 8.31493 14.7053 8.35105 14.6723 8.3941C14.6392 8.43716 14.6149 8.48632 14.6009 8.53875C14.5869 8.59119 14.5833 8.64588 14.5904 8.6997C14.5975 8.75352 14.6152 8.8054 14.6424 8.85239Z" fill="#484848"/>
<path d="M4.63868 9.11426C4.54373 9.05949 4.43092 9.04468 4.32505 9.07307C4.21918 9.10147 4.12892 9.17075 4.07412 9.26568C4.01934 9.36066 4.00451 9.47351 4.03291 9.57942C4.0613 9.68533 4.13059 9.77564 4.22553 9.83048L4.83971 10.1848C4.93466 10.2396 5.04747 10.2544 5.15334 10.226C5.25921 10.1976 5.34947 10.1283 5.40427 10.0334C5.43144 9.98638 5.44908 9.93448 5.45618 9.88066C5.46329 9.82683 5.45972 9.77213 5.44568 9.71968C5.43164 9.66723 5.40741 9.61806 5.37436 9.57498C5.34132 9.5319 5.30011 9.49575 5.25309 9.46859L4.63868 9.11426Z" fill="#484848"/>
<path d="M2.17928 8.64921L2.79346 9.00354C2.88835 9.0575 3.00074 9.07173 3.10608 9.04313C3.21143 9.01452 3.30119 8.94542 3.35577 8.85088C3.41036 8.75634 3.42533 8.64406 3.39743 8.53852C3.36953 8.43298 3.30101 8.34277 3.20684 8.28756L2.59267 7.93323C2.54564 7.90566 2.49362 7.88766 2.4396 7.88028C2.38559 7.87289 2.33064 7.87626 2.27794 7.8902C2.22523 7.90413 2.1758 7.92835 2.1325 7.96147C2.08919 7.99459 2.05286 8.03594 2.0256 8.08315C1.99834 8.13037 1.98069 8.18251 1.97366 8.23657C1.96664 8.29063 1.97037 8.34555 1.98466 8.39816C1.99894 8.45077 2.02349 8.50004 2.05689 8.54313C2.09029 8.58621 2.13189 8.62227 2.17928 8.64921Z" fill="#484848"/>
<path d="M16.0866 15.6732H11.7756V15.1417C11.7752 14.7816 11.632 14.4364 11.3773 14.1817C11.1227 13.9271 10.7774 13.7838 10.4173 13.7835H10.3583V11.7756H11.5984C11.7081 11.7756 11.8132 11.732 11.8907 11.6545C11.9683 11.577 12.0118 11.4718 12.0118 11.3622C12.0118 11.2526 11.9683 11.1474 11.8907 11.0699C11.8132 10.9924 11.7081 10.9488 11.5984 10.9488H11.3031V10.8898C11.3031 10.2789 11.0605 9.69312 10.6286 9.26119C10.1966 8.82927 9.61083 8.58662 9 8.58662C8.38917 8.58662 7.80335 8.82927 7.37143 9.26119C6.9395 9.69312 6.69685 10.2789 6.69685 10.8898V10.9488H6.40157C6.29194 10.9488 6.18679 10.9924 6.10927 11.0699C6.03174 11.1474 5.98819 11.2526 5.98819 11.3622C5.98819 11.4718 6.03174 11.577 6.10927 11.6545C6.18679 11.732 6.29194 11.7756 6.40157 11.7756H7.64173V13.7835H7.58268C7.22256 13.7838 6.87729 13.9271 6.62265 14.1817C6.36801 14.4364 6.22478 14.7816 6.22441 15.1417V15.6732H1.91339C1.80375 15.6732 1.6986 15.7168 1.62108 15.7943C1.54355 15.8718 1.5 15.977 1.5 16.0866C1.5 16.1963 1.54355 16.3014 1.62108 16.3789C1.6986 16.4564 1.80375 16.5 1.91339 16.5H16.0866C16.1963 16.5 16.3014 16.4564 16.3789 16.3789C16.4564 16.3014 16.5 16.1963 16.5 16.0866C16.5 15.977 16.4564 15.8718 16.3789 15.7943C16.3014 15.7168 16.1963 15.6732 16.0866 15.6732ZM7.52362 10.9488V10.8898C7.52362 10.4982 7.67917 10.1227 7.95604 9.84581C8.23292 9.56893 8.60844 9.41339 9 9.41339C9.39156 9.41339 9.76708 9.56893 10.044 9.84581C10.3208 10.1227 10.4764 10.4982 10.4764 10.8898V10.9488H7.52362ZM9.5315 11.7756V13.7835H8.4685V11.7756H9.5315ZM10.9488 15.6732H7.05118V15.1417C7.05137 15.0008 7.10743 14.8658 7.20706 14.7661C7.30669 14.6665 7.44177 14.6104 7.58268 14.6102H10.4173C10.5582 14.6104 10.6933 14.6665 10.7929 14.7661C10.8926 14.8658 10.9486 15.0008 10.9488 15.1417V15.6732Z" fill="#484848"/>
</svg>
