<svg width="16" height="16" viewBox="0 0 16 16" fill="none" xmlns="http://www.w3.org/2000/svg">
<path d="M7.05416 10.8372L11.5362 6.35514L10.8336 5.65259L7.05416 9.43207L5.15416 7.53207L4.45161 8.23462L7.05416 10.8372ZM8.00143 14.3346C7.12547 14.3346 6.30211 14.1684 5.53136 13.8359C4.76059 13.5035 4.09014 13.0523 3.51999 12.4824C2.94984 11.9125 2.49846 11.2424 2.16588 10.472C1.83329 9.70154 1.66699 8.87836 1.66699 8.0024C1.66699 7.12645 1.83321 6.30309 2.16566 5.53234C2.4981 4.76157 2.94927 4.09111 3.51916 3.52097C4.08906 2.95081 4.75922 2.49944 5.52964 2.16685C6.30005 1.83426 7.12324 1.66797 7.99919 1.66797C8.87515 1.66797 9.6985 1.83419 10.4693 2.16664C11.24 2.49908 11.9105 2.95025 12.4806 3.52014C13.0508 4.09004 13.5022 4.7602 13.8347 5.53062C14.1673 6.30103 14.3336 7.12421 14.3336 8.00017C14.3336 8.87613 14.1674 9.69948 13.835 10.4702C13.5025 11.241 13.0513 11.9115 12.4815 12.4816C11.9116 13.0518 11.2414 13.5031 10.471 13.8357C9.70057 14.1683 8.87738 14.3346 8.00143 14.3346ZM8.00031 13.3346C9.4892 13.3346 10.7503 12.818 11.7836 11.7846C12.817 10.7513 13.3336 9.49018 13.3336 8.00129C13.3336 6.5124 12.817 5.25129 11.7836 4.21795C10.7503 3.18462 9.4892 2.66795 8.00031 2.66795C6.51142 2.66795 5.25031 3.18462 4.21698 4.21795C3.18364 5.25129 2.66698 6.5124 2.66698 8.00129C2.66698 9.49018 3.18364 10.7513 4.21698 11.7846C5.25031 12.818 6.51142 13.3346 8.00031 13.3346Z" fill="#484848"/>
</svg>
