<svg width="18" height="18" viewBox="0 0 18 18" fill="none" xmlns="http://www.w3.org/2000/svg">
<path fill-rule="evenodd" clip-rule="evenodd" d="M2.69678 1.40088H4.86793V2.1246H4.14422V15.8753H4.86793V16.599H2.69678V15.8753H3.4205V2.1246H2.69678V1.40088Z" fill="#484848"/>
<path fill-rule="evenodd" clip-rule="evenodd" d="M7.7627 1.40088H9.93385V2.1246H9.21013V15.8753H9.93385V16.599H7.7627V15.8753H8.48641V2.1246H7.7627V1.40088Z" fill="#484848"/>
<path fill-rule="evenodd" clip-rule="evenodd" d="M12.8291 1.40088H15.0003V2.1246H14.2765V15.8753H15.0003V16.599H12.8291V15.8753H13.5528V2.1246H12.8291V1.40088Z" fill="#484848"/>
<path fill-rule="evenodd" clip-rule="evenodd" d="M5.95312 3.57204V1.40088H6.67684V3.57204H5.95312Z" fill="#484848"/>
<path fill-rule="evenodd" clip-rule="evenodd" d="M11.02 3.57204V1.40088H11.7437V3.57204H11.02Z" fill="#484848"/>
<path fill-rule="evenodd" clip-rule="evenodd" d="M5.95312 6.82887V4.65771H6.67684V6.82887H5.95312Z" fill="#484848"/>
<path fill-rule="evenodd" clip-rule="evenodd" d="M11.02 6.82887V4.65771H11.7437V6.82887H11.02Z" fill="#484848"/>
<path fill-rule="evenodd" clip-rule="evenodd" d="M5.95312 10.0857V7.91455H6.67684V10.0857H5.95312Z" fill="#484848"/>
<path fill-rule="evenodd" clip-rule="evenodd" d="M11.02 10.0855V7.91431H11.7437V10.0855H11.02Z" fill="#484848"/>
<path fill-rule="evenodd" clip-rule="evenodd" d="M5.95312 13.3423V11.1711H6.67684V13.3423H5.95312Z" fill="#484848"/>
<path fill-rule="evenodd" clip-rule="evenodd" d="M11.02 13.3425V11.1714H11.7437V13.3425H11.02Z" fill="#484848"/>
<path fill-rule="evenodd" clip-rule="evenodd" d="M5.95312 16.5989V14.4277H6.67684V16.5989H5.95312Z" fill="#484848"/>
<path fill-rule="evenodd" clip-rule="evenodd" d="M11.02 16.5989V14.4277H11.7437V16.5989H11.02Z" fill="#484848"/>
</svg>
