<svg width="16" height="16" viewBox="0 0 16 16" fill="none" xmlns="http://www.w3.org/2000/svg">
<mask id="mask0_2781_1358" style="mask-type:luminance" maskUnits="userSpaceOnUse" x="0" y="0" width="16" height="16">
<path d="M0.5 0.499998H15.5V15.5H0.5V0.499998Z" fill="white"/>
</mask>
<g mask="url(#mask0_2781_1358)">
<path fill-rule="evenodd" clip-rule="evenodd" d="M2.28711 15.0605C2.28711 15.3033 2.48386 15.5 2.72656 15.5H9.75781C10.0005 15.5 10.1973 15.3033 10.1973 15.0605V9.34766H13.2734C13.5161 9.34766 13.7129 9.15091 13.7129 8.9082V2.25781C13.7129 1.28699 12.9259 0.499998 11.9551 0.499998H4.04492C3.0741 0.499998 2.28711 1.28699 2.28711 2.25781V15.0605ZM3.16602 14.6211V2.25781C3.16602 1.7724 3.55951 1.3789 4.04492 1.3789H11.9551C12.4405 1.3789 12.834 1.7724 12.834 2.25781V8.46875H9.75781C9.51511 8.46875 9.31836 8.6655 9.31836 8.9082V14.6211H3.16602Z" fill="#484848"/>
<path fill-rule="evenodd" clip-rule="evenodd" d="M9.75781 9.34766C10.0005 9.34766 10.1973 9.15091 10.1973 8.9082V0.939453C10.1973 0.69675 10.0005 0.5 9.75781 0.5C9.51511 0.5 9.31836 0.69675 9.31836 0.939453V8.9082C9.31836 9.15091 9.51511 9.34766 9.75781 9.34766Z" fill="#484848"/>
<path fill-rule="evenodd" clip-rule="evenodd" d="M2.28711 10.666C2.28711 10.9087 2.48386 11.1055 2.72656 11.1055H9.75781C10.0005 11.1055 10.1973 10.9087 10.1973 10.666C10.1973 10.4233 10.0005 10.2266 9.75781 10.2266H2.72656C2.48386 10.2266 2.28711 10.4233 2.28711 10.666Z" fill="#484848"/>
<path fill-rule="evenodd" clip-rule="evenodd" d="M2.28711 12.4238C2.28711 12.6665 2.48386 12.8633 2.72656 12.8633H9.75781C10.0005 12.8633 10.1973 12.6665 10.1973 12.4238C10.1973 12.1811 10.0005 11.9844 9.75781 11.9844H2.72656C2.48386 11.9844 2.28711 12.1811 2.28711 12.4238Z" fill="#484848"/>
<path fill-rule="evenodd" clip-rule="evenodd" d="M9.31836 6.82813C9.31836 7.07083 9.51511 7.26758 9.75781 7.26758H13.2734C13.5161 7.26758 13.7129 7.07083 13.7129 6.82813C13.7129 6.58542 13.5161 6.38867 13.2734 6.38867H9.75781C9.51511 6.38867 9.31836 6.58542 9.31836 6.82813Z" fill="#484848"/>
<path fill-rule="evenodd" clip-rule="evenodd" d="M9.31836 2.84375C9.31836 3.08645 9.51511 3.2832 9.75781 3.2832H15.0605C15.3033 3.2832 15.5 3.08645 15.5 2.84375C15.5 2.60105 15.3033 2.4043 15.0605 2.4043H9.75781C9.51511 2.4043 9.31836 2.60105 9.31836 2.84375Z" fill="#484848"/>
<path fill-rule="evenodd" clip-rule="evenodd" d="M0.5 2.84375C0.5 3.08645 0.69675 3.2832 0.939453 3.2832H2.72656C2.96927 3.2832 3.16602 3.08645 3.16602 2.84375C3.16602 2.60105 2.96927 2.4043 2.72656 2.4043H0.939453C0.69675 2.4043 0.5 2.60105 0.5 2.84375Z" fill="#484848"/>
<path fill-rule="evenodd" clip-rule="evenodd" d="M15.0605 4.2207C15.3033 4.2207 15.5 4.02395 15.5 3.78125V1.90625C15.5 1.66355 15.3033 1.4668 15.0605 1.4668C14.8178 1.4668 14.6211 1.66355 14.6211 1.90625V3.78125C14.6211 4.02395 14.8178 4.2207 15.0605 4.2207Z" fill="#484848"/>
<path fill-rule="evenodd" clip-rule="evenodd" d="M0.939453 4.2207C1.18216 4.2207 1.37891 4.02395 1.37891 3.78125V1.90625C1.37891 1.66355 1.18216 1.4668 0.939453 1.4668C0.69675 1.4668 0.5 1.66355 0.5 1.90625V3.78125C0.5 4.02395 0.69675 4.2207 0.939453 4.2207Z" fill="#484848"/>
</g>
</svg>
