<svg width="18" height="18" viewBox="0 0 18 18" fill="none" xmlns="http://www.w3.org/2000/svg">
<mask id="mask0_2601_9511" style="mask-type:luminance" maskUnits="userSpaceOnUse" x="1" y="1" width="16" height="16">
<path d="M1.5 1.5H16.5V16.5H1.5V1.5Z" fill="white"/>
</mask>
<g mask="url(#mask0_2601_9511)">
<path fill-rule="evenodd" clip-rule="evenodd" d="M4.10078 14.3179C3.0081 13.5214 2.37891 12.462 2.37891 11.3437C2.37891 10.5511 2.71198 9.78955 3.29516 9.12762C4.92546 10.8234 7.80272 10.7495 9.31795 8.85559C9.39938 8.75382 9.43142 8.62115 9.40544 8.49343C9.37945 8.36571 9.29811 8.25612 9.18338 8.19425C8.21858 7.67399 7.56445 6.65524 7.56445 5.48437C7.56445 3.78082 8.94655 2.37891 10.6406 2.37891C12.1919 2.37891 13.4829 3.55488 13.6883 5.06322C13.7211 5.3037 13.9426 5.47209 14.183 5.43934C14.4235 5.40658 14.5919 5.18508 14.5592 4.9446C14.2964 3.01582 12.6466 1.5 10.6406 1.5C8.45169 1.5 6.68555 3.30492 6.68555 5.48437C6.68555 6.78984 7.31822 7.94693 8.29216 8.6669C6.96107 9.86735 4.76952 9.70217 3.67155 8.2133C3.59703 8.11224 3.48284 8.04789 3.3578 8.03649C3.23276 8.02508 3.10881 8.0677 3.01723 8.1536C2.10806 9.00638 1.5 10.1109 1.5 11.3437C1.5 12.8145 2.32832 14.1135 3.58306 15.0281C4.83891 15.9436 6.55024 16.5 8.41406 16.5C10.278 16.5 11.9825 15.9435 13.2315 15.0274C14.4796 14.1118 15.2988 12.8127 15.2988 11.3437C15.2988 10.055 14.6682 8.90262 13.6706 8.02604C13.8576 7.80341 14.0206 7.55974 14.1553 7.29881C14.2667 7.08316 14.1821 6.81807 13.9665 6.70671C13.7508 6.59534 13.4857 6.67988 13.3744 6.89553C13.2093 7.21529 12.9891 7.50251 12.7262 7.74512C12.6301 7.83379 12.5785 7.96065 12.5854 8.09122C12.5923 8.22179 12.6569 8.34252 12.7618 8.42059C13.8159 9.20519 14.4199 10.2415 14.4199 11.3437C14.4199 12.4637 13.7963 13.5231 12.7116 14.3187C11.6278 15.1137 10.1097 15.6211 8.41406 15.6211C6.71832 15.6211 5.19235 15.1136 4.10078 14.3179Z" fill="#484848"/>
<path fill-rule="evenodd" clip-rule="evenodd" d="M13.9672 6.68555C13.7966 6.68555 13.6582 6.5472 13.6582 6.37652V6.09416C13.6582 5.73325 13.9437 5.43904 14.3012 5.42507L14.3391 5.43032C14.3851 5.4367 14.4511 5.44585 14.5305 5.45683C14.6893 5.47879 14.9019 5.50813 15.1161 5.53749C15.2741 5.55915 15.4332 5.58085 15.5723 5.59962C15.3983 6.25113 14.7757 6.68555 13.9672 6.68555ZM14.3889 4.54991L14.3885 4.54984L14.3877 4.54974C14.3662 4.56487 14.3463 4.58035 14.3278 4.59611V4.54564C13.4726 4.54564 12.7793 5.2389 12.7793 6.09416V6.37652C12.7793 7.03261 13.3111 7.56445 13.9672 7.56445C15.2933 7.56445 16.5 6.67079 16.5 5.21947C16.5 4.98684 16.3192 4.79643 16.0905 4.78103C16.0887 4.78083 16.0865 4.78058 16.0839 4.78028C16.0715 4.77885 16.0529 4.77657 16.0282 4.77343C15.979 4.76719 15.9104 4.75817 15.8282 4.7472C15.6642 4.72529 15.4493 4.69604 15.2355 4.66673C15.0218 4.63743 14.8096 4.60815 14.6509 4.58621C14.5716 4.57524 14.5058 4.56612 14.4598 4.55975L14.3893 4.54997L14.3889 4.54991ZM16.0976 4.78174C16.0975 4.78172 16.0964 4.78161 16.0944 4.78144C16.0967 4.78167 16.0976 4.78176 16.0976 4.78174Z" fill="#484848"/>
<path fill-rule="evenodd" clip-rule="evenodd" d="M6.72829 12.311C7.13165 12.2707 7.56282 12.2019 7.9856 12.0906C8.66076 11.9128 9.35147 11.6167 9.8647 11.1189L9.86471 11.1189C10.2055 10.7884 10.6073 10.7554 10.9739 10.9548L11.1839 10.5688L10.9739 10.9548C11.2919 11.1278 11.4156 11.4297 11.3741 11.9241M6.72829 12.311C7.09907 12.7524 7.78799 13.1621 8.76517 13.1621C9.54649 13.1621 10.2138 12.989 10.6796 12.7329C11.1575 12.4702 11.3538 12.1656 11.3741 11.9242M5.59424 12.0368C5.87932 13.0443 7.07671 14.041 8.76517 14.041C9.66657 14.041 10.485 13.8428 11.103 13.5031C11.7091 13.17 12.1948 12.6543 12.25 11.9977L12.25 11.9977C12.3067 11.3218 12.1416 10.5894 11.3938 10.1827C10.6982 9.80435 9.87675 9.88292 9.25282 10.488C8.89111 10.8388 8.36278 11.0824 7.76176 11.2407C7.16571 11.3976 6.53421 11.4614 6.00344 11.4779C5.86821 11.4821 5.74245 11.5483 5.66252 11.6575C5.58259 11.7667 5.5574 11.9066 5.59424 12.0368Z" fill="#484848"/>
<circle cx="10.875" cy="4.625" r="0.625" fill="#484848"/>
</g>
</svg>
