<svg width="24" height="25" viewBox="0 0 24 25" fill="none" xmlns="http://www.w3.org/2000/svg">
<rect x="0.5" y="1" width="23" height="23" rx="11.5" fill="#4CAF50" fill-opacity="0.2"/>
<rect x="0.5" y="1" width="23" height="23" rx="11.5" stroke="#4CAF50"/>
<ellipse cx="12.009" cy="10.1889" rx="5.86667" ry="1.77778" transform="rotate(0.225954 12.009 10.1889)" fill="#4CAF50"/>
<path d="M18.5352 17.048C18.7453 16.9677 18.8501 16.7317 18.7686 16.522L17.43 13.0744C18.191 12.6249 18.3817 12.1389 18.3832 11.7672L18.3897 10.1132C18.3917 9.60577 18.0429 8.88264 16.3698 8.3194C15.2027 7.92641 13.6575 7.7065 12.0192 7.70004C10.3809 7.69358 8.8342 7.9013 7.66386 8.28506C5.98643 8.83509 5.63193 9.55545 5.62993 10.0629L5.6234 11.7169C5.62194 12.0886 5.80875 12.5761 6.56635 13.0316L5.20046 16.4684C5.11736 16.6775 5.22021 16.9144 5.42976 16.9964C5.63774 17.0777 5.8724 16.9758 5.95489 16.7683L7.29928 13.3855C7.40724 13.428 7.52165 13.4698 7.64326 13.5107C8.2998 13.7318 9.07589 13.8981 9.92088 14.0024L9.90811 17.241C9.90723 17.4654 10.0884 17.6481 10.3129 17.6489C10.5373 17.6498 10.7199 17.4686 10.7208 17.2442L10.7212 17.1576L13.2427 17.1676L13.2424 17.2542C13.2415 17.4786 13.4227 17.6612 13.6471 17.6621C13.8715 17.663 14.0541 17.4818 14.055 17.2574L14.0678 14.0188C14.9136 13.921 15.6909 13.7609 16.3492 13.545C16.4711 13.5051 16.5859 13.4642 16.6943 13.4225L18.0118 16.8158C18.0927 17.024 18.3265 17.1278 18.5352 17.048ZM7.91899 9.05065C9.00807 8.69354 10.4632 8.50026 12.016 8.50639C13.5689 8.51251 15.0223 8.71726 16.1087 9.08295C17.194 9.44832 17.5779 9.86456 17.577 10.11C17.576 10.3554 17.1887 10.7686 16.1006 11.1254C15.0114 11.4825 13.5564 11.6759 12.0036 11.6697C10.4507 11.6636 8.99717 11.4588 7.91093 11.0931C6.82564 10.7277 6.44166 10.3115 6.44263 10.0661C6.4436 9.82065 6.83085 9.40745 7.91899 9.05065ZM10.7243 16.3513L10.7277 15.5036L13.2493 15.5135L13.2459 16.3612L10.7243 16.3513ZM13.2524 14.7072L10.7309 14.6972L10.7333 14.0818C11.1438 14.112 11.5656 14.1285 11.9939 14.1301C12.4222 14.1318 12.8441 14.1187 13.2549 14.0918L13.2524 14.7072ZM16.0941 12.7794C15.005 13.1366 13.5499 13.3299 11.997 13.3238C10.4442 13.3177 8.99075 13.1129 7.90441 12.7471C6.81912 12.3818 6.43514 11.9656 6.43611 11.7202L6.4378 11.2921C6.73187 11.4882 7.12594 11.6803 7.64978 11.8566C8.81705 12.2496 10.3621 12.4695 12.0004 12.476C13.6387 12.4824 15.1854 12.2747 16.3557 11.891C16.8811 11.7188 17.2765 11.5298 17.5721 11.336L17.5704 11.7641C17.5695 12.0094 17.1822 12.4226 16.0941 12.7794Z" fill="#484848"/>
</svg>
