<svg width="24" height="24" viewBox="0 0 24 24" fill="none" xmlns="http://www.w3.org/2000/svg">
<rect x="0.5" y="0.5" width="23" height="23" rx="11.5" fill="#4CAF50" fill-opacity="0.2"/>
<rect x="0.5" y="0.5" width="23" height="23" rx="11.5" stroke="#4CAF50"/>
<path d="M9.50198 14.3013L11.102 14.3076L11.4666 11.9979L13.0666 12.0042L13.0575 14.3153L14.6575 14.3216L15.0271 10.7675L12.0133 8.62224L9.69448 10.5687L11.1153 10.9298L11.109 12.5298L9.50829 12.7013L9.50198 14.3013Z" fill="#4CAF50"/>
<path d="M17.9245 10.9848C18.0013 10.9139 18.0733 10.8371 18.1389 10.7543C18.4265 10.391 18.5859 9.9325 18.5878 9.4634C18.5917 8.46657 17.899 7.62069 16.9701 7.4338C16.662 6.68323 15.9382 6.17624 15.1306 6.17306C14.8863 6.1721 14.6438 6.21731 14.4165 6.30514C13.8098 5.73749 13.0339 5.42625 12.2037 5.42297C11.3735 5.4197 10.5951 5.72481 9.98393 6.28763C9.75734 6.19802 9.51519 6.15089 9.27095 6.14992C8.46328 6.14674 7.73552 6.648 7.42152 7.39612C6.4912 7.57568 5.79181 8.41609 5.78788 9.41292C5.78613 9.85656 5.92554 10.2916 6.18146 10.6468C5.93379 10.9128 5.78054 11.2726 5.77898 11.669C5.77574 12.4897 6.42275 13.16 7.22132 13.1631L7.5692 13.1645L7.56666 13.8068C7.56135 15.1528 8.62245 16.252 9.93202 16.2572L11.0359 16.2615L11.0307 17.574C11.0286 18.1263 11.4745 18.5758 12.0268 18.5779L12.2768 18.5789C12.8291 18.5811 13.2785 18.1352 13.2807 17.5829L13.2859 16.2704L14.3901 16.2747C15.6996 16.2799 16.7694 15.1891 16.7747 13.8431L16.7752 13.7147L17.1228 13.716C17.9213 13.7192 18.5736 13.0541 18.5769 12.2333C18.5789 11.7124 18.3188 11.2524 17.9245 10.9848ZM7.71809 8.13377L7.98358 8.11779L8.05676 7.85501C8.21054 7.30272 8.70861 6.91855 9.26791 6.92075C9.48091 6.92159 9.69113 6.97841 9.87591 7.08503L10.1302 7.23177L10.3313 7.01452C10.8235 6.48245 11.4874 6.19099 12.2006 6.1938C12.9138 6.19661 13.5754 6.4933 14.0635 7.02924L14.2628 7.24807L14.5183 7.10333C14.7039 6.99818 14.9145 6.94302 15.1275 6.94386C15.6868 6.94607 16.1818 7.33416 16.3313 7.88764L16.4024 8.15099L16.6677 8.16907C17.3265 8.21396 17.8405 8.78119 17.8378 9.46044C17.8356 10.0125 17.5002 10.4897 17.0057 10.6697C16.67 10.2664 16.1756 10.0253 15.649 10.0232C15.415 10.0223 15.187 10.0687 14.976 10.1557L12.796 8.48816C12.4397 8.21564 11.9456 8.21369 11.5872 8.48339L9.78134 9.84225C9.47956 9.61377 9.11055 9.48353 8.72418 9.48201C8.16728 9.47981 7.64421 9.7451 7.30541 10.1884C7.28129 10.1871 7.25716 10.1863 7.23304 10.1863C7.09154 10.1857 6.95478 10.2065 6.82525 10.2451C6.64297 10.0192 6.53663 9.7292 6.53787 9.41588C6.54055 8.73663 7.05895 8.17347 7.71809 8.13377ZM9.81918 13.1734L10.1979 13.1748C10.451 13.1758 10.6892 13.1096 10.8969 12.9927L10.8931 13.9484L9.94114 13.9447C9.87221 13.9444 9.81637 13.8865 9.81664 13.8157L9.81918 13.1734ZM11.6496 12.307L12.7034 12.3111L12.6969 13.9555L11.6431 13.9514L11.6496 12.307ZM11.6446 11.5361C11.5822 10.8975 11.1251 10.3766 10.5277 10.2359L12.1896 8.98535L14.5367 10.7806L14.5246 13.8348C14.5241 13.9054 14.4679 13.9626 14.3992 13.9623L13.4469 13.9585L13.4564 11.5433L11.6446 11.5361ZM7.22436 12.3923C6.83934 12.3908 6.52741 12.0676 6.52897 11.6719C6.53053 11.2762 6.845 10.9555 7.23002 10.9571C7.2851 10.9573 7.34052 10.9643 7.39474 10.978L7.66952 11.0473L7.80987 10.7948C7.99642 10.459 8.34561 10.2513 8.72114 10.2528C9.09668 10.2543 9.44421 10.4647 9.6281 10.8019L9.76643 11.0556L10.0418 10.9884C10.0961 10.9752 10.1516 10.9686 10.2066 10.9688C10.5916 10.9703 10.9036 11.2934 10.902 11.6892C10.9005 12.0849 10.586 12.4055 10.201 12.404L7.22436 12.3923ZM16.0247 13.8402C16.021 14.7611 15.2891 15.5074 14.3931 15.5039L12.5389 15.4966L12.5298 17.8091L11.7798 17.8061L11.7889 15.4936L9.93506 15.4863C9.03904 15.4828 8.31302 14.7307 8.31666 13.8098L8.31919 13.1674L9.06918 13.1704L9.06665 13.8128C9.06469 14.3086 9.45563 14.7136 9.9381 14.7155L14.3961 14.7331C14.8786 14.735 15.2727 14.3331 15.2747 13.8372L15.2752 13.7088L16.0252 13.7117L16.0247 13.8402ZM17.1258 12.9452L15.2782 12.9379L15.2864 10.8588C15.4 10.8162 15.5215 10.7935 15.646 10.794C16.0215 10.7955 16.369 11.0059 16.5529 11.3432L16.6913 11.5968L16.9666 11.5297C17.0209 11.5164 17.0764 11.5098 17.1315 11.51C17.5165 11.5115 17.8284 11.8347 17.8269 12.2304C17.8253 12.6261 17.5108 12.9467 17.1258 12.9452Z" fill="#484848"/>
</svg>
