<svg width="18" height="18" viewBox="0 0 18 18" fill="none" xmlns="http://www.w3.org/2000/svg">
<path d="M6.375 15.375V14.25H7.875V12.75H3.23078C2.85193 12.75 2.53125 12.6187 2.26875 12.3562C2.00625 12.0937 1.875 11.7731 1.875 11.3942V3.98078C1.875 3.60193 2.00625 3.28125 2.26875 3.01875C2.53125 2.75625 2.85193 2.625 3.23078 2.625H14.7692C15.148 2.625 15.4687 2.75625 15.7312 3.01875C15.9937 3.28125 16.125 3.60193 16.125 3.98078V11.3942C16.125 11.7731 15.9937 12.0937 15.7312 12.3562C15.4687 12.6187 15.148 12.75 14.7692 12.75H10.125V14.25H11.625V15.375H6.375ZM3.23078 11.625H14.7692C14.8269 11.625 14.8798 11.601 14.9279 11.5529C14.9759 11.5048 15 11.4519 15 11.3942V3.98078C15 3.92308 14.9759 3.87018 14.9279 3.82209C14.8798 3.77402 14.8269 3.74998 14.7692 3.74998H3.23078C3.17308 3.74998 3.12018 3.77402 3.07209 3.82209C3.02402 3.87018 2.99998 3.92308 2.99998 3.98078V11.3942C2.99998 11.4519 3.02402 11.5048 3.07209 11.5529C3.12018 11.601 3.17308 11.625 3.23078 11.625Z" fill="#484848"/>
</svg>
