<svg width="18" height="18" viewBox="0 0 18 18" fill="none" xmlns="http://www.w3.org/2000/svg">
<path d="M9.00125 16.125C8.0158 16.125 7.08953 15.938 6.22243 15.564C5.35532 15.19 4.60105 14.6824 3.95964 14.0413C3.31822 13.4001 2.81042 12.6462 2.43626 11.7795C2.0621 10.9128 1.87502 9.98669 1.87502 9.00124C1.87502 8.01579 2.06202 7.08951 2.43602 6.22241C2.81002 5.3553 3.31758 4.60104 3.9587 3.95963C4.59984 3.3182 5.35377 2.81041 6.2205 2.43624C7.08721 2.06208 8.01329 1.875 8.99874 1.875C9.98419 1.875 10.9105 2.062 11.7776 2.436C12.6447 2.81 13.3989 3.31756 14.0404 3.95869C14.6818 4.59983 15.1896 5.35376 15.5637 6.22048C15.9379 7.0872 16.125 8.01328 16.125 8.99873C16.125 9.98418 15.938 10.9105 15.564 11.7776C15.19 12.6447 14.6824 13.3989 14.0413 14.0403C13.4002 14.6818 12.6462 15.1896 11.7795 15.5637C10.9128 15.9379 9.9867 16.125 9.00125 16.125ZM9 15C9.70366 15 10.3813 14.881 11.0328 14.643C11.6843 14.405 12.2798 14.0606 12.8192 13.6096L4.39038 5.18074C3.94423 5.72016 3.60097 6.31564 3.36058 6.96718C3.12019 7.61872 3 8.29632 3 8.99998C3 10.675 3.58125 12.0937 4.74375 13.2562C5.90625 14.4187 7.325 15 9 15ZM13.6096 12.8192C14.0606 12.2798 14.405 11.6843 14.643 11.0328C14.881 10.3812 15 9.70365 15 8.99998C15 7.32498 14.4187 5.90623 13.2562 4.74373C12.0937 3.58123 10.675 2.99998 9 2.99998C8.29465 2.99998 7.61542 3.11777 6.96232 3.35334C6.30922 3.58893 5.71537 3.93461 5.18075 4.39037L13.6096 12.8192Z" fill="#484848"/>
</svg>
