<svg width="17" height="17" viewBox="0 0 17 17" fill="none" xmlns="http://www.w3.org/2000/svg">
<path d="M5.76922 13.8346H11.2308V11.8346C11.2308 11.0756 10.9654 10.4265 10.4346 9.88719C9.90383 9.34786 9.25896 9.0782 8.49998 9.0782C7.74101 9.0782 7.09613 9.34786 6.56537 9.88719C6.0346 10.4265 5.76922 11.0756 5.76922 11.8346V13.8346ZM3.5 14.8346V13.8346H4.76923V11.8346C4.76923 11.0842 4.97458 10.4011 5.38527 9.78525C5.79596 9.16944 6.34019 8.74145 7.01798 8.50129C6.34019 8.25685 5.79596 7.8278 5.38527 7.21412C4.97458 6.60044 4.76923 5.91839 4.76923 5.16795V3.16795H3.5V2.16797H13.5V3.16795H12.2307V5.16795C12.2307 5.91839 12.0254 6.60044 11.6147 7.21412C11.204 7.8278 10.6598 8.25685 9.98198 8.50129C10.6598 8.74145 11.204 9.16944 11.6147 9.78525C12.0254 10.4011 12.2307 11.0842 12.2307 11.8346V13.8346H13.5V14.8346H3.5Z" fill="#EACD37"/>
</svg>
