<svg width="18" height="18" viewBox="0 0 18 18" fill="none" xmlns="http://www.w3.org/2000/svg">
<path fill-rule="evenodd" clip-rule="evenodd" d="M12.375 3.75H5.625C5.05546 3.75 4.59375 4.21171 4.59375 4.78125C4.59375 5.35079 5.05546 5.8125 5.625 5.8125H12.375C12.9445 5.8125 13.4062 5.35079 13.4062 4.78125C13.4062 4.21171 12.9445 3.75 12.375 3.75ZM5.625 3.09375C4.69302 3.09375 3.9375 3.84927 3.9375 4.78125C3.9375 5.71323 4.69302 6.46875 5.625 6.46875H12.375C13.307 6.46875 14.0625 5.71323 14.0625 4.78125C14.0625 3.84927 13.307 3.09375 12.375 3.09375H5.625Z" fill="#484848"/>
<path fill-rule="evenodd" clip-rule="evenodd" d="M13.9091 6.44531H4.09091C3.46959 6.44531 2.96591 7.02245 2.96591 7.73437C2.96591 8.4463 3.46959 9.02344 4.09091 9.02344H13.9091C14.5304 9.02344 15.0341 8.4463 15.0341 7.73437C15.0341 7.02245 14.5304 6.44531 13.9091 6.44531ZM4.09091 5.625C3.0742 5.625 2.25 6.5694 2.25 7.73437C2.25 8.89935 3.07421 9.84375 4.09091 9.84375H13.9091C14.9258 9.84375 15.75 8.89935 15.75 7.73437C15.75 6.5694 14.9258 5.625 13.9091 5.625H4.09091Z" fill="#484848"/>
<path fill-rule="evenodd" clip-rule="evenodd" d="M15.6295 9.82031H2.37054C1.76031 9.82031 1.26562 10.3974 1.26562 11.1094C1.26562 11.8213 1.76031 12.3984 2.37054 12.3984H15.6295C16.2397 12.3984 16.7344 11.8213 16.7344 11.1094C16.7344 10.3974 16.2397 9.82031 15.6295 9.82031ZM2.37054 9C1.37199 9 0.5625 9.9444 0.5625 11.1094C0.5625 12.2744 1.37199 13.2187 2.37054 13.2187H15.6295C16.628 13.2187 17.4375 12.2744 17.4375 11.1094C17.4375 9.9444 16.628 9 15.6295 9H2.37054Z" fill="#484848"/>
<path d="M4.78137 14.4844L4.23018 15.0354C4.04265 15.2228 3.74009 15.3444 3.6043 15.1167C3.44303 14.8462 3.42843 14.3753 3.51562 14.0625L6.89075 2.67188H13.6407V3.51562L11.5314 4.35938L8.57825 14.4844H4.78137Z" fill="white"/>
<path fill-rule="evenodd" clip-rule="evenodd" d="M6.22183 3.4885C6.43306 2.75478 7.09983 2.25 7.85777 2.25H13.0404C13.6049 2.25 14.0625 2.71124 14.0625 3.28022V3.34563C14.0625 3.9146 13.6049 4.37584 13.0404 4.37584H12.0608C11.9087 4.37584 11.775 4.47749 11.7332 4.62492L8.79222 15.0025C8.64121 15.5354 8.09906 15.8524 7.5652 15.7199L7.39275 15.6771C6.93909 15.5646 6.62975 15.1619 6.61531 14.7107H5.198L5.1437 14.8577C4.99472 15.2609 4.6128 15.5283 4.18591 15.5283H4.11644C3.43565 15.5283 2.94515 14.87 3.13488 14.211L6.22183 3.4885ZM5.4143 14.0239H6.7511L9.58866 4.37584H8.43424C8.28248 4.37584 8.14902 4.47702 8.10692 4.62398L5.4143 14.0239ZM9.78912 3.68903L10.0057 2.93681H7.85777C7.403 2.93681 7.00294 3.23968 6.8762 3.67991L3.78926 14.4024C3.72601 14.6221 3.88951 14.8415 4.11644 14.8415H4.18591C4.3282 14.8415 4.45551 14.7524 4.50517 14.618L4.63758 14.2596L7.45229 4.43346C7.57859 3.99256 7.97897 3.68903 8.43424 3.68903H9.78912ZM10.7152 2.93681L10.3716 4.13004L7.33596 14.4517L7.30368 14.6059C7.26574 14.7871 7.37719 14.966 7.5556 15.0102L7.72805 15.053C7.906 15.0972 8.08672 14.9915 8.13706 14.8139L11.078 4.43628C11.2034 3.99398 11.6044 3.68903 12.0608 3.68903H13.0404C13.2286 3.68903 13.3811 3.53528 13.3811 3.34563V3.28022C13.3811 3.09056 13.2286 2.93681 13.0404 2.93681H10.7152Z" fill="#484848"/>
</svg>
