<svg width="18" height="18" viewBox="0 0 18 18" fill="none" xmlns="http://www.w3.org/2000/svg">
<path fill-rule="evenodd" clip-rule="evenodd" d="M3.59566 12.5016C3.06796 12.3188 2.59444 12.1108 2.1865 11.8829C0.929882 11.1809 0.26709 10.2532 0.26709 9.31687C0.26709 8.38052 0.929882 7.45289 2.1865 6.75089C3.73663 5.88493 6.23471 5.30519 9.05465 5.30519C9.17174 5.30519 9.28848 5.30626 9.4036 5.30822C9.86733 5.31535 10.2954 5.55844 10.5394 5.95283C10.7834 6.34741 10.8096 6.83893 10.6092 7.25596C10.5847 7.30747 10.5593 7.36004 10.5337 7.41351C10.433 7.62362 10.4471 7.87063 10.5711 8.06774C10.6951 8.26485 10.9119 8.38444 11.1448 8.38444H16.401C16.8577 8.38444 17.2828 8.61861 17.5268 9.00481C17.7708 9.39101 17.7996 9.87541 17.6031 10.288C17.599 10.2967 17.5947 10.3053 17.59 10.314C17.5533 10.3835 17.5223 10.4482 17.4902 10.5001C17.0757 11.1698 16.2532 11.7964 15.1103 12.2755C13.5723 12.9204 11.4274 13.3286 9.05465 13.3286C8.43766 13.3286 7.83618 13.3008 7.25662 13.2484C7.23737 13.4456 7.23487 13.6524 7.25145 13.8696C7.26624 14.0635 7.19959 14.2549 7.06735 14.3977C6.93511 14.5404 6.74941 14.6215 6.55497 14.6215H4.45842C4.26398 14.6215 4.07828 14.5404 3.94604 14.3977C3.8138 14.2549 3.74715 14.0635 3.76194 13.8696C3.80097 13.361 3.73485 12.9106 3.59566 12.5016ZM6.20531 13.9229H6.55497C6.45517 12.6221 6.92228 11.6401 7.60307 10.7784C6.82889 11.3108 6.2561 11.9663 5.88808 12.7469C6.01925 13.0758 6.12065 13.4232 6.1923 13.7885C6.20103 13.8333 6.20531 13.8782 6.20531 13.9229ZM4.45842 13.9229C4.55822 12.6221 4.09111 11.6401 3.41032 10.7784C4.54628 11.5594 5.24846 12.6055 5.50669 13.9229H4.45842ZM7.3983 12.5603C7.93313 12.6059 8.48703 12.6299 9.05465 12.6299C12.832 12.6299 16.0082 11.5671 16.8962 10.1324C16.921 10.0923 16.9438 10.0415 16.9723 9.98751C17.0657 9.79147 17.052 9.56139 16.9362 9.37782C16.8201 9.19426 16.6182 9.08305 16.4011 9.08305H11.1448C10.6716 9.08305 10.2318 8.84014 9.97978 8.43986C9.72796 8.03941 9.69927 7.53772 9.90386 7.11125C9.92935 7.05814 9.95448 7.00592 9.97889 6.95477C10.0766 6.75125 10.0639 6.51226 9.94521 6.32032C9.82652 6.12838 9.61818 6.01022 9.39273 6.00665C9.28064 6.00487 9.16782 6.0038 9.05465 6.0038C4.5903 6.0038 0.965704 7.48836 0.965704 9.31687C0.965704 10.186 1.78479 10.9777 3.12374 11.5688C3.04176 11.4468 2.95408 11.3279 2.86212 11.2115C2.6479 10.9404 2.66412 10.5533 2.90026 10.301C3.1364 10.0486 3.52135 10.0069 3.80614 10.2028C4.52792 10.699 5.09501 11.2897 5.50669 11.9757C5.91838 11.2899 6.48547 10.6991 7.20725 10.2028C7.49204 10.0069 7.87699 10.0486 8.11313 10.301C8.34927 10.5533 8.36549 10.9404 8.15127 11.2115C7.82834 11.6202 7.55852 12.0595 7.3983 12.5603ZM9.71246 11.2603C9.71246 11.2603 10.0532 11.0819 10.3728 10.9146C10.6146 10.7881 10.9031 10.7881 11.145 10.9146C11.2792 10.9848 11.4228 11.06 11.5568 11.1302C12.0017 11.363 12.5322 11.363 12.9771 11.1302C13.2966 10.9631 13.6373 10.7847 13.6373 10.7847C13.8083 10.6952 13.8744 10.484 13.7849 10.3131C13.6954 10.1424 13.4843 10.0763 13.3133 10.1657C13.3133 10.1657 12.9728 10.3441 12.6531 10.5113C12.4112 10.6378 12.1227 10.6378 11.8808 10.5113C11.7466 10.4411 11.6032 10.3659 11.469 10.2956C11.0241 10.0629 10.4936 10.0629 10.0488 10.2956C9.72921 10.463 9.38846 10.6414 9.38846 10.6414C9.21772 10.7307 9.15161 10.942 9.24089 11.1128C9.33036 11.2837 9.54155 11.3496 9.71246 11.2603ZM4.2777 9.63517C4.2777 9.63517 4.61846 9.45677 4.938 9.2896C5.17984 9.16289 5.46838 9.16289 5.71022 9.2896C5.84442 9.35982 5.98788 9.43485 6.12208 9.50507C6.56691 9.738 7.09747 9.738 7.5423 9.50507C7.86184 9.3379 8.2026 9.15951 8.2026 9.15951C8.37351 9.07004 8.43945 8.85885 8.35016 8.68794C8.26069 8.51721 8.04951 8.45109 7.8786 8.54056C7.8786 8.54056 7.53784 8.71895 7.2183 8.88612C6.97646 9.01283 6.68792 9.01283 6.44608 8.88612C6.31188 8.8159 6.16842 8.74087 6.03422 8.67065C5.58939 8.43772 5.05883 8.43772 4.614 8.67065C4.29446 8.83782 3.9537 9.01622 3.9537 9.01622C3.78279 9.10568 3.71685 9.31687 3.80614 9.4876C3.8956 9.65852 4.10679 9.72463 4.2777 9.63517ZM4.2777 8.226C4.2777 8.226 4.61846 8.0476 4.938 7.88044C5.17984 7.75372 5.46838 7.75372 5.71022 7.88044C5.84442 7.95065 5.98788 8.02568 6.12208 8.0959C6.56691 8.32883 7.09747 8.32883 7.5423 8.0959C7.86184 7.92873 8.2026 7.75034 8.2026 7.75034C8.37351 7.66087 8.43945 7.44968 8.35016 7.27895C8.26069 7.10804 8.04951 7.04192 7.8786 7.13139C7.8786 7.13139 7.53784 7.30978 7.2183 7.47695C6.97646 7.60366 6.68792 7.60366 6.44608 7.47695C6.31188 7.40673 6.16842 7.3317 6.03422 7.26149C5.58939 7.02856 5.05883 7.02856 4.614 7.26149C4.29446 7.42865 3.9537 7.60705 3.9537 7.60705C3.78279 7.69652 3.71685 7.9077 3.80614 8.07844C3.8956 8.24935 4.10679 8.31547 4.2777 8.226ZM13.1449 5.27471C13.5566 4.58875 14.1239 3.99796 14.8455 3.50163C15.1303 3.30576 15.5154 3.34764 15.7515 3.59982C15.9875 3.85218 16.0037 4.23927 15.7895 4.51034C15.2131 5.23996 14.8054 6.06725 14.8897 7.16846C14.9047 7.36254 14.8378 7.55394 14.7058 7.69652C14.5735 7.83927 14.3876 7.92054 14.1932 7.92054H12.0968C11.9022 7.92054 11.7165 7.83927 11.5843 7.69652C11.452 7.55394 11.3854 7.36254 11.4002 7.16846C11.4847 6.06725 11.0769 5.23996 10.5004 4.51034C10.2861 4.23927 10.3024 3.85218 10.5385 3.59982C10.7746 3.34764 11.1598 3.30576 11.4444 3.50163C12.1662 3.99796 12.7334 4.58875 13.1449 5.27471ZM12.7635 6.04586C12.3955 5.26509 11.8227 4.60961 11.0486 4.07727C11.7295 4.93895 12.1965 5.92111 12.0968 7.22192H12.4463C12.4463 7.17701 12.4506 7.1321 12.4595 7.08737C12.5312 6.72202 12.6326 6.37467 12.7635 6.04586ZM14.1932 7.22192C14.0936 5.92111 14.5605 4.93895 15.2413 4.07727C14.1055 4.8584 13.4033 5.90436 13.1449 7.22192H14.1932Z" fill="#484848"/>
</svg>
