<svg width="34" height="34" viewBox="0 0 34 34" fill="none" xmlns="http://www.w3.org/2000/svg">
<g clip-path="url(#clip0_686_18877)">
<path d="M17 34C26.3888 34 34 26.3888 34 17C34 7.61116 26.3888 0 17 0C7.61116 0 0 7.61116 0 17C0 26.3888 7.61116 34 17 34Z" fill="#29A71A"/>
<path d="M24.4955 9.50368C22.7268 7.71732 20.378 6.62181 17.8727 6.41475C15.3674 6.20768 12.8706 6.90269 10.8326 8.37442C8.79458 9.84615 7.34959 11.9977 6.75824 14.441C6.1669 16.8843 6.46812 19.4585 7.60758 21.6992L6.48906 27.1296C6.47745 27.1836 6.47712 27.2395 6.48809 27.2937C6.49906 27.3479 6.52109 27.3992 6.55281 27.4445C6.59927 27.5132 6.66559 27.5661 6.74291 27.5961C6.82023 27.6262 6.90487 27.6319 6.98553 27.6125L12.3077 26.3511C14.5422 27.4617 17.0982 27.7435 19.5209 27.1465C21.9437 26.5494 24.0761 25.1122 25.5386 23.0905C27.0012 21.0688 27.699 18.5938 27.508 16.1058C27.317 13.6179 26.2495 11.2784 24.4955 9.50368ZM22.8361 22.7482C21.6123 23.9685 20.0365 24.7741 18.3306 25.0514C16.6248 25.3286 14.8749 25.0636 13.3277 24.2937L12.5859 23.9266L9.32303 24.6994L9.33269 24.6588L10.0088 21.3747L9.64565 20.658C8.85507 19.1053 8.57618 17.3423 8.84894 15.6214C9.12169 13.9006 9.9321 12.3102 11.1641 11.0781C12.712 9.53062 14.8113 8.66128 17.0001 8.66128C19.1889 8.66128 21.2881 9.53062 22.8361 11.0781C22.8493 11.0932 22.8635 11.1074 22.8786 11.1206C24.4074 12.6721 25.2608 14.765 25.2529 16.9432C25.2449 19.1213 24.3762 21.208 22.8361 22.7482Z" fill="white"/>
<path d="M22.5466 20.3399C22.1467 20.9697 21.515 21.7405 20.7211 21.9317C19.3302 22.2679 17.1955 21.9433 14.5392 19.4667L14.5064 19.4378C12.1708 17.2722 11.5642 15.4698 11.7111 14.0403C11.7922 13.2289 12.4683 12.4948 13.0382 12.0157C13.1283 11.9388 13.2352 11.8841 13.3502 11.8558C13.4652 11.8276 13.5853 11.8267 13.7007 11.8532C13.8162 11.8797 13.9239 11.9328 14.0151 12.0083C14.1064 12.0838 14.1787 12.1796 14.2263 12.2881L15.0859 14.2199C15.1418 14.3452 15.1625 14.4833 15.1458 14.6194C15.1292 14.7555 15.0757 14.8846 14.9913 14.9926L14.5566 15.5567C14.4634 15.6732 14.4071 15.8149 14.395 15.9637C14.383 16.1124 14.4157 16.2613 14.489 16.3913C14.7324 16.8182 15.3158 17.4461 15.963 18.0275C16.6894 18.6843 17.4949 19.2851 18.0049 19.4899C18.1414 19.5457 18.2914 19.5593 18.4357 19.529C18.58 19.4987 18.7119 19.4259 18.8144 19.3199L19.3186 18.8118C19.4159 18.7159 19.5368 18.6475 19.6692 18.6136C19.8015 18.5796 19.9405 18.5814 20.072 18.6187L22.1139 19.1982C22.2265 19.2328 22.3298 19.2926 22.4157 19.3732C22.5017 19.4538 22.5681 19.5529 22.6099 19.6631C22.6516 19.7733 22.6676 19.8915 22.6567 20.0088C22.6457 20.1261 22.6081 20.2394 22.5466 20.3399Z" fill="white"/>
</g>
<defs>
<clipPath id="clip0_686_18877">
<rect width="34" height="34" fill="white"/>
</clipPath>
</defs>
</svg>
