<svg width="18" height="18" viewBox="0 0 18 18" fill="none" xmlns="http://www.w3.org/2000/svg">
<path d="M8.99945 15.5333C8.57542 15.5333 8.21701 15.387 7.92423 15.0942C7.63144 14.8014 7.48505 14.443 7.48505 14.0189C7.48505 13.5949 7.63144 13.2365 7.92423 12.9437C8.21701 12.6509 8.57542 12.5045 8.99945 12.5045C9.42347 12.5045 9.78188 12.6509 10.0747 12.9437C10.3675 13.2365 10.5138 13.5949 10.5138 14.0189C10.5138 14.443 10.3675 14.8014 10.0747 15.0942C9.78188 15.387 9.42347 15.5333 8.99945 15.5333ZM4.76195 11.5122L3.59082 10.318C4.28505 9.62377 5.09337 9.07666 6.0158 8.67666C6.93823 8.27666 7.93318 8.07666 9.00065 8.07666C10.0681 8.07666 11.0627 8.27859 11.9843 8.68244C12.9059 9.08627 13.7138 9.63915 14.4081 10.3411L13.2369 11.5122C12.6869 10.9622 12.0494 10.531 11.3244 10.2185C10.5994 9.90595 9.82445 9.7497 8.99945 9.7497C8.17445 9.7497 7.39945 9.90595 6.67445 10.2185C5.94945 10.531 5.31195 10.9622 4.76195 11.5122ZM1.57445 8.3247L0.40332 7.15358C1.50043 6.04108 2.78168 5.1668 4.24705 4.53075C5.71244 3.89469 7.29657 3.57666 8.99945 3.57666C10.7023 3.57666 12.2865 3.89469 13.7518 4.53075C15.2172 5.1668 16.4985 6.04108 17.5956 7.15358L16.4244 8.3247C15.4619 7.3622 14.3463 6.60908 13.0776 6.06533C11.8088 5.52158 10.4494 5.2497 8.99945 5.2497C7.54945 5.2497 6.19007 5.52158 4.92132 6.06533C3.65257 6.60908 2.53695 7.3622 1.57445 8.3247Z" fill="#484848"/>
</svg>
