<svg width="18" height="18" viewBox="0 0 18 18" fill="none" xmlns="http://www.w3.org/2000/svg">
<path d="M12.9375 4.5H4.21875C2.205 4.5 0.5625 6.51938 0.5625 9C0.5625 11.4806 2.205 13.5 4.21875 13.5H12.9375C14.131 13.5 15.2756 13.0259 16.1195 12.182C16.9634 11.3381 17.4375 10.1935 17.4375 9C17.4375 7.80653 16.9634 6.66193 16.1195 5.81802C15.2756 4.97411 14.131 4.5 12.9375 4.5ZM1.6875 9C1.6875 7.13813 2.8125 5.625 4.21875 5.625C5.625 5.625 6.75 7.13813 6.75 9C6.75 10.8619 5.625 12.375 4.21875 12.375C2.8125 12.375 1.6875 10.8619 1.6875 9ZM12.9375 12.375H6.62625C7.44879 11.4451 7.89416 10.2414 7.875 9C7.87471 8.62192 7.83512 8.24489 7.75687 7.875H10.125C10.2742 7.875 10.4173 7.81574 10.5227 7.71025C10.6282 7.60476 10.6875 7.46168 10.6875 7.3125C10.6875 7.16332 10.6282 7.02024 10.5227 6.91475C10.4173 6.80926 10.2742 6.75 10.125 6.75H7.38C7.18747 6.33883 6.93329 5.95945 6.62625 5.625H12.9375C13.7345 5.62581 14.5055 5.90864 15.1139 6.4234C15.7224 6.93817 16.129 7.65165 16.2619 8.4375H13.7644C13.6152 8.4375 13.4721 8.49676 13.3666 8.60225C13.2611 8.70774 13.2019 8.85082 13.2019 9C13.2019 9.14918 13.2611 9.29226 13.3666 9.39775C13.4721 9.50324 13.6152 9.5625 13.7644 9.5625H16.2619C16.129 10.3483 15.7224 11.0618 15.1139 11.5766C14.5055 12.0914 13.7345 12.3742 12.9375 12.375Z" fill="#484848"/>
<path d="M6.255 9.00008C6.255 7.6557 5.34375 6.56445 4.21875 6.56445C4.06957 6.56445 3.92649 6.62372 3.821 6.72921C3.71551 6.83469 3.65625 6.97777 3.65625 7.12695C3.65625 7.27614 3.71551 7.41921 3.821 7.5247C3.92649 7.63019 4.06957 7.68945 4.21875 7.68945C4.71375 7.68945 5.13 8.29133 5.13 9.00008C5.13 9.70883 4.71375 10.3107 4.21875 10.3107C4.06957 10.3107 3.92649 10.37 3.821 10.4755C3.71551 10.5809 3.65625 10.724 3.65625 10.8732C3.65625 11.0224 3.71551 11.1655 3.821 11.271C3.92649 11.3764 4.06957 11.4357 4.21875 11.4357C5.33813 11.4357 6.255 10.3445 6.255 9.00008Z" fill="#484848"/>
<path d="M12.375 10.125H9.2644C9.11522 10.125 8.97215 10.1843 8.86666 10.2898C8.76117 10.3952 8.7019 10.5383 8.7019 10.6875C8.7019 10.8367 8.76117 10.9798 8.86666 11.0852C8.97215 11.1907 9.11522 11.25 9.2644 11.25H12.375C12.5242 11.25 12.6673 11.1907 12.7728 11.0852C12.8783 10.9798 12.9375 10.8367 12.9375 10.6875C12.9375 10.5383 12.8783 10.3952 12.7728 10.2898C12.6673 10.1843 12.5242 10.125 12.375 10.125Z" fill="#484848"/>
</svg>
