<svg width="284" height="192" viewBox="0 0 284 192" fill="none" xmlns="http://www.w3.org/2000/svg">
<path opacity="0.6" d="M141.739 162.939C183.451 162.939 217.265 159.774 217.265 155.87C217.265 151.966 183.451 148.801 141.739 148.801C100.027 148.801 66.2134 151.966 66.2134 155.87C66.2134 159.774 100.027 162.939 141.739 162.939Z" fill="#E9FBE8"/>
<path fill-rule="evenodd" clip-rule="evenodd" d="M147.901 71.1707L142.726 63.752C142.567 63.5243 142.231 63.5244 142.072 63.752L136.896 71.1707C135.453 73.2389 132.874 74.1804 130.443 73.5261L121.723 71.1792C121.455 71.1072 121.198 71.3239 121.222 71.6006L122.013 80.6198C122.233 83.1343 120.861 85.5182 118.579 86.5841L110.395 90.4071C110.144 90.5244 110.085 90.8563 110.281 91.0527L116.668 97.4522C118.449 99.2363 118.925 101.947 117.861 104.234L114.042 112.439C113.924 112.69 114.093 112.982 114.368 113.006L123.363 113.792C125.871 114.011 127.973 115.78 128.624 118.219L130.957 126.965C131.029 127.233 131.345 127.349 131.571 127.189L138.965 121.993C141.026 120.544 143.771 120.544 145.833 121.993L153.226 127.189C153.453 127.349 153.769 127.233 153.84 126.965L156.174 118.219C156.824 115.78 158.927 114.011 161.435 113.792L170.429 113.006C170.705 112.982 170.873 112.69 170.756 112.439L166.937 104.234C165.872 101.947 166.349 99.2363 168.13 97.4522L174.516 91.0527C174.712 90.8563 174.654 90.5244 174.403 90.4071L166.219 86.5841C163.937 85.5182 162.564 83.1343 162.785 80.6198L163.575 71.6006C163.6 71.3239 163.342 71.1072 163.075 71.1792L154.355 73.5261C151.924 74.1804 149.344 73.239 147.901 71.1707ZM145.013 62.1469C143.743 60.326 141.054 60.326 139.784 62.1469L134.609 69.5656C133.839 70.6687 132.463 71.1708 131.167 70.8218L122.447 68.4749C120.307 67.8989 118.247 69.6321 118.441 71.8458L119.231 80.865C119.349 82.206 118.617 83.4775 117.4 84.0459L109.216 87.869C107.207 88.8073 106.74 91.4627 108.308 93.0334L114.695 99.4329C115.644 100.384 115.898 101.83 115.331 103.05L111.512 111.254C110.574 113.268 111.919 115.603 114.126 115.796L123.121 116.581C124.458 116.698 125.58 117.642 125.927 118.942L128.26 127.689C128.832 129.835 131.359 130.758 133.174 129.482L140.567 124.286C141.667 123.513 143.131 123.513 144.23 124.286L151.624 129.482C153.438 130.758 155.965 129.835 156.538 127.689L158.871 118.942C159.218 117.642 160.339 116.698 161.677 116.581L170.671 115.796C172.879 115.603 174.223 113.268 173.286 111.254L169.467 103.05C168.899 101.83 169.153 100.384 170.103 99.4329L176.49 93.0334C178.057 91.4627 177.59 88.8073 175.582 87.869L167.398 84.0459C166.181 83.4775 165.449 82.206 165.566 80.865L166.357 71.8458C166.551 69.6321 164.491 67.8989 162.351 68.4749L153.631 70.8218C152.334 71.1708 150.959 70.6687 150.189 69.5656L145.013 62.1469Z" fill="#484848"/>
<path d="M138.84 107.998C138.183 107.998 137.559 107.725 137.1 107.247L129.152 98.9863C128.2 97.9963 128.2 96.3578 129.152 95.3678C130.105 94.3778 131.681 94.3778 132.633 95.3678L138.84 101.82L152.962 87.1409C153.914 86.1509 155.49 86.1509 156.443 87.1409C157.395 88.1309 157.395 89.7695 156.443 90.7593L140.581 107.247C140.121 107.725 139.497 107.998 138.84 107.998Z" fill="#4CAF50"/>
<path d="M70.6922 124.532C72.227 128.765 76.9048 130.953 81.1414 129.42C85.3774 127.886 87.5673 123.212 86.0325 118.979C84.4978 114.746 79.82 112.558 75.5833 114.091C71.3474 115.625 69.1575 120.299 70.6922 124.532ZM83.271 119.978C84.253 122.687 82.8515 125.679 80.1405 126.66C77.4295 127.642 74.4351 126.241 73.4531 123.532C72.4711 120.823 73.8725 117.831 76.5836 116.85C79.2946 115.869 82.2883 117.269 83.271 119.978Z" fill="#DBF9D8"/>
<path d="M187.962 56.5325C189.497 60.7651 194.174 62.9533 198.411 61.4198C202.647 59.8862 204.837 55.212 203.302 50.9786C201.767 46.7459 197.089 44.5577 192.853 46.0913C188.617 47.6248 186.427 52.2991 187.962 56.5325ZM200.541 51.9781C201.523 54.687 200.121 57.6791 197.41 58.6604C194.699 59.6416 191.705 58.2412 190.723 55.5323C189.741 52.8233 191.142 49.8312 193.853 48.85C196.564 47.8687 199.559 49.2691 200.541 51.9781Z" fill="#DBF9D8"/>
<path d="M93.7706 67.1553C94.4153 65.3767 93.4949 63.4126 91.7149 62.7684C89.9349 62.1242 87.9693 63.0438 87.3246 64.8224C86.6799 66.6011 87.6002 68.5652 89.3802 69.2094C91.1602 69.8536 93.1259 68.934 93.7706 67.1553Z" fill="#4CAF50"/>
<path d="M217.042 137.788C219.407 136.376 220.176 133.304 218.76 130.927C217.343 128.55 214.278 127.768 211.913 129.179C209.547 130.592 208.778 133.663 210.194 136.04C211.611 138.417 214.676 139.2 217.042 137.788ZM212.836 130.728C214.35 129.825 216.312 130.326 217.218 131.847C218.124 133.368 217.632 135.334 216.118 136.238C214.605 137.141 212.643 136.64 211.736 135.119C210.83 133.598 211.322 131.632 212.836 130.728Z" fill="#DBF9D8"/>
<path d="M118.918 40.1861C121.283 38.7744 122.053 35.7025 120.636 33.3257C119.22 30.9485 116.154 30.166 113.789 31.5777C111.424 32.9899 110.654 36.0613 112.07 38.4381C113.487 40.8154 116.552 41.5984 118.918 40.1861ZM114.712 33.1269C116.226 32.2235 118.188 32.724 119.094 34.2454C120.001 35.7668 119.509 37.7326 117.995 38.6359C116.481 39.5393 114.519 39.0388 113.613 37.5174C112.706 35.996 113.198 34.0303 114.712 33.1269Z" fill="#DBF9D8"/>
<path d="M190.914 112.46C192.652 111.722 193.459 109.709 192.716 107.963C191.974 106.218 189.963 105.402 188.225 106.14C186.487 106.878 185.68 108.891 186.423 110.637C187.165 112.382 189.176 113.199 190.914 112.46Z" fill="#4CAF50"/>
</svg>
