<?xml version="1.0" encoding="UTF-8"?>
<svg xmlns="http://www.w3.org/2000/svg" width="100%" height="100%" viewBox="0 0 36 36" fill="none">
  <path d="M18.0467 6.33355C16.4985 4.46076 17.9314 2.70344 18.8414 2.05887C20.7812 3.2332 23.093 8.6868 23.4697 11.7994C23.8463 14.912 20.3402 16.4538 17.618 16.443C14.8958 16.4323 14.5115 15.2641 12.9636 13.3136C11.7253 11.7531 13.5021 8.26009 14.5452 6.70863L14.536 9.04195C14.5284 10.9864 16.0839 10.9925 17.6395 10.9986C19.195 11.0048 19.982 8.67453 18.0467 6.33355Z" fill="#B7DFB9"></path>
  <path fill-rule="evenodd" clip-rule="evenodd" d="M5.17555 16.0051C5.17622 15.836 5.3138 15.6995 5.48285 15.7002L29.8911 15.7964C30.1647 15.7975 30.3867 16.0184 30.3891 16.292L30.3915 16.5662L29.6138 16.5731C30.3915 16.5662 30.3916 16.5671 30.3916 16.5671L30.3916 16.5682L30.3916 16.5713L30.3916 16.5809L30.3915 16.6128C30.3913 16.6397 30.3909 16.6778 30.3897 16.7264C30.3875 16.8234 30.3826 16.9622 30.3722 17.1369C30.3513 17.4861 30.3082 17.9799 30.2188 18.5703C30.0407 19.7472 29.6759 21.3288 28.9243 22.9177C28.1715 24.5092 27.0212 26.127 25.2655 27.3399C23.5035 28.5572 21.1807 29.3323 18.1459 29.3094C14.7923 29.2839 12.265 28.487 10.3727 27.2595C8.48187 26.0329 7.27448 24.4082 6.50809 22.8041C5.74414 21.2051 5.4144 19.6195 5.27383 18.4412C5.20331 17.8501 5.17975 17.356 5.17398 17.0065C5.17109 16.8316 5.17265 16.6924 5.17505 16.5949C5.17625 16.5462 5.17767 16.5078 5.17884 16.4805L5.18038 16.448L5.18091 16.4382L5.1811 16.4349L5.18117 16.4337L5.17402 16.394L5.17555 16.0051V16.0051ZM6.73754 17.2607C6.7489 17.5335 6.77243 17.8713 6.81843 18.2569C6.9456 19.323 7.24201 20.7319 7.91168 22.1335C8.5789 23.5301 9.6126 24.9122 11.2193 25.9545C12.8247 26.9959 15.0515 27.7302 18.1576 27.7539C20.9074 27.7747 22.9097 27.0768 24.3814 26.0601C25.8595 25.0389 26.8516 23.6617 27.5181 22.2526C28.1859 20.841 28.5174 19.4165 28.6807 18.3375C28.7384 17.9563 28.7747 17.6209 28.7976 17.3477L6.73754 17.2607Z" fill="#484848"></path>
  <path fill-rule="evenodd" clip-rule="evenodd" d="M17.934 23.2916C18.3636 23.2933 18.7104 23.6429 18.7087 24.0725L18.6698 33.9466C18.6681 34.3761 18.3185 34.723 17.8889 34.7213C17.4594 34.7196 17.1125 34.37 17.1142 33.9405L17.1532 24.0663C17.1549 23.6368 17.5045 23.2899 17.934 23.2916Z" fill="#484848"></path>
  <path fill-rule="evenodd" clip-rule="evenodd" d="M21.871 27.3007C22.1855 27.0081 22.6776 27.0259 22.9702 27.3405L28.1293 32.8868C28.4219 33.2013 28.4041 33.6935 28.0896 33.986C27.775 34.2786 27.2829 34.2608 26.9903 33.9463L21.8312 28.3999C21.5386 28.0854 21.5564 27.5933 21.871 27.3007Z" fill="#484848"></path>
  <path fill-rule="evenodd" clip-rule="evenodd" d="M13.8107 27.2686C14.1231 27.5635 14.1373 28.0557 13.8424 28.3681L8.64567 33.8736C8.35081 34.186 7.85855 34.2002 7.54618 33.9053C7.23381 33.6105 7.2196 33.1182 7.51446 32.8058L12.7112 27.3003C13.0061 26.988 13.4983 26.9738 13.8107 27.2686Z" fill="#484848"></path>
  <path fill-rule="evenodd" clip-rule="evenodd" d="M18.7982 2.96698C18.5312 3.09342 18.2327 3.28552 18.0525 3.55108C17.9336 3.7262 17.8557 3.94751 17.8901 4.26143C17.9266 4.59377 18.0952 5.07809 18.5729 5.7392L18.5807 5.74999L18.5881 5.76104C19.4749 7.08128 19.8049 8.42182 19.5881 9.55102C19.366 10.7081 18.5663 11.5897 17.3921 11.8155L17.3671 11.8204L17.3418 11.8235C16.3561 11.9469 15.541 11.7875 14.9143 11.3506C14.2927 10.9173 13.9655 10.2865 13.7999 9.68122C13.7893 9.64233 13.7792 9.60327 13.7698 9.5641C13.5441 10.3054 13.4253 11.1999 13.5672 12.2242L13.5684 12.2332C13.7053 13.3137 14.1052 13.9959 14.582 14.4436C15.0699 14.9019 15.6948 15.1666 16.3532 15.3055C17.0117 15.4444 17.6665 15.4492 18.166 15.4158C18.4133 15.3992 18.6167 15.3738 18.7558 15.3529C18.8253 15.3425 18.8783 15.3333 18.9124 15.327C18.9294 15.3239 18.9416 15.3215 18.9488 15.3201L18.9546 15.3189L18.9556 15.3187L18.99 15.3114L19.0233 15.3074L19.0247 15.3073L19.0266 15.307C19.0308 15.3064 19.0388 15.3054 19.0503 15.3036C19.0734 15.3002 19.1107 15.2942 19.1601 15.2851C19.2592 15.2667 19.4059 15.2357 19.5844 15.1867C19.9442 15.0878 20.4185 14.9197 20.8902 14.6445C21.8134 14.1058 22.7149 13.1743 22.7714 11.4673C22.7899 10.9077 22.6112 10.1372 22.2657 9.22595C21.9265 8.33125 21.4539 7.37029 20.9501 6.45381C20.1364 4.97369 19.2635 3.64872 18.7982 2.96698ZM19.2449 16.8472C19.2314 16.8498 19.2142 16.8532 19.1934 16.857C19.1438 16.8661 19.074 16.8781 18.9865 16.8912C18.812 16.9174 18.5658 16.9481 18.2697 16.9679C17.6824 17.0071 16.875 17.0054 16.0321 16.8276C15.189 16.6497 14.2732 16.2876 13.5171 15.5776C12.7507 14.8579 12.2038 13.8322 12.0257 12.4332C11.5717 9.14308 13.2709 6.92385 13.8692 6.25676M19.2449 16.8472C19.2549 16.8458 19.2667 16.8441 19.2802 16.8421C19.3201 16.8362 19.3752 16.8272 19.4436 16.8146C19.58 16.7893 19.7701 16.7488 19.9965 16.6867C20.4465 16.563 21.0548 16.3495 21.6742 15.9881C22.9331 15.2535 24.2475 13.8917 24.3261 11.5187C24.3549 10.648 24.0884 9.64556 23.7203 8.6745C23.3458 7.68689 22.8364 6.65611 22.3132 5.70448C21.2684 3.80376 20.1359 2.15892 19.8157 1.70366C19.5661 1.34468 19.1189 1.1949 18.7031 1.33169L18.1706 1.50687L18.1705 1.54308C17.7255 1.74872 17.1556 2.1025 16.7653 2.67761C16.4503 3.1417 16.267 3.72983 16.3439 4.43091C16.4183 5.11034 16.7307 5.84286 17.3039 6.63887C18.0255 7.71769 18.1788 8.64139 18.0605 9.25769C17.9489 9.83874 17.6022 10.1823 17.1216 10.2833C16.4193 10.3666 16.0285 10.2311 15.804 10.0746C15.5716 9.91257 15.4038 9.64873 15.3003 9.27074C15.0846 8.48195 15.2276 7.48481 15.3269 7.00282C15.4213 6.58307 15.1891 6.21476 14.8752 6.06073C14.5696 5.91082 14.1493 5.94453 13.8692 6.25676M15.0275 7.29515C15.0275 7.29505 15.0274 7.29524 15.0275 7.29515Z" fill="#484848"></path>
</svg>
