<?xml version="1.0" encoding="UTF-8"?>
<svg xmlns="http://www.w3.org/2000/svg" viewBox="0 0 30 32" fill="none">
  <path d="M24.5713 17.8866C23.6343 18.8163 19.7623 21.1084 17.9434 22.1383C18.7136 24.0858 20.6533 25.2601 22.6008 24.49C24.5483 23.7199 25.7426 16.7246 24.5713 17.8866Z" fill="#B7DFB9"></path>
  <path fill-rule="evenodd" clip-rule="evenodd" d="M17.371 6.73926C17.3709 6.73865 17.3708 6.73806 18.1369 6.60397C18.903 6.46989 18.9029 6.46933 18.9028 6.4688L18.9027 6.46783L18.9024 6.46622L18.902 6.46433C18.9019 6.46366 18.902 6.46416 18.9023 6.4658C18.903 6.46908 18.9046 6.47691 18.9073 6.48908C18.9129 6.51342 18.9229 6.55503 18.9391 6.61209C18.9715 6.72622 19.0282 6.90191 19.1214 7.1246C19.3076 7.56959 19.6398 8.20314 20.2163 8.91008C21.3624 10.3156 23.5123 12.0578 27.517 13.1575L27.105 14.6575C22.8152 13.4795 20.3781 11.57 19.0107 9.89313C18.3305 9.05891 17.9244 8.29364 17.6864 7.7251C17.5676 7.44103 17.4908 7.20627 17.4426 7.03666C17.4186 6.95184 17.4017 6.88326 17.3902 6.83286C17.3845 6.80766 17.3802 6.787 17.377 6.77112L17.3731 6.75091L17.3717 6.74356L17.3712 6.74057L17.371 6.73926Z" fill="#484848"></path>
  <path fill-rule="evenodd" clip-rule="evenodd" d="M24.2055 16.8408C24.2055 16.8411 24.2056 16.8414 24.9758 16.7333C25.746 16.6252 25.7461 16.6255 25.7461 16.6259L25.7463 16.6267L25.7465 16.6286L25.7472 16.6336L25.749 16.6478C25.7505 16.6593 25.7523 16.6745 25.7544 16.6935C25.7586 16.7313 25.7638 16.784 25.769 16.8502C25.7793 16.9826 25.7895 17.1698 25.7906 17.4019C25.7929 17.8655 25.759 18.5131 25.6163 19.2657C25.3306 20.7726 24.6047 22.7149 22.8498 24.4249L22.8196 24.4542L22.7866 24.4801C21.9477 25.1372 21.0934 25.3561 20.2796 25.1818C19.5058 25.0161 18.9028 24.5224 18.4683 24.0334C18.0276 23.5374 17.6995 22.9779 17.4852 22.5575C17.3765 22.3443 17.2935 22.1599 17.2371 22.0271C17.2089 21.9606 17.1871 21.9066 17.172 21.868C17.1644 21.8487 17.1584 21.8333 17.1541 21.822L17.149 21.8082L17.1473 21.8037L17.1467 21.802L17.1465 21.8014C17.1463 21.8011 17.1462 21.8008 17.8766 21.5334C18.607 21.266 18.6069 21.2658 18.6068 21.2656L18.6087 21.2706L18.6197 21.2991C18.6301 21.3255 18.6466 21.3664 18.6689 21.4189C18.7136 21.5243 18.7814 21.6753 18.871 21.851C19.0532 22.2083 19.3116 22.6405 19.6312 23.0002C19.9569 23.3668 20.2878 23.5927 20.6053 23.6607C20.8772 23.719 21.2614 23.688 21.7951 23.2804C23.2465 21.8519 23.8482 20.2408 24.088 18.9759C24.2089 18.3381 24.2369 17.792 24.2351 17.4094C24.2342 17.2185 24.2258 17.0694 24.2182 16.9714C24.2143 16.9225 24.2107 16.8864 24.2082 16.8643L24.2056 16.8419L24.2055 16.8408ZM24.2055 16.8408L24.2053 16.8394L24.2054 16.8403L24.2055 16.8408Z" fill="#484848"></path>
  <path d="M12.9515 6.04329C12.0145 6.97293 9.69185 10.8268 8.64766 12.6375C6.7063 11.8519 5.54731 9.90301 6.33275 7.96164C7.11819 6.02028 14.1227 4.88123 12.9515 6.04329Z" fill="#B7DFB9"></path>
  <path fill-rule="evenodd" clip-rule="evenodd" d="M23.0922 2.34126C20.7466 2.6776 17.4698 3.73411 13.8594 6.66306C11.2826 8.7615 9.98557 11.0339 9.36627 13.0735C8.81933 14.8697 8.79362 16.5059 8.90568 17.6932C8.96163 18.286 9.05158 18.7636 9.12616 19.0887C9.16341 19.2512 9.19673 19.3751 9.21986 19.4558C9.23142 19.4962 9.24042 19.5257 9.24609 19.5438L9.25196 19.5622L9.25223 19.5631L9.25252 19.5639L9.25283 19.5649L9.67322 20.8081L8.37957 20.578L8.37738 20.5776L8.36701 20.5759L8.32168 20.5683C8.28085 20.5616 8.21929 20.5518 8.13958 20.5401C7.98006 20.5166 7.74846 20.4851 7.46531 20.4544C6.89691 20.3926 6.13084 20.3348 5.32807 20.347C4.51879 20.3593 3.70917 20.4426 3.03781 20.644C2.35691 20.8482 1.92237 21.1418 1.70617 21.4963C1.67293 21.5511 1.65137 21.5939 1.6374 21.626C1.74431 21.6852 1.9266 21.7512 2.20618 21.8141C2.48943 21.8777 2.82335 21.928 3.19766 21.9757C3.35647 21.996 3.52424 22.0159 3.69715 22.0363C4.30295 22.1081 4.97177 22.1873 5.53914 22.3172C5.90997 22.4022 6.29122 22.5194 6.62049 22.6989C6.95064 22.8789 7.29124 23.1564 7.46964 23.5878C7.57582 23.8448 7.65447 24.1765 7.71967 24.5042C7.78731 24.8442 7.85119 25.2377 7.91545 25.6421C7.92408 25.6964 7.93273 25.7509 7.9414 25.8056C8.0645 26.5821 8.19361 27.3965 8.36647 28.0965C8.45865 28.4698 8.55746 28.7855 8.66338 29.0298C8.74035 29.2073 8.80725 29.3144 8.85396 29.3743C8.92047 29.3309 9.03326 29.2403 9.19146 29.0577L9.19221 29.0568C10.0507 28.0688 10.392 26.7411 10.4772 25.4723C10.5607 24.2297 10.3922 23.1338 10.3055 22.6684C10.2727 22.5194 10.2777 22.346 10.3508 22.174C10.4348 21.9761 10.5813 21.8455 10.7224 21.7715C10.9879 21.6323 11.2991 21.6513 11.5413 21.7979L11.5679 21.814L11.5857 21.8268C11.5944 21.8312 11.6305 21.848 11.7089 21.8683C11.8223 21.8977 12.0045 21.9293 12.2848 21.9474C14.4557 21.7927 16.2188 21.4514 17.7065 20.9666C20.6685 19.9919 22.5864 18.4033 24.4054 16.3351C25.0123 15.6419 25.6086 14.896 26.2372 14.1005C27.8122 12.091 28.3097 9.50943 28.3912 7.3586C28.4316 6.29238 28.3689 5.3561 28.296 4.68751C28.2885 4.61849 28.2809 4.55238 28.2733 4.48935L25.7247 5.25439L26.1341 2.26137C26.0506 2.25224 25.9598 2.24353 25.8621 2.23573C25.2164 2.1842 24.2682 2.17263 23.0922 2.34126ZM27.0074 1.61602L27.2021 0.863004L27.4413 0.92484C27.6867 0.98831 27.8458 1.22547 27.8115 1.47668L27.5936 3.06924L28.9738 2.65495C29.2549 2.57057 29.5479 2.74533 29.6072 3.03277L29.6685 3.32989L28.9068 3.48712C29.6685 3.32989 29.6685 3.32989 29.6685 3.32989L29.6692 3.33297L29.6703 3.33851L29.6739 3.35684C29.6769 3.37225 29.6811 3.394 29.6863 3.42181C29.6966 3.47742 29.7108 3.55731 29.7273 3.65928C29.7603 3.86312 29.8029 4.15565 29.8424 4.51903C29.9215 5.24469 29.9896 6.25889 29.9457 7.41751C29.8586 9.71597 29.3269 12.681 27.4604 15.0614L27.4586 15.0637C26.8294 15.86 26.2112 16.6341 25.5753 17.3603L25.5742 17.3616C23.6353 19.5663 21.4964 21.3574 18.1914 22.4446L18.1893 22.4453C16.5474 22.9804 14.6397 23.3425 12.3428 23.5027L12.2938 23.5061L12.2448 23.5034C12.1566 23.4984 12.0717 23.4921 11.99 23.4845C12.0478 24.0682 12.0818 24.7944 12.0293 25.5766C11.9329 27.0108 11.5391 28.7274 10.3664 30.0771C10.0354 30.459 9.65757 30.7776 9.21855 30.9052C8.71331 31.0522 8.25018 30.9127 7.90067 30.6178C7.59209 30.3573 7.38451 29.9907 7.23618 29.6485C7.08206 29.293 6.95887 28.8849 6.85629 28.4695C6.66675 27.702 6.52774 26.8242 6.40732 26.0637C6.39783 26.0038 6.38845 25.9446 6.37918 25.8862C6.31443 25.4788 6.25492 25.1139 6.19402 24.8078C6.13094 24.4907 6.07601 24.289 6.0326 24.1834C6.02832 24.1761 5.99751 24.131 5.87601 24.0648C5.72571 23.9828 5.50067 23.9043 5.19181 23.8335C4.71404 23.7241 4.16382 23.6587 3.57479 23.5887C3.38703 23.5664 3.19532 23.5436 3.00076 23.5188C2.61499 23.4695 2.22204 23.412 1.86493 23.3317C1.51638 23.2533 1.14837 23.1421 0.839088 22.9614C0.52299 22.7767 0.18663 22.4684 0.085252 21.9798C-0.0120353 21.5109 0.148239 21.0649 0.376743 20.6886L0.377287 20.6877C0.878198 19.8653 1.73629 19.4104 2.59081 19.154C3.45523 18.8947 4.42446 18.805 5.30439 18.7916C6.1277 18.7791 6.90536 18.8331 7.49979 18.8938C7.44591 18.5917 7.39459 18.2375 7.35701 17.8394C7.2308 16.5021 7.25856 14.6556 7.87782 12.6215C8.58525 10.2917 10.0557 7.75432 12.8779 5.45624L12.879 5.45535C16.7179 2.34099 20.2601 1.17589 22.8714 0.801459C24.1738 0.614699 25.2384 0.625455 25.9859 0.685105C26.3596 0.71493 26.6543 0.756994 26.8601 0.792781C26.9631 0.810677 27.0438 0.827013 27.1012 0.839481C27.1299 0.845716 27.1528 0.850985 27.1696 0.855001L27.1904 0.860049L27.1974 0.861802L27.2 0.862473L27.2011 0.862757C27.2011 0.862757 27.2021 0.863004 27.0074 1.61602ZM6.03315 24.1844L6.0326 24.1834L6.03315 24.1844Z" fill="#484848"></path>
  <path fill-rule="evenodd" clip-rule="evenodd" d="M13.9848 4.83312C13.9852 4.83319 13.9855 4.83327 13.8241 5.59411C13.6627 6.35496 13.663 6.35503 13.6633 6.35509L13.6647 6.35537L13.6623 6.3549L13.6401 6.35072C13.6182 6.34675 13.5825 6.34061 13.5339 6.33338C13.4367 6.31893 13.2886 6.30024 13.0982 6.28604C12.7168 6.2576 12.1702 6.24754 11.5259 6.3238C10.2481 6.47504 8.60043 6.96313 7.07704 8.31129C6.6337 8.81445 6.57593 9.19532 6.61506 9.47094C6.66074 9.79269 6.86309 10.139 7.20592 10.4899C7.54227 10.8343 7.95516 11.1227 8.29868 11.3298C8.46759 11.4316 8.61337 11.5099 8.71532 11.562C8.76616 11.588 8.80572 11.6073 8.83136 11.6196L8.85894 11.6325L8.86387 11.6348C8.86366 11.6347 8.86343 11.6346 8.54486 12.3442C8.22628 13.0537 8.22602 13.0536 8.22574 13.0535L8.22353 13.0525L8.21918 13.0505L8.20578 13.0443C8.19481 13.0393 8.1798 13.0322 8.16109 13.0233C8.12371 13.0055 8.07145 12.9799 8.0071 12.947C7.87866 12.8813 7.70061 12.7855 7.49569 12.662C7.09153 12.4184 6.55677 12.0515 6.09316 11.5769C5.63604 11.1089 5.18613 10.4727 5.07495 9.68959C4.95799 8.86579 5.23564 8.02906 5.94939 7.23866L5.97726 7.20779L6.00827 7.18007C7.83368 5.54824 9.82062 4.95922 11.3431 4.77902C12.1035 4.68903 12.7517 4.70032 13.2139 4.73479C13.4454 4.75206 13.6313 4.77521 13.7627 4.79474C13.8284 4.80451 13.8805 4.81339 13.918 4.8202C13.9368 4.8236 13.9519 4.82649 13.9632 4.82872L13.9772 4.83154L13.9821 4.83255L13.984 4.83295L13.9848 4.83312Z" fill="#484848"></path>
  <path d="M22.0213 7.11622C22.5225 7.11819 22.9303 6.71354 22.9323 6.2124C22.9343 5.71126 22.5296 5.30341 22.0285 5.30143C21.5273 5.29945 21.1195 5.70411 21.1175 6.20525C21.1155 6.70639 21.5202 7.11424 22.0213 7.11622Z" fill="#484848"></path>
</svg>
