<?xml version="1.0" encoding="UTF-8"?>
<svg xmlns="http://www.w3.org/2000/svg" width="12" height="16" viewBox="0 0 12 16" fill="none">
  <path d="M1.0125 15.125V7.96392H2.13748V14H7.575V10.4606L9.48606 8.54232C9.86298 8.1654 10.155 7.73871 10.3622 7.26226C10.5695 6.78582 10.6731 6.28173 10.6731 5.75C10.6731 5.22596 10.5687 4.72692 10.3601 4.25288C10.1514 3.77883 9.86249 3.35335 9.49326 2.97642L8.88748 2.3519L6.4269 4.81248H3.61442L2.62065 5.80625L1.81875 5.0231L3.15433 3.68751H5.96681L8.88748 0.766846L10.2952 2.16732C10.7759 2.64808 11.1454 3.19447 11.4036 3.80648C11.6617 4.41851 11.7932 5.06635 11.798 5.75C11.7932 6.43365 11.6617 7.08148 11.4036 7.69351C11.1454 8.30552 10.7759 8.85191 10.2952 9.33267L8.69996 10.9207V15.125H1.0125ZM4.51153 11.7197L0.748556 7.96392C0.625481 7.84085 0.532456 7.69758 0.469481 7.53413C0.406493 7.37067 0.375 7.20096 0.375 7.025C0.375 6.84903 0.406493 6.68245 0.469481 6.52523C0.532456 6.36803 0.625481 6.2279 0.748556 6.10482L2.19375 4.6481L4.38892 6.81732C4.7245 7.1529 4.98195 7.53678 5.16128 7.96898C5.3406 8.4012 5.43026 8.85528 5.43026 9.33125C5.43026 9.77355 5.35334 10.1988 5.19951 10.607C5.04566 11.0151 4.81633 11.386 4.51153 11.7197Z" fill="#484848"></path>
</svg>
