<?xml version="1.0" encoding="UTF-8"?>
<svg xmlns="http://www.w3.org/2000/svg" width="16" height="11" viewBox="0 0 16 11" fill="none">
  <path fill-rule="evenodd" clip-rule="evenodd" d="M0.527276 10.6156C0.442419 10.7853 0.56583 10.985 0.755576 10.985H6.566C6.75574 10.985 6.87916 10.7853 6.7943 10.6156L3.88909 4.80516C3.79502 4.61703 3.52655 4.61703 3.43249 4.80516L0.527276 10.6156ZM3.66079 6.06081L1.58157 10.2192H5.74L3.66079 6.06081Z" fill="#484848"></path>
  <path fill-rule="evenodd" clip-rule="evenodd" d="M3.66087 3.07212C4.22475 3.07212 4.68186 2.61501 4.68186 2.05113C4.68186 1.48726 4.22475 1.03014 3.66087 1.03014C3.097 1.03014 2.63989 1.48726 2.63989 2.05113C2.63989 2.61501 3.097 3.07212 3.66087 3.07212ZM3.66087 3.83786C4.64766 3.83786 5.4476 3.03791 5.4476 2.05113C5.4476 1.06435 4.64766 0.264404 3.66087 0.264404C2.67409 0.264404 1.87415 1.06435 1.87415 2.05113C1.87415 3.03791 2.67409 3.83786 3.66087 3.83786Z" fill="#484848"></path>
  <path fill-rule="evenodd" clip-rule="evenodd" d="M15.4727 4.71767C15.5576 4.54796 15.4342 4.34827 15.2444 4.34827L9.434 4.34827C9.24426 4.34827 9.12085 4.54796 9.2057 4.71767L12.1109 10.5281C12.205 10.7162 12.4734 10.7162 12.5675 10.5281L15.4727 4.71767ZM12.3392 9.27244L14.4184 5.11401L10.26 5.11401L12.3392 9.27244Z" fill="#484848"></path>
  <path fill-rule="evenodd" clip-rule="evenodd" d="M12.2683 3.07212C12.8322 3.07212 13.2893 2.61501 13.2893 2.05113C13.2893 1.48726 12.8322 1.03014 12.2683 1.03014C11.7044 1.03014 11.2473 1.48726 11.2473 2.05113C11.2473 2.61501 11.7044 3.07212 12.2683 3.07212ZM12.2683 3.83786C13.2551 3.83786 14.055 3.03791 14.055 2.05113C14.055 1.06435 13.2551 0.264404 12.2683 0.264404C11.2815 0.264404 10.4816 1.06435 10.4816 2.05113C10.4816 3.03791 11.2815 3.83786 12.2683 3.83786Z" fill="#484848"></path>
  <path d="M7.4895 2.56164C7.4895 2.42067 7.60378 2.3064 7.74475 2.3064H8C8.14096 2.3064 8.25524 2.42067 8.25524 2.56164V9.70856C8.25524 9.84952 8.14096 9.9638 8 9.9638H7.74475C7.60378 9.9638 7.4895 9.84952 7.4895 9.70856V2.56164Z" fill="#484848"></path>
</svg>
