<?xml version="1.0" encoding="UTF-8"?>
<svg xmlns="http://www.w3.org/2000/svg" width="25" height="24" viewBox="0 0 25 24" fill="none">
  <path d="M14.25 21V19.5688L14.25 15.4037H12C10.7513 15.4037 9.68911 14.9859 8.81345 14.1504C7.93782 13.315 7.5 12.3015 7.5 11.1101C7.5 10.211 7.78142 9.39818 8.34425 8.67158C8.90707 7.94498 9.62951 7.40491 10.5116 7.05139C10.6551 5.82814 11.1449 4.84711 11.9808 4.10827C12.8167 3.36943 13.8231 3 15 3C16.1769 3 17.1833 3.36943 18.0192 4.10827C18.8551 4.84711 19.3449 5.82814 19.4884 7.05139C20.3769 7.39267 21.101 7.92967 21.6606 8.6624C22.2202 9.39512 22.5 10.211 22.5 11.1101C22.5 12.3015 22.0622 13.315 21.1865 14.1504C20.3109 14.9859 19.2487 15.4037 18 15.4037H15.75L15.75 19.5688V21H14.25ZM12 13.9725H18C18.8333 13.9725 19.5417 13.6942 20.125 13.1376C20.7084 12.5811 21 11.9052 21 11.1101C21 10.4948 20.8019 9.94403 20.4058 9.45778C20.0096 8.97154 19.5077 8.61099 18.9 8.37613L18.1 8.05688L17.9885 7.19818C17.8821 6.3419 17.5545 5.66666 17.0058 5.17247C16.4571 4.67827 15.7885 4.43118 15 4.43118C14.2115 4.43118 13.5429 4.67827 12.9942 5.17247C12.4455 5.66666 12.1179 6.3419 12.0115 7.19818L11.9 8.05688L11.0231 8.41284C10.441 8.6477 9.95832 9.00519 9.57498 9.48531C9.19165 9.96545 8.99998 10.507 8.99998 11.1101C8.99998 11.9052 9.29165 12.5811 9.87498 13.1376C10.4583 13.6942 11.1667 13.9725 12 13.9725Z" fill="#484848"></path>
  <path d="M7.5 12.8317C7.5 12.0405 8.37525 11.5627 9.04076 11.9905L9.43612 12.2447C9.68762 12.4063 9.99825 12.447 10.2829 12.3555L13.194 11.4198C13.8395 11.2123 14.5 11.6938 14.5 12.3718V19C14.5 19.5523 14.0523 20 13.5 20H8.5C7.94772 20 7.5 19.5523 7.5 19V12.8317Z"></path>
  <path d="M2.5 21V12.6152L4.90385 11L6.82693 12.29L8.75001 11L10.6731 12.29L12.5962 11L15 12.6152V21H2.5ZM3.46154 20.14H6.34619V13.0452L4.90385 12.0749L3.46152 13.0452V20.14H3.46154ZM7.3077 20.14H10.1923V13.0452L8.75001 12.0749L7.30768 13.0452V20.14H7.3077ZM11.1539 20.14H14.0385V13.0452L12.5962 12.0749L11.1538 13.0452L11.1539 20.14Z" fill="#484848"></path>
</svg>
