<?xml version="1.0" encoding="UTF-8"?>
<svg xmlns="http://www.w3.org/2000/svg" viewBox="0 0 37 36" fill="none">
  <path d="M11.1073 15.6372L7.6073 15.6234C7.61139 14.5864 8.00815 12.5916 9.56246 12.9089C11.1168 13.2261 11.24 14.8599 11.1073 15.6372Z" fill="#B7DFB9"></path>
  <path d="M19.6476 19.5599C18.4032 19.555 14.1879 23.4273 12.2358 25.3641C12.2353 25.4937 12.6222 25.9878 14.1741 26.9273C15.7259 27.8667 18.7187 25.0007 20.0212 23.4503L23.8947 27.3545L25.8499 24.64L25.4702 22.3051C24.0478 21.3921 20.8921 19.5648 19.6476 19.5599Z" fill="#B7DFB9"></path>
  <path d="M34.4526 6.87872C34.4328 6.81178 34.4 6.7494 34.3561 6.69513C34.3122 6.64087 34.2581 6.59578 34.1967 6.56245C34.1354 6.52911 34.0681 6.50819 33.9987 6.50086C33.9293 6.49354 33.8591 6.49995 33.7922 6.51975L27.7371 8.31023C24.7451 9.19538 21.6398 9.63868 18.5196 9.6261C17.8154 9.62333 17.1039 9.59547 16.3989 9.54599L16.3671 9.44953C16.3322 9.34358 16.2649 9.25127 16.1747 9.1857C16.0845 9.12012 15.9759 9.08459 15.8643 9.08415L13.7384 9.07576C13.6165 9.07534 13.4981 9.11694 13.4031 9.19356C12.0203 8.96436 10.654 8.64503 9.31283 8.23763L3.27213 6.39946C3.13727 6.3584 2.99162 6.3726 2.86723 6.43892C2.74284 6.50525 2.64989 6.61828 2.60883 6.75313C2.56778 6.88799 2.58197 7.03364 2.6483 7.15803C2.71463 7.28242 2.82765 7.37537 2.96251 7.41643L9.00335 9.2546C10.2669 9.63867 11.5523 9.94709 12.8526 10.1782L12.7262 10.4285C12.689 10.5022 12.6695 10.5835 12.6692 10.666C12.6688 10.7485 12.6877 10.83 12.7243 10.9039L13.196 11.8565L13.1845 14.759L11.5807 17.1443L11.5832 16.508C11.7242 16.5086 11.8596 16.4531 11.9596 16.3539C12.0597 16.2546 12.1162 16.1196 12.1168 15.9787L12.121 14.9157C12.1237 14.2109 11.8464 13.5339 11.35 13.0336C10.8537 12.5333 10.1788 12.2506 9.47407 12.2478C8.76929 12.2451 8.09227 12.5224 7.59195 13.0188C7.09163 13.5152 6.80899 14.19 6.80621 14.8947L6.80202 15.9577C6.80146 16.0987 6.85692 16.2341 6.9562 16.3341C7.05548 16.4342 7.19044 16.4907 7.3314 16.4913L7.3272 17.5542C7.32628 17.8991 7.40916 18.2391 7.56873 18.5449C7.72829 18.8507 7.95975 19.1132 8.2432 19.3097C8.07488 19.4887 7.92137 19.681 7.78419 19.8848C7.63467 20.1071 7.53334 20.3583 7.48671 20.6221C7.44008 20.8859 7.44919 21.1566 7.51345 21.4167C7.57771 21.6768 7.69569 21.9206 7.85982 22.1324C8.02394 22.3441 8.23057 22.5192 8.46642 22.6463C8.48399 22.6719 8.50377 22.696 8.52553 22.7181L12.5147 26.7388C12.8089 27.037 13.1594 27.2739 13.5458 27.4358C13.9322 27.5976 14.3468 27.6812 14.7658 27.6817L14.7923 27.6819C15.5648 27.685 16.312 27.4075 16.8953 26.9012L20.0322 24.1781L23.3877 27.5601L25.5052 29.6944C25.5544 29.7439 25.6128 29.7833 25.6772 29.8103C25.7416 29.8372 25.8106 29.8513 25.8804 29.8515C25.9502 29.8518 26.0194 29.8383 26.084 29.8119C26.1486 29.7854 26.2073 29.7465 26.2569 29.6973L29.4583 26.5211C29.5079 26.4719 29.5472 26.4135 29.5742 26.3491C29.6012 26.2847 29.6152 26.2157 29.6155 26.1459C29.6157 26.0761 29.6023 26.0069 29.5758 25.9423C29.5493 25.8777 29.5104 25.819 29.4613 25.7694L28.7665 25.0691L29.6024 22.5938C29.634 22.5003 29.6389 22.3998 29.6166 22.3036C29.5943 22.2075 29.5457 22.1194 29.4762 22.0494L28.4174 20.9822C28.3389 20.903 28.2374 20.8505 28.1274 20.8322C28.0173 20.8139 27.9043 20.8307 27.8043 20.8801L25.8931 21.8262L21.6232 20.0117C21.1881 19.6193 20.6525 19.3556 20.0761 19.2502L20.0826 17.6045C20.0831 17.493 20.0484 17.3841 19.9835 17.2934C19.9187 17.2026 19.8269 17.1345 19.7212 17.0989L18.5734 16.7113C18.5734 16.7113 19.0321 14.4464 19.0322 14.4115L19.0469 10.6863C22.0923 10.6499 25.118 10.1935 28.0385 9.32974L34.0937 7.5392C34.1606 7.5194 34.223 7.48661 34.2773 7.4427C34.3315 7.3988 34.3766 7.34463 34.4099 7.2833C34.4433 7.22196 34.4642 7.15467 34.4715 7.08525C34.4788 7.01583 34.4724 6.94565 34.4526 6.87872ZM17.984 10.6818L17.9695 14.3547L17.8308 15.0344L16.7139 11.7449L16.8618 11.4518C16.8933 11.3895 16.9122 11.3216 16.9174 11.252C16.9226 11.1824 16.9141 11.1124 16.8923 11.0461L16.7568 10.6342C17.1656 10.6575 17.5746 10.6734 17.984 10.6818ZM10.1011 22.797C10.6949 22.6636 11.2388 22.3648 11.6699 21.9353L13.1179 20.4987L14.5685 22.3267L12.082 24.7936L10.1011 22.797ZM8.66624 20.4779C8.9003 20.1293 9.19621 19.8265 9.53934 19.5844C9.54871 19.5782 9.55788 19.5716 9.56685 19.5646C9.78339 19.4152 10.0163 19.2909 10.261 19.1943L11.4464 18.7254L12.4134 19.7002L10.9212 21.1807C10.7181 21.3833 10.4768 21.5436 10.2114 21.6523C9.9459 21.7611 9.66149 21.8161 9.37462 21.8142C9.21937 21.8136 9.06719 21.7708 8.93432 21.6905C8.80145 21.6102 8.69286 21.4954 8.62015 21.3582C8.54744 21.221 8.51333 21.0667 8.52146 20.9117C8.52959 20.7566 8.57958 20.6067 8.66624 20.4779ZM13.8314 19.6877L16.2684 16.304C16.3331 16.2141 16.3681 16.1062 16.3686 15.9954L16.3762 14.0565L17.3059 16.7949L16.6579 17.1157C16.5695 17.1595 16.495 17.227 16.4428 17.3108C16.3905 17.3945 16.3627 17.4912 16.3623 17.5899L16.3588 18.4663L14.5963 20.6517L13.8314 19.6877ZM14.1565 15.2186C14.2151 15.1315 14.2465 15.029 14.2469 14.9241L14.2594 11.7352C14.2598 11.6527 14.2409 11.5713 14.2042 11.4973L13.7949 10.6704L14.0627 10.14L15.4771 10.1456L15.4996 10.214C15.5003 10.2161 15.5009 10.2182 15.5016 10.2202L15.8138 11.1691L15.3774 12.0334C15.3402 12.1071 15.3206 12.1884 15.3203 12.2709L15.3063 15.821L13.1005 18.8834L12.2611 18.0374L14.1565 15.2186ZM7.86916 14.8989C7.87083 14.4761 8.04041 14.0712 8.3406 13.7734C8.64079 13.4755 9.04701 13.3091 9.46987 13.3108C9.89274 13.3125 10.2976 13.4821 10.5955 13.7822C10.8933 14.0824 11.0597 14.4886 11.058 14.9115L11.0559 15.443L7.86706 15.4304L7.86916 14.8989ZM10.5202 16.5038L10.5161 17.5668C10.5155 17.7107 10.4857 17.853 10.4285 17.985L9.87011 18.2058C9.61448 18.3069 9.36859 18.431 9.13546 18.5767C8.9189 18.5086 8.72978 18.3731 8.5957 18.1899C8.46162 18.0067 8.3896 17.7854 8.39015 17.5584L8.39435 16.4955L10.5202 16.5038ZM19.7112 23.0494L16.1987 26.0982C15.8099 26.4359 15.3117 26.6209 14.7967 26.6189L14.7702 26.6188C14.4909 26.6185 14.2144 26.5627 13.9568 26.4548C13.6992 26.3469 13.4656 26.189 13.2694 25.9902L12.8307 25.5482L15.6377 22.763L18.0772 20.7468C18.4605 20.4302 18.9426 20.2578 19.4398 20.2594L19.5029 20.2597C19.7822 20.26 20.0587 20.3157 20.3163 20.4236C20.5739 20.5315 20.8075 20.6895 21.0037 20.8883L25.1479 25.0653L23.7682 26.4341L20.4369 23.0764C20.3419 22.9807 20.2141 22.9246 20.0793 22.9196C19.9446 22.9146 19.813 22.961 19.7112 23.0494ZM25.8857 28.5685L24.5169 27.1887L26.1848 25.5339L27.3501 25.1506L28.3326 26.1408L25.8857 28.5685ZM27.9326 22.0026L28.4902 22.5646L27.9291 24.2252L27.8731 24.1687C27.8035 24.0986 27.7159 24.0493 27.6199 24.0262C27.5239 24.0032 27.4234 24.0073 27.3297 24.0381L26.4339 24.3329L26.4402 22.7414L27.9326 22.0026ZM25.3731 23.783L23.6185 22.0146L25.3771 22.7619L25.3731 23.783ZM19.0133 19.2244C18.4202 19.3031 17.8611 19.5467 17.3996 19.9276L15.3601 21.6136L15.2741 21.5051L17.3037 18.9885C17.3793 18.8945 17.4207 18.7776 17.421 18.657L17.4239 17.9225L17.9973 17.6387L19.0182 17.9834L19.0133 19.2244Z" fill="#484848"></path>
</svg>
